<svg xmlns="http://www.w3.org/2000/svg" width="520" height="520" viewBox="0 0 520 520"><defs><style>.cls-1{fill:#231f20;}</style></defs><title>Notioly New</title><g id="_173.Announcement" data-name="173.Announcement"><path class="cls-1" d="M127.51,284.68c.37,1.63.73,3.25,1.07,4.88s.67,3.26,1,4.89c.24,1.19.53,2.37.74,3.57.78,4.2,1.45,8.42,2.14,12.63.32,1.87.65,3.74,1,5.6.21,1.18.46,2.37.64,3.56s.3,2.4.43,3.6c.07.75-.16.69-.54.12a11.24,11.24,0,0,1-1.36-3c-.61-2.4-1-4.83-1.46-7.25s-.78-4.87-1.13-7.33c-.42-2.94-1.11-5.95-1.71-8.92-.66-3.26-1.35-6.53-2.09-9.78-.49-2-.93-4-1.47-6-.4-1.5-.78-3-1.22-4.5s-.83-3-1.34-4.45c-.38-1.13-.75-2.26-1.18-3.36s-.9-2.18-1.28-3.3c-.17-.49-.38-1-.57-1.44-.69-1.81-.79-2.45-.66-3a2.14,2.14,0,0,1,.08-.34c.12-.25.65.39,1.34,1.66A68.55,68.55,0,0,1,125,274.91c.49,1.6,1,3.23,1.36,4.86s.85,3.26,1.23,4.9Z"/><path class="cls-1" d="M149.09,258.86a52.14,52.14,0,0,1,0-9c.1-1.1.2-2.19.38-3.28a29.46,29.46,0,0,1,3.88-10.94,15.76,15.76,0,0,1,3.43-3.94,12.64,12.64,0,0,1,2.87-1.78,7.72,7.72,0,0,1,1.61-.51l.82-.17.84-.07c.69,0,.61.18.09.54a25.3,25.3,0,0,1-2.45,1.38c-3.78,1.63-6.41,5.18-8.08,9.15a30.88,30.88,0,0,0-1.92,7.75,51.34,51.34,0,0,0-.43,8.86,43,43,0,0,0,.53,5.44,18.1,18.1,0,0,0,2.92,7.6,22.53,22.53,0,0,0,4.25,4.57c.36.3.71.58,1.08.86,1.33,1.07,1.71,1.48,1.85,1.94a1.57,1.57,0,0,1,.09.32c0,.27-.7.07-1.84-.59a20,20,0,0,1-4.58-3.88,20.56,20.56,0,0,1-3.3-5.26,19.79,19.79,0,0,1-1.41-4.44c-.28-1.51-.49-3-.64-4.53Z"/><path class="cls-1" d="M183.06,314.41c-2.32.7-4.62,1.49-6.9,2.35-.83.31-1.63.69-2.46,1-2.91,1.15-5.81,2.38-8.68,3.66-1.27.57-2.52,1.22-3.75,1.84-1.6.78-3.18,1.61-4.82,2.32-.51.22-.52,0-.2-.35a9.07,9.07,0,0,1,1.85-1.56c.77-.48,1.54-1,2.33-1.45s1.61-.86,2.42-1.29c1.61-.85,3.29-1.6,5-2.34,2.05-.84,4.1-1.87,6.18-2.72,2.29-1,4.62-1.83,7-2.64,1.44-.5,2.91-.94,4.37-1.38a66.1,66.1,0,0,1,6.79-1.57c.88-.18,1.78-.28,2.66-.44a20.68,20.68,0,0,1,2.74-.16,6.39,6.39,0,0,1,1.23.07c1.58.2,2,.77,2.07,1.32a1.76,1.76,0,0,1,0,.38c-.06.36-.74.49-1.63.34a29.19,29.19,0,0,0-9.13.79c-2.35.49-4.7,1.13-7,1.86Z"/><path class="cls-1" d="M182.15,387.73s-11.3,2.87-10,17.55c.89,10.22,8.63,9.83,12.07,8.5,4.08-1.58,8.26-8.17,5.49-14.83S187,387.73,182.15,387.73Z"/><path class="cls-1" d="M103.65,286.65c1.25,4.28,2.42,8.57,3.55,12.88.41,1.57.9,3.11,1.29,4.69.52,2.13,1,4.26,1.47,6.41.23,1.07.45,2.15.66,3.23.1.55.2,1.09.29,1.65,0,.27.09.54.13.83l.06.43,0,.21s0,.08,0,.06v0a1.93,1.93,0,0,1,0,.34v.09l.07,0,.16.08c.14.09,1.11.44,1.85.7a62.59,62.59,0,0,1,7.13,3c1.47.74,2.94,1.47,4.34,2.32.71.41,1.39.86,2.07,1.31a18.83,18.83,0,0,1,1.89,1.58c.75.71.4,1-.63,1a11.77,11.77,0,0,1-2-.13,7.58,7.58,0,0,1-2.37-.86c-2.2-1.22-4.44-2.35-6.7-3.34-1.13-.51-2.25-1-3.41-1.47l-1.78-.67-.93-.36-.72-.29-.82-.36a10.22,10.22,0,0,1-.54-1.13l-.45-1.15-.05-.15a.67.67,0,0,1,0-.17l0-.15,0-.32c0-.21,0-.42-.07-.64l-.18-1.34a119.47,119.47,0,0,0-2.8-11.74c-1.12-4.3-2.28-8.61-3.52-12.89-.76-2.63-1.54-5.26-2.37-7.88-1.26-3.95-2.54-7.92-4-11.75a79.55,79.55,0,0,0-4-8.54l-1-1.78L89.44,259a7.11,7.11,0,0,1-.43-1,3.47,3.47,0,0,1-.07-1.41c0-.19,0-.41,0-.54s.27-.22.86,0a2.94,2.94,0,0,1,1,.51,4,4,0,0,1,1,1,36.81,36.81,0,0,1,4.45,7.8c1.23,2.75,2.32,5.57,3.34,8.43,1.53,4.23,2.87,8.53,4.19,12.83Z"/><path class="cls-1" d="M159.38,185.8s-.78-.88-2.93.4c-3,1.81-3.45,6.29-3,8.76s6.86-.39,6.86-.39-7.11,3.19-8.32,3.2-2.79-2.66-1.43-7.9,2.53-6.22,4-6.74,3.17-.81,4.3.44A1.89,1.89,0,0,1,159.38,185.8Z"/><path class="cls-1" d="M153.57,133.73c7,34,41.42,63.76,51.72,66.1,2.72.61,9.27-3.45,10.31-6.24.72-1.92-2.46-2-6.72-3.33s-18.18-9.65-23.77-16.46S160.23,145,159,141.09,153.57,133.73,153.57,133.73Z"/><path class="cls-1" d="M153.4,131.16s-5.8,3.63-17.48,4.23-25.4-1.77-26-2.77-2.27,3.43-2.27,3.43S103.4,155.17,98,165.12s-17.58,29-22.77,35.45-18.13,20.81-20.81,20.71-.07,3,6.21,6c11,5.26,37.35,3.33,44.7,1s14.39-12.09,18.54-17.83,19.64-27.08,24.73-44.19C153.35,150.44,154,135.61,153.4,131.16ZM120.82,179.3c-4.94,6.08-8.82,6-11.64,4.85-2-.8-2.47-3-2.84-4.7,0,0-6.9,6.07-11.1,5.19-3.24-.68-2-4.15-1.6-4.86A5.36,5.36,0,0,1,95,178.69c.23.85-2.06,4.44,1.9,4.1s10.5-7.11,10.61-6.51c.24,1.24.2,5.8,4,5.84,4,.06,6.57-2.55,9.36-4.88C121.19,176.91,120.9,179.2,120.82,179.3Zm14.88-18.74a12.76,12.76,0,0,1-8.82,5.54c-4.27.52-6.35-2.25-7.17-6,0,0-8,7-12.82,6-3.75-.79-2.36-4.81-1.85-5.62a5.94,5.94,0,0,1,1.53-1.26c.27,1-2.38,5.13,2.2,4.73s12.13-8.21,12.26-7.52c.28,1.43.37,6.82,4.74,6.87,4.59.06,6.69-2.4,9.92-5.1C136.13,157.81,135.78,160.44,135.7,160.56Z"/><path class="cls-1" d="M126,134.17a56.54,56.54,0,0,0,6.89,0c.84,0,1.67-.19,2.51-.26a76.15,76.15,0,0,0,8.87-1.19,28.5,28.5,0,0,0,3.79-1.12c.79-.29,1.55-.64,2.31-1s1.55-.57,2.32-.87c.49-.15.7.26.58.94a3.45,3.45,0,0,1-.47,1.17A2.66,2.66,0,0,1,151.7,133a32.66,32.66,0,0,1-10.44,3c-2.14.25-4.33.71-6.52.92a65,65,0,0,1-7.25.27c-1.49,0-3-.12-4.47-.24a50.56,50.56,0,0,1-6.7-1.09,28,28,0,0,1-5.13-1.48,12,12,0,0,1-1.09-.52c-1.31-.79-1.5-1.38-1.26-2.12a3.82,3.82,0,0,1,.18-.51c.29-.5,1-.51,1.88-.17a44.4,44.4,0,0,0,8.28,2.35,50.25,50.25,0,0,0,6.77.72Z"/><path class="cls-1" d="M79.06,191.86q4.75-6.65,8.93-13.71c1-1.73,1.92-3.49,2.87-5.24A175.33,175.33,0,0,0,100.12,154c1.2-2.88,2.21-5.85,3.13-8.8.55-1.91,1.13-3.81,1.64-5.73s1.06-3.83,1.78-5.71c.49-1.16.85-.92,1.21.25a12.76,12.76,0,0,1,.43,2.36,10.65,10.65,0,0,1-.29,3.19c-.46,2-1,4-1.6,6s-1.3,3.94-2.06,5.87a115.15,115.15,0,0,1-5,11.4C97.13,167.26,95,172,92.51,176.4c-2.72,4.88-5.67,9.63-8.79,14.26-1.92,2.85-3.94,5.63-6,8.38-3.13,4.16-6.49,8.16-10,12a84.49,84.49,0,0,1-8.5,8.53c-.7.56-1.37,1.14-2.14,1.65a9.74,9.74,0,0,1-3.31,1.62,2.36,2.36,0,0,1-1,.06,2.62,2.62,0,0,1-.81-.36,3.12,3.12,0,0,1-.57-.39c-.21-.22,0-.54.4-1a11.66,11.66,0,0,1,2-1.5,53.17,53.17,0,0,0,7.82-6.73c2.52-2.53,5-5.24,7.34-8,3.5-4.17,6.87-8.53,10-13Z"/><path class="cls-1" d="M113.16,222.23a156.42,156.42,0,0,0,16.09-19.9c1.82-2.54,3.33-5.28,5-7.91A136.19,136.19,0,0,0,148,164.49c.66-2.35,1.46-4.68,1.9-7.08l.75-3.58c.11-.6.27-1.19.35-1.79l.24-1.8.62-4.62c.18-1.55.2-3.11.32-4.66.3-3.1.19-6.2.45-9.32.1-1.94.59-1.73,1.2-.1a20.32,20.32,0,0,1,1.48,8.44,98.28,98.28,0,0,1-9.14,37.92c-1.54,3.61-3.35,7.16-5.1,10.77-1,1.77-1.91,3.53-2.87,5.3s-2.05,3.45-3.07,5.16a162.08,162.08,0,0,1-15.73,21.09l-2.7,3c-.92,1-1.88,1.94-2.82,2.91-1.84,2-3.86,3.77-5.82,5.63l-.68.64-.87.38c-.49.23-1,.39-1.49.58-1,.35-2,.63-3,.88a59,59,0,0,1-6.11,1.12,104.66,104.66,0,0,1-12.22.83,106.32,106.32,0,0,1-18.78-1.09c-1.37-.25-2.73-.48-4.1-.85-5.08-1.49-6.57-3-6.91-4.37a4.25,4.25,0,0,1-.2-.88c0-.37.51-.27,1.32,0s2,.78,3.73,1.29a72.47,72.47,0,0,0,16.2,2.47A118.92,118.92,0,0,0,92,232.54a52.08,52.08,0,0,0,12.22-2.36c.22-.09.47-.16.68-.26l.59-.26c.07,0-.06.07.17-.14l.59-.55,2.34-2.21c.8-.72,1.55-1.48,2.29-2.26l2.24-2.32Z"/><path class="cls-1" d="M185.56,175.81c-3.47-3.26-6.74-6.7-9.93-10.21-1.18-1.27-2.35-2.55-3.47-3.86A132.23,132.23,0,0,1,161.35,147c-1.5-2.24-2.85-4.61-4.26-6.9-.84-1.51-1.62-3.07-2.4-4.61a27.42,27.42,0,0,1-1.69-4.94c-.27-1,.18-1,1-.41a13,13,0,0,1,1.52,1.37,10.1,10.1,0,0,1,.84,1c.25.36.47.77.7,1.18l2.55,4.42c.91,1.43,1.79,2.89,2.67,4.36,1.86,2.86,3.72,5.75,5.67,8.63a50.22,50.22,0,0,0,3.82,5c1.33,1.66,2.81,3.22,4.21,4.82,3.08,3.53,6.33,6.91,9.69,10.18,1,1,2.11,2,3.16,3s2.11,2,3.23,2.87c1.69,1.39,3.31,2.87,5.07,4.16l2.61,2c.87.66,1.79,1.22,2.69,1.83.7.46,1.41.91,2.12,1.35s1.46.79,2.19,1.18l2.19,1.15c.73.38,1.5.67,2.24,1s1.32.55,2,.86c2.45,1,3.1,1.67,3.38,2.67a3.89,3.89,0,0,1,.19.68c.05.68-1.18.79-3.28.35a10.06,10.06,0,0,1-2.26-.7l-2.2-.91a40.9,40.9,0,0,1-4.29-2.15c-.7-.4-1.42-.77-2.1-1.2l-2-1.32c-1.36-.88-2.72-1.77-4-2.76L193.7,183c-.95-.75-1.86-1.53-2.79-2.3-1.87-1.51-3.63-3.15-5.41-4.77Z"/><path class="cls-1" d="M183.17,190.62a132.49,132.49,0,0,1-11-12.53c-1.24-1.6-2.5-3.19-3.66-4.86a103.09,103.09,0,0,1-10.23-18.8c-1.23-2.92-2.31-5.93-3.26-8.93a46,46,0,0,1-2.37-11.91c-.07-1.26.59-1.14,1.34-.17a8.45,8.45,0,0,1,1.12,2,14.85,14.85,0,0,1,.93,2.93,94.92,94.92,0,0,0,8.09,22.53,86.37,86.37,0,0,0,8,12.52A125.3,125.3,0,0,0,182.69,186c2.34,2.43,4.78,4.78,7.32,7a81,81,0,0,0,12.28,9.08c.85.48,1.71.94,2.58,1.34.21.11.43.21.65.3l.49.2.18.06c.06,0,.12,0,.17,0l.47-.18a30,30,0,0,0,5.13-2.37,18.66,18.66,0,0,0,1.95-1.35,25.51,25.51,0,0,0,2.22-2,3,3,0,0,1,1.38-.82,3.94,3.94,0,0,1,.67-.21c.34,0,.51.31.45,1a5.83,5.83,0,0,1-1.28,2.79,14.54,14.54,0,0,1-4.57,3.75,32.15,32.15,0,0,1-5.3,2.27l-1.28.41c-.21.14-.41-.06-.62-.12l-.61-.27-.87-.39c-.23-.1-.44-.21-.66-.32-.87-.42-1.72-.88-2.56-1.36-1.65-1-3.27-2-4.82-3.11a108,108,0,0,1-12.93-10.9Z"/><path class="cls-1" d="M127.08,290.8c-.57-2.35-1.08-4.71-1.7-7.05s-1.26-4.66-2-7c-.53-1.69-1.15-3.34-1.67-5-2-5.9-4.06-11.76-6.59-17.44-1.17-2.5-2.38-5-3.71-7.39-.4-.78-.86-1.53-1.31-2.28s-.87-1.53-1.35-2.25c-.89-1.5-1.72-3.07-2.66-4.47-.57-.86-.22-1.1.77-.7a6.29,6.29,0,0,1,.87.43c.29.19.62.41,1,.67a10.43,10.43,0,0,1,2.06,2,82.16,82.16,0,0,1,5.53,9.55c.79,1.66,1.56,3.32,2.24,5s1.39,3.4,2,5.14c.74,2.08,1.58,4.16,2.34,6.28l1.2,3.16c.38,1.06.73,2.14,1.08,3.2l1.14,3.52c.36,1.18.68,2.38,1,3.56l1,3.56c.33,1.19.6,2.4.9,3.59l1.08,4.42.94,4.45.71,3.38c.24,1.12.4,2.26.6,3.39.38,2.27.84,4.51,1.19,6.76.27,1.75.58,3.48.9,5.2l.49,2.58c.15.87.26,1.73.39,2.6s.24,1.51.33,2.29a10.35,10.35,0,0,1,.12,1.82,8.31,8.31,0,0,1-.1,1.25,2.48,2.48,0,0,1-.64,1.42,3.62,3.62,0,0,1-.43.44c-.48.31-1.09-.81-1.64-2.86-.72-3-1-6.19-1.64-9.36-.25-1.59-.51-3.19-.76-4.8s-.58-3.2-.86-4.81c-.81-4.79-1.81-9.57-2.9-14.31Z"/><path class="cls-1" d="M101.43,281c1.68,5.48,3,11,4.17,16.64.41,2,.83,4.08,1.2,6.13.44,2.54.72,5.1,1.09,7.65.19,1.27.28,2.56.42,3.84l.2,1.91.1,1,0,.45c0,.06,0,.11,0,.19s0,.26.12.28l.33.12,1.43.41,3.14.92c3.12.94,6.25,1.95,9.27,3.15,3.84,1.59,7.75,3.48,10.78,6.53.92,1,.39,1.2-.75.87a26.63,26.63,0,0,1-5-2.13,46.38,46.38,0,0,0-5-2.39c-1.73-.71-3.47-1.41-5.26-2s-3.59-1.2-5.41-1.75l-2.76-.81-1.71-.51-.6-.23a2.63,2.63,0,0,1-.4-.42l-.08-.11,0-.06v0h0l-.13.1v0l-.1-.27a2.7,2.7,0,0,1-.18-.57c-.08-.31-.08-.66-.13-1l-.05-.54-.09-1.08c-.21-2.51-.49-5.07-.94-7.62l-.63-3.83c-.24-1.28-.49-2.55-.73-3.81-1-5.58-2.36-11.1-3.87-16.57-.5-1.67-1-3.36-1.5-5l-1.67-5a128.55,128.55,0,0,0-6.24-14.56,89.4,89.4,0,0,0-6.32-10.29l-1.54-2.13c-1.89-2.69-2.42-3.6-2.33-4.59a3.3,3.3,0,0,1,.06-.66c.18-.57,1.4.21,3.08,2.07a61,61,0,0,1,6.58,9.2,104.71,104.71,0,0,1,5.38,10.3,152,152,0,0,1,6.15,16.23Z"/><path class="cls-1" d="M202.69,309.41l.13,1.71-.36,1.37v0h0s-.24-.17-.13-.08h0v0l0,.08-.07.14a.47.47,0,0,1-.21.25,2.51,2.51,0,0,1-.68.31,13.15,13.15,0,0,1-1.72.27l-1.1.14c-1.21.16-2.41.34-3.62.55-2.41.42-4.81.95-7.2,1.55-1.86.47-3.69,1.06-5.54,1.6a190.2,190.2,0,0,0-19.25,6.76c-2.81,1.15-5.57,2.43-8.27,3.75-3.47,1.69-6.87,3.56-10.42,5.09-2.22,1-.59-2.52,3.39-4.61a169.18,169.18,0,0,1,21.92-9.57c4.54-1.57,9.2-3.39,13.92-4.79,2.6-.77,5.22-1.46,7.87-2.05,1.32-.3,2.66-.56,4-.81l2-.33,1-.15.46-.07.23,0,.56-.07c.14,0,.11-.11.1-.2V310l-.59-6.92c-.44-5-.77-10-1-15-.19-3.88-.44-7.69-.44-11.55,0-.85,0-1.68,0-2.54.25-3.17.67-4.15,1.48-4.74a3.43,3.43,0,0,1,.55-.4c.59-.24,1,1.09,1.09,3.37.12,1.7.11,3.4.14,5.12s.08,3.46.11,5.21c.1,3.5.25,7.06.48,10.62q.26,4,.58,8l.7,8.22Z"/><path class="cls-1" d="M177,363.42c-.12-3.8-.25-7.6-.46-11.38-.08-1.38-.26-2.76-.34-4.13-.29-4.87-.63-9.72-1.29-14.53a54.88,54.88,0,0,0-1.27-6.3c-.39-1.3-.73-2.63-1.2-3.88-.22-.64-.41-1.29-.61-1.93a19.31,19.31,0,0,1-.6-1.91c-.21-.8.57-1.08,1.6-.73a4.83,4.83,0,0,1,2.88,3,65.17,65.17,0,0,1,3.06,17.09c.16,3.45.73,7,1,10.47.29,3.84.5,7.68.68,11.51.11,2.37.23,4.73.34,7.09.18,3.57.29,7.16.54,10.7.21,2.75.62,5.43.94,8.14.07.6.16,1.18.2,1.79.16,2.23,0,3-.94,3.5a4.76,4.76,0,0,1-.6.36c-.7.26-1.35-.62-1.69-2.25a103.77,103.77,0,0,1-1.77-15.09c-.24-3.82-.35-7.66-.55-11.49Z"/><path class="cls-1" d="M189.12,412.08a11.69,11.69,0,0,1-6,3.95,10.89,10.89,0,0,1-7-.59,8.61,8.61,0,0,1-1.15-.53l-.56-.29-.51-.33a12,12,0,0,1-2-1.47,15.49,15.49,0,0,1-4.53-7.22,18.38,18.38,0,0,1-.39-8.33,26.77,26.77,0,0,1,2.37-6.91,17.79,17.79,0,0,1,6-6.95c.79-.55,1,0,.79.92a7.3,7.3,0,0,1-.62,1.65,9.62,9.62,0,0,1-1.14,1.91,26.59,26.59,0,0,0-3.94,7.29,18.6,18.6,0,0,0-.84,8.15,14.21,14.21,0,0,0,1.15,3.57l.65,1.09a12.91,12.91,0,0,0,3.58,3.56,9.5,9.5,0,0,0,2.41,1.33,7.89,7.89,0,0,0,2.6.57,7.07,7.07,0,0,0,2.62-.32,7.42,7.42,0,0,0,2.37-1.22,9.91,9.91,0,0,0,2.29-2.49,12.38,12.38,0,0,0,1.39-3.18,15.3,15.3,0,0,0-1.19-10.51,30.3,30.3,0,0,0-4.75-7l-1.25-1.4c-1.55-1.77-1.84-2.51-1.44-3.54.09-.22.13-.47.23-.65s.52-.36,1-.23a4,4,0,0,1,1.82,1.13,34.54,34.54,0,0,1,5.27,6.44,26.67,26.67,0,0,1,3.5,8.2,17.29,17.29,0,0,1,.15,7,15.27,15.27,0,0,1-2.9,6.48Z"/><path class="cls-1" d="M153.07,188.33a15.39,15.39,0,0,0-1.41,5.19,5.36,5.36,0,0,0,0,1c0,.32,0,.64.07.94s0,.22,0,.34a1.76,1.76,0,0,0,0,.31.18.18,0,0,0,.2.19l.31,0a2.06,2.06,0,0,0,.45-.11l.9-.32,1.83-.66c1.09-.41,2.18-.84,3.31-1.21a8.31,8.31,0,0,1,4.67-.6c.53.14.32.72-.09,1.28a3.26,3.26,0,0,1-1.6,1.39,33.33,33.33,0,0,0-3.86,1.37c-1.35.48-2.71,1-4.26,1.42a10.67,10.67,0,0,1-2.16.54,2.9,2.9,0,0,1-1-.08,1.7,1.7,0,0,1-.45-.22c-.14-.09-.2-.27-.3-.4l-.27-.42a1.09,1.09,0,0,1-.23-.47l-.34-1.07a5.26,5.26,0,0,1-.18-1,4.08,4.08,0,0,1-.07-.77,18,18,0,0,1,1-6.43,16.13,16.13,0,0,1,1.74-3.63,8.58,8.58,0,0,1,2.25-2.29,5.14,5.14,0,0,1,3.31-.91,5.51,5.51,0,0,1,2.51,1,8.45,8.45,0,0,1,1.81,1.71,10.37,10.37,0,0,1,.63.85c.64,1.14.57,1.62-.05,2.16a3.57,3.57,0,0,1-.43.36c-.53.33-1.16.08-1.69-.53a12.05,12.05,0,0,0-2.29-2.19,1.8,1.8,0,0,0-.85-.3,1.49,1.49,0,0,0-.77.22,3.92,3.92,0,0,0-1.43,1.28,9.2,9.2,0,0,0-1.25,2.14Z"/><path class="cls-1" d="M148.26,263.93A45,45,0,0,1,146.94,248a42.1,42.1,0,0,1,.82-5.78,24.76,24.76,0,0,1,4.25-9.57,12,12,0,0,1,4.22-3.52,9.22,9.22,0,0,1,5.48-.88,14.67,14.67,0,0,1,8.15,4.51,22.61,22.61,0,0,1,3.51,4.66,19.83,19.83,0,0,1,2.16,5.35c.28,1.16-.13,1.11-.89.34a22.59,22.59,0,0,1-3-3.9,18.58,18.58,0,0,0-7.37-7.18,7.76,7.76,0,0,0-8.7,1,13.29,13.29,0,0,0-3.5,5.27,32.64,32.64,0,0,0-1.74,6.54,43.85,43.85,0,0,0,.09,15,30.27,30.27,0,0,0,2.93,8.73,19.12,19.12,0,0,0,4.23,5.41,12.07,12.07,0,0,0,5.93,2.95,7.94,7.94,0,0,0,4.82-.94,12.3,12.3,0,0,0,3.78-3.26,17.37,17.37,0,0,0,1.22-1.85c1.33-2.41,1.68-3.21,2.56-3.65a4.16,4.16,0,0,1,.58-.31c.31-.09.5.18.58.81a6.44,6.44,0,0,1-.37,2.75,14.62,14.62,0,0,1-2.74,4.78,13.85,13.85,0,0,1-4.59,3.58,11.2,11.2,0,0,1-6.11,1c-.52-.09-1.05-.17-1.56-.3l-1.5-.51-1.34-.63-1.28-.75a19.56,19.56,0,0,1-3.36-2.78,23.68,23.68,0,0,1-2.63-3.39,30.14,30.14,0,0,1-3.35-7.62Z"/><path class="cls-1" d="M154.16,255a17,17,0,0,0,.18,4.73,16.6,16.6,0,0,0,.47,1.67,17.86,17.86,0,0,0,2.77,5.49,12.84,12.84,0,0,0,1.83,2.06,14.08,14.08,0,0,0,2.8,2c.3.16.25.32-.12.42a2.48,2.48,0,0,1-1.77-.25,12.19,12.19,0,0,1-3-2.46,12.81,12.81,0,0,1-2.16-3.19,24.72,24.72,0,0,1-1.84-4.32,17.49,17.49,0,0,1-.56-5.13,27.41,27.41,0,0,1,.31-3.13,20,20,0,0,1,1.35-4.55,11.49,11.49,0,0,1,1.86-3.17,4.45,4.45,0,0,1,.56-.59c.19-.18.34-.32.48-.43a3.7,3.7,0,0,1,.4-.2,1,1,0,0,1,.51-.1.55.55,0,0,1,.19,0c.14,0-.09.41-.53.94a15.33,15.33,0,0,0-2.87,5.47,23.9,23.9,0,0,0-.82,4.72Z"/><path class="cls-1" d="M165.65,254.45a7.55,7.55,0,0,0-.17,1c0,.11,0,.23,0,.34a3.6,3.6,0,0,0,.14,1.26,2.39,2.39,0,0,0,.28.49,2,2,0,0,1,.38.63c0,.09-.16.27-.4.41s-.56.24-.72.13a2.11,2.11,0,0,1-.91-1.72c0-.4-.17-.77-.2-1.16a5.19,5.19,0,0,1,.1-1.25c0-.25.12-.5.19-.74s.26-.71.38-1.06.12-.57.23-.85a.71.71,0,0,1,.08-.18c.14-.19.26-.2.55-.07l.2.1a.67.67,0,0,1,.35.49,3,3,0,0,1-.23,1.32c-.09.3-.18.61-.24.92Z"/><path class="cls-1" d="M154.79,262.16a24.48,24.48,0,0,1,0-12.25c1.09-3.71,3.21-7.36,6.93-9.29a5.42,5.42,0,0,1,2.78-.45,7,7,0,0,1,2.6.84,7.62,7.62,0,0,1,2.54,2.24,9.81,9.81,0,0,1,1.41,3c.19.65,0,.59-.35.16a26,26,0,0,0-1.94-2,11.92,11.92,0,0,0-2.27-1.72,4.77,4.77,0,0,0-2.46-.61,4.58,4.58,0,0,0-2.31.77,12.78,12.78,0,0,0-2.23,1.95,12.44,12.44,0,0,0-2.06,3.09A22.31,22.31,0,0,0,155.66,260a16.47,16.47,0,0,0,1.61,5,13.51,13.51,0,0,0,2.31,3.22,6.77,6.77,0,0,0,3.3,1.91,5,5,0,0,0,1.44.1l.7-.15.35-.07.34-.15.65-.29a5.83,5.83,0,0,0,.62-.39,6.18,6.18,0,0,0,1.14-.88,7.22,7.22,0,0,0,.8-.94c.94-1.27,1.25-1.76,1.8-1.86a1.23,1.23,0,0,1,.36-.08c.34,0,.27.74-.32,1.92a7.28,7.28,0,0,1-1.93,2.42,9.6,9.6,0,0,1-2.81,1.55,9.18,9.18,0,0,1-1.66.31,6.42,6.42,0,0,1-1.7-.17,7.58,7.58,0,0,1-3-1.45,12.29,12.29,0,0,1-3-3.61,22,22,0,0,1-1.91-4.19Z"/><path class="cls-1" d="M157,262a22.82,22.82,0,0,1-.67-6.74,15.55,15.55,0,0,1,.26-2.47,14.37,14.37,0,0,1,1.5-4.12,7.81,7.81,0,0,1,3.11-3.21,4.94,4.94,0,0,1,4-.31,7.31,7.31,0,0,1,3.63,3.29c.25.43.07.48-.35.28a10.17,10.17,0,0,1-1.8-1.08,4,4,0,0,0-3.59-1.2,5.6,5.6,0,0,0-1.78.77,6.74,6.74,0,0,0-1.49,1.48,11.46,11.46,0,0,0-1.83,5.22,19.8,19.8,0,0,0,.22,6.27,10.85,10.85,0,0,0,1.36,3.54,6,6,0,0,0,4.38,3.06,4.29,4.29,0,0,0,3.38-1.9,7.61,7.61,0,0,0,.51-.75,4.4,4.4,0,0,1,.8-.94,1.67,1.67,0,0,1,.79-.23c.13,0,.27,0,.38,0s.29.17.34.47a2,2,0,0,1-.16,1.22,7,7,0,0,1-1.3,2,6.61,6.61,0,0,1-2.06,1.55,5.68,5.68,0,0,1-2.75.55,6.46,6.46,0,0,1-2.64-.84A9.88,9.88,0,0,1,157,262Z"/><path class="cls-1" d="M160,263.52a13.84,13.84,0,0,1-1.75-5.39,15.35,15.35,0,0,1-.11-2,13.74,13.74,0,0,1,.6-3.52,8.13,8.13,0,0,1,1.76-3.18,4.87,4.87,0,0,1,2.84-1.57,4.58,4.58,0,0,1,3.83,1c.31.27.23.27-.1.18a6.48,6.48,0,0,0-1.63-.19,4.61,4.61,0,0,0-3.08,1,5.6,5.6,0,0,0-1.93,2.62,11.27,11.27,0,0,0-.56,4.44,11.84,11.84,0,0,0,1.12,4.81,6.72,6.72,0,0,0,1.71,2.41,3,3,0,0,0,1.88.75,3,3,0,0,0,1.92-.73,8.78,8.78,0,0,0,2.1-2.81l.35-.7c.44-.89.58-1.18.86-1.33.07,0,.13-.09.18-.11s.26.39.11,1.18a9.86,9.86,0,0,1-1.24,3.47,7.47,7.47,0,0,1-1.26,1.59,6.1,6.1,0,0,1-.88.69,5,5,0,0,1-1.12.43,4.46,4.46,0,0,1-3.47-.61,7.22,7.22,0,0,1-2.16-2.3Z"/><path class="cls-1" d="M161.73,259.36a9.41,9.41,0,0,1-.6-3.09,10.54,10.54,0,0,1,0-1.12,8.72,8.72,0,0,1,.33-2,6.28,6.28,0,0,1,.89-1.82,4,4,0,0,1,1.36-1.27A2.49,2.49,0,0,1,166,250c.22.11.11.27-.12.42a3.91,3.91,0,0,1-.84.43,1.84,1.84,0,0,0-.67.34,2.27,2.27,0,0,0-.28.26c-.1.06-.19.16-.3.24a5.34,5.34,0,0,0-1,1.46,5.64,5.64,0,0,0-.35,2.39,9.44,9.44,0,0,0,.34,2.7,5.11,5.11,0,0,0,.7,1.47,2.39,2.39,0,0,0,3.58.61,2.16,2.16,0,0,0,.27-.25c.34-.31.48-.37.86-.22l.26.09c.26.12.33.48,0,.9a3.72,3.72,0,0,1-4.39,1.12,3.77,3.77,0,0,1-1.51-1.13,6,6,0,0,1-.88-1.47Z"/><path class="cls-1" d="M163.56,257.13a5.69,5.69,0,0,1-.29-1.72,4.26,4.26,0,0,1,0-.62,4.54,4.54,0,0,1,.78-2.09,4,4,0,0,1,.66-.8,1.34,1.34,0,0,1,.75-.34.94.94,0,0,1,.77.3c.11.12-.09.3-.31.49s-.4.46-.35.42,0,.09,0,.14-.14.12-.23.22a5.82,5.82,0,0,0-.58.73,2.17,2.17,0,0,0-.24,1.15,5.88,5.88,0,0,0,.1,1.39,3.44,3.44,0,0,0,.28.8,1.55,1.55,0,0,0,.83.84,1.35,1.35,0,0,0,.86-.09l.18-.07c.23-.1.34-.06.51.14a1.49,1.49,0,0,1,.12.14c.13.16.09.36-.12.53a1.9,1.9,0,0,1-1.19.48,2.18,2.18,0,0,1-1.39-.44,3.56,3.56,0,0,1-1.13-1.59Z"/><path class="cls-1" d="M151.52,260.41a28.61,28.61,0,0,1,.11-9.15,31.87,31.87,0,0,1,.6-3.24,32.45,32.45,0,0,1,1.91-5.49,17.42,17.42,0,0,1,3.24-4.92,7,7,0,0,1,4.83-2.35,6,6,0,0,1,5.49,3.56c.26.65.09.6-.33.2a8.57,8.57,0,0,0-2.21-1.45,5.35,5.35,0,0,0-2.65-.52,4.34,4.34,0,0,0-2.38.77,12.15,12.15,0,0,0-3.73,4.45,25.29,25.29,0,0,0-2.31,7.36,34.49,34.49,0,0,0-.61,8.53,18.93,18.93,0,0,0,1.14,5.06,16.77,16.77,0,0,0,4.26,6.56,8.18,8.18,0,0,0,5.17,2.2l1.19-.09c1.46-.29,2-.26,2.54.12.12.09.28.16.37.24s.11.35-.14.64a3.27,3.27,0,0,1-1.34.94,8.48,8.48,0,0,1-6.5-.47,13.68,13.68,0,0,1-4.95-4.27,19.08,19.08,0,0,1-2.36-4.13,21.7,21.7,0,0,1-1.4-4.54Z"/><path class="cls-1" d="M160.29,260.87a15.47,15.47,0,0,1-1-3.47c-.06-.44-.14-.87-.16-1.31a10.15,10.15,0,0,1,.76-4.61,8.36,8.36,0,0,1,1.07-1.83,4.7,4.7,0,0,1,2.16-1.65c.27-.09.34.18.27.54a1.91,1.91,0,0,1-.59,1,7.92,7.92,0,0,0-2.48,3.89,9.37,9.37,0,0,0-.27,3,13.53,13.53,0,0,0,.58,3.4,8.76,8.76,0,0,0,.83,2,6,6,0,0,0,2.13,2.28,2.22,2.22,0,0,0,2,.13l.39-.21a5.28,5.28,0,0,1,.59-.25.74.74,0,0,1,.44.05l.21.07c.18.08.14.44-.24.91a2.73,2.73,0,0,1-2.67.87,4.31,4.31,0,0,1-2.28-1.59,16.19,16.19,0,0,1-1.8-3.27Z"/><path class="cls-1" d="M202.38,217.75c-.32,1.33-.58,2.7-.78,4.07-.07.51-.07,1-.14,1.52-.22,1.78-.58,3.57-.74,5.38-.08.8-.08,1.61-.09,2.41a15.18,15.18,0,0,1-.14,3.08c-.07.32-.45.28-.85,0a2,2,0,0,1-.87-1.37,30.54,30.54,0,0,1,0-6.34c.15-1.28.08-2.61.22-3.92s.34-2.87.59-4.3c.13-.88.35-1.76.52-2.64.3-1.33.68-2.64,1.1-4,.18-.5.32-1,.53-1.52l.28-.76a5,5,0,0,1,.41-.71c.13-.21.24-.42.39-.62a1.8,1.8,0,0,1,.84-.59.89.89,0,0,1,.64,0,1.17,1.17,0,0,1,.28.11c.25.15.24.63.12,1.21-.24.83-.38,1.66-.6,2.48-.12.39-.18.83-.29,1.25s-.27.82-.39,1.25a39.4,39.4,0,0,0-1,3.92Z"/><path class="cls-1" d="M185.79,320.49q-2.92.86-5.82,1.87c-.71.24-1.39.54-2.09.79-2.48.89-5,1.75-7.44,2.69-1.1.41-2.19.86-3.26,1.31a33.29,33.29,0,0,1-4.2,1.6c-.9.25-.24-1.33,1.33-2,2.8-1.19,5.61-2.36,8.53-3.36,1.74-.6,3.49-1.39,5.27-2q2.92-1.07,5.9-2c1.23-.37,2.46-.74,3.7-1.06,1.87-.5,3.78-.9,5.67-1.3,1.47-.27,2.9-.61,4.38-.79.33,0,.64-.09,1-.1,1.22,0,1.62,0,1.89.26a1.45,1.45,0,0,1,.18.16c.12.18-.36.38-1.23.56-.64.13-1.28.26-1.93.44s-1.31.23-2,.39l-2,.43-2,.5c-1,.24-2,.53-2.95.8l-2.94.88Z"/><path class="cls-1" d="M387.59,187.84a110.59,110.59,0,0,1,15.81,3.79c1.88.61,3.76,1.18,5.61,1.86,3.27,1.16,6.45,2.52,9.66,3.71,1.61.59,3.22,1.15,4.85,1.57a13,13,0,0,0,4.89.49,6.81,6.81,0,0,0,3.68-2,16,16,0,0,0,2.72-3.5,38.91,38.91,0,0,0,2.51-5.2,48.83,48.83,0,0,0,1.85-5.51c.32-1.17.39-1,.32.05a24.14,24.14,0,0,1-.91,5.16,28.84,28.84,0,0,1-2.32,5.65,17.28,17.28,0,0,1-3.8,5,8.64,8.64,0,0,1-2.9,1.7,9.17,9.17,0,0,1-3.34.26,25.61,25.61,0,0,1-6.06-1.4c-4.6-1.6-9.26-3.34-13.89-4.91a113,113,0,0,0-15.53-4.19,98.05,98.05,0,0,0-9.81-1.37,96.21,96.21,0,0,0-15-.12,104.31,104.31,0,0,0-11.37,1.55l-2.46.48c-3.09.57-4.1.62-4.86.32a3.19,3.19,0,0,1-.51-.2c-.37-.26.83-.82,3.08-1.48a87.12,87.12,0,0,1,21.37-2.87,101.22,101.22,0,0,1,16.4,1.12Z"/><path class="cls-1" d="M350.8,260.3c-1.45,1.06-2.95,2.06-4.48,3-.56.35-1.1.73-1.68,1.05a32.55,32.55,0,0,1-6.45,2.69c-1,.29-2,.55-3,.75a10.72,10.72,0,0,1-4,.16c-.42-.08-.32-.49,0-.9a2.69,2.69,0,0,1,1.63-.86,23.65,23.65,0,0,0,3.62-.63,36.07,36.07,0,0,0,3.63-1,21.64,21.64,0,0,0,4.2-2.15c1.5-.89,3-1.86,4.4-2.89.88-.64,1.76-1.28,2.62-2,1.31-1,2.62-2,3.91-3.08a22.49,22.49,0,0,1,3.14-2.38,4.35,4.35,0,0,1,.9-.38,1.71,1.71,0,0,1,1.56.2.63.63,0,0,1,.26.75,1,1,0,0,1-.13.29c-.24.23-.67.06-.91.21a4,4,0,0,0-1.07.61c-.41.32-.84.63-1.28,1L355,257q-2,1.71-4.19,3.37Z"/><path class="cls-1" d="M343.27,168.84l-.22,3.43a13.32,13.32,0,0,0-8.49,10.38c-1.74,10.11,4.42,11,4.42,11s-8.13-5.58-7.3-12.9,5.39-10.31,7.28-11.16A11.39,11.39,0,0,1,343.27,168.84Z"/><path class="cls-1" d="M361.74,250.28c0,.29,0,.61,0,.93,0,.11.08.2.08.32a6.26,6.26,0,0,0,.21,1.26,1.26,1.26,0,0,0,.29.48c.16.18.39.31.37.62s-1.57,1.1-1.8.85a2.76,2.76,0,0,1-.67-1.62,4.53,4.53,0,0,0-.34-1,7.73,7.73,0,0,1-.2-1.17c0-.24,0-.48,0-.72s0-.71,0-1.06-.17-.53-.16-.8a.49.49,0,0,1,0-.17c.07-.22.2-.28.57-.3l.24,0a.94.94,0,0,1,.66.25,1.84,1.84,0,0,1,.67,1.26l.12.9Z"/><path class="cls-1" d="M352.09,193.92c2.52,4.36.48,13.68-.88,14.9s6.44-6.86,8.45-5.31.79,11-6,18.29c0,0,5.68,12.23,1.68,18.28,0,0,4.5-.14,5.67-1.63,0,0-1.34-1.62,1.65-4.68a23.15,23.15,0,0,1,4.18-3.71s-5.4-1.94-3.61-4.47,7-5.4,7-5.4-2.25-2.6,0-7.44,15.72-15,16.88-17.22-1.8-3.08-1.8-3.08L368.73,192Z"/><path class="cls-1" d="M411.77,153c-1.27-.78,1.41-15.76,5.25-21.7,3.09-4.78-2.72,14.44,3.8,23.17.21.3-.28.66-.63.58Z"/><path class="cls-1" d="M430.93,188.61c-8.51-9.65-8.51-22.83-8.51-22.83l-6.31,5.69s6.14,10.36,8,13.29S430.93,188.61,430.93,188.61Z"/><path class="cls-1" d="M220.68,254.22c-.66,1.1-1.31,2.22-1.94,3.36-.22.42-.39.86-.62,1.28q-1.26,2.19-2.58,4.36c-.39.64-.74,1.31-1.08,2a7.54,7.54,0,0,1-1.58,2.44c-.46.41-1.84-1.49-1.31-2.34.94-1.59,1.89-3.21,3-4.79a26.73,26.73,0,0,0,1.66-3.14c.6-1.16,1.23-2.32,1.88-3.47l1.22-2.13c.63-1.07,1.3-2.12,2-3.16l.75-1.25a9.79,9.79,0,0,1,.8-1.25c.13-.17.24-.37.38-.54.62-.58.95-.61,1.48-.23.11.08.23.14.32.22a1.15,1.15,0,0,1,.13,1.31c-.77,1.36-1.66,2.67-2.54,4.1-.66,1.06-1.32,2.15-1.94,3.28Z"/><path class="cls-1" d="M186.26,252.77c-.55-.57-1.12-1.15-1.71-1.71-.2-.21-.46-.37-.66-.58l-2.2-2.29a13.17,13.17,0,0,0-1-.95A4.8,4.8,0,0,1,179.4,246c-.09-.17.17-.42.54-.58a1.3,1.3,0,0,1,1.11-.08,12.62,12.62,0,0,1,2.7,2.31,13,13,0,0,0,1.71,1.42c.63.52,1.23,1.08,1.84,1.64l1.11,1c.58.52,1.11,1.09,1.7,1.58s1,.67,1.5,1a1.89,1.89,0,0,1,.31.25c.35.37.26.65-.08,1.09-.09.1-.16.21-.25.3a1.11,1.11,0,0,1-1.09.32,4.49,4.49,0,0,1-1.37-.78c-.41-.32-.79-.67-1.18-1l-1.72-1.65Z"/><path class="cls-1" d="M282.78,257.06q-1.72-1.35-3.41-2.76c-.41-.34-.87-.63-1.26-1-1.44-1.23-2.77-2.58-4.09-3.92-.58-.61-1.19-1.19-1.75-1.81a5.63,5.63,0,0,1-1.74-2.73c-.11-.34-.16-.24.09-.09a2.13,2.13,0,0,0,.65.21c.13,0,.37,0,.52,0a4,4,0,0,1,.39.23,26.55,26.55,0,0,1,2.5,1.95c.73.74,1.5,1.47,2.22,2.27a30.69,30.69,0,0,0,3,2.53c1.12.91,2.25,1.82,3.4,2.7.71.54,1.42,1.09,2.15,1.6,1.1.79,2.2,1.59,3.34,2.3.9.55,1.85,1,2.78,1.45.2.1.41.19.61.31a1.58,1.58,0,0,1,.68.65.88.88,0,0,1,.07.33,3.38,3.38,0,0,1-.09.41,2.06,2.06,0,0,1-.09.34,1.08,1.08,0,0,1-1.3.35,24.29,24.29,0,0,1-5.09-2.76c-1.22-.81-2.41-1.68-3.6-2.56Z"/><path class="cls-1" d="M195.08,253.6c-2.14,2-4.35,4-6.54,5.91-.8.72-1.55,1.47-2.36,2.17l-2.18,1.8c-.36.3-.74.59-1.11.87l-.76.59a2.9,2.9,0,0,1-.9.59l-.44.2-.22.09h0c0-.17,0,0,0-.09h-.2a1.65,1.65,0,0,1-.88-.41,8.21,8.21,0,0,1-.81-.76L178,264c-.64-.67-1.29-1.32-2-1.94a24.53,24.53,0,0,0-3.84-2.93c-1.77-1.05-3.54-2-5.35-3-.56-.31-.33-.79.4-1.12a4.25,4.25,0,0,1,3.19-.05,22,22,0,0,1,5.83,3.56,33.68,33.68,0,0,1,2.51,2.26c.39.4.78.8,1.15,1.21l.24.26.05.1.11.2.09.12c.05,0,.07,0,.11,0l.24-.14.06,0,.18-.14.38-.32.77-.63,3-2.58c2.24-1.85,4.39-3.82,6.48-5.84,1.29-1.23,2.56-2.49,3.78-3.8a66.69,66.69,0,0,0,5.3-6.13,37.83,37.83,0,0,0,3.18-5.25c.21-.39.38-.8.58-1.19a5.57,5.57,0,0,1,1-1.46,1.16,1.16,0,0,1,.49-.28,1.43,1.43,0,0,1,.58-.08,4,4,0,0,1,.68,0c.81.18.78,1,.4,2.25a34.94,34.94,0,0,1-6.38,10.08c-1.93,2.29-4,4.44-6.13,6.52Z"/><path class="cls-1" d="M236.11,255.77c-2.22-1.77-4.5-3.48-6.82-5.14-.84-.61-1.73-1.15-2.58-1.76l-9-6.43-4-2.82a26,26,0,0,1-2.51-2,7.31,7.31,0,0,1-2.09-2.68c-.24-.89.29-.67.86-.41a8.52,8.52,0,0,1,2.38,1.22c.8.61,1.64,1.19,2.5,1.78s1.68,1.23,2.54,1.85c1.71,1.23,3.43,2.48,5.14,3.78,2,1.55,4.34,2.92,6.51,4.41q3.58,2.44,7.07,5.06c1.43,1.07,2.85,2.16,4.24,3.28,2.12,1.69,4.16,3.5,6.12,5.37a42.33,42.33,0,0,1,4.39,4.58,13.68,13.68,0,0,1,.81,1.18,4.67,4.67,0,0,1,.69,1.81,1.72,1.72,0,0,1-.33,1,1.76,1.76,0,0,1-.24.33c-.14.13-.35.06-.64-.15a4.61,4.61,0,0,1-.49-.39,1.08,1.08,0,0,1-.24-.28,3,3,0,0,1-.27-.32,56.21,56.21,0,0,0-7.47-7.83c-2.1-1.87-4.29-3.7-6.56-5.43Z"/><path class="cls-1" d="M278,237.07l-5.29,7.72c-.64.94-1.21,1.92-1.86,2.86l-6.83,9.89c-1,1.46-2,3-2.89,4.47l-1.76,2.9-.91,1.43c-.31.48-.71.9-1,1.34s-.66.35-.72-.36a8,8,0,0,1,0-1.43,5.69,5.69,0,0,1,.61-1.71,119.74,119.74,0,0,1,7.38-11.83c1.64-2.26,3.08-4.79,4.63-7.18l5.16-7.88,3.19-4.84c1.6-2.45,3.23-4.89,4.73-7.38,1.16-1.93,2.15-3.92,3.25-5.85.24-.43.45-.86.73-1.27,1-1.53,1.49-1.92,2.19-2a2.58,2.58,0,0,1,.47,0c.46.07.41.91-.07,2.19a62.07,62.07,0,0,1-5.85,11c-1.66,2.67-3.4,5.3-5.11,7.94Z"/><path class="cls-1" d="M300.05,233.06c-.95-1.13-1.85-2.3-2.71-3.48-.31-.43-.7-.8-1-1.25-1.07-1.53-2-3.16-2.92-4.75-.43-.7-.89-1.38-1.36-2a14.71,14.71,0,0,1-1.56-2.7c-.12-.31.15-.44.58-.41a2.47,2.47,0,0,1,1.48.65c.37.38.74.76,1.09,1.16s.64.83.95,1.26a31.51,31.51,0,0,1,1.76,2.62,28.15,28.15,0,0,0,2.34,3c.89,1.09,1.77,2.19,2.72,3.23.58.64,1.17,1.27,1.79,1.87a26.9,26.9,0,0,0,2.95,2.6,25.28,25.28,0,0,0,2.62,1.5,5.49,5.49,0,0,1,.59.31c.66.49.77.79.46,1.57-.06.17-.11.33-.17.47a1.26,1.26,0,0,1-1.47.59,11.9,11.9,0,0,1-5.06-3,37.83,37.83,0,0,1-3.14-3.19Z"/><path class="cls-1" d="M250.53,223.29c5,5.53,10.07,11,15.31,16.26a197.71,197.71,0,0,0,16.38,15,66.94,66.94,0,0,0,6.5,4.63c.56.35,1.13.68,1.7,1l.78.43a.51.51,0,0,0,.24,0,4.23,4.23,0,0,0,1.32-.4,14.75,14.75,0,0,0,1.62-.84,39,39,0,0,0,5.53-4.13c1.76-1.54,3.46-3.18,5.07-4.9a87.36,87.36,0,0,0,8.85-11.06q2-2.94,3.69-6.05c.56-1,1.21-2.15,1.86-3.19l1.08-1.54c.37-.51.8-1,1.2-1.47a20.83,20.83,0,0,1,5.91-4.73,47.57,47.57,0,0,1,6.83-2.75,22,22,0,0,0,5.49-2.66c1.71-1.23,3.39-2.53,5-3.88,3.28-2.68,6.32-5.61,9.56-8.42.54-.45,1.07-.89,1.66-1.32a10.86,10.86,0,0,1,.94-.61,4.52,4.52,0,0,1,1.42-.55,2,2,0,0,1,1.44.29,3.18,3.18,0,0,1,.92,1.22,6.88,6.88,0,0,1,.52,1.06l.35,1.09a4.79,4.79,0,0,1,.2,1.12A8.78,8.78,0,0,1,362,208a11.68,11.68,0,0,1-.2,2.22c-.07.36-.13.73-.22,1.08l-.33,1a15.25,15.25,0,0,1-.82,2c-2.52,5.18-6.74,9.11-11.34,12.14-3,1.8-2.76,1.13-.68-.86,1-1,2.44-2.47,4-4.3.37-.47.77-1,1.17-1.45s.77-1.06,1.2-1.58.79-1.12,1.21-1.69.78-1.19,1.15-1.82a13.58,13.58,0,0,0,2.12-6.93,7.85,7.85,0,0,0-.29-1.62,7.13,7.13,0,0,0-.26-.78l-.2-.35,0-.09h0l-.3.18c-.24.15-.48.33-.73.52-2,1.57-4.06,3.55-6.14,5.4s-4.21,3.72-6.42,5.47c-1.11.89-2.23,1.74-3.4,2.58a21.07,21.07,0,0,1-4,2.19c-2.72,1.15-5.39,1.86-7.7,3a17.61,17.61,0,0,0-6,4.61,26.14,26.14,0,0,0-2.31,3.16l-1,1.72-1,1.87a95.34,95.34,0,0,1-12.27,16.68,70.1,70.1,0,0,1-7.67,7.23,30,30,0,0,1-4.5,3,9.82,9.82,0,0,1-2.83,1.07,3.68,3.68,0,0,1-2.06-.19,1.65,1.65,0,0,1-.44-.2l-.3-.15-.58-.33a69.61,69.61,0,0,1-9.45-6.6c-3-2.39-5.8-4.92-8.58-7.5-5.53-5.17-10.81-10.58-16-16.09l-4.95-5.36-2.46-2.69-.76-.83c-.1-.08-.2-.27-.32-.26l-.35.27-.31.26-.47.42L244,225.62c-.76.76-1.5,1.55-2.23,2.35-1.45,1.62-2.84,3.31-4.19,5-4.28,5.49-8.22,11.3-12.08,17.15L219.74,259l-2.9,4.39c-.49.73-1,1.46-1.5,2.18l-.79,1.07-.41.54c-.15.18-.27.33-.49.58a5,5,0,0,1-1.34,1.19,1,1,0,0,1-.81.16l-.79-.29-1.92-1.08-1.62-.95c-1.08-.64-2.14-1.3-3.19-2-2.09-1.35-4.15-2.74-6.16-4.18-4-2.87-7.93-5.91-11.74-9.07l-2.7-2.27-2.56-2.21-.55-.47s-.09-.1-.12-.06l-.06.14c0,.09-.09.18-.12.27l-.16.31-.16.3a3.25,3.25,0,0,1-.25.45,9.43,9.43,0,0,1-1.17,1.54,9.64,9.64,0,0,1-2.32,1.77,10.55,10.55,0,0,1-3.11,1.15,10,10,0,0,1-1.3.24c-.49,0,0-.51,1.28-1.5.61-.5,1.44-1.1,2.27-1.88a8.28,8.28,0,0,0,2.1-3c.06-.13.28-.6.44-1s.35-.83.53-1.25l.24-.44c.08-.12.15-.35.25-.37l.54-.36.14-.09,0,0c0-.09.17.74.1.39h0l.07,0,.29,0,.32-.07.18,0,.09,0,.1.05a10.44,10.44,0,0,1,1.64,1.26l1.26,1.07,3.82,3.18c2.57,2.1,5.19,4.18,7.87,6.2s5.41,4,8.23,5.88q2.1,1.41,4.27,2.75l2.17,1.3,1.1.63.48.27h0l.28-.35.6-.81c.81-1.11,1.61-2.3,2.4-3.49l4.72-7.31c3.65-5.66,7.35-11.34,11.32-16.88,2-2.77,4-5.51,6.23-8.17,1.1-1.33,2.24-2.64,3.43-3.91.61-.64,1.22-1.27,1.86-1.88l1-.91.41-.36.47-.4,1-.77a1.72,1.72,0,0,1,.88-.33l.44-.1.11,0h0c0,.18,0-.39,0,.39h.7c.15,0,.32-.05.46.05a2.55,2.55,0,0,1,.43.3l.41.4,1.31,1.4.82.88Z"/><path class="cls-1" d="M354.06,231.44a19.51,19.51,0,0,1-.09,3.33c-.07.41,0,.81-.13,1.21a15.88,15.88,0,0,1-1.49,4c-.27.55-.54,1.09-.8,1.63a6,6,0,0,1-1.26,1.92c-.36.32-1.45-1.15-1.08-1.85.68-1.27,1.29-2.5,1.93-3.77a4.75,4.75,0,0,0,.38-1.23c0-.43.11-.85.14-1.28a16.27,16.27,0,0,0,0-2.88c-.07-.59-.12-1.19-.25-1.79a15.13,15.13,0,0,0-.74-2.69,10.47,10.47,0,0,0-1.11-1.87,3.39,3.39,0,0,1-.27-.39c-.28-.53-.18-.77.5-1.2.15-.09.3-.2.46-.28a1.14,1.14,0,0,1,1.42.09,8.85,8.85,0,0,1,1.87,3.81,22,22,0,0,1,.55,3.28Z"/><path class="cls-1" d="M351.05,200.93c0,.77-.06,1.55-.1,2.32a7.86,7.86,0,0,1,0,.84c-.07,1-.2,2-.31,3a9.4,9.4,0,0,0,0,1.3,3.13,3.13,0,0,1-.11,1.66c-.16.33-2.21-.2-2.26-.79a11.41,11.41,0,0,1,.2-3.23,7.89,7.89,0,0,0-.07-2l-.09-2.22c0-.46,0-.92-.09-1.37a14.3,14.3,0,0,0-.27-2.07,9.12,9.12,0,0,0-.68-1.5c-.05-.11-.13-.21-.17-.32-.12-.42.09-.6.86-.84a5.34,5.34,0,0,1,.53-.16,1.49,1.49,0,0,1,1.42.2A5.07,5.07,0,0,1,351,198.6c.09.76.09,1.54.12,2.32Z"/><path class="cls-1" d="M372.06,207a38.3,38.3,0,0,1,3.74-4.17c.48-.47.91-1,1.42-1.42,1.81-1.54,3.71-2.89,5.57-4.23.83-.6,1.6-1.27,2.35-1.91.47-.41.92-.86,1.32-1.27.19-.2.38-.41.5-.56s.09-.12.12-.11a.37.37,0,0,0,0-.21c0-.12.33-.39,1.21-.16a1.15,1.15,0,0,1,.76,1.18,2.33,2.33,0,0,1-.47,1.49,14.88,14.88,0,0,1-1.52,1.61,17.07,17.07,0,0,1-1.55,1.31c-1.06.81-2.13,1.55-3.24,2.26a25.48,25.48,0,0,0-3.58,3.15,42.57,42.57,0,0,0-3.58,3.78,26.06,26.06,0,0,0-1.86,2.59,18.14,18.14,0,0,0-2,4.35,13.92,13.92,0,0,0-.41,3.62c0,.26,0,.52,0,.79,0,1-.27,1.27-1,1.5l-.5.15c-.56.1-1.06-.33-1.26-1.16a14.18,14.18,0,0,1,1.07-7.58,24.87,24.87,0,0,1,2.84-5Z"/><path class="cls-1" d="M397.26,196.36a128.91,128.91,0,0,0-21.89-2.44,118.6,118.6,0,0,0-22,1.56c-2.67.4-5.3,1-8.08,1.4l-1.05.16c-.36.05-.76.07-1.14.1a7.14,7.14,0,0,1-2.53-.17,10.73,10.73,0,0,1-4.24-2.25,17.57,17.57,0,0,1-4.71-6.34,16.69,16.69,0,0,1-1.47-7.75,14.41,14.41,0,0,1,2.69-7.47,17.47,17.47,0,0,1,2.69-2.88,14.6,14.6,0,0,1,3.34-2.12,58.81,58.81,0,0,1,7-2.45c2.28-.71,4.55-1.42,6.77-2.25a116.41,116.41,0,0,0,13.05-5.75,177.27,177.27,0,0,0,21.62-13.33c4.45-3,8.74-6.47,13.45-9.36a58.42,58.42,0,0,1,7.33-3.92A23.15,23.15,0,0,1,416.3,129a5.27,5.27,0,0,1,2,.24c.41.13.56.26.51.4s-.3.26-.71.4-1,.21-1.65.47c-2.74.73-7.17,3-12.4,6.19-4.68,2.75-9,6.05-13.62,9.28s-9.22,6.33-14.05,9.2l-3.62,2.15-3.71,2c-1.23.69-2.5,1.3-3.77,1.93s-2.53,1.25-3.83,1.81a115.45,115.45,0,0,1-15.92,5.81c-3.18,1-6.34,1.87-8.46,4a12.58,12.58,0,0,0-2.76,3.62,11.3,11.3,0,0,0-1.12,4.36,14.24,14.24,0,0,0,2.72,8.73,12.75,12.75,0,0,0,3.23,3.24,7.52,7.52,0,0,0,1.91.94,4.75,4.75,0,0,0,.94.19,3.76,3.76,0,0,0,.48,0l.57,0c1.67-.14,3.57-.53,5.4-.85s3.72-.66,5.6-1c3.76-.56,7.54-1,11.34-1.27a121.47,121.47,0,0,1,22.8.64,141.46,141.46,0,0,1,27.29,6.22l5,1.72c.86.3,1.57.54,2.38.74a16.39,16.39,0,0,0,2.42.34,12.46,12.46,0,0,0,4.76-.6,7.08,7.08,0,0,0,2-1.07,4.36,4.36,0,0,0,.4-.35c.13-.13.27-.31.4-.46l.82-.95a26,26,0,0,0,4.51-9A42.76,42.76,0,0,0,439.77,178a53.81,53.81,0,0,0-.22-7.93,65.9,65.9,0,0,0-1.22-7.8,68,68,0,0,0-2.06-7.59,60.39,60.39,0,0,0-2.89-7.29,51.05,51.05,0,0,0-3.3-6,36.28,36.28,0,0,0-5.52-7c-1.35-1.37-2.2-2.11-2.88-2.83a13.06,13.06,0,0,1-1-.9c-.33-.38.4-.41,2.05.1a16.1,16.1,0,0,1,6.39,4.36,44.17,44.17,0,0,1,8.11,12.65,70.74,70.74,0,0,1,4.64,14.53A67.28,67.28,0,0,1,443,170a58.2,58.2,0,0,1,.19,7.82,47,47,0,0,1-.92,7.89,35.42,35.42,0,0,1-2.45,7.73,28.05,28.05,0,0,1-3.12,5.32c-.3.42-.66.8-1,1.2l-.51.6a3.47,3.47,0,0,1-.27.3l-.38.36a9.94,9.94,0,0,1-3.19,1.87,15.89,15.89,0,0,1-6.57.85,18.38,18.38,0,0,1-3.21-.53c-.52-.13-1-.3-1.55-.48l-1.35-.46-5.27-1.81-1.32-.45-1.34-.38-2.68-.76c-3.55-1.1-7.19-1.82-10.81-2.64Z"/><path class="cls-1" d="M413.17,154.93a56.24,56.24,0,0,0,2.16,10.48c.39,1.26.93,2.46,1.38,3.68a51.51,51.51,0,0,0,6.61,12.25,34.5,34.5,0,0,0,4.07,4.68,21.16,21.16,0,0,0,3,2.48,11,11,0,0,0,3.35,1.66c.72.18.68.55-.11.86a5,5,0,0,1-3.94-.46A25.6,25.6,0,0,1,423,185a43.37,43.37,0,0,1-5.06-6.84,78.82,78.82,0,0,1-4.71-9.31,54.72,54.72,0,0,1-3.07-11,50.2,50.2,0,0,1-.65-7,38.14,38.14,0,0,1,1.26-10.64,30.56,30.56,0,0,1,3.05-7.77c.32-.53.65-1,1-1.55,1.46-1.82,2.23-2.13,3.16-1.84a4.11,4.11,0,0,1,.62.2c.58.33.36,1.36-.46,2.61a37.18,37.18,0,0,0-3,6,30.78,30.78,0,0,0-1.76,6.61,39.3,39.3,0,0,0-.09,10.51Z"/><path class="cls-1" d="M421.56,161.86a4.64,4.64,0,0,0,.77-3.39,2.79,2.79,0,0,0-.66-1,6.94,6.94,0,0,0-2.17-1.63,22.21,22.21,0,0,0-2.85-1.22c-.89-.32-1.82-.59-2.74-.89a7.83,7.83,0,0,1-3.41-1.77c-.3-.31,0-.6.56-.79a3,3,0,0,1,1.76-.16c1,.35,2.19.61,3.38.92a23.76,23.76,0,0,1,3.59,1.32c.71.35,1.47.67,2.24,1.1a6.63,6.63,0,0,1,2.16,1.73,5.4,5.4,0,0,1,1.17,3,7,7,0,0,1-.47,3,14.81,14.81,0,0,1-1.58,3,39.47,39.47,0,0,1-3.05,3.79c-.79,1-1.5,2-2.31,2.89a7.75,7.75,0,0,1-.52.62c-.76.67-1.17.69-1.86.2a4,4,0,0,1-.47-.34,1.33,1.33,0,0,1-.14-1.72,34.3,34.3,0,0,1,3.92-5,19.72,19.72,0,0,0,2.6-3.61Z"/><path class="cls-1" d="M369.22,227.09a21,21,0,0,0,7.87-1.49,23.36,23.36,0,0,0,2.65-1.32,10.86,10.86,0,0,0,1.74-1.12,6.11,6.11,0,0,0,.61-.56.83.83,0,0,0,.2-.34c0-.1,0-.29,0-.48a2.67,2.67,0,0,0-.06-.56,2.89,2.89,0,0,0,0-.29l-.1-.28a3.23,3.23,0,0,0-.24-.58,7.66,7.66,0,0,0-1.78-2.14,17.08,17.08,0,0,0-4.08-2.41c-.95-.41-1.92-.78-2.91-1.13s-1.93-.84-2.9-1.3c-.6-.3-.4-.73.29-1.12a5.36,5.36,0,0,1,3.21-.58,26.74,26.74,0,0,1,3.32,1c.55.18,1.1.42,1.64.65s1.06.55,1.58.88a15,15,0,0,1,3,2.33,9.18,9.18,0,0,1,2.16,3.59c.09.45.17.91.24,1.36s0,.89,0,1.48a3.83,3.83,0,0,1-.37,1.19,4.52,4.52,0,0,1-.68,1,9.32,9.32,0,0,1-1.35,1.27,16.9,16.9,0,0,1-2.82,1.76,27,27,0,0,1-9,2.58,14.21,14.21,0,0,1-6-.57,8.17,8.17,0,0,1-1.67-.84,4.69,4.69,0,0,1-.75-.58,6.68,6.68,0,0,1-.77-.81c-.84-1-.55-2.44-.08-3.41a7.59,7.59,0,0,1,1.79-2.33,13.14,13.14,0,0,1,6.21-3.07,10.8,10.8,0,0,1,1.49-.26c1.88-.18,2.46.26,2.79,1.06a3.14,3.14,0,0,1,.2.56c.11.59-.63,1.15-1.79,1.33A16.49,16.49,0,0,0,368,223a8.69,8.69,0,0,0-1.84,1.31l-.35.37c-.11.13-.19.27-.29.39a3.68,3.68,0,0,0-.35.64h0s0,0,.09.08a1.93,1.93,0,0,0,.39.3,4.8,4.8,0,0,0,1,.48,8.54,8.54,0,0,0,2.62.38Z"/><path class="cls-1" d="M363.52,237.9a6.52,6.52,0,0,0,2.57.28,17.28,17.28,0,0,0,3-.47,20.48,20.48,0,0,0,2.17-.73,17.67,17.67,0,0,0,6.61-4.51,13.34,13.34,0,0,0,2.13-2.94,12.27,12.27,0,0,0,.82-2.06,11.56,11.56,0,0,0,.5-2.07c.08-.43.54-.53,1.11-.14a2.63,2.63,0,0,1,.84,1,4,4,0,0,1,.27.76,3.34,3.34,0,0,1,0,.84c-.82,4-3.4,6.84-6.3,8.94-.88.62-1.75,1.28-2.72,1.88a14.56,14.56,0,0,1-3,1.49,17.76,17.76,0,0,1-7.23,1.09,6.67,6.67,0,0,1-2.42-.65,5,5,0,0,1-1.13-.76,5.41,5.41,0,0,1-.86-1.11,3.79,3.79,0,0,1-.44-2.09,4.68,4.68,0,0,1,.6-1.88,10.69,10.69,0,0,1,2.22-2.68,26.16,26.16,0,0,1,4.07-3.12,10.49,10.49,0,0,1,1-.55c1.29-.66,2-.32,2.37.22a3.81,3.81,0,0,1,.27.37.75.75,0,0,1-.12.7,2.78,2.78,0,0,1-.78.86,34.25,34.25,0,0,0-3.33,2.31,13.45,13.45,0,0,0-2.68,2.72,3.65,3.65,0,0,0-.45.92.83.83,0,0,0,0,.49c0,.12.16.29.26.44a1.76,1.76,0,0,0,.68.38Z"/><path class="cls-1" d="M360.57,247.14a18.2,18.2,0,0,0,5.75-.34c.71-.16,1.38-.43,2.07-.63a14.92,14.92,0,0,0,6.51-3.59,5.51,5.51,0,0,0,1.45-2.7,3.36,3.36,0,0,0,.08-.95c0-.16,0-.32,0-.48a2.63,2.63,0,0,1-.06-.48c0-.65-.19-1.3-.27-2.05,0-.46.36-.63,1-.48a3.12,3.12,0,0,1,1.15.52,2.86,2.86,0,0,1,.9,1.24,7.59,7.59,0,0,1-.86,5.86,10.29,10.29,0,0,1-4.08,3.68,31.35,31.35,0,0,1-5.67,2.57,23.1,23.1,0,0,1-6.68,1,12,12,0,0,1-4.3-.7,4.48,4.48,0,0,1-1.58-1.07,2.61,2.61,0,0,1-.57-.89,5.71,5.71,0,0,1-.24-1,6.37,6.37,0,0,1,1.1-3.45,15,15,0,0,1,3.31-3.68c.29-.22.56-.46.87-.65a3,3,0,0,1,1.42-.4,1.59,1.59,0,0,1,.87.42,2.52,2.52,0,0,1,.29.26c.11.15.08.34,0,.62a2.59,2.59,0,0,1-.59,1,19,19,0,0,1-1.34,1.35c-.45.43-.87.89-1.26,1.34a5.74,5.74,0,0,0-1.44,2.59c0,.07,0,.15,0,.22v.09s0,0,0,0-.2-.06.29.23a6,6,0,0,0,1.92.47Z"/><path class="cls-1" d="M370.14,255.77a16.66,16.66,0,0,1-3.66.51,10.27,10.27,0,0,1-1.45-.07,5.67,5.67,0,0,1-1.28-.43l-.6-.32a4.63,4.63,0,0,1-.54-.43,4,4,0,0,1-.88-1,4.24,4.24,0,0,1-.61-1.15,5.47,5.47,0,0,1-.37-2.24,3.26,3.26,0,0,1,.42-1.49,2.44,2.44,0,0,1,1.24-1c.32-.09.4.27.45.71a9.06,9.06,0,0,0,.2,1.19c0,.22,0,.38,0,.62s.09.46.12.72a4.23,4.23,0,0,0,.19.78c.08.25.27.47.37.77a2.58,2.58,0,0,0,2,.84,8.83,8.83,0,0,0,3-.26,15.12,15.12,0,0,0,1.91-.53,23.78,23.78,0,0,0,2.85-1.13c.71-.36,1.35-.85,2.05-1.28.15-.1.3-.21.46-.3.61-.3.91-.21,1.26.39a2.44,2.44,0,0,1,.24.41,1,1,0,0,1-.22,1.28,14.58,14.58,0,0,1-3.77,2.24,30.78,30.78,0,0,1-3.31,1.18Z"/><path class="cls-1" d="M338.42,264.73a38.22,38.22,0,0,0,6.36-2.86c.76-.42,1.46-.93,2.22-1.36,1.36-.79,2.61-1.51,3.86-2.4s2.54-1.82,3.92-2.67a17.51,17.51,0,0,1,4-1.95,7,7,0,0,1,5.69.58c.52.31.2.69-.41,1a6.7,6.7,0,0,1-1.07.36,4.9,4.9,0,0,1-1.19.18c-2.79,0-5.55,1.9-8.57,3.92-.91.59-1.79,1.29-2.76,1.95s-1.87,1.27-2.85,1.84a48.94,48.94,0,0,1-6.65,3.4c-.72.28-1.43.58-2.19.8-.37.11-.74.24-1.11.34l-1.14.28a20.63,20.63,0,0,1-7.09.32l-.68-.07-.68-.12-1.35-.23a19.65,19.65,0,0,1-2.62-.76,8.35,8.35,0,0,1-1.11-.46c-1.28-.78-1.57-1.23-1.54-1.89a2.06,2.06,0,0,1,0-.44c.11-.44.82-.5,1.82-.25a8.13,8.13,0,0,0,1.11.25c.37.07.72.2,1.07.3.71.21,1.43.34,2.13.56a21,21,0,0,0,4.31.51,19.09,19.09,0,0,0,6.51-1.17Z"/><path class="cls-1" d="M359.57,241.22a9.07,9.07,0,0,1-2,.51,5.86,5.86,0,0,1-.73.13,9.75,9.75,0,0,1-2.55-.34c-.35-.11-.72-.14-1.07-.22a2.11,2.11,0,0,1-1.3-.49c-.11-.11.12-.57.41-1s.65-.81.85-.75a19.53,19.53,0,0,1,2.16.72,2.88,2.88,0,0,0,1.4,0,7,7,0,0,0,1.54-.33,4.58,4.58,0,0,0,.91-.4,4.49,4.49,0,0,0,1.22-.9,4.38,4.38,0,0,0,.61-1,2.4,2.4,0,0,1,.11-.23c.19-.25.38-.25.83,0l.31.14a.82.82,0,0,1,.5.78,3.55,3.55,0,0,1-1.34,2.38,7.62,7.62,0,0,1-1.81,1.1Z"/><path class="cls-1" d="M344.81,174.9a14,14,0,0,0,0,3c0,.37.18.71.23,1.07a14.66,14.66,0,0,0,1.13,3.74,7.23,7.23,0,0,0,1,1.46c.25.28.51.53.75.81a4,4,0,0,1,.71.87c.11.21-.21.55-.67.76a1.45,1.45,0,0,1-1.47-.07,9.9,9.9,0,0,1-2.76-4.41c-.16-.5-.35-1-.51-1.49a10.1,10.1,0,0,1-.46-1.51,17.21,17.21,0,0,1-.37-3.42,18.7,18.7,0,0,1,.12-2.12,20.85,20.85,0,0,1,.61-3.13,15,15,0,0,1,.69-2.41,3.11,3.11,0,0,1,.22-.53c.37-.6.66-.68,1.23-.43.13.06.26.11.38.18a1.08,1.08,0,0,1,.51,1.12c-.08.31-.14.62-.19.94s-.15.6-.19.92c-.16.61-.32,1.21-.49,1.82a16.84,16.84,0,0,0-.4,2.86Z"/><path class="cls-1" d="M396,147.36c.84-.72,1.69-1.42,2.56-2.11.31-.25.61-.53.93-.77l.85-.63q.4-.3.81-.63c.54-.44,1.1-.89,1.67-1.33s1-.79,1.55-1.17a3.87,3.87,0,0,1,2.48-.92c.32,0,.22.43.05.82s-.36.78-.68.9a26.71,26.71,0,0,0-3.87,2.42c-.42.27-.82.59-1.25.9l-1.21.9c-.89.64-1.78,1.29-2.65,2-.54.41-1.07.84-1.59,1.27-.79.66-1.58,1.32-2.32,2-.58.54-1.11,1.12-1.66,1.68l-.36.37c-.47.44-.65.55-.86.53h-.15c-.12,0,0-.3.28-.68a32.05,32.05,0,0,1,3-3.26c.79-.78,1.61-1.54,2.44-2.29Z"/><path class="cls-1" d="M437.09,123.25c0,.38-.44.46-1.14.38a1.7,1.7,0,0,1-.82-.46,4.18,4.18,0,0,1-.19-.71c0-.13.44-1.91.54-2.54a8.46,8.46,0,0,1,.53-1.73l1.34-3.44a2.49,2.49,0,0,1,.44-.7,9.72,9.72,0,0,0,1.42-2.48.71.71,0,0,0,.12-.48,9.49,9.49,0,0,1,1.46-2.89c.66-.6,1.25-1.24,1.9-1.83.09-.09.13-.22.32-.22a1,1,0,0,0,.8-.38,5,5,0,0,1,.91-.66,2.14,2.14,0,0,1,.65-.15c.2,0,.47.31.47.39s.25.25.4.36a.61.61,0,0,1,.15.12,7.14,7.14,0,0,1-.16,1.16c-.08.58-.12,1.2-.17,1.29s-.11.16-.23.4l-.49.87c-.33.66-.67,1.35-.72,1.51s-.21.26-.34.37-.91,2.14-.95,2.22c-.26.39-.36.87-.85,1.15a.34.34,0,0,0-.16.23,14.75,14.75,0,0,1-1.24,2.13c-.23.35-.39.75-.59,1.12,0,.07-.11.12-.16.18a.83.83,0,0,0-.19.23c-.43.9-1,1.74-1.38,2.69-.09.22-.9,1.08-1,1.33S437.09,123.09,437.09,123.25Z"/><path class="cls-1" d="M448.62,127.09c-.06.22-.34.09-.75-.24a1.88,1.88,0,0,1-.42-.6,2.35,2.35,0,0,1,0-.46c0-.08.59-.84.77-1.12a3.19,3.19,0,0,1,.64-.68l1.44-1.26a1.25,1.25,0,0,1,.37-.22,4,4,0,0,0,1.25-.83.3.3,0,0,0,.16-.21,4.16,4.16,0,0,1,1.35-1c.46-.11.9-.26,1.35-.37.07,0,.11-.08.21,0s.33,0,.46,0a2.07,2.07,0,0,1,.57-.13,1.22,1.22,0,0,1,.36.13.75.75,0,0,1,.2.44c0,.13.1.25.17.38l.06.13a5.21,5.21,0,0,1-.68,1.09,12.09,12.09,0,0,0-1.26,1c-.06.07-.16.07-.25.09s-.87.82-.91.85c-.2.12-.34.34-.66.33-.06,0-.09,0-.12.07a8.83,8.83,0,0,1-1.05.72,5.08,5.08,0,0,0-.51.41s-.08,0-.12,0-.11,0-.14.07a14.52,14.52,0,0,0-1.23,1c-.08.1-.68.28-.77.39S448.64,127,448.62,127.09Z"/><path class="cls-1" d="M453.78,140.37c-.29,0-.39-.31-.35-.84a1.4,1.4,0,0,1,.32-.67,3.56,3.56,0,0,1,.5-.19c.1,0,1.34.16,1.78.13a6.13,6.13,0,0,1,1.21.12c.83.11,1.67.18,2.54.22a3,3,0,0,1,.58.11,5.72,5.72,0,0,0,2,.24.56.56,0,0,0,.35-.06,6.67,6.67,0,0,1,2.34.11c.6.24,1.2.44,1.8.68.09,0,.19,0,.25.14.14.29.33.28.52.34a3.15,3.15,0,0,1,.75.34,1.33,1.33,0,0,1,.3.38c.08.13-.09.46-.13.49s-.11.28-.14.43a.66.66,0,0,1,0,.15,10.14,10.14,0,0,1-1.68.36,1.93,1.93,0,0,0-.34,0l-.74,0c-.54,0-1.12,0-1.24,0a1,1,0,0,1-.36-.1s-1.74,0-1.82,0a2,2,0,0,1-1.05-.24.32.32,0,0,0-.21,0,10.89,10.89,0,0,1-1.86-.29c-.32,0-.65-.08-1-.12a1.22,1.22,0,0,1-.17-.07,1.72,1.72,0,0,0-.21-.07c-.77-.11-1.52-.36-2.31-.48-.19,0-1-.51-1.16-.55S453.89,140.36,453.78,140.37Z"/></g></svg>