<?xml version="1.0" encoding="UTF-8"?><svg id="Layer_1" xmlns="http://www.w3.org/2000/svg" width="520" height="520" viewBox="0 0 520 520"><defs><style>.cls-1{opacity:.35;}.cls-1,.cls-2,.cls-3{fill:#231f20;stroke-width:0px;}.cls-2{opacity:.1;}</style></defs><path class="cls-2" d="M210.98,166.42s8.24,33.16,20.56,41.54c12.32,8.37,27.81,17.09,46.84,8.5,19.03-8.59,21.64-36.29,21.64-36.29,0,0,9.14-.07,12.16-5.06,4.15-6.85,2.17-12.58,1.02-13.81s-2.87-4.98-8.76-2.55-8.37,9.59-8.55,12.36-1.09,6.28-4.3,4.2c-3.21-2.07-12.64-19.01-12.64-19.01l-48.99,5.05-18.99,5.08Z"/><path class="cls-2" d="M251.19,276.74s-3.02-7.47-16.07-12.36c-13.05-4.89-36.31-8.57-36.31-8.57,0,0-24.75,7.87-26.41,8.57-1.66.7-5.6,2.28-4.07,3.34,1.53,1.06,9,1.18,9,1.18,0,0,3.95-3.9,5.27-3.2,1.32.7,1.22,3.2,1.22,3.2,0,0-5.36,4.8-5.36,6.61l.55,9.47s18.28,3.78,19.41,1.52c1.12-2.25,4.3-9.58,9.41-10.99,5.11-1.41,6.89-1.69,7.15.07.26,1.76-1.69,7.9-1.69,7.9l6.78.84,4.15-10.25,15.63,2.64,11.36.04Z"/><path class="cls-2" d="M309.81,260.76s-13.92-3.64-16.5-5.11c-2.58-1.48-4.49-3.36-5.23-1.95s-1.06,3.78,0,5.42,7.81,4.94,7.81,4.94l4.73,2.03s-7.61,4.21-8.28,6.89c-.67,2.67-3.03,8.83-3.77,10.16-.75,1.33,5.07,1.53,5.78,0s8.66-10.33,12.3-11.13c3.64-.8,1.65,4.16,0,6.79s-3.44,7.11-2,9.88c1.44,2.76,6.63,4.37,10.39,4.81s9.29,2.38,12.31-.12,2.96,1.74,4.68-.85c1.73-2.59,1.61-4.38,0-4.14-1.61.24-4.39-2.4-4.39-2.4l2.78-4.87s5.78.14,7.9-2.23c2.12-2.37,2.4-.54,2.4-.54l7.8,11.59s8.6-8.77,10.19-13.23c1.59-4.46-6.29-10.47-10.96-12.32-4.66-1.85-19.08-6.07-20.02-6.26-.94-.19-17.91,2.63-17.91,2.63Z"/><path class="cls-3" d="M306.12,159.85c6.99-4.61,14.53-26.12,8.67-37.96-3.49-7.06-11.6-14.76-16.95-16.52-17.68-5.82-33.97,5.79-51.67,9.18-7.38,1.41-16.08,1.41-28.81,2.64-22.56,2.17-31.15,20.28-31.17,31.39-.05,22.53,23.52,32.13,28.82,30.43,0,0-7.83-10.92,1.29-14.32,9.12-3.4,54.88-11.07,60.8-7.38s14.49,21.45,16.99,19.04c2.5-2.41,5.51-13.24,5.51-13.24l6.52-3.26Z"/><path class="cls-3" d="M98.57,359.69c-2.59-.04-5.19-.03-7.8.02-.95.02-1.9.13-2.85.14-3.37,0-6.75-.05-10.13-.1-1.5,0-3.01.01-4.49-.02-.96-.04-1.92-.02-2.87-.1-.96-.12-1.91-.3-2.86-.49-.59-.13-.5-.35.02-.65.51-.29,1.45-.8,2.53-1.01.96-.21,1.92-.24,2.87-.35.96-.07,1.91-.25,2.87-.24,1.92-.03,3.85-.03,5.8.03,2.33.1,4.75-.28,7.14-.37,2.63-.12,5.27-.2,7.91-.25,1.63-.03,3.26-.04,4.89-.05,2.47-.02,4.96.1,7.42.1.96.04,1.91.04,2.86.02.95,0,1.9.01,2.85.05.42.02.83.02,1.25.09,1.56.23,2.02.54,2.22,1.38.05.19.12.39.13.57.05.62-.65,1.06-1.78,1.16-.83.06-1.67.13-2.52.2-.84.05-1.68.04-2.54.08-1.7.08-3.42.04-5.15-.02-2.57-.06-5.17-.12-7.78-.08v-.09Z"/><path class="cls-3" d="M120.18,411.4s-10.43,2.3-6.67,3.47c3.76,1.18,15.63.69,15.63.69l-8.57-2.31-.4-1.85Z"/><path class="cls-3" d="M348.52,369.3s6.77-.29,6.68,1.11c-.21,3.08-11.87,8.56-11.87,8.56l5.19-6.58v-3.1Z"/><path class="cls-3" d="M125.15,417.13c-1.16-.2-2.33-.39-3.5-.54-.43-.05-.86-.03-1.29-.09-1.51-.26-3.03-.55-4.54-.75-.67-.09-1.35-.13-2.02-.17-.86-.05-1.73-.08-2.58-.31-.27-.07-.21-.31.03-.57.24-.25.68-.54,1.17-.58,1.74-.13,3.49-.26,5.25-.09,1.05.13,2.16-.08,3.24-.03,1.19.04,2.38.11,3.58.2l2.21.16c1.12.08,2.23.22,3.36.25.87.03,1.75-.08,2.65-.07.2,0,.4-.02.6,0,.75.11.95.39.88,1.26-.02.2-.02.4-.05.59-.11.65-.52,1.13-1,1.22-1.46.29-2.96.34-4.49.08-1.16-.16-2.32-.33-3.48-.49v-.07Z"/><path class="cls-3" d="M410.39,436.15c3-1.91,6.03-3.77,9.05-5.64,1.1-.69,2.16-1.42,3.27-2.09,3.92-2.34,7.85-4.65,11.84-6.88,1.76-1,3.48-2.08,5.2-3.11,1.11-.66,2.22-1.32,3.32-1.98,1.1-.68,2.32-1.16,3.49-1.72.74-.33.73-.15.29.44-.22.29-.54.7-.93,1.17-.2.23-.41.49-.65.74-.12.13-.25.25-.37.39-.14.11-.29.22-.43.33-4.23,3.16-8.63,6.01-13.23,8.64-2.78,1.52-5.48,3.43-8.2,5.17-3,1.91-6,3.83-8.98,5.78-1.83,1.21-3.66,2.41-5.47,3.64-2.74,1.86-5.49,3.75-8.12,5.74-2.03,1.56-3.9,3.25-5.8,4.91-.42.37-.82.73-1.24,1.11-1.58,1.35-2.27,1.55-3.13,1.19-.19-.08-.41-.14-.57-.24-.52-.33-.23-1.32.85-2.43,3.22-3.27,7-6.26,10.9-9.1,2.9-2.11,5.87-4.15,8.87-6.12l.05.06Z"/><path class="cls-3" d="M372.4,448.93c-1.19-.25-2.39-.5-3.6-.67-1.2-.22-2.42-.35-3.64-.51-.89-.13-1.79-.11-2.68-.19-1.57-.18-3.15-.25-4.74-.35-1.59-.04-3.18-.09-4.77-.07-1.42-.01-2.83.17-4.22.31-.9.09-1.79.21-2.69.29-.9.11-1.8.17-2.73.11-.61-.2-.53-.16-.13-.6.2-.23.5-.47.87-.75.37-.29.82-.56,1.34-.71.91-.26,1.83-.5,2.76-.73.93-.2,1.87-.3,2.81-.43,1.88-.2,3.79-.35,5.7-.2,2.28.12,4.65-.01,6.98.11,1.28.06,2.56.21,3.83.34,1.27.19,2.54.35,3.8.58l2.32.44,2.31.52c2.33.52,4.61,1.26,6.89,1.92.88.28,1.76.54,2.64.78.89.24,1.75.55,2.63.84.39.13.78.22,1.15.41,1.4.62,1.67,1.15,1.56,2.02-.03.2-.04.41-.09.6-.19.62-.99.84-2.03.61-3.01-.86-6.01-1.98-9.16-2.85-1.16-.33-2.34-.63-3.52-.94-1.2-.25-2.38-.58-3.59-.77v-.08Z"/><path class="cls-1" d="M342.47,324.82c-2.73-.2-72.21,33.98-72.21,33.98,0,0-58.25-4.95-60.57-1.66-5.77,8.17-7.26,8.36-19.18,8.36-9.55,0-11.69-5.47-17.75-10.25-1.68-1.33-44.57-4.05-46.87-2.03-2.82,2.49-.33,57.23,6.76,61.75,10.64,6.77,142.08,4.63,142.08,4.63l73.79-47.22s-.28-47.15-6.05-47.57ZM289.97,386.27l-1.4-7.93,48.75-26.48s.7,5.48.48,7.39c-.15,1.33-47.83,27.02-47.83,27.02Z"/><path class="cls-3" d="M293.17,375.16c-1.69.79-3.96,6.21-1.4,6.64,4.31.72,23.27-9.4,23.27-9.4l-39.67,19.75s-1.18-8.31,2.34-9.88c3.52-1.57,15.46-7.11,15.46-7.11Z"/><path class="cls-3" d="M298.76,370.32c3.25-1.44,6.48-2.93,9.69-4.45,1.17-.55,2.3-1.2,3.47-1.75,4.13-1.96,8.25-3.96,12.34-6.01,1.82-.9,3.61-1.88,5.37-2.86,1.13-.63,2.28-1.23,3.43-1.83.58-.29,1.15-.61,1.76-.85.61-.23,1.22-.47,1.83-.7.77-.28.72-.14.25.42-.29.35-.62.75-.97,1.16-.2.23-.41.51-.67.75-.26.23-.54.45-.85.67-1.1.75-2.19,1.51-3.31,2.22-1.14.68-2.29,1.34-3.44,1.99-2.3,1.32-4.67,2.54-7.11,3.65-2.9,1.35-5.78,3.03-8.69,4.51-3.2,1.63-6.44,3.2-9.68,4.76l-6,2.84c-3.03,1.43-6.1,2.81-9.1,4.25-2.33,1.12-4.54,2.38-6.82,3.55-.5.26-.98.54-1.49.79-.95.45-1.6.7-2.11.74-.52.03-.89-.11-1.26-.41-.17-.14-.37-.25-.5-.4-.22-.25-.18-.58.06-.97.25-.39.7-.84,1.37-1.23,3.93-2.36,8.25-4.41,12.61-6.44,3.25-1.48,6.52-2.98,9.78-4.46l.04.07Z"/><path class="cls-3" d="M298.63,379.17l10.09-5.1c1.23-.62,2.41-1.32,3.64-1.94,4.33-2.18,8.66-4.38,12.91-6.7,1.89-1.03,3.74-2.14,5.59-3.21,1.18-.7,2.37-1.39,3.55-2.09l.89-.51.95-.42c.63-.28,1.26-.56,1.9-.84.8-.34.72-.25.21.3-.25.28-.61.68-1.03,1.18-.23.26-.46.52-.69.8-.12.14-.26.27-.38.43-.15.11-.31.23-.47.35-2.32,1.59-4.61,3.22-7.02,4.67-2.4,1.46-4.84,2.87-7.35,4.19-2.99,1.58-5.96,3.5-8.96,5.21-3.29,1.91-6.66,3.69-10.03,5.46l-6.23,3.26c-3.13,1.66-6.32,3.25-9.4,4.96-2.41,1.3-4.63,2.84-6.99,4.16-.52.3-1.01.62-1.54.89-1.99,1-2.79,1-3.57.52-.18-.12-.39-.21-.53-.34-.46-.44.1-1.33,1.39-2.38,3.89-2.98,8.41-5.29,12.92-7.68,3.37-1.74,6.75-3.49,10.12-5.23l.04.07Z"/><path class="cls-3" d="M258.7,354.64c.52.22,1.09.39,1.67.54.21.05.43.03.64.09.77.19,1.55.38,2.32.56.35.08.7.1,1.05.12.45.04.9.16,1.34.4.14.08.1.24-.03.45-.13.2-.37.53-.63.65-.23.09-.46.21-.69.27-.22.02-.45.04-.68.04-.46,0-.91,0-1.38-.15-.55-.17-1.14-.09-1.72-.16-.63-.07-1.28-.2-1.91-.33-.39-.1-.78-.19-1.18-.31-.6-.15-1.17-.42-1.76-.62-.45-.17-.98-.21-1.47-.4-.1-.05-.22-.07-.31-.15-.34-.26-.33-.49,0-1.02.08-.12.15-.24.23-.36.28-.38.66-.6.94-.62.21,0,.41-.02.6-.03.18.02.32.07.49.1.31.08.63.19.94.31.49.15.97.41,1.52.56v.06Z"/><path class="cls-3" d="M298.07,343.51c3.06-1.5,6.12-3.01,9.16-4.56,1.11-.56,2.18-1.2,3.3-1.75l5.9-2.94,5.95-2.85c1.77-.83,3.47-1.8,5.23-2.61,1.12-.53,2.25-1.06,3.38-1.6,1.15-.48,2.34-.88,3.51-1.32.74-.26.65-.2.13.23-.53.41-1.42,1.31-2.57,2.21-1.06.71-2.13,1.39-3.2,2.07-.54.34-1.07.69-1.61,1.01l-1.67.9c-2.24,1.19-4.5,2.36-6.8,3.46-2.77,1.3-5.53,2.88-8.3,4.33-3.05,1.58-6.13,3.14-9.2,4.69l-5.69,2.84c-2.88,1.42-5.78,2.84-8.64,4.24-2.22,1.1-4.34,2.32-6.52,3.44-.48.25-.94.52-1.43.75-1.84.84-2.53.87-3.18.45-.15-.1-.33-.18-.44-.29-.37-.38.2-1.1,1.45-1.91,3.76-2.24,7.89-4.21,12.01-6.28,3.07-1.52,6.16-3.03,9.22-4.59l.03.06Z"/><path class="cls-3" d="M339.9,380.24l-4.51,2.85c-.55.34-1.07.74-1.62,1.07-1.96,1.17-3.93,2.33-5.92,3.43-.89.49-1.76,1.01-2.62,1.52-1.12.64-2.3,1.2-3.51,1.66-.38.14-.36.05-.13-.23.24-.27.65-.8,1.2-1.3.51-.42.99-.87,1.5-1.28l1.6-1.13c.54-.36,1.08-.73,1.63-1.09.56-.34,1.13-.66,1.71-.98,1.38-.76,2.68-1.77,4.01-2.67,1.46-.99,2.93-1.98,4.38-3,.89-.63,1.78-1.25,2.65-1.91,1.32-.99,2.63-1.99,3.84-3.07.93-.85,1.73-1.82,2.45-2.77.17-.21.28-.43.43-.63.26-.38.49-.55.69-.65.25-.09.45-.08.76-.08.14,0,.27-.02.41-.02.21,0,.37.12.46.42.1.31.11.74-.06,1.18-.53,1.25-1.35,2.18-2.18,3.09-.85.89-1.76,1.72-2.71,2.48-1.43,1.12-2.92,2.14-4.4,3.16l-.04-.04Z"/><path class="cls-3" d="M120.47,409.04c-.32-1-.55-2-.77-3-.09-.36-.21-.72-.26-1.08-.19-1.3-.31-2.6-.43-3.89-.08-.57-.1-1.14-.17-1.7-.13-.71-.03-1.47.07-2.21.04-.23.11-.21.29-.05.17.17.53.47.77.85.47.67.6,1.39.85,2.09.15.71.17,1.45.21,2.18.02.89.33,1.75.54,2.61.2.95.42,1.9.7,2.84.17.57.35,1.15.58,1.7.33.84.71,1.67,1.19,2.43.4.57.9,1.05,1.39,1.51.1.11.23.19.32.31.35.42.33.68.04,1.12-.06.1-.12.2-.19.29-.22.28-.64.35-1.08.13-1.27-.68-2.12-1.92-2.82-3.17-.52-.94-.92-1.93-1.27-2.93l.05-.02Z"/><path class="cls-3" d="M273.53,413.23c.21-.95.35-1.96.48-2.99.04-.38.01-.75.05-1.13.15-1.34.18-2.71.31-4.09.05-.61.06-1.23.08-1.84.02-.78.06-1.59.33-2.36.09-.24.19-.18.3.05.11.22.29.59.37,1.02.12.76.29,1.53.43,2.3.14.78.25,1.56.17,2.37-.06.96.11,1.96.12,2.95.01,1.09-.03,2.2-.21,3.31-.11.68-.23,1.36-.42,2.05-.27,1.03-.7,2.06-1.37,2.99-.51.72-1.17,1.45-2.06,1.87-.19.1-.38.21-.59.24-.39.09-.64.07-.82-.05-.18-.09-.28-.32-.36-.63-.03-.14-.08-.26-.09-.38-.05-.35.18-.94.51-1.09.95-.68,1.37-1.04,1.89-2.02.35-.71.64-1.6.8-2.56h.06Z"/><path class="cls-3" d="M275.92,411.52c-.05-.94-.04-1.87-.03-2.78,0-.33-.04-.66,0-1,.15-1.16.3-2.32.45-3.48.05-.51.1-1.02.15-1.52.05-.65.12-1.3.3-1.93.06-.2.18-.16.32.02.14.18.33.51.38.88.08.66.17,1.31.23,1.96.03.65.04,1.3,0,1.95-.06.78.12,1.59.2,2.38.05.87.07,1.74.16,2.6.05.53.11,1.06.21,1.57.15.78.3,1.57.66,2.21.27.5.77.81,1.03.81.06-.02.11-.02.15-.04.12.13.28.29.52.78l.17.31c.15.29.1.81-.52,1.09-.22.1-.5.19-.78.16-.26-.03-.55-.09-.78-.2-.51-.21-.87-.53-1.17-.85-.59-.66-.89-1.34-1.13-2-.35-.98-.47-1.95-.56-2.9h.06Z"/><path class="cls-3" d="M198.42,363.78c-1.72.54-3.49.91-5.26,1.1-.65.06-1.29.19-1.94.2-1.15.01-2.3-.05-3.44-.22-1.14-.2-2.25-.49-3.33-.87-.95-.36-1.9-.73-2.8-1.21-.57-.32-1.13-.65-1.65-1.05-.49-.44-.88-.99-1.17-1.58-.19-.37-.05-.4.36-.34.4.08,1.16.11,1.77.35,1.9,1.24,4.07,1.93,6.38,2.4,1.39.31,2.9.21,4.36.08,1.61-.14,3.23-.45,4.8-.91.97-.28,1.92-.63,2.84-1.05,1.39-.63,2.75-1.38,3.91-2.36.9-.76,1.58-1.7,2.19-2.65l.37-.64c.49-.76.72-.94,1.49-.76.16.04.33.05.48.1.47.13.77.77.46,1.54-.9,2.28-2.76,4.16-4.82,5.53-1.53,1.04-3.23,1.81-4.95,2.4l-.03-.06Z"/><path class="cls-3" d="M141.43,350.35c1.8.32,3.61.61,5.42.85.66.09,1.33.1,1.99.19,2.33.3,4.67.61,7.03.79,1.04.08,2.1.07,3.13.14l2,.07c.67.07,1.34.21,2.01.32.42.09.36.19.01.39-.35.19-1,.6-1.77.83-.69.12-1.38.17-2.06.24-.69.06-1.38.13-2.07.08-1.38-.05-2.76-.15-4.14-.34-1.65-.22-3.38-.2-5.07-.37-1.86-.18-3.71-.41-5.56-.66l-3.41-.5c-1.72-.25-3.45-.56-5.17-.9-1.34-.26-2.68-.44-4.02-.82-.29-.09-.59-.15-.88-.26-.52-.25-.82-.51-.98-.78-.16-.26-.2-.5-.18-.79,0-.13,0-.26.03-.38.09-.37.64-.47,1.46-.46.59.04,1.13.18,1.68.31.56.12,1.11.25,1.67.37,1.12.25,2.29.46,3.47.69,1.76.32,3.59.64,5.41.91v.06Z"/><path class="cls-3" d="M241.22,356.38l-5.34-.19c-.65-.02-1.3.02-1.95,0-2.29-.1-4.57-.2-6.86-.3-1.01-.04-2.03-.03-3.04,0-.65.02-1.29.02-1.94,0l-.49-.02-.48-.11c-.32-.07-.64-.15-.97-.22-.4-.1-.35-.15,0-.33.24-.13.49-.27.71-.39.17-.09.33-.18.48-.26.09-.05.17-.08.26-.14l.27-.04c1.32-.17,2.64-.17,3.96-.16,1.32,0,2.64.05,3.97.14,1.59.1,3.24.03,4.87.05l5.37.1,3.3.06c1.67.02,3.34.06,5,.02,1.29-.03,2.55-.18,3.81-.27.28-.02.55-.06.83-.07,1.05-.07,1.38.17,1.62.64.05.11.12.22.16.33.11.36-.31.69-1.08.88-2.27.36-4.67.41-7.09.41-1.79,0-3.59-.05-5.39-.07v-.05Z"/><path class="cls-3" d="M273.85,302.22c-4.73-1.41-9.65-2.48-14.54-3.54l-5.38-1.07c-6.31-1.31-12.65-2.54-18.99-3.75-2.81-.53-5.65-1.01-8.46-1.47-1.8-.29-3.61-.58-5.4-.95-.9-.18-1.8-.34-2.69-.56-.89-.23-1.77-.46-2.66-.69-1.1-.3-.96-.23,0-.19.48.02,1.18.02,2.02,0,.42,0,.88-.04,1.36-.03.48.03.99.06,1.51.12,3.73.32,7.39,1.01,11.08,1.59,3.68.62,7.37,1.27,11.06,2.02,4.41.9,9.03,1.64,13.55,2.52,4.97.98,9.93,2,14.87,3.22,1.31.33,2.63.68,3.94,1.07.66.2,1.31.41,1.97.67.34.13.64.25,1.03.47.45.23.85.58.95,1.07.04.14.06.31.09.42l.06.33c.04.22.09.44.1.65.27,2.41.3,4.78.31,7.15,0,2.37-.03,4.73-.08,7.07-.01,1.82-.03,3.62-.04,5.42,0,1.8,0,3.59-.07,5.38-.02.79-.04,1.56-.07,2.36-.12,2.95-.31,3.87-.77,4.51-.1.14-.21.34-.3.42-.31.3-.69-.93-.83-3.11-.49-6.47-.2-13.23-.12-19.99.03-1.71.06-3.43.03-5.13,0-.86-.05-1.69-.08-2.54l-.1-1.23c-.01-.21-.04-.4-.08-.58l-.05-.28c0-.09-.02-.05,0-.09-.02,0,0-.01-.02-.02h0s.02,0-.08-.05c-.27-.14-.62-.28-.96-.42-.7-.26-1.44-.5-2.19-.73v-.05Z"/><path class="cls-3" d="M268.97,291.45l-9.43-2.13-3.44-.75-6.06-1.39c-2.01-.51-4.01-1.07-6.04-1.46-1.8-.38-3.62-.72-5.41-1.05-1.15-.21-2.31-.41-3.46-.62-1.15-.22-2.3-.49-3.44-.73-.71-.16-.61-.17,0-.14.62.04,1.77.06,3.12.18,2.37.36,4.73.78,7.09,1.22,1.18.23,2.36.46,3.54.69,1.18.25,2.38.38,3.56.61,2.83.55,5.78,1.17,8.67,1.76l9.51,2.09,5.85,1.28c2.96.63,5.93,1.26,8.88,1.82,2.29.43,4.55.78,6.83,1.16.5.08.99.19,1.49.29,1.85.41,2.43.61,2.81.84.09.05.2.11.25.16.16.14-.62.13-2.02.04-1.03-.09-2.09-.09-3.14-.26-1.05-.15-2.11-.3-3.18-.45-2.13-.31-4.28-.72-6.42-1.14-3.19-.62-6.38-1.31-9.56-1.99v-.03Z"/><path class="cls-3" d="M218,283.53c-.39-.14-.79-.29-1.18-.41-.14-.04-.29-.03-.44-.08-.51-.17-1.01-.37-1.52-.55-.22-.08-.45-.11-.68-.13-.29-.05-.59.02-.86-.25-.09-.08-.06-.24.04-.46.1-.22.27-.56.44-.57.61-.11,1.22-.17,1.81,0,.35.14.73.07,1.1.11.4.05.81.12,1.21.19.25.04.5.09.74.13.37.07.75.17,1.12.18.29.01.59-.14.88-.16.06,0,.13-.02.19-.01.24.02.3.22.31.69v.31c0,.32-.12.67-.31.82-.56.5-1.1.45-1.65.44-.41-.03-.81-.07-1.21-.2v-.05Z"/><path class="cls-3" d="M190.56,289.18c-1.03-.14-2.06-.28-3.09-.42-.38-.05-.76-.02-1.14-.09-1.33-.27-2.65-.59-3.95-1-.57-.19-1.15-.34-1.73-.49-.36-.14-.72-.26-1.07-.41-.35-.16-.69-.36-1.03-.55-.21-.13-.15-.19.08-.3.23-.09.66-.3,1.1-.37l1.17-.16c.38-.03.75-.02,1.12-.02.37.02.74.02,1.1.06.36.08.72.17,1.08.28.87.28,1.82.17,2.73.29l3.05.36c.63.07,1.26.14,1.89.18.96.08,1.92.17,2.88.2.75.02,1.49-.1,2.23-.13.16,0,.33-.05.49,0,.6.14.78.36.86.91.02.12.05.25.05.36.02.38-.26.74-.71.95-.67.37-1.33.42-2.01.52-.67.07-1.36.16-2.04.11-1.02-.04-2.05-.14-3.08-.22v-.07Z"/><path class="cls-3" d="M365.79,326.43c.81.7,1.63,1.41,2.52,2.04.32.24.69.39,1.01.63,1.15.8,2.34,1.58,3.59,2.24.56.29,1.12.6,1.7.84l.56.23c.18.1.35.21.53.32.35.22.69.47,1.03.73.2.19.15.22-.11.32-.26.09-.76.3-1.28.34-1.82.05-3.41-.67-4.82-1.7-.85-.6-1.85-1-2.74-1.57-.99-.61-1.93-1.3-2.84-2.02-.56-.45-1.09-.92-1.63-1.39-.81-.71-1.56-1.49-2.35-2.21-.6-.57-1.31-1.02-1.88-1.61-.13-.12-.27-.24-.39-.38-.43-.52-.45-.79-.13-1.24.07-.1.14-.21.22-.31.28-.31.72-.33,1.15-.08.62.39,1.3.73,1.82,1.22.56.46,1.08.95,1.62,1.43.8.72,1.6,1.45,2.44,2.11l-.04.05Z"/><path class="cls-3" d="M356.68,268.96c.32.62.59,1.25.81,1.89.09.23.19.46.25.7.22.84.37,1.7.41,2.55.02.38.02.76.03,1.13,0,.48-.02.96-.15,1.43-.04.14-.12.11-.22-.02-.1-.13-.22-.36-.25-.62-.1-.93-.37-1.79-.44-2.71-.06-.55-.31-1.08-.51-1.6-.23-.57-.49-1.13-.81-1.67-.19-.33-.4-.65-.63-.96-.35-.46-.71-.93-1.14-1.31-.34-.29-.74-.49-1.13-.69-.08-.05-.17-.08-.26-.12-.31-.17-.36-.31-.23-.68.03-.08.05-.17.08-.25.11-.27.37-.4.67-.31.88.25,1.67.83,2.32,1.51.25.25.47.53.68.81.19.3.39.59.55.9l-.03.02Z"/><path class="cls-3" d="M358.19,277.24c-.43,1.21-.93,2.39-1.5,3.52-.19.42-.37.84-.6,1.25-.83,1.4-1.76,2.73-2.79,3.95-.45.55-.9,1.1-1.34,1.64-.6.67-1.11,1.46-2.13,1.68-.28.1-.27.06-.23-.23.01-.16.05-.35-.01-.69,0-.28.09-.5.21-.72.21-.4.46-.74.73-1.07.27-.33.5-.69.77-1.03.5-.69,1.05-1.36,1.58-2.05.67-.81,1.05-1.84,1.5-2.81.49-1.06.93-2.15,1.28-3.27l.31-1.04.25-1.06c.25-1.07.43-2.17.47-3.26,0-.85-.17-1.68-.33-2.5-.03-.18-.09-.36-.12-.54-.08-.67.14-.91.72-1.14.14-.05.27-.11.4-.15.45-.13.87.12,1.15.64.66,1.57.7,3.35.53,5.09-.13,1.29-.39,2.58-.79,3.81h-.06Z"/><path class="cls-3" d="M368.19,275.25c1.12.6,2.22,1.24,3.28,1.93.39.24.8.45,1.18.72,1.34.93,2.63,1.9,3.89,2.91.57.43,1.13.89,1.68,1.33l1.04.88c.34.3.64.66.94,1,.18.22.08.28-.21.26-.28-.04-.79-.1-1.24-.36-.78-.47-1.56-.93-2.35-1.4-.74-.52-1.47-1.06-2.2-1.61-.86-.68-1.9-1.16-2.88-1.7-1.07-.59-2.16-1.17-3.26-1.72-.68-.34-1.36-.67-2.05-.97-1.05-.45-2.12-.9-3.21-1.22-.85-.24-1.73-.33-2.6-.44-.19-.03-.38-.03-.57-.06-.71-.1-.88-.36-.89-1.01,0-.15-.02-.29,0-.43.03-.45.43-.83,1-.84,1.67,0,3.34.48,4.96,1.1,1.2.46,2.37,1.01,3.52,1.58l-.02.05Z"/><path class="cls-3" d="M231,234.6c.88-.93,1.79-1.81,2.76-2.61.34-.3.67-.63,1.03-.91,1.3-.97,2.62-1.9,4.01-2.69.61-.37,1.22-.73,1.81-1.11.74-.51,1.61-.83,2.48-1.1.27-.08.29.04.18.31-.12.26-.35.74-.71,1.11-.32.33-.63.67-1,.91l-1.05.81c-.7.54-1.41,1.06-2.19,1.51-.93.55-1.7,1.37-2.5,2.1-.89.81-1.76,1.64-2.59,2.5-.51.54-1.01,1.08-1.48,1.66-.71.87-1.39,1.77-1.94,2.74-.42.76-.72,1.55-1.02,2.35-.07.17-.12.35-.2.52-.31.62-.54.77-1.02.74-.11,0-.22,0-.32-.02-.34-.06-.5-.43-.46-1.01.03-.87.32-1.67.61-2.49.16-.4.33-.8.52-1.19l.68-1.11c.71-1.08,1.53-2.09,2.38-3.05l.04.03Z"/><path class="cls-3" d="M351.89,224.8c-25.53-16.01-37.9-18.74-49.57-16.36-10.34,2.12-18.53,13.77-32,15.87-12.42,1.94-24.16-6.96-24.16-6.96,0,0,17.1,3.8,25.24,1.86,8.14-1.94,15.93-8.9,15.93-8.9l7.01-9.14s12.55.91,21.49,4.33,26.28,11.77,26.28,11.77l9.78,7.52Z"/><path class="cls-3" d="M234.81,208.07c4.87,4.26,10.63,7.54,16.88,9.4,1.14.29,2.28.61,3.43.84,1.17.15,2.33.31,3.49.5,8.22.81,16.81-1.29,23.6-6.31,2.98-2.25,5.58-5.02,7.74-8.04l1.87-3.06c.55-1.06,1.04-2.15,1.58-3.22.97-2.19,1.93-4.39,2.83-6.67.66-1.4.58-1.23.6.11.02.75.05,1.72.08,2.83-.05,1.17-.35,2.5-.72,3.94-1.81,4.89-4.66,9.45-8.38,13.21-3.74,3.73-8.33,6.64-13.35,8.33-5.98,2.04-12.69,2.71-19.03,1.63-.43-.07-.88-.11-1.31-.22l-1.28-.33-2.55-.67c-1.65-.59-3.29-1.18-4.91-1.84l-2.36-1.14c-.78-.39-1.59-.73-2.32-1.21-1.48-.93-3.03-1.73-4.4-2.82-3.55-2.42-6.6-5.47-9.44-8.63-4.23-4.89-7.57-10.48-10.26-16.24-2.08-4.48-3.94-9-5.27-13.72-.34-1.03-.59-2.05-.85-3.12-.22-.98-.41-1.8-.52-2.5-.09-.7-.14-1.26-.14-1.74,0-.95.17-1.52.53-2,.16-.22.31-.5.48-.64.59-.47,1.4,1.04,2.07,3.82,1.13,4.1,2.38,8.26,3.93,12.37,1.59,4.08,3.44,8.12,5.62,11.97,3.31,5.66,7.4,10.9,12.38,15.13l-.05.07Z"/><path class="cls-3" d="M270.19,154.18c2.03.05,4.08.18,6.25.78,1.09.34,2.22.73,3.32,1.6.94.76,1.65,1.6,2.31,2.46,2.54,3.47,3.88,7.17,5.63,10.46,1.22,2.36,2.85,4.63,4.55,5.06.37.12.77.15,1.2.11.49-.03.7-.12.89-.24.34-.15.73-1.08.94-2.21.43-2.27.73-5,1.81-7.52.52-1.27,1.23-2.47,2.08-3.56.42-.54.88-1.05,1.37-1.53.53-.49,1.09-.97,1.73-1.33,2.51-1.51,5.65-1.86,8.41-.64.64.29,1.15.68,1.65,1.04.48.41.95.82,1.36,1.31.83.95,1.46,2.07,1.87,3.24.83,2.36.78,4.88.19,7.17-.73,2.96-2.41,5.69-4.83,7.6-1.21.95-2.61,1.68-4.1,2.07-1.49.41-3.07.36-4.52.06-1.8-.53-1.42-.69.07-.95.74-.19,1.76-.43,2.8-.96,1.06-.48,2.16-1.11,3.23-1.95.96-.73,1.79-1.65,2.46-2.67.32-.52.63-1.05.86-1.62.26-.55.49-1.12.65-1.7.71-2.32.62-4.83-.37-6.72-.49-.95-1.22-1.72-2.12-2.33-.24-.18-.41-.27-.6-.36-.2-.09-.42-.17-.66-.24-.47-.14-.99-.22-1.52-.23-1.06,0-2.14.25-3.07.8-.48.27-.89.58-1.33,1.01-.46.43-.86.91-1.25,1.39-.91,1.19-1.56,2.6-1.98,4.15-.44,1.56-.62,3.22-.96,5.1-.19.93-.39,1.97-1.08,3.09-.35.55-.88,1.09-1.49,1.44-.61.37-1.28.54-1.84.61-1.11.18-2.36.06-3.44-.38-1.09-.43-1.99-1.13-2.71-1.86-1.58-1.65-2.55-3.47-3.47-5.24l-2.55-5.26c-.85-1.7-1.76-3.34-2.88-4.71-.54-.66-1.21-1.34-1.79-1.67-.67-.36-1.46-.67-2.35-.84-2.15-.47-4.51-.53-6.85-.48-2.35.05-4.71.25-7.07.5-7.15.78-14.33,2.02-21.38,3.39-5.49,1.08-10.82,2.37-16.25,3.51-1.2.25-2.36.53-3.58.75-4.51.78-6.02.64-7.1-.03-.25-.15-.56-.29-.71-.45-.51-.51,1.24-1.36,4.46-2.16,9.58-2.29,19.76-4.46,30.12-6.32,3.85-.68,7.72-1.31,11.65-1.79,3.92-.48,7.88-.87,11.97-.84v.08Z"/><path class="cls-3" d="M241.64,224.94c.08.04.13.06.21.06.06,0,.04.01.07,0-.05.03-.06.06-.07.11-.05.09-.07.18-.07.28-.03.22-.03.5.03.77.01.16.03.31.06.46l.05.22c.01.05.01,0,.01.02-.05,0-.23.03-.41.1-.37.13-.81.36-1.22.63-.84.54-1.66,1.22-2.43,1.96-.57.55-1.05,1.18-1.58,1.77-1.9,2.09-3.61,4.44-5.12,6.92-.65,1.11-1.26,2.26-1.8,3.43-.7,1.5-1.22,3.07-2.43,4.36-.43.38-.49.29-.69-.27-.28-.59-.57-1.6-.33-2.56.17-.87.57-1.64.88-2.45.33-.81.7-1.59,1.08-2.38.81-1.55,1.76-3.03,2.83-4.45,1.29-1.68,2.39-3.59,3.83-5.25.79-.91,1.64-1.78,2.57-2.59.95-.8,1.92-1.56,3.2-2.15.21-.09.41-.17.67-.24.25-.06.52-.15,1.04-.1.09.01.17.03.26.06.1.03.13.03.3.12.28.17.52.38.66.79.13.44.06.59.02.85-.07.24-.11.27-.18.42-.08.14-.1.15-.14.2l-.11.13-.22.26c-.56.61-1.14,1.06-1.71,1.53-1.71,1.37-3.45,2.62-4.98,4.06-1.2,1.11-2.18,2.39-3.1,3.66-.19.29-.42.54-.63.81-.4.5-.73.77-1.04.92-.3.15-.58.19-.9.16-.15-.01-.3,0-.43-.04-.4-.09-.47-.77-.17-1.86.32-.73.61-1.51,1.08-2.16.45-.66.94-1.3,1.47-1.91,1.05-1.22,2.17-2.37,3.34-3.45.86-.81,1.75-1.57,2.6-2.31.42-.37.85-.74,1.21-1.1.19-.19.36-.35.52-.49.1-.08.15-.14.19-.18l.08-.07.02-.02h0s0,0,0,0h0c.49.33-1.09-.75,1.09.75h.02s.07.07.07.07c.09.07.2.12.31.16h0Z"/><path class="cls-3" d="M306.98,261.37c3.56-1.51,7.24-2.89,11.09-3.88,1.93-.49,3.9-.88,5.95-1.06,2.02-.18,4.2-.15,6.25.36,1.4.34,2.81.66,4.17,1.06,1.38.36,2.73.8,4.07,1.26,9.4,3.32,18.41,7.56,26.92,12.68,1.87,1.16,3.77,2.29,5.59,3.55,1.86,1.19,3.64,2.5,5.39,3.82,2.19,1.77,4.4,3.55,6.34,5.64,1.95,2.06,3.7,4.35,4.89,6.94.84,1.54.68,1.34-.38.29-.54-.52-1.34-1.22-2.36-1.97-1.06-.73-2.13-1.69-3.29-2.72-8.25-7.33-17.87-13.12-27.87-18.4-6.01-3.12-12.66-5.63-19.24-7.66l-2.72-.79c-.9-.21-1.84-.47-2.71-.65-1.68-.32-3.5-.31-5.31-.11-3.64.42-7.28,1.54-10.84,2.85-2.18.82-4.37,1.71-6.54,2.64-2.16.93-4.31,1.89-6.34,2.99-.74.41-1.47.83-2.11,1.3-.62.43-1.17,1.01-1.74,1.64-1.11,1.26-2.15,2.64-3.1,4.06-.95,1.42-1.84,2.89-2.58,4.41-.36.76-.68,1.53-.9,2.28-.04.18-.1.38-.12.55-.01.09-.04.18-.04.26v.17c-.01.24.06.51.27.65.08.07.17.13.27.18.62.41,1.8-.12,2.72-.97.95-.84,1.79-1.88,2.6-2.94l2.43-3.3c.43-.56.86-1.12,1.41-1.68.54-.54,1.12-1.02,1.73-1.45,1.07-.75,2.17-1.37,3.36-1.88,2.21-.92,3.8-1.15,4.91-1.2.56-.02,1,.04,1.37.12.37.12.66.27.91.44.23.16.52.31.64.44.38.45-1.38.87-4.31,1.79-1.68.57-3.34,1.29-4.79,2.26-.72.48-1.4,1.01-1.94,1.59-.54.58-1.12,1.36-1.69,2.12-1.16,1.55-2.32,3.21-3.82,4.79-.77.78-1.58,1.6-2.84,2.24-.63.31-1.43.58-2.4.53-1.03-.05-1.93-.54-2.67-1.19-.19-.2-.34-.44-.52-.65-.13-.25-.24-.51-.31-.78-.09-.27-.11-.55-.14-.84-.04-.24,0-.69.02-.85.09-.83.29-1.49.5-2.13.44-1.27.97-2.4,1.55-3.51.95-1.8,2.01-3.5,3.17-5.15.58-.83,1.19-1.64,1.87-2.44.34-.4.69-.8,1.1-1.21.4-.41.92-.85,1.37-1.16,1.84-1.27,3.59-2.12,5.38-2.99,1.78-.85,3.57-1.65,5.36-2.42l.04.07Z"/><path class="cls-3" d="M307.02,281.16c-.43,1.25-.77,2.54-.93,3.83-.04.46-.02.94-.02,1.39-.03.41,0,.78,0,1.16l.05.53.12.53c.19.7.53,1.33,1.07,1.82.48.42,1.11.72,1.8.89.22.05.45.1.68.12l.7.18c.48.12.97.26,1.49.42.32.11.28.38,0,.74-.27.35-.78.92-1.45,1.12-.3.08-.6.14-.92.19-.32.05-.63-.01-.95-.04-.64-.08-1.31-.24-1.95-.54-.63-.31-1.21-.78-1.71-1.31-.47-.55-.87-1.16-1.1-1.81-.31-.77-.51-1.51-.7-2.31-.13-.76-.19-1.51-.15-2.22.09-1.57.4-3.06.81-4.51.26-.89.56-1.76.88-2.62.5-1.3,1.14-2.54,1.75-3.78.5-.95.87-1.97,1.46-2.91.13-.21.23-.43.39-.61.29-.35.58-.5.85-.53.27-.03.51.04.8.2.13.07.27.13.38.21.36.26.45.82.33,1.47-.26.87-.68,1.59-1.05,2.37-.38.77-.76,1.55-1.13,2.35-.52,1.2-1.03,2.43-1.4,3.7l-.07-.02Z"/><path class="cls-3" d="M315.08,285.16c-.27,1.14-.42,2.3-.32,3.38,0,.2.07.38.12.56.05.19.1.37.15.52.27,1.19,1.2,2.26,2.59,2.9.59.32,1.26.56,1.94.72.89.15,1.78.44,2.71.77.29.11.24.28-.03.53-.27.23-.76.64-1.35.79-1.05.28-2.11.2-3.21.03-.27-.05-.55-.12-.82-.19-.27-.12-.52-.25-.78-.38-.51-.3-1-.64-1.43-1.07-.52-.5-1.04-1.04-1.49-1.65-.43-.61-.8-1.3-.98-1.99-.4-1.51-.37-2.99-.21-4.38.09-.86.28-1.7.46-2.52.29-1.25.72-2.45,1.09-3.65.28-.94.42-1.92.78-2.85.08-.21.12-.42.23-.62.46-.69.85-.79,1.51-.57.15.05.31.09.45.16.47.22.7.72.7,1.3.03.46-.05.85-.11,1.25-.08.39-.12.82-.25,1.19-.23.77-.5,1.54-.75,2.31-.37,1.15-.73,2.31-.94,3.47h-.08Z"/><path class="cls-3" d="M329.47,286.05c-.03.06-.04.16.02.22-.05-.01.27.19.52.31.27.14.57.28.89.44.64.32,1.34.62,2.12,1.22.96.78,1.59,1.97,1.31,3.17l-.2.58c-.08.21-.22.4-.32.6l-.17.29c-.07.09-.16.17-.25.26-.33.37-.59.53-.91.74-.3.21-.62.31-.93.46-.31.1-.63.2-.94.26-2.2.41-4.34-.02-6.18-1.01-.91-.51-1.76-1.13-2.44-1.9-.35-.33-.72-.86-.97-1.36-.11-.26-.23-.51-.31-.77l-.19-.78c-.32-1.84-.11-3.6.24-5.28.25-1.08.69-2.1,1.21-3.08.14-.24.28-.48.43-.72l.54-.65c.21-.2.4-.41.62-.6.25-.17.49-.33.76-.45.71-.26.57-.16.33.38-.23.59-.25,1.67-.53,2.7-.33.89-.52,1.86-.69,2.79-.25.91-.44,1.84-.49,2.74-.05.89.02,1.76.26,2.41.05.18.13.32.21.45.05.07.06.14.13.22l.22.25c.27.36.61.65.94.96.83.7,1.91,1.15,3.02,1.31,1.1.17,2.3.04,3.15-.41.14-.05.23-.13.33-.2.11-.05.21-.17.24-.19.09-.06.18-.2.21-.32.07-.18.02-.4-.11-.55-.04-.05-.06-.06-.09-.09-.05-.05-.15-.1-.23-.16-.16-.11-.37-.21-.58-.31-.42-.2-.91-.39-1.42-.61-.51-.24-1.02-.39-1.74-.95l-.36-.35-.31-.4c-.11-.32-.22-.64-.24-.97-.07-.33,0-.67.03-1.01.08-.35.13-.57.22-.83.34-.99.84-1.81,1.38-2.59.22-.33.46-.64.71-.95.11-.13.31-.38.5-.56.18-.2.39-.35.62-.49.34-.09.69-.12,1.04-.15l.74-.03c.47-.02.93-.06,1.38-.13.91-.12,1.79-.36,2.59-.72,1.76-.75,2.98-2.2,3.71-3.83.17-.36.31-.71.42-1.11.12-.35.24-.64.36-.87.09-.25.18-.44.31-.59.27-.3.59-.43,1.04-.52.2-.04.41-.1.61-.11.33-.02.57.16.74.54.16.37.27.94.16,1.62-.39,2.01-1.41,4.14-3.16,5.73-1.76,1.56-4.06,2.47-6.25,2.74-.57.09-1.13.13-1.68.15l-.76.02s0,0,0,0c.21-.28-.61.64-.97,1.28-.21.34-.39.69-.52,1.02-.07.17-.13.32-.17.47-.06.17-.06.28-.07.26h-.07Z"/><path class="cls-3" d="M358.03,280.86c-.83,1.32-1.69,2.62-2.66,3.83-.34.45-.63.94-1.01,1.35-1.32,1.49-2.76,2.85-4.31,4.05-.66.56-1.35,1.09-2,1.65-.46.31-.9.64-1.36.94-.5.25-1.03.44-1.56.62-.34.1-.38-.06-.3-.44.1-.37.26-1.05.62-1.58.36-.41.72-.8,1.09-1.19.38-.36.78-.71,1.17-1.05.79-.69,1.57-1.39,2.4-2.06,1.01-.8,1.73-1.93,2.53-2.96.84-1.16,1.67-2.33,2.38-3.6.46-.76.85-1.56,1.25-2.36.55-1.23,1.1-2.49,1.45-3.79.28-1.01.33-2.06.43-3.1.03-.23,0-.46.04-.69.14-.83.41-1.05,1.26-1.08.19,0,.39-.02.58-.01.64.04,1.09.49,1.16,1.18.18,2.03-.32,4.09-1.06,6.07-.54,1.47-1.28,2.87-2.02,4.26l-.07-.03Z"/><path class="cls-3" d="M354.98,314.71c.67,1,1.42,1.95,2.12,2.93.75.94,1.48,1.9,2.27,2.81.58.66,1.2,1.29,1.79,1.94,2.06,2.32,4.28,4.52,6.65,6.55,1.05.91,2.17,1.73,3.28,2.54l2.2,1.48c.75.47,1.44,1.03,2.11,1.63.41.38.21.59-.38.65-.3.03-.69.03-1.14-.01-.46-.03-.95-.16-1.4-.42l-2.38-1.44c-.78-.5-1.54-1.03-2.3-1.57-1.48-1.12-2.88-2.35-4.21-3.67-.79-.79-1.61-1.57-2.47-2.33-.82-.8-1.68-1.56-2.46-2.39-1.73-1.81-3.36-3.72-4.9-5.69-.95-1.21-1.86-2.45-2.76-3.69-1.36-1.89-2.63-3.84-3.92-5.75-1.02-1.48-2.1-2.87-3.14-4.32-.23-.32-.46-.62-.67-.96-.77-1.24-.82-1.75-.23-2.43.13-.15.25-.33.4-.46.5-.44,1.26-.19,1.95.63,1.99,2.44,3.8,5.13,5.55,7.88,1.31,2.04,2.65,4.07,4.08,6.03l-.05.05Z"/><path class="cls-3" d="M285.56,256.64c-.42-1.92.19-3.85,1.81-4.53.27-.08.53-.13.79-.19.26-.04.54-.03.82-.02.28.06.56.08.83.17.28.1.55.18.82.29.59.26.82.38,1.14.54.3.16.59.31.86.5.94.64,1.78,1.32,2.64,1.9.43.29.86.55,1.29.79.45.23.93.45,1.41.64.86.33,1.77.55,2.66.72,1.17.15,2.29.31,3.51.69.38.05.36.25.06.56-.15.15-.37.38-.66.62-.28.26-.64.49-1.03.57-.34.07-.7.18-1.04.17-.35,0-.69,0-1.04-.03-.69-.05-1.38-.11-2.04-.29-1.33-.37-2.57-.86-3.8-1.65-1.38-.92-2.81-1.65-4.05-2.4-.21-.12-.41-.24-.61-.35-.1-.06-.16-.1-.26-.15-.18-.09-.39-.17-.61-.13-.3.03-.45.33-.47.6-.02.11-.01.23,0,.35.02.14.01.2.08.45.11.43.27.86.49,1.27.32.62.72,1.22,1.2,1.72.49.52,1.11,1,1.73,1.42.98.66,2.1,1.08,3.16,1.46l.7.21c.84.29.98.52.97,1.39,0,.2.02.4,0,.6-.01.66-.62,1.11-1.5.98-2.53-.4-4.61-1.68-6.59-3.3-.36-.3-.77-.69-1.13-1.1-.36-.41-.67-.84-.95-1.3-.28-.45-.52-.93-.73-1.42-.11-.24-.19-.51-.29-.76l-.12-.4c-.04-.14-.1-.35-.13-.56l.08-.02Z"/><path class="cls-3" d="M189.36,256.13c2.54-.7,5.05-1.38,7.8-1.78.35-.05.71-.08,1.09-.1.19-.01.4-.02.6-.01l.55.03c.73.05,1.35.13,2.03.21,1.31.16,2.61.36,3.9.57,1.89.32,3.78.59,5.64,1,6.57,1.45,13.03,3.41,19.26,5.95,1.37.61,2.76,1.16,4.12,1.78,1.34.67,2.71,1.27,4.02,1.96,1.66.94,3.41,1.75,4.96,2.89.78.57,1.59,1.08,2.31,1.72.75.6,1.32,1.43,1.95,2.16.76.93.64.82-.36.47-.49-.18-1.28-.31-2.15-.55-.44-.11-.83-.33-1.28-.53-.46-.18-.92-.4-1.39-.65-6.39-3.84-13.31-6.79-20.48-9.45-4.31-1.55-9-2.55-13.6-3.45-2.53-.48-5.08-.92-7.62-1.22-.63-.07-1.27-.14-1.84-.17-.52-.02-1.14.06-1.75.15-1.23.19-2.48.48-3.73.78-3.07.77-6.13,1.7-9.15,2.71-2.29.77-4.57,1.59-6.81,2.48-2.24.89-4.47,1.84-6.5,2.98-.5.31-.93.54-1.19.97-.06.24.07.51.27.64.21.15.46.2.69.23.24.02.47.01.68,0,.36-.02.83-.07,1.24-.14.86-.14,1.72-.34,2.58-.59.76-.21,1.48-.47,2.24-.73,2.79-.97,3.66-1.3,4.58-.87.2.08.44.13.58.22.45.24-.4,1.41-2.52,2.35-1.56.72-3.19,1.33-4.92,1.79-.87.23-1.76.41-2.7.54-.51.06-.81.12-1.79.1-.83,0-1.63-.17-2.28-.45-.66-.29-1.15-.72-1.5-1.27-.33-.56-.52-1.3-.4-1.93.05-.6.41-1.15.95-1.69.56-.53,1.29-1.01,2.03-1.45,1.69-.97,3.27-1.69,4.93-2.41,4.89-2.09,9.87-3.8,14.95-5.31l.03.06Z"/><path class="cls-3" d="M177.73,276.88c.36-1.71.85-3.43,1.69-5.1.14-.31.29-.62.48-.92.19-.3.32-.62.6-.89l.68-.72.41-.33.37-.25c.48-.31.95-.59,1.42-.86l2.8-1.59c.81-.49,1.64-.95,2.43-1.45.51-.32,1.01-.66,1.52-.96.26-.15.55-.25.83-.36l.43-.16c.15-.05.33-.03.49-.06.43-.02.41.02.33.46-.05.5-.23,1.31-.7,1.87-.95.81-1.95,1.53-2.95,2.24-1.04.65-2.15,1.19-3.26,1.73-.66.32-1.3.72-1.87,1.14-.3.23-.47.35-.66.61-.19.23-.39.44-.55.73-.78,1.18-1.3,2.7-1.66,4.25-.24.95-.39,1.94-.51,2.94-.17,1.5-.29,3.04-.22,4.55.03.59.11,1.17.23,1.72.02.13.06.28.09.37.03.07.05.13.09.18.09.11.18.17.3.24.11.05.22.04.29.19.18.22.41.39.57.54.17.15.3.29.43.47.06.08.14.15.19.22.18.18-.15.71-1.16,1.01-.38.09-.8.14-1.27.09-.47-.07-.86-.39-1.22-.71-.36-.35-.66-.79-.83-1.28-.08-.23-.16-.53-.17-.71-.03-.17-.06-.33-.07-.47-.16-1.19-.2-2.34-.18-3.51.03-1.74.22-3.48.53-5.22h.07Z"/><path class="cls-3" d="M184.41,276.66c.1-.41.19-.81.46-1.38.23-.45.44-.71.66-1.07.47-.64.98-1.24,1.52-1.77.39-.4.75-.82,1.17-1.16,1.49-1.22,3.13-2.1,4.71-2.98.7-.39,1.37-.83,2.02-1.28.41-.29.81-.59,1.26-.83.42-.28.92-.43,1.43-.58.33-.08.42.1.4.53,0,.21-.04.49-.1.81-.05.34-.17.64-.4.84-.72.82-1.64,1.34-2.49,1.92-.86.56-1.74,1.08-2.64,1.56-1.06.59-1.99,1.43-2.85,2.24-.48.44-.93.91-1.35,1.39-.19.25-.39.5-.57.76l-.25.4-.13.2c-.03.06-.04.1-.07.15-.23.53-.37,1.45-.44,2.25-.12,1.26-.21,2.57-.16,3.86.03,1,.26,1.99.37,2.99.03.22.08.44.09.66.04.83-.14,1.13-.89,1.28-.16.03-.32.08-.47.1-.49.04-1.02-.27-1.17-.86-.53-1.74-.63-3.64-.6-5.57.03-1.45.12-2.87.42-4.48h.07Z"/><path class="cls-3" d="M202.12,282.66c-.72,1.58-1.42,3.24-2.46,4.9-.53.82-1.16,1.67-2.11,2.39-.49.35-1.07.65-1.71.82-.66.17-1.31.16-1.96.03-.53-.12-1.1-.36-1.53-.75-.44-.38-.73-.82-.94-1.25-.4-.86-.51-1.65-.55-2.4-.03-1.31.13-2.52.38-3.69.25-1.17.57-2.31.99-3.4.85-2.19,1.8-4.31,3.37-6.27.34-.42.86-.9,1.25-1.18.41-.32.83-.63,1.26-.92.85-.59,1.72-1.14,2.6-1.65,1.16-.61,2.34-1.19,3.57-1.65,1.25-.41,2.59-.65,3.93-.59.84.05.71.09.11.48-.3.2-.7.52-1.15.97-.46.4-.98.84-1.56,1.23-1.08.6-2.16,1.2-3.18,1.88-1.04.64-2.11,1.25-3.09,1.95-.24.18-.49.34-.72.53l-.34.26c-.07.07-.13.1-.21.19-.31.31-.65.76-.97,1.23-.63.97-1.21,2.06-1.73,3.18-.61,1.35-1.08,2.81-1.39,4.29-.29,1.45-.43,3.03-.15,4.13.08.28.19.5.28.6.1.11.16.14.43.18.53.08,1-.09,1.52-.51,1.04-.88,1.86-2.45,2.58-3.98l1.33-2.96c.47-1,.94-2.02,1.68-3.03.28-.36.69-.78,1.09-1.05.36-.24.72-.48,1.09-.69.74-.44,1.51-.81,2.29-1.16,1.57-.67,3.2-1.21,4.94-1.44.74-.1,1.5-.14,2.28-.06.4.03.79.12,1.2.25.46.16.92.42,1.33.73.33.26.5.67.62,1.06.07.42.07.85.02,1.3-.09.68-.22,1.26-.39,1.85-.16.57-.31,1.11-.53,1.66-.38,1.01-.81,1.6-1.16,1.98-.18.19-.37.32-.55.4-.2.08-.4.11-.6.12-.19,0-.39.03-.53,0-.42-.14-.49-.99-.07-2.39.27-.95.61-1.9.83-2.83.06-.23.11-.46.15-.68.03-.11.04-.21.05-.32.01-.09.04-.25.03-.23-.02-.06-.05-.1-.1-.1-.02,0-.05,0-.06,0-.11,0-.31-.09-.52-.1-.4-.07-.91-.03-1.41,0-1.03.12-2.13.42-3.2.82-1.48.55-2.94,1.32-4.21,2.19-.08.04-.28.25-.46.51-.19.26-.38.58-.56.92-.37.69-.71,1.47-1.06,2.27l-.07-.02Z"/><path class="cls-3" d="M222.44,275.51c.18-.43.35-.87.5-1.3.08-.22.13-.41.2-.62l.06-.24v-.05s.01.02.02.04v.02c.08,0,.16-.02.24-.03.16-.03.32-.08.47-.16l-.06.43s.07-.08.08-.16c0,0,0,.09.02.1.02.07.08.26.16.35.06.02,0,.03-.01.04-.16.1-.37.49-.58.83-.73,1.26-1.42,2.8-2,4.2-.23.65-.35,1.35-.54,2.03-.23.88-.45,1.77-.85,2.62-.13.26-.22.18-.3-.09-.07-.27-.18-.74-.16-1.26.08-.91.03-1.86.26-2.78.1-.47.2-.93.37-1.44.16-.45.33-.87.52-1.31.45-1.04.78-2.17,1.43-3.28.18-.27.35-.54.67-.83.13-.14.38-.3.67-.39.18-.03.38-.05.55-.03.17.04.34.11.49.2l.26.14.05.25c.04.17.06.36.06.54,0,.13-.03.22-.04.34-.03.23-.08.4-.12.59-.09.38-.21.71-.31,1.06-.25.75-.53,1.48-.81,2.21-.44,1.09-.89,2.19-1.33,3.27-.33.85-.57,1.72-.88,2.58-.07.19-.15.37-.24.55-.38.66-.65.82-1.13.71-.11-.02-.22-.04-.32-.08-.33-.14-.44-.52-.35-1.05.1-.8.34-1.56.62-2.33.28-.76.56-1.54.88-2.3.48-1.13.99-2.26,1.42-3.4h.05Z"/><path class="cls-3" d="M216.17,290.96c8.91,1.38,17.8,2.84,26.68,4.36,3.24.56,6.5,1.03,9.73,1.62,5.7,1.05,11.39,2.15,17.08,3.42,1.42.32,2.84.67,4.27,1.06.72.2,1.43.4,2.17.66.5.18,1.08.39,1.5.72.24.14.33.43.46.65.14.22.18.51.23.79.06.25.08.6.11.81l.05.56.07,1.11.1,2.19.14,4.35c.13,5.14.29,10.31.37,15.41.06,3.27.14,6.56.15,9.84.02,3.28,0,6.56-.42,9.84-.25,2.04-.32,1.77-.72.04-.19-.86-.56-2.09-.82-3.56-.14-.74-.3-1.54-.4-2.39-.09-.85-.15-1.76-.19-2.7-.23-6.67-.56-13.34-.75-20.02-.11-3.33-.22-6.67-.33-10.01l-.12-2.48-.08-1.22-.05-.59c-.01-.13,0-.09,0-.12v-.06c0-.08,0-.17-.08-.2l-.1-.06s-.27-.1-.42-.15c-.74-.24-1.53-.47-2.33-.68-7.69-2-16.03-3.26-24.12-4.67-8.92-1.54-17.86-3-26.82-4.39-5.51-.85-11.03-1.68-16.55-2.45-8.36-1.14-16.77-2.33-25.09-2.98-1.3-.1-2.6-.17-3.88-.19h-.47s-.36,0-.36,0c-.17,0-.35.01-.51.03-.16.03-.35.02-.47.14-.02.17-.02.34-.03.51-.02.8-.04,1.6-.07,2.4-.02.95-.04,1.91-.03,2.86.02,1.92.03,3.83.05,5.75.01,1.42.06,2.81.04,4.25-.01,1.33-.05,2.44-.11,3.37-.06.93-.2,1.68-.31,2.29-.24,1.23-.56,1.92-.98,2.47-.19.25-.37.58-.53.72-.51.46-.91-1.72-1.11-5.57-.08-3.1-.16-6.25-.25-9.43-.04-1.6-.05-3.21-.06-4.85,0-.82,0-1.64,0-2.46l.03-1.24.04-.96.07-1.2.32-.78.16-.39c.05-.14.1-.26.22-.36.41-.41.94-.62,1.58-.74.63-.12,1.32-.13,2-.13l1.16.02c1.45.05,2.86.14,4.27.25,2.82.23,5.62.52,8.43.83,9.04,1.03,18.06,2.33,27.06,3.64v.08Z"/><path class="cls-3" d="M257.33,288.75c6.86,1.17,13.71,2.38,20.56,3.68,2.5.48,5.01.88,7.49,1.41l3.21.69,3.57.81c.16.04.3.13.45.19l.22.1s.11,0,.07.09c.04.02.07.04.1.07.24.21.35.54.45.87.09.34.14.69.2,1.04l.08.67c.09.87.16,1.72.21,2.57.11,1.7.2,3.4.27,5.09.14,3.39.24,6.77.32,10.15.11,3.97.22,7.96.33,11.9.06,2.53.12,5.07.13,7.61,0,2.54-.04,5.08-.41,7.61-.27.78-.41,1.12-.48,1.1-.08-.02-.13-.41-.41-1.09-.29-.67-.49-1.62-.74-2.76-.25-1.14-.43-2.48-.45-3.93-.26-10.29-.51-20.57-.77-30.95-.05-1.57-.13-3.16-.25-4.74-.06-.79-.13-1.58-.23-2.35l-.07-.51-.03-.19c-.01-.06-.03-.13-.06-.18-.05-.04-.13-.02-.18-.06-2.96-.58-5.93-1.16-8.88-1.74-6.86-1.33-13.75-2.54-20.65-3.7-4.25-.7-8.5-1.4-12.75-2.1-6.45-1.03-12.92-2.06-19.32-3.08-4.99-.72-9.88-1.42-14.82-2.13-1.09-.16-2.15-.32-3.24-.49-4.05-.69-5.29-1.15-6.02-2.03-.17-.2-.39-.41-.48-.59-.28-.61,1.45-.79,4.42-.41,8.82,1.12,18.08,2.49,27.38,3.97,6.91,1.11,13.85,2.23,20.77,3.34v.07Z"/><path class="cls-3" d="M321.7,313.93c-.02.93.03,1.91.07,2.91.02.36.09.72.1,1.09.01,1.3-.04,2.59-.09,3.86-.01.57-.02,1.13-.03,1.69.02.72-.04,1.44-.22,2.15-.06.22-.26.19-.5,0-.23-.19-.56-.53-.67-.93-.2-.72-.28-1.43-.38-2.15-.05-.71-.01-1.43.03-2.15.06-.87-.14-1.75-.24-2.62l-.34-2.94c-.07-.62-.09-1.25-.11-1.87-.03-.95.03-1.89,0-2.82-.02-.72-.15-1.43-.23-2.15-.01-.16-.05-.31-.05-.47-.01-.59.2-.76.84-.84.15-.02.29-.04.44-.05.49-.02.89.25,1.03.67.34,1.26.35,2.54.34,3.8,0,.94,0,1.86.05,2.79h-.06Z"/><path class="cls-3" d="M274.81,281.51c6.42,1.26,12.81,2.64,19.21,3.96,1.17.24,2.34.45,3.5.72l1.75.38.87.19.88.13,1.56.24,2.02.33c.21.05.41.12.61.18l.3.09c.1.03.23.03.21.17.07.43.14.84.17,1.3l.2,1.78c.31,2.09.34,4.21.47,6.31.21,4.22.33,8.43.41,12.64.09,3.73.18,7.49.28,11.19.07,2.38.14,4.76.22,7.14l.03,1.78-.05,1.79-.07,1.79c-.05.6-.23,1.19-.36,1.79-.2.75-.29,1.07-.32,1.05-.04-.02-.07-.38-.32-1-.21-.62-.8-1.5-1.03-2.57-.15-.54-.29-1.12-.41-1.74-.06-.31-.12-.63-.18-.96-.03-.33-.05-.66-.07-1.01-.19-4.86-.32-9.71-.43-14.56-.07-4.85-.13-9.7-.2-14.58-.03-1.46-.09-2.93-.18-4.41-.05-.74-.1-1.48-.15-2.22-.08-.74-.03-1.49-.09-2.24-.23-2.12.38-1.43-1.27-1.85l-2.21-.49c-.73-.18-1.48-.25-2.22-.38-3.26-.5-6.48-1.19-9.72-1.78l-9.7-1.89c-3.98-.79-7.95-1.58-11.93-2.37-6.02-1.17-12.07-2.38-18.07-3.43-4.66-.82-9.27-1.45-13.89-2.15-1.02-.16-2.01-.32-3.04-.48-3.79-.67-4.98-1.01-5.7-1.72-.17-.16-.39-.31-.48-.45-.31-.43,1.31-.61,4.13-.33,2.09.21,4.21.43,6.34.68,2.13.3,4.27.61,6.43.96,4.31.68,8.67,1.45,13.03,2.24,6.48,1.18,12.97,2.46,19.45,3.7v.06Z"/><path class="cls-3" d="M188.93,320.22l24.31,1.51c2.96.15,5.92.3,8.88.45l15.64,1.05,7.82.59,3.92.34,1.97.21.99.13c.43.06.97.15,1.41.27.22.1.47.17.65.3.18.12.44.23.5.45.09.37.12.76.19,1.14.08.34.05.87.06,1.12l.02,1.62v3.23c.02,2.14.03,4.28.03,6.41.02,5.91.25,11.83-.23,17.71-.25,1.84-.34,1.61-.93.08-.28-.77-.77-1.87-1.01-3.21-.29-1.34-.52-2.91-.61-4.62-.2-3.8-.17-7.6-.22-11.39-.02-3.33-.04-6.66-.06-10,0-.05-.06-.05-.1-.07.07,0-.31-.05-.55-.08l-.81-.09-3.31-.35c-2.23-.21-4.47-.42-6.71-.64-7.23-.67-14.8-.9-22.22-1.32-8.17-.48-16.34-.96-24.5-1.43-5.03-.31-10.06-.61-15.08-.92-7.61-.49-15.26-.98-22.82-1.47-5.88-.37-11.65-.58-17.48-1.03-1.28-.1-2.54-.18-3.84-.32-2.4-.26-3.99-.54-5.08-.9-1.08-.38-1.68-.81-2.09-1.32-.19-.24-.44-.49-.52-.69-.13-.35.3-.48,1.16-.54.87-.05,2.21-.06,3.92.12,5.11.43,10.43.73,15.81,1.08,5.39.34,10.86.68,16.34,1.02,8.15.49,16.34.99,24.51,1.48v.08Z"/><path class="cls-3" d="M126.85,340.51l-.03-4.52c0-.55-.1-1.09-.1-1.64-.01-1.94,0-3.89-.05-5.84-.03-.86-.06-1.73-.13-2.58-.03-.55-.11-1.1-.11-1.65.02-.55.07-1.11.18-1.67.11-.35.34-.32.72-.05.37.27.89.76,1.09,1.37.3,1.09.42,2.2.58,3.31.14,1.11.11,2.24.08,3.37-.06,1.36.21,2.75.31,4.13.1,1.52.19,3.04.24,4.57l.09,2.82c.06,1.42.05,2.85.16,4.26.08,1.1.33,2.17.48,3.25.04.24.1.47.11.72.04.9-.16,1.19-.93,1.38-.18.04-.35.1-.53.13-.59.08-1.09-.28-1.29-.92-.57-1.9-.67-3.89-.78-5.91-.06-1.5-.11-3.01-.17-4.52h.07Z"/><path class="cls-3" d="M227.85,357.87c-5.27-.36-10.55-.73-15.8-1.02l-.82-.04-.69-.02c-.13,0-.29-.02-.33.14-.05.05-.04.06-.12.17-.12.18-.24.36-.37.53l-.79,1.02c-2.28,2.77-5.25,5.18-8.69,6.47-3.44,1.31-7.03,1.61-10.56,1.39-3.22-.22-6.3-1.35-8.97-2.98-3.41-2.09-6.43-5.01-8.08-8.65-.09-.67-.09-.96-.01-.99.09-.03.32.18.86.44.54.25,1.13.7,1.83,1.22.7.52,1.45,1.14,2.21,1.85,2.58,2.6,5.69,4.65,9.07,5.64.84.26,1.7.42,2.56.54.43.05.87.06,1.3.1h1.39c1.86,0,3.7-.18,5.47-.6,2.11-.53,4.14-1.51,5.86-2.96.88-.7,1.66-1.53,2.42-2.38.36-.45.74-.87,1.08-1.35l.52-.69c.18-.24.28-.41.61-.9.07-.11.15-.21.21-.33.19-.17.36-.35.54-.53l.07-.07.03-.03.02-.02h0s0-.01,0-.01c-.01-.03.14.25.08.13l.16-.08.34-.15c.22-.11.52-.07.77-.11.23-.03.61-.01.72-.01l1.99.07,3.94.22,7.86.5c3.27.21,6.55.42,9.82.64,4.95.3,9.93.66,14.85.86,3.83.16,7.59.13,11.38.17.83,0,1.65-.01,2.49.01,3.11.09,4.09.36,4.72,1.26.14.21.33.41.41.62.27.69-1.03,1.19-3.32,1.27-6.79.24-13.93-.03-21.08-.38-5.31-.3-10.65-.6-15.97-.9v-.08Z"/><path class="cls-3" d="M133.92,414.5c8.25.99,16.62,1.56,24.98,2.06,8.37.48,16.75.85,25.13,1.13,6.12.21,12.24.27,18.36.42,10.79.28,21.57.48,32.36.55,10.78.04,21.59.06,32.32-.45,1.29-.07,2.58-.15,3.84-.27.63-.06,1.26-.13,1.87-.22.36-.06.45-.07.61-.11.14-.04.33-.06.41-.19.11-.18.12-.4.16-.64.02-.07.04-.34.06-.53.02-.21.04-.41.05-.62.06-.84.09-1.7.11-2.57.04-1.73.04-3.47.02-5.2-.04-3.48-.15-6.95-.27-10.41-.42-12.2-1.38-24.43-1.04-36.68.17-3.82.26-3.31.87-.11.31,1.63.73,3.9,1.24,6.61.45,2.75.81,5.98,1.08,9.49.27,3.45.46,6.9.63,10.36l.47,10.38c.13,3.47.25,6.93.29,10.42.03,1.75.03,3.49-.02,5.27-.02.89-.06,1.78-.13,2.7-.01.22-.04.47-.06.7-.03.25-.03.41-.12.87-.09.8-.4,1.54-.8,2.23-.24.2-.46.43-.73.58-.27.16-.58.27-.9.36-.31.1-.66.15-.98.22l-.61.09c-.75.11-1.47.18-2.19.24-1.43.13-2.84.21-4.25.28-2.82.14-5.62.22-8.43.28-5.61.11-11.22.13-16.84.09-15.06-.13-30.74-.06-46.14-.46-16.93-.47-33.87-1.13-50.78-2.48-4.17-.35-8.34-.74-12.51-1.29-2.09-.28-4.17-.59-6.26-1.01-1.05-.22-2.09-.46-3.15-.8-.27-.08-.53-.18-.8-.28-.3-.12-.49-.2-.89-.41-.68-.36-1.29-.93-1.45-1.7l-.21-.94-.15-.78c-.1-.52-.19-1.04-.27-1.56-.17-1.04-.31-2.07-.44-3.11-.98-7.88-1.51-15.78-1.93-23.68-.4-7.9-.69-15.78-.57-23.66.03-1.53.09-3.06.2-4.61.06-.77.13-1.55.27-2.35l.06-.3c.03-.12.04-.25.08-.38.08-.26.18-.51.27-.76.07-.26.25-.47.38-.7.19-.18.42-.33.66-.42.23-.13.5-.17.77-.22.26-.06.54-.09.81-.1.43-.03.81-.02,1.21-.03.78.01,1.55.05,2.31.1,1.52.1,3.03.22,4.53.35,6,.54,11.95,1.16,17.93,1.63,2.63.21,5.21.35,7.86.5,4.91.26,8.14.34,10.4.46,2.27.12,3.58.31,4.66.67.49.16,1.14.3,1.44.47,1.02.53-3.03,1.57-10.38,1.55-10.86,0-21.94-1.27-33.03-2.33-1.38-.12-2.76-.25-4.12-.27-1.24-.07-3.14.05-2.64.05,0,0,0,.02,0,.03v.02s-.06.33-.06.33c-.09.59-.17,1.25-.22,1.92-.11,1.33-.16,2.72-.19,4.11-.11,5.57.06,11.24.29,16.89.26,6.09.62,12.18,1.11,18.27.24,3.04.52,6.08.86,9.1.17,1.51.35,3.02.57,4.5.1.75.23,1.48.34,2.21l.2,1.08c.03.18.07.36.11.53l.05.23s.03.05.02.04c.31.15.81.33,1.3.47.99.3,2.1.53,3.2.74,2.22.41,4.51.72,6.8.99v.09Z"/><path class="cls-3" d="M299.07,343.75l10.7-4.99c1.3-.61,2.57-1.29,3.88-1.89,4.61-2.11,9.24-4.21,13.88-6.27,2.05-.93,4.12-1.86,6.15-2.78,1.31-.58,2.63-1.17,3.94-1.75,1.34-.52,2.72-.96,4.09-1.4.86-.26.84,0,.27.6-.57.58-1.66,1.58-3.09,2.41-2.61,1.31-5.21,2.62-7.82,3.93-2.65,1.23-5.31,2.45-8.01,3.63-3.23,1.4-6.44,3.2-9.66,4.82-3.54,1.79-7.11,3.54-10.7,5.25l-6.63,3.15c-3.37,1.55-6.75,3.12-10.09,4.66-1.3.6-2.57,1.23-3.84,1.87-1.27.62-2.54,1.25-3.82,1.87-.56.28-1.11.56-1.69.8-2.15.93-2.94.96-3.7.37-.17-.13-.38-.25-.5-.4-.42-.48.25-1.38,1.74-2.18,4.45-2.35,9.26-4.5,14.07-6.74,3.58-1.65,7.18-3.31,10.75-5.03l.04.07Z"/><path class="cls-3" d="M316.21,392.81c5.74-3.52,11.47-7.08,17.18-10.66,2.09-1.31,4.12-2.7,6.21-3.99l3.72-2.28,1.88-1.13.95-.56.49-.28c.12-.06.12-.06.19-.1.09-.06.26-.08.23-.22l.02-.46.02-2.15.02-4.32.03-8.65c0-3.85-.11-7.72-.17-11.53-.05-4.91-.2-9.83.42-14.75.18-1.53.29-1.33.64-.03.2.71.46,1.62.76,2.67.28,1.11.51,2.4.65,3.81.42,5,.67,10,.69,15.02.06,5.02.07,10.04-.04,15.1-.02,1.15-.03,2.3-.05,3.47,0,.65,0,1.3-.01,1.95,0,.24.01.48-.08.69-.07.22-.13.44-.24.62l-.07.14-.04.07h0s0,.01,0,.01h0c-.16-.09.22.13.18.11h-.02s-.03.04-.03.04l-.26.22c-.18.14-.33.3-.53.43-.84.47-1.07.62-1.51.88l-1.21.75-2.42,1.55c-1.62,1.04-3.24,2.08-4.85,3.12l-17.23,10.89c-3.55,2.21-7.11,4.43-10.66,6.64-5.39,3.34-10.85,6.62-16.23,9.88-4.19,2.53-8.22,5.16-12.48,7.54-.94.52-1.85,1.06-2.84,1.54-3.61,1.8-5.21,1.94-6.27,1.23-.24-.17-.52-.34-.62-.53-.18-.31.13-.68.63-.99.27-.19.66-.43,1.1-.65.46-.28,1-.54,1.62-.86,3.7-1.92,7.47-4.22,11.3-6.51,3.83-2.33,7.7-4.68,11.59-7.05,5.76-3.57,11.54-7.15,17.32-10.73l.05.06Z"/><path class="cls-3" d="M208.55,114.77c13.01-1.99,25.84-.59,38.05-2.88,4.47-.83,8.82-2.13,13.14-3.62,3.82-1.3,7.6-2.83,11.52-4.21,3.92-1.38,8.05-2.55,12.32-2.93,4.26-.38,8.58-.01,12.68.98,2.14.44,4.22,1.34,6.06,2.41,1.86,1.08,3.57,2.37,5.16,3.77,5.59,5,9.88,11.46,12.07,18.57,1.43,4.55,1.9,9.46,1.14,14.23-.74,4.77-2.85,9.27-5.81,12.95-1.99,2.2-1.88,1.7-.86-.55.48-1.14,1.19-2.72,1.85-4.64.62-1.94,1.29-4.17,1.79-6.63.84-4.36.6-8.9-.62-13.19-1.22-4.29-3.28-8.36-5.96-11.97-2.69-3.59-5.97-6.8-9.72-9.09-.93-.58-1.9-1.07-2.87-1.51-.49-.19-.99-.4-1.48-.55-.5-.14-.97-.31-1.56-.4-1.11-.21-2.23-.48-3.35-.65-1.12-.11-2.25-.3-3.37-.35-1.35-.02-2.71-.11-4.07.04-1.37.04-2.72.29-4.09.51-2.72.56-5.43,1.35-8.14,2.36-5.4,1.99-10.9,4.37-16.61,6.03-6.28,1.81-12.8,2.94-19.29,3.31-6.48.4-12.89.41-19.24.8-3.9.26-7.78.63-11.55,1.45-3.77.78-7.43,2.03-10.69,3.94-2.46,1.46-4.66,3.33-6.45,5.55-1.8,2.22-3.19,4.78-4.21,7.48-2.02,5.43-2.82,11.39-2.17,17.12.88,8.94,5.58,17.22,12.56,22.39.39.28.74.61,1.16.84l1.22.72,1.22.73c.42.23.86.4,1.3.6.82.35,1.53.77,2.24.98.71.24,1.35.46,1.93.66.29.1.57.21.84.29.27.06.53.12.78.18.49.12.94.24,1.34.36.4.12.76.24,1.08.35.33.07.62.16.89.24.53.18.96.38,1.35.62.35.22.83.45,1.04.66.36.36-.22.62-1.64.78-1.42.21-3.69.12-6.52-.56-1.03-.32-2.1-.55-3.1-.95-1-.43-2.01-.85-3-1.3-.95-.55-1.9-1.11-2.85-1.66-.92-.6-1.78-1.31-2.67-1.97-3.43-2.81-6.31-6.37-8.43-10.36-2.12-3.98-3.55-8.4-4.03-12.95-.5-4.53-.31-9.16.66-13.62.71-3.31,1.81-6.59,3.47-9.67,1.65-3.07,3.9-5.89,6.62-8.15,2.73-2.24,5.85-3.91,9.06-5.11,3.21-1.21,6.51-1.98,9.79-2.5l.03.09Z"/><path class="cls-3" d="M358.23,423.27c1.34-1.03,2.67-2.05,3.99-3.12,1.33-1.05,2.64-2.12,3.94-3.22.95-.79,1.83-1.67,2.78-2.47,3.36-2.81,6.67-5.7,10.07-8.51,1.49-1.26,2.98-2.54,4.44-3.83.95-.82,1.93-1.59,2.92-2.36.98-.78,2.09-1.4,3.16-2.05.68-.39.77-.09.49.62-.3.69-.88,1.89-1.88,2.89-.89.89-1.77,1.79-2.68,2.65l-2.78,2.55c-1.86,1.71-3.75,3.39-5.76,4.98-2.39,1.92-4.61,4.2-6.94,6.3-2.58,2.29-5.19,4.56-7.9,6.72l-2.51,1.98-2.57,1.92c-1.27.99-2.65,1.87-3.97,2.8-1.33.92-2.73,1.74-4.06,2.65-1.07.65-2.13,1.31-3.17,2-1.04.69-2.15,1.26-3.24,1.88-.49.27-.94.57-1.47.77-1.92.8-2.62.83-3.32.13-.16-.16-.35-.31-.46-.48-.4-.59.18-1.43,1.43-2.12,3.7-2.08,7.55-4.23,11.28-6.78,1.39-.93,2.76-1.91,4.14-2.88,1.34-1.03,2.73-2,4.04-3.08l.06.06Z"/><path class="cls-3" d="M399.26,443.26c7.35-5.65,15.05-10.68,22.67-15.75,2.78-1.85,5.5-3.78,8.23-5.65,2.41-1.65,4.79-3.33,7.06-5.1,2.24-1.76,4.51-3.64,6.01-5.73.1-.12.17-.22.23-.35.07-.11.15-.25.1-.39-.1-.27-.31-.43-.58-.62-1.06-.72-2.36-1.34-3.66-1.9-2.63-1.12-5.4-2.06-8.19-2.91-4.96-1.5-10.05-2.73-15.1-3.77-6.5-1.35-13.07-2.25-19.58-3.67-2.04-.39-1.77-.41.01-.57.89-.04,2.18-.4,3.71-.39,1.53-.05,3.33-.04,5.26.14,1.71.14,3.41.36,5.1.63,1.69.25,3.38.53,5.07.82,3.38.59,6.74,1.27,10.09,2.04,3.35.78,6.68,1.69,9.99,2.76,1.66.54,3.3,1.13,4.95,1.81.82.34,1.64.71,2.47,1.14.41.21.83.44,1.24.69l.31.2c.1.06.2.13.37.25.3.2.59.44.87.68.67.59,1.14,1.32,1.29,2.14.06.42.06.84-.16,1.22l-.5,1.17c-.52.85-.8,1.23-1.19,1.68-.36.45-.74.87-1.13,1.27-1.55,1.61-3.2,2.99-4.88,4.34-3.36,2.67-6.84,5.11-10.33,7.47-7.68,5.15-15.45,10.08-22.89,15.45-4.58,3.29-9.04,6.76-13.16,10.56l-1.5,1.43-.43.41c-.07.05-.14.18-.22.16l-.27-.12-1.09-.49-3.16-1.43c-1.97-.82-3.93-1.65-5.93-2.37-3.99-1.46-8.08-2.63-12.22-3.4-3.21-.62-6.45-.95-9.68-1.11-3.23-.18-6.47-.19-9.73-.16-1.44.02-2.84.05-4.29.07-5.38.04-7.11-.17-8.26-1.09-.26-.21-.61-.41-.76-.62-.52-.7,1.68-1.29,5.63-1.49,5.86-.29,11.93-.49,18.15-.07,3.11.2,6.25.56,9.38,1.15,3.13.55,6.23,1.36,9.27,2.3,2.26.7,4.48,1.51,6.67,2.37l3.26,1.35,1.61.72.73.33s0,0,0,0c.01.01.02,0,.03,0h.01s.29-.28.29-.28c.21-.21.43-.41.65-.6.87-.8,1.75-1.59,2.65-2.35,1.78-1.54,3.61-3.01,5.46-4.45l.06.06Z"/><path class="cls-3" d="M359.18,227.64c7.18,5.98,13.9,12.47,20.21,19.3l3.46,3.74c1.13,1.26,2.25,2.54,3.35,3.83,3.83,4.59,7.54,9.28,10.99,14.15,3.47,4.86,6.81,9.81,9.84,14.96,2.69,4.56,5.37,9.17,7.66,13.92.76,1.51,1.43,3.07,2.16,4.61.62,1.59,1.3,3.15,1.82,4.77l.79,2.44c.22.83.45,1.66.61,2.5.2.83.31,1.69.41,2.55.11.85.11,1.72.05,2.59-.15,2.15-.14,1.82-.68.1-.16-.43-.27-.94-.58-1.5-.08-.14-.13-.29-.24-.43-.05-.15-.13-.31-.19-.47-.13-.32-.27-.65-.41-.99-.27-.69-.68-1.42-.99-2.21-.15-.4-.31-.81-.46-1.23-.18-.42-.35-.85-.52-1.29-4.84-12.49-11.96-24.19-19.58-35.56-4.59-6.81-10.08-13.39-15.66-19.66-6.13-6.91-12.65-13.48-19.63-19.54-2.18-1.82-4.3-3.72-6.56-5.44l-3.36-2.63-3.45-2.49c-7.01-4.98-14.43-9.49-22.22-12.95-.76-.34-1.5-.7-2.27-1l-2.31-.87c-1.54-.55-3.05-1.2-4.63-1.61l-4.68-1.38c-1.58-.36-3.17-.72-4.75-1.08-1.39-.37-2.79-.46-4.21-.73-1.32-.21-2.4-.46-3.31-.59-.92-.13-1.65-.26-2.26-.41-1.21-.31-1.89-.69-2.43-1.24-.24-.25-.58-.51-.72-.75-.48-.82,1.8-1.21,5.88-.99,6,.61,12.15,1.84,18.11,3.87,1.51.45,2.96,1.09,4.45,1.63l2.22.86c.74.29,1.45.65,2.17.97,1.44.66,2.9,1.31,4.33,2l4.23,2.23c8.32,4.52,16.11,10,23.4,15.97l-.05.08Z"/><path class="cls-3" d="M393.14,354.59c4.96.08,9.93.14,14.9.15,1.81,0,3.62-.1,5.43-.09l19.17.07c2.84.01,5.69-.08,8.5-.17,1.81-.08,3.62-.16,5.43-.15.91,0,1.81-.02,2.72.06.91.09,1.81.18,2.72.27,1.13.14.99.44.05.94-.47.25-1.14.57-1.95.9-.4.16-.84.35-1.31.48-.47.11-.97.2-1.49.25-3.68.45-7.37.51-11.07.65-1.85.06-3.7.09-5.56.11-1.86-.01-3.72-.06-5.58-.13-4.46-.15-9.09.11-13.65.15-5.01.03-10.03.02-15.04-.02-3.09-.03-6.17-.05-9.26-.08-4.67-.03-9.37-.15-14-.15-3.61,0-7.14.2-10.71.28-.79.02-1.55.07-2.35.07-1.47-.08-2.43-.2-3.1-.41-.67-.24-1.06-.52-1.36-.89-.14-.17-.32-.33-.4-.48-.13-.26.1-.48.64-.73.54-.24,1.38-.53,2.45-.65,1.59-.25,3.21-.31,4.83-.39,1.63-.07,3.27-.12,4.93-.15,3.31-.07,6.67-.07,10.03-.07,4.99.03,10.01.06,15.02.1v.09Z"/><path class="cls-3" d="M379.84,439.91c-1.15-.38-2.31-.74-3.49-1.02-.43-.11-.87-.14-1.3-.25-1.52-.36-3.07-.68-4.64-.85-.69-.08-1.4-.13-2.09-.15-.45,0-.89,0-1.34-.08-.45-.04-.9-.11-1.35-.25-.28-.09-.25-.09-.02-.24.23-.14.65-.54,1.18-.69,1.85-.54,3.76-.51,5.62-.16,1.12.2,2.29.22,3.44.38,1.26.19,2.5.46,3.73.76.76.18,1.51.4,2.26.61,1.14.31,2.26.71,3.39,1.02.88.25,1.79.35,2.69.55.2.04.4.06.6.12.71.23.85.53.71,1.27-.03.17-.06.34-.1.51-.16.55-.62.88-1.17.86-1.61-.12-3.11-.68-4.66-1.19-1.14-.39-2.28-.8-3.45-1.14v-.06Z"/><path class="cls-3" d="M383.81,435.22c-.77-.27-1.56-.52-2.36-.74-.29-.08-.59-.11-.88-.19-1.02-.3-2.06-.55-3.1-.82-.46-.12-.93-.19-1.39-.26-.6-.09-1.19-.19-1.78-.39-.18-.07-.14-.21.04-.37.18-.16.5-.36.85-.4.63-.07,1.26-.08,1.88-.04.63.02,1.24.12,1.85.31.73.21,1.51.24,2.27.37.83.15,1.66.34,2.48.53.51.13,1.02.26,1.52.39.77.21,1.54.43,2.3.64.6.16,1.23.21,1.88.38.14.04.29.07.43.12.53.21.63.5.36,1.04-.06.13-.12.25-.19.37-.25.4-.64.61-.92.58-.92-.09-1.9-.4-2.93-.73-.76-.25-1.53-.52-2.32-.75v-.05Z"/><path class="cls-3" d="M411.8,419.89c-1.09-.39-2.19-.77-3.3-1.1-.41-.12-.83-.17-1.23-.3-1.43-.44-2.88-.87-4.34-1.22-.65-.14-1.31-.27-1.96-.37-.84-.12-1.68-.18-2.49-.56-.25-.11-.19-.38.07-.69.26-.28.73-.71,1.23-.75.89,0,1.77.02,2.65.11.87.11,1.73.34,2.58.6,1.02.33,2.12.39,3.18.61,1.16.25,2.32.53,3.47.84.71.19,1.42.39,2.12.59,1.07.3,2.13.68,3.2.96.84.23,1.71.31,2.59.52.19.05.4.08.59.15.71.27.86.65.59,1.35-.06.17-.11.33-.19.49-.26.52-.75.82-1.2.79-1.38-.1-2.81-.52-4.28-.96-1.1-.34-2.2-.68-3.3-1.02v-.07Z"/><path class="cls-3" d="M416.09,413.85c-1.05-.36-2.12-.7-3.2-1.01-.39-.11-.8-.15-1.19-.27-1.39-.4-2.79-.79-4.18-1.19-.62-.17-1.26-.28-1.88-.39-.81-.11-1.62-.28-2.39-.62-.24-.11-.16-.35.11-.6.26-.24.72-.53,1.19-.54,1.68.05,3.33.26,4.96.72.97.3,2.03.35,3.04.54,1.12.21,2.23.45,3.34.72.69.15,1.36.35,2.05.52,1.03.27,2.06.59,3.1.85.81.2,1.65.26,2.49.44.19.04.37.07.55.13.66.26.79.54.61,1.25-.04.16-.08.33-.13.48-.19.52-.64.83-1.11.81-1.42-.02-2.75-.46-4.17-.85-1.04-.3-2.11-.63-3.18-.91v-.06Z"/><path class="cls-3" d="M192.62,335.2c-2.77-.14-5.54.71-8.55,1.64l-1.66.53-.95.25c-.33.06-.68.1-1.01.13-1.22.09-2.56-.23-3.58-.83-1.04-.58-1.82-1.31-2.57-1.93-.75-.63-1.46-1.19-2.26-1.6-.78-.41-1.68-.68-2.58-.85-1.62-.29-3.34-.13-4.97.26-2.1.53-4.14,1.33-6.2,2.19-.64.26-.74-.07-.41-.7.33-.62,1.12-1.58,2.33-2.23,2.14-1.16,4.57-1.85,7.12-1.94,1.27-.04,2.58.09,3.84.45,1.26.33,2.52,1,3.5,1.77,1.21.91,2.24,1.9,3.29,2.4.52.25,1.04.39,1.58.41.55,0,1.12-.05,1.71-.24,2.79-.81,5.84-2.19,9.18-2.52,2.06-.19,4.07-.03,6.01.23,2.96.38,5.82,1.06,8.67,1.51,2.21.37,4.41.45,6.57.57.47.01.94.02,1.42.04.88.03,1.45.13,1.85.29.4.19.63.48.83.91.09.2.21.39.26.58.09.32-.05.61-.39.86-.34.25-.89.5-1.6.55-2.08.2-4.24.21-6.33-.11-2.1-.29-4.18-.74-6.22-1.18-3.03-.66-6.03-1.35-8.89-1.38v-.07Z"/><path class="cls-3" d="M233.71,307.23c-.88-.17-1.76-.31-2.63-.42-.44-.04-.88-.1-1.32-.12l-1.41-.09c-.74-.05-1.47-.07-2.16-.2-2.46-.48-4.71-1.19-6.99-1.58-1.01-.18-2.03-.2-3.01-.12l-.94.13-.91.21c-.15.03-.3.09-.45.13l-.47.06c-.33.02-.61.16-.97.15-.53-.16-.46-.09-.31-.61.15-.48.57-1.35,1.39-1.73,1.47-.52,3.03-.71,4.52-.66,1.49.04,2.93.29,4.29.7,1.63.46,3.33.68,4.92.86.89.11,1.67.11,2.7.14.97.04,1.93.12,2.89.24,1.17.14,2.33.35,3.47.55,1.73.31,3.43.69,5.13.87,1.32.14,2.63.07,3.93.01.29-.02.57-.06.85-.07,1.06-.02,1.39.17,1.62,1,.05.19.12.37.15.56.11.63-.35,1.15-1.18,1.31-2.47.47-5.12.2-7.62-.23-1.87-.32-3.68-.72-5.46-1.01v-.07Z"/><path class="cls-3" d="M326.53,226.29c.02.23.02.46-.01.7-.63,4.76-8.94,1.87-6.2-2.46,1.69-2.68,5.94-1.05,6.22,1.77Z"/><path class="cls-3" d="M255.02,256.72c.02.23.02.46-.01.7-.63,4.76-8.94,1.87-6.2-2.46,1.69-2.68,5.94-1.05,6.22,1.77Z"/><path class="cls-3" d="M358.58,253.19c.02.23.02.46-.01.7-.63,4.76-8.94,1.87-6.2-2.46,1.69-2.68,5.94-1.05,6.22,1.77Z"/><path class="cls-3" d="M376.11,296.84c.02.21.02.43-.01.66-.6,4.5-8.44,1.76-5.85-2.33,1.6-2.53,5.6-.99,5.87,1.67Z"/><path class="cls-3" d="M398.13,319.48c.02.16.01.33,0,.5-.45,3.42-6.42,1.34-4.46-1.77,1.22-1.92,4.27-.76,4.47,1.27Z"/><path class="cls-3" d="M273.76,239.13c.02.16.01.33,0,.5-.45,3.42-6.42,1.34-4.46-1.77,1.22-1.92,4.27-.76,4.47,1.27Z"/><path class="cls-3" d="M234.04,169.15c1.51.19,3.02.66,4.37,1.45.33.19.67.42.97.63.28.21.57.42.84.64.55.44,1.07.91,1.58,1.39.73.71,1.48,1.4,2.1,2.2,1.09,1.41,2.02,2.95,2.74,4.57.36.83.67,1.6.94,2.53.24.91.38,1.8.44,2.69.11,1.58.06,3.18-.21,4.74-.23.99-.55,1.97-.99,2.89-.51.88-1.11,1.72-1.91,2.36-.57.34-.65.13-.74-.55-.07-.68-.12-1.71.05-2.65.24-.81.44-1.6.52-2.43.12-.81.28-1.61.3-2.44.04-.83,0-1.67-.09-2.49-.09-.86-.25-1.54-.55-2.43-.67-2.05-2.05-3.9-3.52-5.53-.81-.9-1.69-1.74-2.65-2.49-.5-.38-.95-.72-1.43-.98-.49-.27-1.01-.48-1.56-.64-1.35-.4-2.84-.48-4.31-.3-.7.09-1.4.23-2.07.42-.34.1-.67.21-.99.33-.16.06-.31.13-.44.19l-.15.08h0s-.1-.14-.16-.21c-.13-.15-.23-.27-.33-.35-.1-.09-.19-.11-.16-.1.02-.01.05-.15.04-.29l-.04-.7.12.05s.21,0,.39-.04c.19-.03.39-.08.6-.13l1.31-.36c1.84-.57,3.77-1.11,5.85-1.08.46,0,.92.02,1.39.11.88.18,1.46.47,1.78.8.32.33.39.68.3,1.12-.04.2-.07.4-.15.57-.32.56-.98.59-1.81.48-1.28-.19-2.76-.07-4.24.21-.74.15-1.45.33-2.24.59l-1.22.48c-.47.15-.85.38-1.8.45-.14,0-.29,0-.43,0h.18c-.12,0-.23,0-.35-.02-.02,0-.19-.03-.34-.08-.15-.04-.29-.1-.42-.17-.24-.12-.63-.44-.82-.76-.2-.3-.35-.74-.36-1.18,0-.11,0-.22.02-.32.01-.11.04-.21.04-.23.02-.08.05-.17.08-.25.06-.16.15-.34.23-.46.07-.11.16-.22.25-.33l.15-.15c.11-.1.14-.12.21-.18.21-.16.33-.22.45-.29.23-.13.42-.22.61-.3.38-.17.73-.3,1.09-.41.71-.23,1.42-.41,2.14-.54,1.44-.26,2.93-.34,4.43-.18v.08Z"/><path class="cls-3" d="M247.56,170.52c-.18-.35-.27-.8-.22-1.18.04-.36.16-.65.26-.84.23-.42.45-.63.65-.81.4-.36.76-.57,1.12-.77.71-.39,1.4-.65,2.1-.89.51-.17,1-.39,1.52-.5.93-.21,1.88-.28,2.9-.22.54.04.99.15,1.44.24.45.11.91.23,1.36.39.79.27,1.6.59,2.29,1.09.44.31.89.63,1.2,1.05.16.2.31.41.45.63.15.2.17.52.26.77.08.34.08.28-.24.23-.16-.03-.42-.04-.75-.02-.3-.02-.56-.1-.81-.21-.44-.19-.8-.41-1.16-.59-.36-.18-.73-.28-1.1-.43-.73-.29-1.57-.49-2.47-.69-.89-.22-2.05.2-3.11.47-.59.17-1.19.37-1.75.61-.54.23-1.13.54-1.41.8-.04.04-.06.06-.08.07.02,0-.18-.1-.27-.12-.06-.04-.18-.05-.22-.06-.03-.01-.1,0-.07,0,0,0,0,0,0,0,.03-.01.05-.02.07-.04.01-.02.13-.1.18-.17l.04-.06h0s.07-.1.07-.1h0s0,0,0,0c0,0,0,0,0,0-.01.02-.03.03-.04.05-.02.03-.05.11-.05.12,0-.01,0-.03,0-.03,0,.02,0-.06,0-.12,0-.06,0,0,0-.02.04,0,.15-.03.28-.11.4-.23.87-.66,1.36-1.07.49-.42,1-.89,1.75-1.25.97-.43,1.91-.87,3.01-1.08.24-.05.49-.1.75-.11.49-.02.84.09,1.04.29.21.19.27.45.23.82-.02.17-.03.33-.07.48-.18.51-.55.83-.93.97-.61.16-1.3.37-2,.61-.35.12-.7.26-1.01.4-.13.05-.32.2-.61.46-.42.38-.87.86-1.56,1.41-.36.26-.74.59-1.58.82-.2.05-.49.07-.73.08-.26-.01-.56-.08-.82-.16-.48-.23-.91-.41-1.34-1.16l.06-.04Z"/><path class="cls-3" d="M231.54,181.42c2.21.17,4.42.15,6.63-.08.71-.07,1.41-.58,1.38-1.38-.03-.68-.61-1.45-1.38-1.38-2.2.23-4.42.26-6.63.08-.72-.06-1.41.67-1.38,1.38.04.79.6,1.31,1.38,1.38h0Z"/><path class="cls-3" d="M232.71,185.55c.1.38.22.73.39,1.09.21.45.55.81.95,1.1.37.26.85.38,1.3.4.58.02,1.13-.21,1.56-.59.68-.6.75-1.63.65-2.48-.06-.51-.14-.99-.42-1.44-.12-.18-.25-.37-.42-.52-.31-.26-.51-.38-.89-.52-.41-.15-.96-.16-1.38-.03-.36.12-.59.25-.87.5-.26.23-.42.56-.53.88-.06.2-.07.4-.03.6,0,.2.07.39.18.56.09.17.22.32.39.42.14.13.31.22.51.27.38.09.81.07,1.16-.15s.56-.51.69-.9c0-.01,0-.03.02-.04l-.15.36s.04-.08.07-.12l-.23.3s.06-.06.09-.09l-.3.23s.07-.05.11-.07l-.36.15c.06-.03.13-.04.2-.05l-.4.05c.08,0,.16,0,.24,0l-.4-.05c.08.01.16.03.23.06l-.36-.15c.07.03.13.06.19.11l-.3-.23c.06.04.1.09.14.15l-.23-.3c.06.08.11.16.15.25l-.15-.36c.06.15.1.31.13.47l-.05-.4c.04.32.05.67.02.99l.05-.4c-.01.08-.03.16-.06.24l.15-.36s-.05.09-.08.14l.23-.3s-.07.07-.11.11l.3-.23s-.08.05-.13.07l.36-.15c-.06.03-.13.04-.19.05l.4-.05c-.08,0-.16,0-.23,0l.4.05c-.09-.01-.17-.03-.26-.07l.36.15c-.07-.03-.14-.07-.21-.12l.3.23c-.08-.06-.15-.14-.22-.22l.23.3c-.09-.12-.16-.26-.23-.4l.15.36c-.09-.22-.15-.44-.21-.67-.09-.36-.37-.71-.69-.9-.17-.11-.36-.17-.56-.18-.2-.04-.4-.04-.6.03-.36.12-.71.34-.9.69s-.25.75-.15,1.16h0Z"/><path class="cls-3" d="M251.64,180.51c2.21.12,4.41-.02,6.6-.36.71-.11,1.17-1.04.96-1.69-.25-.78-.93-1.08-1.69-.96-.12.02-.24.04-.36.06-.08.01-.16.02-.24.03.14-.02.16-.02.06,0-.24.03-.49.06-.73.08-.51.05-1.02.09-1.53.11-1.02.05-2.04.04-3.06-.01-.72-.04-1.41.66-1.38,1.38.03.78.6,1.33,1.38,1.38h0Z"/><path class="cls-3" d="M252.44,183.27c-.04.59.15,1.24.46,1.75.11.18.24.34.38.5.06.07.12.14.19.2.35.31.66.49,1.09.65.04.02.09.03.13.04.16.04.35.06.51.06.29,0,.57-.09.83-.22.14-.07.29-.19.41-.3.29-.3.48-.7.56-1.11.11-.59.12-1.22-.08-1.8-.11-.3-.23-.61-.42-.86-.13-.17-.26-.35-.41-.51s-.34-.29-.52-.42c-.17-.11-.36-.17-.56-.18-.2-.04-.4-.04-.6.03-.35.1-.73.36-.9.69-.18.35-.28.77-.15,1.16l.15.36c.13.23.31.4.54.54.02.01.04.03.05.04l-.3-.23c.12.09.22.19.31.31l-.23-.3c.1.13.19.28.26.44l-.15-.36c.07.17.12.34.14.52l-.05-.4c.02.16.02.31,0,.47l.05-.4c-.02.15-.05.29-.11.43l.15-.36s-.03.06-.05.09l.23-.3s-.04.05-.07.07l.3-.23s-.04.03-.06.03l.36-.15s-.05.01-.07.01l.4-.05s-.05,0-.08,0l.4.05c-.07-.01-.12-.03-.19-.06l.36.15c-.12-.05-.22-.12-.33-.19l.3.23c-.12-.09-.22-.2-.32-.32l.23.3c-.09-.12-.16-.25-.22-.39l.15.36c-.06-.14-.1-.28-.12-.43l.05.4c-.01-.1-.02-.21,0-.31.02-.37-.18-.8-.44-1.06s-.69-.46-1.06-.44-.79.14-1.06.44l-.23.3c-.14.23-.2.49-.2.76h0Z"/><path class="cls-3" d="M256.08,204.03c-.51.54-3.81-1.35-5.4.3-1.46,1.51,2.77,4.23,6.16,4.01,3.39-.21,5.52-5.46,4.28-6.48-1.47-1.21-5.04,2.16-5.04,2.16Z"/><path class="cls-3" d="M162.08,254.47c.2.2.04.5-.32.83-.12.11-.54.25-.62.2-.17-.09-.34-.18-.47-.29-.08-.07-.85-1.29-1.15-1.68-.29-.38-.51-.79-.71-1.21-.42-.84-.89-1.66-1.32-2.49-.09-.19-.16-.38-.21-.59-.15-.71-.47-1.36-.85-1.96-.06-.1-.11-.22-.25-.27-.23-.1-1.18-1.77-1.24-2.03-.14-.63-.34-1.23-.52-1.85-.02-.09-.09-.16-.02-.29.17-.31.04-.46-.03-.65-.09-.26-.18-.52-.23-.8-.02-.14.05-.34.09-.51.04-.16.41-.31.47-.29.17.04.28-.14.42-.23.05-.03.11-.07.15-.09.08-.04,1.58.92,1.69,1.07.09,0,1.32,1.98,1.49,2.19.09.11.09.27.11.41.02.06,1.02,1.65,1.04,1.72.14.36.38.68.33,1.13-.01.09.03.16.07.22.3.59.48,1.24.68,1.88.1.33.24.63.36.95.02.06.01.13.02.19.01.08,0,.16.04.23.3.74.46,1.54.8,2.26.08.17.14,1.08.24,1.27.05.11-.12.59-.04.67Z"/><path class="cls-3" d="M156.77,257.76c.28-.01.35.33.3.84-.01.16-.22.58-.31.61-.18.07-.36.13-.52.17-.1,0-1.42-.2-1.89-.21-.44-.03-.87-.09-1.27-.23-.81-.27-1.64-.49-2.46-.69-.18-.05-.36-.13-.52-.23-.57-.35-1.21-.52-1.86-.6-.11-.01-.21-.05-.34.03-.21.12-1.93-.17-2.14-.28-.52-.3-1.06-.52-1.6-.76-.08-.04-.17,0-.23-.14-.13-.32-.31-.29-.49-.33-.24-.05-.48-.16-.71-.31-.12-.07-.22-.26-.33-.4-.1-.13,0-.52.04-.56.13-.12.05-.32.06-.48,0-.06,0-.13.01-.18.01-.05.4-.24.83-.46.42-.19.86-.3.94-.29.02,0,.58.02,1.18.05.59.03,1.2.07,1.34.08.13,0,.25.1.37.17.06.02,1.83.22,1.9.25.35.12.73.13,1.02.47.06.07.13.07.2.09.61.14,1.19.43,1.76.69.29.13.6.21.91.32.05.02.1.07.15.11.06.04.12.1.19.12.72.24,1.38.64,2.08.91.17.06.8.67.99.73.11.04.29.52.4.51Z"/><path class="cls-3" d="M153.48,263.11c.22-.17.46.08.71.56.08.15.14.64.09.72-.11.16-.21.32-.32.44-.07.06-1.23.62-1.59.88-.36.22-.73.41-1.11.52-.78.24-1.53.54-2.28.85-.17.07-.34.11-.53.12-.64.05-1.22.3-1.75.63-.09.05-.19.09-.24.22-.09.21-1.53,1.03-1.76,1.06-.57.09-1.1.26-1.65.41-.08.02-.13.1-.25.04-.3-.15-.41-.01-.57.06-.22.1-.43.21-.68.27-.12.03-.31-.04-.49-.07-.16-.03-.36-.41-.36-.47.01-.17-.18-.29-.3-.42-.04-.05-.09-.11-.11-.15-.07-.09.71-1.55.86-1.63.01-.01.45-.36.91-.72.46-.35.94-.72,1.05-.8.1-.09.25-.09.38-.12.05-.03,1.53-.98,1.61-1,.34-.12.64-.35,1.07-.26.08.02.15-.02.21-.05.56-.26,1.18-.39,1.79-.52.31-.07.6-.19.9-.28.05-.02.12,0,.18,0,.07,0,.15.01.22,0,.71-.23,1.46-.29,2.18-.49.17-.05,1.03.09,1.21.03.11-.03.52.27.61.2Z"/><path class="cls-3" d="M242.84,107.15c.13-.08.23.14.34.48.03.11.04.44,0,.49-.08.1-.16.21-.24.29-.04.05-.89.37-1.21.48-.3.11-.61.19-.9.14-.58-.08-1.18-.17-1.75-.34-.13-.04-.25-.1-.35-.19-.35-.32-.75-.5-1.18-.66-.07-.03-.13-.08-.25-.03-.1.04-.43-.08-.72-.27-.29-.2-.56-.43-.6-.52-.18-.41-.4-.76-.51-1.18-.02-.06-.08-.08-.02-.2.13-.27.03-.33-.03-.44-.08-.14-.13-.31-.15-.49-.01-.09.06-.24.11-.36.04-.11.36-.3.41-.3.13-.02.24-.16.36-.25.04-.03.1-.07.13-.09.04-.02.31.01.58.04.27.03.55.03.58.06,0,.02.26.11.5.25.24.13.48.26.54.27.06.01.07.1.09.17.02.03.76.32.77.34.11.13.29.12.32.42,0,.06.04.07.07.08.26.11.47.33.71.51.12.09.27.11.41.18.02.01.04.05.06.08.03.03.05.07.08.08.17.04.33.13.5.19.17.07.33.17.51.19.08.03.45.36.55.35.05.01.23.31.28.27Z"/><path class="cls-3" d="M248.17,107.62c.09.14-.17.21-.6.25-.14.01-.53-.05-.59-.09-.1-.09-.21-.19-.28-.29-.05-.05-.21-.92-.26-1.24-.07-.3-.04-.59,0-.88.11-.57.31-1.11.54-1.65.05-.12.13-.23.23-.31.35-.31.57-.67.76-1.07.03-.07.09-.12.05-.23-.04-.1.12-.39.31-.67.22-.26.48-.48.56-.51.41-.15.77-.32,1.15-.46.05-.02.08-.08.18-.03.25.11.31.01.41-.04.14-.08.29-.14.46-.17.09-.01.23.05.35.09.11.04.28.34.29.38.01.13.15.23.24.34.03.04.07.09.09.12.03.07-.14,1.05-.18,1.1-.04,0-.57.94-.57,1.07-.01.07-.1.08-.16.1-.02.04-.37.77-.38.8-.13.11-.14.3-.43.32-.06,0-.07.04-.08.07-.13.26-.35.47-.54.71-.1.12-.13.27-.2.41-.01.02-.05.04-.08.06-.03.02-.07.05-.08.08-.1.35-.43.62-.48.99-.03.08-.39.41-.39.51,0,.05-.36.18-.32.24Z"/><path class="cls-3" d="M443.29,165.78c-.04-.14.07-.26.24-.36.06-.03.22-.03.24.01.04.08.09.16.12.24.02.13.13.83.17,1.11.05.26.07.52.07.78l.03,1.58c0,.12,0,.23-.03.35-.08.4-.09.8-.06,1.2,0,.07,0,.14.04.2.08.11.07,1.2.03,1.34-.1.35-.16.7-.24,1.04-.01.05,0,.1-.05.15-.14.1-.12.21-.13.32-.02.15-.05.3-.11.45-.03.07-.11.14-.17.21-.06.06-.25.02-.27,0-.06-.07-.16-.02-.24-.02-.03,0-.06,0-.09,0-.05-.01-.37-.89-.35-.98,0-.02-.03-1.24-.03-1.42,0-.07.03-.15.05-.22,0-.05,0-1.04,0-1.08.03-.21,0-.42.13-.62.02-.04.02-.08.02-.12.01-.36.09-.71.14-1.07.03-.18.03-.36.05-.55,0-.03.02-.07.03-.1.01-.04.03-.08.03-.12.03-.43.11-.86.12-1.29,0-.1.15-.57.15-.69,0-.06.14-.27.13-.33Z"/><path class="cls-3" d="M439.29,169.59c-.15.01-.24-.15-.32-.31-.03-.05,0-.17.05-.19.09-.04.17-.1.26-.14.06-.04.83-.12,1.09-.17.25-.03.5-.03.75-.02h1.53c.11.01.23.03.34.06.39.1.78.11,1.17.1.07,0,.13,0,.2-.04.11-.07,1.18-.04,1.32,0,.34.1.69.18,1.03.27.05.01.1,0,.14.06.09.14.2.13.31.14.15.02.3.06.44.12.07.03.13.11.2.18.06.06,0,.26-.03.28-.07.05-.03.15-.04.24,0,.03,0,.06,0,.09-.02.05-.88.29-.96.28,0,0-.32,0-.64,0-.33,0-.66,0-.73.02-.07,0-.14-.03-.22-.05-.03-.01-1.02.03-1.06.03-.2-.03-.41,0-.61-.11-.04-.02-.08-.02-.12-.02-.35,0-.71-.06-1.06-.12-.18-.03-.36-.03-.54-.05-.03,0-.06-.02-.1-.03-.04-.01-.08-.03-.12-.03-.43-.04-.86-.14-1.29-.16-.1,0-.56-.21-.67-.22-.07,0-.25-.2-.31-.2Z"/><path class="cls-3" d="M440.91,167.16c-.12-.09-.13-.23-.1-.39.01-.05.11-.13.15-.11.08.03.16.07.24.11.1.08.64.52.86.69.21.16.4.33.58.51l1.08,1.12c.08.08.15.18.21.27.21.34.47.64.75.93.05.05.09.1.16.13.12.03.83.86.89,1,.19.37.32.64.48.95.02.05.07.08.05.15-.04.16.04.23.09.33.08.13.14.27.19.42.02.07,0,.18-.02.27-.01.08-.2.16-.23.15-.09-.02-.14.07-.21.12-.02.02-.05.04-.07.05-.05.02-.76-.5-.8-.58,0,0-.19-.25-.39-.51-.2-.25-.41-.51-.46-.56-.05-.05-.07-.13-.1-.2-.01-.03-.65-.77-.67-.8-.11-.17-.26-.31-.31-.53,0-.04-.04-.07-.06-.1-.22-.27-.41-.57-.61-.86-.1-.15-.22-.28-.33-.42-.02-.03-.03-.06-.05-.09-.02-.04-.04-.08-.06-.11-.27-.32-.49-.7-.77-1.02-.06-.08-.29-.5-.36-.58-.04-.05-.09-.28-.14-.31Z"/><path class="cls-3" d="M440.37,173.04c-.07.14-.23.16-.44.12-.07-.01-.19-.13-.18-.18.02-.1.04-.19.07-.29.02-.06.5-.78.68-1.01.16-.24.35-.44.55-.65l1.2-1.21c.09-.09.19-.17.29-.24.36-.24.68-.53.97-.84.05-.05.11-.1.13-.18.03-.13.87-.92.99-1,.32-.19.62-.41.92-.63.04-.03.07-.08.14-.08.17,0,.23-.09.31-.16.12-.1.25-.2.39-.28.07-.04.18-.05.27-.07.09-.02.19.13.19.16,0,.09.09.1.15.15.02.01.05.03.06.05.03.03-.34.97-.44,1.03-.02.02-.92,1.01-1.05,1.15-.05.06-.13.1-.21.14-.03.03-.79.81-.83.83-.18.13-.33.31-.57.37-.05.01-.08.05-.11.08-.29.26-.61.47-.92.69-.16.12-.3.25-.45.37-.03.02-.06.03-.09.05-.04.02-.08.04-.11.07-.34.31-.72.57-1.02.91-.07.07-.5.36-.58.45-.05.05-.3.11-.33.17Z"/><path class="cls-3" d="M363.9,138.89c-.03-.13.06-.23.2-.32.05-.03.18-.02.2.01.04.07.07.14.1.21.02.12.1.73.14.98.04.23.06.46.05.69l.02,1.4c0,.1,0,.21-.03.31-.07.35-.08.71-.06,1.07,0,.06,0,.12.03.18.06.1.06,1.06.02,1.19-.08.31-.14.62-.21.92,0,.04,0,.09-.04.13-.11.09-.1.18-.11.28-.02.13-.05.26-.09.39-.02.06-.09.13-.14.19-.05.06-.21.01-.23,0-.05-.06-.13-.02-.2-.02-.02,0-.05,0-.07,0-.04,0-.31-.79-.29-.87,0-.02-.02-1.09-.02-1.26,0-.07.02-.13.04-.2,0-.05,0-.92,0-.95.03-.18,0-.37.11-.55.02-.04.02-.07.02-.11.01-.32.07-.63.12-.95.02-.16.03-.32.04-.48,0-.03.02-.06.02-.09,0-.04.02-.07.03-.11.02-.38.09-.76.1-1.15,0-.09.12-.51.12-.61,0-.06.12-.24.11-.29Z"/><path class="cls-3" d="M360.35,142.25c-.13,0-.21-.12-.28-.26-.02-.04,0-.14.04-.16.08-.04.15-.08.23-.11.05-.03.73-.1.96-.13.22-.02.44-.02.66-.01h1.35c.1.01.2.03.3.05.34.08.69.1,1.04.09.06,0,.12,0,.18-.03.09-.06,1.05-.03,1.17,0,.36.09.61.16.91.23.04.01.09,0,.13.05.08.12.18.11.27.12.13.02.26.05.39.1.06.02.12.09.18.15.05.05,0,.21-.02.23-.06.05-.03.13-.03.2,0,.02,0,.05,0,.07-.01.04-.77.24-.85.23,0,0-.28,0-.57,0-.29,0-.59,0-.65.01-.06,0-.13-.02-.19-.04-.03-.01-.9.02-.94.02-.18-.02-.36,0-.54-.09-.03-.02-.07-.02-.11-.02-.31,0-.62-.06-.94-.1-.16-.02-.32-.03-.48-.05-.03,0-.06-.02-.09-.03-.04-.01-.07-.03-.11-.03-.38-.03-.76-.12-1.14-.14-.09,0-.49-.18-.59-.19-.06,0-.22-.17-.27-.17Z"/><path class="cls-3" d="M361.79,140.1c-.1-.08-.12-.2-.09-.34,0-.05.09-.11.13-.09.07.03.14.06.21.1.09.08.56.46.75.62.18.14.35.29.51.45l.96,1c.07.07.13.16.19.24.19.3.42.56.66.82.04.04.08.09.14.11.11.03.73.77.79.88.17.33.29.56.43.84.02.04.06.07.05.13-.03.14.04.2.08.29.07.11.13.24.17.37.02.07,0,.15,0,.23,0,.07-.17.13-.19.12-.08-.02-.12.06-.17.1-.02.01-.04.03-.06.04-.04.01-.66-.45-.7-.52,0,0-.17-.22-.34-.45-.18-.22-.36-.46-.41-.5-.04-.05-.06-.11-.09-.17-.01-.03-.58-.68-.6-.71-.1-.15-.23-.27-.28-.47,0-.04-.03-.06-.06-.09-.2-.24-.36-.5-.54-.76-.09-.13-.2-.25-.29-.37-.02-.02-.03-.05-.04-.08-.02-.03-.03-.07-.06-.09-.24-.29-.44-.61-.69-.9-.06-.07-.26-.44-.33-.51-.04-.04-.09-.24-.13-.27Z"/><path class="cls-3" d="M361.29,145.3c-.06.12-.2.14-.38.12-.06,0-.16-.11-.15-.15.02-.08.04-.17.07-.25.02-.05.45-.68.61-.89.15-.21.32-.39.49-.57l1.07-1.07c.08-.08.17-.15.26-.21.32-.21.6-.47.86-.74.04-.05.09-.09.11-.15.03-.12.77-.81.88-.88.28-.17.54-.37.81-.56.04-.03.06-.07.12-.07.14,0,.2-.08.27-.15.11-.09.22-.18.34-.25.06-.04.15-.05.23-.07.07-.02.16.1.15.13,0,.08.08.09.13.12.02.01.04.03.05.04.02.03-.32.85-.4.9-.01.01-.81.88-.93,1.02-.05.06-.12.09-.18.12-.03.02-.7.71-.74.73-.16.12-.29.27-.5.33-.04.01-.07.04-.1.07-.25.23-.54.42-.81.62-.14.1-.26.22-.39.33-.02.02-.06.03-.08.05-.03.02-.07.04-.1.06-.3.27-.63.51-.91.81-.07.06-.44.32-.51.4-.04.04-.26.11-.29.16Z"/><path class="cls-3" d="M349.14,66.66c-.06-.19.08-.35.32-.49.08-.04.3-.03.34.02.07.11.13.21.18.32.03.07.2,1.12.28,1.48.07.35.11.7.12,1.05l.05,2.12c0,.16-.01.31-.05.47-.11.53-.13,1.07-.1,1.61,0,.09,0,.18.05.27.11.15.08,1.6.01,1.79-.14.46-.24.92-.36,1.38-.02.07,0,.14-.08.19-.19.13-.17.27-.19.42-.03.2-.08.4-.15.59-.04.1-.15.19-.24.28-.08.08-.35.02-.38-.01-.08-.09-.22-.03-.33-.03-.04,0-.09,0-.12,0-.07-.01-.5-1.19-.48-1.32,0-.01,0-.44,0-.89,0-.45,0-.92-.01-1.01,0-.1.04-.2.07-.3,0-.06.02-1.39.02-1.44.05-.27.02-.55.19-.82.03-.05.03-.11.03-.16.02-.47.12-.95.2-1.42.04-.24.04-.48.06-.73,0-.04.03-.09.04-.13.01-.05.04-.11.04-.16.03-.57.13-1.15.14-1.72,0-.13.18-.76.18-.91,0-.09.19-.36.16-.44Z"/><path class="cls-3" d="M343.8,71.75c-.2.02-.32-.2-.42-.42-.03-.07,0-.24.06-.27.12-.06.23-.14.35-.19.08-.05,1.11-.18,1.46-.24.34-.04.67-.04,1-.03.68.02,1.35,0,2.04,0,.15,0,.3.03.45.06.51.13,1.04.16,1.56.14.09,0,.18,0,.26-.05.14-.1,1.58-.06,1.77,0,.46.14.92.25,1.38.38.07.02.14,0,.19.08.12.19.27.17.41.2.2.03.39.09.58.17.09.04.18.15.27.25.08.09,0,.36-.04.38-.1.08-.04.21-.05.33,0,.04,0,.09-.01.12-.02.07-1.17.41-1.29.4-.01,0-.42,0-.86,0-.43,0-.89.01-.98.02-.1.01-.19-.04-.29-.07-.04-.02-1.36.05-1.41.04-.27-.04-.55.01-.81-.15-.05-.03-.11-.03-.16-.03-.47,0-.94-.09-1.41-.16-.24-.04-.48-.05-.73-.07-.04,0-.09-.03-.13-.04-.05-.02-.11-.04-.16-.05-.58-.05-1.14-.19-1.72-.21-.14,0-.74-.29-.9-.3-.09,0-.33-.27-.41-.27Z"/><path class="cls-3" d="M345.96,68.5c-.16-.11-.17-.31-.12-.53.02-.07.16-.18.21-.16.11.04.22.09.32.14.06.04.86.7,1.15.91.28.21.53.44.78.67l1.45,1.5c.11.11.2.23.28.37.28.45.63.85,1,1.24.06.06.11.14.21.17.17.04,1.12,1.15,1.2,1.33.24.48.43.86.64,1.28.03.06.09.1.07.2-.06.22.04.32.12.44.1.17.19.36.24.56.03.1,0,.24-.03.36-.02.11-.28.22-.32.2-.12-.03-.19.1-.29.16-.03.02-.07.05-.1.06-.07.02-1.03-.66-1.09-.76,0-.01-.26-.33-.52-.67-.27-.34-.55-.68-.62-.75-.07-.07-.09-.17-.13-.27-.02-.04-.87-1.02-.9-1.07-.14-.23-.35-.41-.41-.71-.01-.06-.05-.1-.08-.14-.3-.36-.54-.76-.8-1.15-.13-.2-.29-.38-.44-.57-.03-.03-.04-.08-.06-.12-.03-.05-.05-.1-.08-.14-.37-.43-.65-.93-1.03-1.36-.08-.1-.38-.67-.48-.78-.05-.06-.12-.37-.18-.42Z"/><path class="cls-3" d="M345.26,76.35c-.09.19-.31.21-.6.16-.09-.02-.26-.18-.25-.25.03-.13.05-.26.09-.39.02-.08.66-1.04.9-1.36.22-.32.47-.6.73-.87.53-.55,1.06-1.1,1.6-1.62.12-.12.25-.22.39-.31.49-.31.91-.7,1.3-1.12.06-.07.14-.13.17-.24.04-.18,1.15-1.23,1.32-1.34.43-.25.82-.55,1.23-.83.06-.04.09-.11.19-.11.23.02.31-.11.42-.22.16-.14.34-.26.53-.37.1-.05.24-.06.37-.09.12-.02.26.18.26.22,0,.12.13.14.21.2.03.02.06.05.08.07.04.04-.44,1.32-.57,1.39-.02.02-1.23,1.36-1.4,1.54-.07.08-.18.13-.28.18-.04.04-1.05,1.08-1.11,1.11-.24.18-.44.41-.76.49-.06.02-.11.06-.15.1-.38.34-.81.62-1.22.92-.21.15-.4.33-.6.5-.04.03-.08.05-.13.07-.05.03-.11.06-.15.1-.45.41-.96.76-1.37,1.22-.1.1-.67.47-.78.59-.06.06-.41.15-.44.23Z"/><path class="cls-3" d="M79.65,200.85c-.04-.14.07-.26.24-.36.06-.03.22-.03.24.01.04.08.09.16.12.24.02.13.13.83.17,1.11.05.26.07.52.07.78l.03,1.58c0,.12,0,.23-.03.35-.08.4-.09.8-.06,1.2,0,.07,0,.14.04.2.08.11.07,1.2.03,1.34-.1.35-.16.7-.24,1.04-.01.05,0,.1-.05.15-.14.1-.12.21-.13.32-.02.15-.05.3-.11.45-.03.07-.11.14-.17.21-.06.06-.25.02-.27,0-.06-.07-.16-.02-.24-.02-.03,0-.06,0-.09,0-.05-.01-.37-.89-.35-.98,0-.02-.03-1.24-.03-1.42,0-.07.03-.15.05-.22,0-.05,0-1.04,0-1.08.03-.21,0-.42.13-.62.02-.04.02-.08.02-.12.01-.36.09-.71.14-1.07.03-.18.03-.36.05-.55,0-.03.02-.07.03-.1.01-.04.03-.08.03-.12.03-.43.11-.86.12-1.29,0-.1.15-.57.15-.69,0-.06.14-.27.13-.33Z"/><path class="cls-3" d="M75.65,204.66c-.15.01-.24-.15-.32-.31-.02-.05,0-.17.05-.19.09-.04.17-.1.26-.14.06-.04.83-.12,1.09-.17.25-.03.5-.03.75-.02h1.53c.11.01.23.03.34.06.39.1.78.11,1.17.1.07,0,.13,0,.2-.04.11-.07,1.18-.04,1.32,0,.34.1.69.18,1.03.27.05.01.1,0,.14.06.09.14.2.13.31.14.15.02.3.06.44.12.07.03.13.11.2.18.06.06,0,.26-.03.28-.07.05-.03.15-.04.24,0,.03,0,.06,0,.09-.02.05-.88.29-.96.28,0,0-.32,0-.64,0-.33,0-.66,0-.73.02-.07,0-.14-.03-.22-.05-.03-.01-1.02.03-1.06.03-.2-.03-.41,0-.61-.11-.04-.02-.08-.02-.12-.02-.35,0-.71-.06-1.06-.12-.18-.03-.36-.03-.54-.05-.03,0-.06-.02-.1-.03-.04-.01-.08-.03-.12-.03-.43-.04-.86-.14-1.29-.16-.1,0-.56-.21-.67-.22-.07,0-.25-.2-.31-.2Z"/><path class="cls-3" d="M77.27,202.23c-.12-.09-.13-.23-.1-.39.01-.05.11-.13.15-.11.08.03.16.07.24.11.1.08.64.52.86.69.21.16.4.33.58.51l1.08,1.12c.08.08.15.18.21.27.21.34.47.64.75.93.05.05.09.1.16.13.12.03.83.86.89,1,.19.37.32.64.48.95.02.05.07.08.05.15-.04.16.04.23.09.33.08.13.14.27.19.42.02.07,0,.18-.02.27-.01.08-.2.16-.23.15-.09-.02-.14.07-.21.12-.02.02-.05.04-.07.05-.05.02-.76-.5-.8-.58,0,0-.19-.25-.39-.51-.2-.25-.41-.51-.46-.56-.05-.05-.07-.13-.1-.2-.01-.03-.65-.77-.67-.8-.11-.17-.26-.31-.31-.53,0-.04-.04-.07-.06-.1-.22-.27-.41-.57-.61-.86-.1-.15-.22-.28-.33-.42-.02-.03-.03-.06-.05-.09-.02-.04-.04-.08-.06-.11-.27-.32-.49-.7-.77-1.02-.06-.08-.29-.5-.36-.58-.04-.05-.09-.28-.14-.31Z"/><path class="cls-3" d="M76.74,208.11c-.07.14-.23.16-.44.12-.07-.01-.19-.13-.18-.18.02-.1.04-.19.07-.29.02-.06.5-.78.68-1.01.16-.24.35-.44.55-.65l1.2-1.21c.09-.09.19-.17.29-.24.36-.24.68-.53.97-.84.05-.05.11-.1.13-.18.03-.13.87-.92.99-1,.32-.19.62-.41.92-.63.04-.03.07-.08.14-.08.17,0,.23-.09.31-.16.12-.1.25-.2.39-.28.07-.04.18-.05.27-.07.09-.02.19.13.19.16,0,.09.09.1.15.15.02.01.05.03.06.05.03.03-.34.97-.44,1.03-.02.02-.92,1.01-1.05,1.15-.05.06-.13.1-.21.14-.03.03-.79.81-.83.83-.18.13-.33.31-.57.37-.05.01-.08.05-.11.08-.29.26-.61.47-.92.69-.16.12-.3.25-.45.37-.03.02-.06.03-.09.05-.04.02-.08.04-.11.07-.34.31-.72.57-1.02.91-.07.07-.5.36-.58.45-.05.05-.3.11-.33.17Z"/><path class="cls-3" d="M129.06,100.62c-.05-.18.07-.33.28-.46.07-.04.27-.03.3.02.06.1.12.21.16.31.03.16.19,1.06.25,1.42.06.33.1.67.1,1l.04,2.03c0,.15-.01.3-.04.45-.1.51-.12,1.02-.1,1.54,0,.09,0,.17.04.26.09.14.06,1.53,0,1.71-.13.44-.21.88-.32,1.32-.02.06,0,.13-.07.19-.17.12-.15.26-.17.4-.03.19-.07.38-.14.57-.03.09-.13.18-.21.27-.07.08-.31.02-.34-.01-.07-.09-.19-.03-.29-.03-.03,0-.08,0-.11,0-.06-.01-.44-1.14-.41-1.26,0-.01,0-.42,0-.85,0-.42,0-.86,0-.97,0-.1.04-.19.07-.28,0-.06.02-1.33.02-1.38.04-.26.02-.53.17-.79.03-.05.03-.1.03-.16.02-.45.11-.9.18-1.36.03-.23.04-.46.06-.69,0-.04.02-.08.03-.12.01-.05.03-.1.04-.16.03-.55.12-1.1.12-1.65,0-.13.16-.73.16-.88,0-.08.17-.35.14-.42Z"/><path class="cls-3" d="M123.93,105.46c-.19.01-.31-.18-.41-.38-.03-.06,0-.21.06-.24.11-.05.22-.13.33-.16.07-.05,1.06-.14,1.39-.19.32-.03.64-.03.96-.02.65.02,1.3,0,1.95.02.14,0,.29.02.43.06.49.12.99.14,1.5.12.08,0,.17,0,.25-.04.13-.09,1.51-.05,1.69,0,.44.13.88.22,1.31.34.06.02.13,0,.18.07.12.17.26.15.39.18.19.03.38.08.56.15.09.04.17.14.26.22.08.08,0,.31-.03.34-.09.07-.04.19-.04.29,0,.03,0,.08-.01.11-.02.06-1.11.35-1.23.34-.01,0-.41,0-.82,0-.41,0-.85,0-.94.02-.09,0-.18-.03-.28-.06-.04-.01-1.3.04-1.35.03-.26-.03-.52,0-.78-.14-.05-.03-.1-.02-.16-.02-.45,0-.9-.08-1.35-.15-.23-.04-.46-.04-.69-.07-.04,0-.08-.03-.12-.04-.05-.02-.1-.04-.16-.04-.55-.05-1.09-.17-1.65-.2-.13,0-.71-.27-.86-.28-.08,0-.32-.24-.39-.24Z"/><path class="cls-3" d="M126,102.36c-.15-.11-.17-.29-.13-.5.01-.07.14-.16.19-.14.1.05.2.09.3.14.12.1.82.67,1.09.89.26.2.5.42.74.65l1.38,1.44c.1.11.19.22.27.35.27.43.6.81.96,1.18.06.06.11.13.2.16.15.05,1.05,1.11,1.13,1.27.24.46.42.81.62,1.21.03.06.09.1.07.19-.05.2.05.3.12.42.1.17.18.34.24.53.03.09,0,.22-.01.34-.01.11-.24.19-.28.18-.11-.03-.17.09-.25.14-.03.02-.06.05-.09.06-.06.02-.96-.65-1.01-.75,0-.01-.24-.32-.49-.65-.25-.32-.52-.66-.59-.72-.06-.07-.09-.16-.13-.25-.02-.04-.83-.98-.86-1.02-.14-.22-.33-.4-.4-.67-.01-.05-.05-.09-.08-.13-.28-.34-.52-.73-.78-1.09-.13-.19-.28-.36-.42-.54-.03-.03-.04-.07-.06-.11-.03-.05-.05-.1-.08-.14-.35-.41-.63-.89-.99-1.3-.08-.1-.37-.64-.47-.74-.05-.06-.12-.35-.18-.39Z"/><path class="cls-3" d="M125.3,109.86c-.09.18-.29.21-.55.17-.08-.01-.23-.16-.22-.22.03-.12.06-.24.1-.36.02-.07.64-.98.87-1.28.21-.3.45-.56.7-.82.51-.52,1.02-1.04,1.54-1.54.12-.11.24-.21.37-.3.46-.31.86-.67,1.24-1.07.06-.07.14-.12.16-.22.05-.17,1.11-1.17,1.27-1.27.41-.25.78-.53,1.17-.81.05-.04.09-.11.18-.1.21,0,.29-.12.4-.21.15-.13.32-.25.5-.36.09-.05.22-.07.34-.09.11-.02.23.15.23.19-.01.11.11.13.19.18.02.02.06.04.07.06.04.04-.45,1.23-.57,1.3-.02.02-1.18,1.29-1.34,1.47-.07.08-.17.12-.26.18-.04.03-1.01,1.03-1.06,1.05-.23.17-.42.39-.72.48-.06.02-.1.06-.14.1-.37.33-.77.6-1.16.89-.2.15-.38.32-.57.48-.03.03-.08.04-.12.07-.05.03-.1.06-.14.09-.43.39-.91.74-1.31,1.17-.1.09-.63.46-.74.57-.06.06-.38.15-.41.22Z"/></svg>