<?xml version="1.0" encoding="UTF-8"?><svg id="Layer_1" xmlns="http://www.w3.org/2000/svg" width="520" height="520" viewBox="0 0 520 520"><defs><style>.cls-1{fill:#231f20;}</style></defs><path class="cls-1" d="M120.57,446.33c.29.01.52.19.73.33.07.05.05.15-.03.18-.16.05-.33.12-.5.18-.05.02-.48.13-.96.29-.48.14-1.01.24-1.29.33-.52.15-1.05.26-1.57.35l-3.18.21c-.24.02-.47,0-.71-.04-.81-.14-1.62-.11-2.44-.02-.14.02-.27,0-.41.11-.21.21-2.43.18-2.72.1-.71-.2-1.43-.33-2.14-.5-.1-.02-.21.01-.3-.12-.21-.3-.43-.26-.65-.3-.31-.05-.61-.12-.91-.23-.15-.05-.29-.21-.44-.34-.13-.11-.04-.48,0-.52.14-.11.04-.3.03-.45,0-.05,0-.12,0-.16.02-.07,1.78-.79,1.97-.82.02-.01.67-.05,1.34-.1.68-.05,1.38-.11,1.53-.14.15-.03.3.04.45.08.07.01,2.1-.2,2.19-.15.42.05.85-.02,1.27.23.08.05.17.04.25.04.73,0,1.46.13,2.19.22.37.05.75.04,1.12.06.07,0,.13.04.2.06.08.02.17.05.25.06.89,0,1.77.24,2.65.33.2.04,1.17.34,1.4.4.13.04.55.32.67.31Z"/><path class="cls-1" d="M158.33,446.79c.36,0,.67.16.94.27.09.04.08.13-.02.17-.2.07-.39.16-.59.25-.12.11-2.08.61-2.74.83-.64.2-1.29.39-1.94.48l-3.97.38c-.29.03-.59.02-.89,0-1.01-.12-2.02-.04-3.03.03-.17.01-.34,0-.5.1-.27.17-3.01.2-3.37.12-.88-.19-1.77-.3-2.65-.46-.13-.02-.26.02-.37-.1-.27-.28-.54-.26-.81-.3-.38-.05-.76-.12-1.13-.22-.19-.05-.37-.2-.55-.31-.17-.1-.07-.45-.01-.49.17-.11.04-.28.02-.43,0-.05-.01-.11,0-.15.02-.06,2.19-.84,2.42-.88.03,0,.83-.06,1.67-.11.84-.06,1.72-.13,1.89-.16.19-.03.38.03.56.07.09.02,2.6-.24,2.71-.24.52.01,1.04-.07,1.57.18.1.05.21.04.31.04.9-.02,1.8.09,2.7.16.46.03.92,0,1.38.02.08,0,.17.03.25.05.1.02.21.05.31.05.54,0,1.09.01,1.63.03.55.07,1.09.12,1.64.14.25.02,1.46.28,1.75.28.16,0,.7.23.85.23Z"/><path class="cls-1" d="M339.59,442.04c.21-.02.38.07.54.16.05.03.05.12,0,.14-.13.06-.25.11-.34.15-.07.02-1.21.37-1.59.56-.38.16-.76.29-1.14.4-.78.12-1.55.23-2.33.33-.17.02-.35.02-.52-.01-.59-.09-1.18-.14-1.77-.08-.1,0-.2,0-.3.08-.16.14-1.76.14-1.96.07-.5-.18-1.01-.27-1.51-.45-.07-.03-.15,0-.21-.11-.14-.26-.3-.23-.46-.26-.22-.04-.43-.09-.65-.19-.11-.05-.21-.19-.31-.31-.09-.11-.02-.46.01-.5.1-.11.03-.28.03-.43,0-.05,0-.12,0-.16.01-.09,1.3-.7,1.44-.7.04-.04,1.87-.09,2.08-.12.11-.02.22.05.32.09.05.02,1.51-.07,1.57-.06.3.05.6-.02.89.2.06.04.12.04.18.04.52-.01,1.03.17,1.54.27.26.05.53.06.79.09.05,0,.09.04.14.05.06.02.12.05.18.05.62.02,1.25.22,1.87.3.14.03.84.26,1.01.26.09.01.41.15.49.14Z"/><path class="cls-1" d="M377.09,441.72c.11.02.22.12.32.19.1.08.2.06.29.1.18.05.36.11.52.13.1.02.09.06-.03.1-.23.08-.46.17-.69.31-.03.03-.19.28-.43.5-.24.17-.57.24-.91.39-.17.06-.35.15-.52.2-.18.04-.35.08-.52.12-.33.08-.62.15-.82.2-.76.2-1.53.31-2.3.4-1.57.2-3.14.31-4.71.4-.35.02-.7,0-1.05-.04-1.2-.16-2.4-.13-3.6-.04-.2.02-.4,0-.6.12-.32.2-3.57.26-3.99.17-1.04-.21-2.09-.35-3.13-.54-.15-.03-.31.02-.44-.13-.31-.33-.63-.28-.95-.33-.45-.06-.89-.14-1.33-.28-.22-.05-.43-.28-.64-.44-.19-.15-.07-.55,0-.6.21-.13.05-.34.04-.52,0-.06,0-.14,0-.19,0-.03.17-.11.42-.23.25-.09.58-.2.92-.31.68-.24,1.39-.44,1.53-.42.03,0,.98-.03,1.97-.06.99-.04,2.02-.09,2.23-.12.22-.03.44.05.66.1.1.03,3.07-.19,3.18-.19.61.04,1.23-.07,1.84.19.12.05.25.04.37.03,1.05-.05,2.11.04,3.17.08.54.02,1.08-.03,1.62-.04.1,0,.2.03.29.05.12.02.25.05.37.04,1.28-.02,2.57.1,3.84-.03.29,0,1.71.16,2.06.24.1,0,.31.11.51.19.1.04.21.08.29.11.09.05.16.1.21.11Z"/><path class="cls-1" d="M232.53,117.53c1.73.62,3.47,1.25,5.22,1.84.64.22,1.3.34,1.94.56,2.24.8,4.46,1.7,6.71,2.51,1,.33,2,.71,3.01,1.02.65.2,1.29.4,1.91.7.31.14.62.28.92.47l.44.29c.15.09.2.48.35.55.38.2.29.27-.1.32-.17-.04-.61.49-.95.53-.37.15-.77.26-1.16.23l-1.05-.06c-.35-.02-.68-.11-1.01-.17-.67-.13-1.34-.27-2.01-.43-1.31-.38-2.58-.92-3.86-1.48-1.52-.69-3.22-1-4.83-1.54l-5.3-1.81-3.26-1.14c-1.65-.56-3.29-1.19-4.95-1.69-1.29-.4-2.61-.62-3.92-.96-.29-.08-.58-.11-.87-.21-1.05-.36-1.3-.7-1.19-1.58.02-.2.03-.41.08-.6.16-.65.78-1,1.58-.9,2.37.3,4.7,1.01,7.06,1.76,1.75.57,3.51,1.15,5.27,1.73l-.02.08Z"/><path class="cls-1" d="M383.56,297.5c-.57-.03-1.15-.07-1.72-.1-.21,0-.41.03-.62.01-.75-.03-1.46-.15-1.99.03-.24.09-.44.17-.57.39-.16.27-.26.6-.11.92.05.1.01.16-.15.15-.14,0-.48-.14-.6-.48-.19-.59-.09-1.25.39-1.79.21-.26.51-.37.78-.45.28-.07.54-.1.79-.09.59.02,1.09-.06,1.62-.09.57-.01,1.15-.02,1.72-.03.35,0,.71,0,1.06,0,.53,0,1.07,0,1.6-.05.41-.04.81-.19,1.21-.27.09-.02.17-.05.26-.06.33-.03.45.07.55.46.02.09.05.18.07.27.05.3-.07.56-.31.68-.7.38-1.47.45-2.24.51-.57.04-1.15.04-1.72.05v-.04Z"/><path class="cls-1" d="M416.18,280.53c-.38-.34-.7-.73-.94-1.15-.09-.15-.21-.27-.28-.44-.22-.57-.24-1.18-.23-1.72,0-.25,0-.47,0-.71.03-.15.07-.3.13-.44.05-.14.14-.28.34-.37.11-.06.07-.05.15.04.04.05.12.12.24.2.1.08.16.15.2.22.07.12.14.24.22.34.06.1.05.2.08.3.04.2.07.4.07.62,0,.27.23.46.35.67.14.24.31.45.52.64.13.12.28.23.44.31.24.12.51.25.79.24.22.01.43-.16.6-.24.04-.01.08-.05.12-.05.15-.01.23.11.41.59l.12.32c.13.36.13.7-.04.9-.49.62-1.29.71-1.95.5-.5-.14-.96-.41-1.36-.72l.02-.04Z"/><path class="cls-1" d="M400.7,378.76c-.75-1.88-.88-3.8-.82-5.59.03-.66.01-1.31.1-1.96.33-2.28.93-4.51,1.96-6.53.44-.9.88-1.8,1.39-2.64.57-1.14,1.54-2.03,2.41-2.91.28-.27.28-.2.16.12-.13.32-.35.9-.58,1.58-.14.65-.42,1.18-.68,1.73-.25.56-.48,1.11-.7,1.68-.45,1.12-.76,2.28-1.19,3.42-.49,1.38-.6,2.91-.66,4.38-.07,1.63,0,3.27.46,4.75.28.91.7,1.76,1.31,2.5.91,1.11,2.14,2.03,3.53,2.56,1.08.42,2.25.52,3.38.57.25.01.5-.02.75.02.93.09,1.21.29,1.39,1.03.04.17.1.34.12.5.08.56-.35,1.02-1.16,1.15-2.38.36-4.98-.34-7.25-1.75-1.68-1.07-3.14-2.68-3.94-4.58l.05-.03Z"/><path class="cls-1" d="M404.07,381.74l-.46-.36-.4-.42c-.26-.28-.53-.56-.78-.85-.41-.64-.9-1.23-1.16-1.93-.23-.49-.52-.95-.64-1.48-.56-1.81-.66-3.67-.45-5.46.03-.8.22-1.58.42-2.34.16-.48.32-.96.5-1.42.23-.45.48-.89.73-1.31.16-.26.19-.2.19.08,0,.28.02.8-.07,1.34-.07.48-.07.98-.11,1.45-.07.47.06.96-.03,1.41-.09.46-.06.92-.1,1.38-.05.46,0,.92,0,1.39,0,1.13.46,2.23.88,3.26.32.52.53,1.12.93,1.58.18.24.35.51.54.74l.65.64c.25.29.58.47.89.7l.46.33c.17.09.34.16.52.24l.79.36.85.22c.56.18,1.15.2,1.74.21.23,0,.45,0,.68-.02l.67-.15c.44-.12.88-.19,1.3-.36.19-.07.37-.17.56-.23.7-.25.98-.08,1.33.53.08.14.17.27.24.4.21.43.04.99-.54,1.28-.42.21-.86.4-1.32.56-.47.13-.96.2-1.45.28l-.75.1c-.25,0-.51-.01-.77-.02-.52-.04-1.04-.03-1.55-.14l-1.15-.29c-.19-.06-.38-.09-.57-.17l-.54-.25-1.07-.52-.97-.69.03-.05Z"/><path class="cls-1" d="M388.43,402.1c.08-.98.23-1.86.36-2.76.05-.33.05-.66.11-.98.25-1.13.5-2.27.75-3.4.1-.51.19-1,.29-1.5.11-.64.24-1.28.43-1.9.06-.19.11-.16.15.02.04.18.11.51.1.88-.04,1.32-.04,2.64-.19,3.95-.11.78-.02,1.61-.07,2.41-.04.88-.09,1.78-.1,2.64,0,.53,0,1.05.08,1.55.1.76.29,1.5.74,2.06.35.44.87.69,1.32.78.1.02.2.02.3.03.34.05.39.18.47.79l.06.42c.06.46-.2.87-.77.89-.82.02-1.62-.33-2.24-.84-.62-.51-1.08-1.17-1.39-1.91-.44-1.07-.51-2.15-.46-3.13h.05Z"/><path class="cls-1" d="M388.14,403.37c.02-.58.11-1.14.19-1.68.03-.2.03-.4.07-.59.16-.69.37-1.35.56-2,.08-.29.15-.58.21-.87.08-.37.14-.75.31-1.1.1-.22.61.2.61.64-.06.77-.13,1.52-.31,2.26-.12.44-.07.92-.1,1.37-.03.5-.04,1-.03,1.49.02.3.03.61.09.9.07.45.17.9.36,1.3.17.3.44.54.71.75.05.05.12.09.17.14.18.19.12.33-.25.71l-.25.26c-.29.29-.63.39-.89.25-.76-.4-1.14-1.24-1.33-2.03-.14-.6-.18-1.21-.17-1.79h.04Z"/><path class="cls-1" d="M389.3,403.98c-.48-1.01-.58-2.02-.61-2.93,0-.33-.06-.66-.04-.98.08-1.12.18-2.2.34-3.29.08-.48.11-.97.15-1.44.04-.61.15-1.23.36-1.82.07-.19.2-.15.36.03.16.18.39.49.45.84.13.62.17,1.24.2,1.85.01.31.02.61.02.92-.02.31-.06.61-.11.92-.11.73,0,1.52.04,2.24.04.79.13,1.56.38,2.22.15.41.37.77.67,1.07.44.46,1.06.82,1.74.98.54.12,1.11.02,1.66-.06.12-.01.24-.06.37-.07.45,0,.6.24.7.82.02.14.06.27.07.4.05.45-.15.84-.55,1.05-1.17.43-2.53.25-3.85-.38-.98-.46-1.89-1.33-2.41-2.33l.04-.03Z"/><path class="cls-1" d="M317.02,409.03c-.56,1.6-2.54,11.61-1.13,18.89,1.41,7.28,6.08,13.63,11.25,14.25,4.41.54,7.95-2.76,7.95-2.76l-3.39-13.49-.17-14.09.97-5.1-15.2,1.21"/><path class="cls-1" d="M386.52,377.93s-2.16-4.82-11.69-5.65c-7.25-.63-17.99,7.02-22.73,14.64-4.74,7.62-10.69,17.5-10.69,29.64s4.97,21.61,11.69,25.15c7.63,4.02,17.22-5.44,17.22-5.44l11.05-16.66s6-16.61,7.18-21.97c1.18-5.36-2.03-19.71-2.03-19.71ZM374.9,404.72c0,1.44-3.42,8.73-3.42,8.73,0,0-7.24,5.01-9.26,6.16-2.02,1.15-4.98-.76-7.72-3.09-2.73-2.33-1.06-8.26-.76-9.79.3-1.53,2.24-6.72,8.24-13.58,5.99-6.85,9.5,0,9.5,0l3.42,2.88v8.69Z"/><path class="cls-1" d="M84.68,411.83c-.38,3.04,1.38,13.58,4.39,19.6,3.01,6.02,7.22,13.18,15.15,14.55,7.93,1.38,11.65-2.12,11.65-2.12l-10.03-18.57-.74-15.83-20.42,2.37Z"/><path class="cls-1" d="M158.96,405.47c-1.35-2.44-4.88-22.7-8.6-26.32-3.57-3.47-8.76-7.59-12.42-7.75-1.71-.07-7.97.25-13.62,5.73-5.64,5.49-10.63,21.86-7.27,38.23,3.6,17.58,13.4,29.79,24.46,29.77,9.88-.01,12.26-5.16,15.98-12.44,3.73-7.28,2.83-24.79,1.47-27.22ZM144.61,421.82c-2.06,2.06-3.24,3.21-8.38,3.97-5.14.76-8.27-6.65-9.28-9.12-1.02-2.48-1.27-7.82,2.5-16.11s8.58-4.53,8.58-4.53c0,0,5.62,6.04,5.68,6.33.06.3,3.02,9.15,4.84,9.47,1.81.32-1.88,7.93-3.94,9.99Z"/><path class="cls-1" d="M54.15,392.43c-2.6.51-5.21.9-7.81,1.22-.95.13-1.89.3-2.84.4l-4.99.44c-1.62.16-3.34.55-5.28.23-.43-.08-.88-.22-1.31-.46-.42-.25-.85-.6-1.1-1.03-.56-.85-.6-1.78-.61-2.56.02-1.03.09-1.97.26-2.88.14-.91.27-1.79-.02-2.61-.21-.48-.15-.53.31-.2.44.32,1.15,1.31,1.36,2.51.08.52.2,1.03.21,1.52.02.48.02.95.07,1.37.06.88.33,1.48.48,1.67.08.1.21.22.49.3.28.09.65.14,1.05.16.82.03,1.74-.04,2.7-.13.6-.06,1.2-.12,1.81-.19.59-.07,1.17-.14,1.77-.2,1.18-.17,2.36-.33,3.53-.5,2.58-.35,5.15-.72,7.71-1.19,1.57-.3,3.14-.62,4.68-1.01,2.34-.58,4.69-1.25,6.9-2.16,1.73-.69,3.32-1.6,4.89-2.53.34-.21.67-.43,1.02-.63.66-.36,1.08-.61,1.45-.66.37-.05.66.05.98.25.14.09.3.17.42.27.37.32.1,1.09-.83,1.8-2.75,2.09-6.09,3.6-9.51,4.76-2.55.86-5.16,1.52-7.77,2.09l-.02-.06Z"/><path class="cls-1" d="M108.85,403.99c-.6,1-1.31,1.93-2.16,2.74-.3.3-.59.61-.93.87-1.23.86-2.6,1.45-4.01,1.78-.62.15-1.25.3-1.89.37-.81.05-1.68.1-2.41-.4-.23-.13-.16-.28.08-.51.12-.11.28-.25.46-.4.18-.17.37-.3.56-.32,1.35-.36,2.61-.53,3.97-.98.82-.25,1.48-.88,2.14-1.43.73-.61,1.37-1.33,1.92-2.15.33-.5.63-1.04.87-1.6.37-.85.66-1.75.8-2.68.12-.72.07-1.44.04-2.15,0-.16-.02-.31-.02-.47.02-.59.13-.78.55-.94.1-.04.19-.08.28-.11.32-.08.61.15.79.62.25.69.39,1.44.44,2.2.05.76.04,1.55-.17,2.31-.26,1.13-.7,2.24-1.27,3.27l-.05-.02Z"/><path class="cls-1" d="M109.15,394.75c-.42,1.51-.77,3.04-1.13,4.57-.13.56-.18,1.14-.32,1.72-.23,1.03-.49,2.12-1.02,3.13-.53,1.01-1.27,1.87-2.12,2.56-.75.61-1.56,1.13-2.39,1.57-.53.29-1.1.5-1.67.67-.57.17-1.16.29-1.78.26-.38,0-.33-.02-.07-.24.13-.11.3-.28.5-.52.21-.2.46-.39.74-.55.98-.63,1.97-1.09,2.87-1.69.89-.61,1.66-1.33,2.26-2.2.72-1.04.89-2.46,1.05-3.89.18-1.6.46-3.23.85-4.8.23-.98.49-1.95.76-2.91.41-1.46.87-2.91,1.36-4.33.39-1.1.65-2.23,1.1-3.29.09-.24.18-.47.29-.7.4-.86.65-1.08,1.06-1.12.09,0,.19-.03.28-.02.28.03.35.48.21,1.16-.38,2.04-.87,4.09-1.47,6.11-.48,1.49-.94,3-1.33,4.53h-.05Z"/><path class="cls-1" d="M207.88,308.95s-6.98,13.99-9.42,21.41c-2.44,7.42-3.65,12.22-3.65,12.22l-16.49.41-3.65-22.43s-1.88-4.34,1.59-5.93c3.46-1.59,21.11-9.61,21.11-9.61l2.58,6.14,7.93-2.21Z"/><path class="cls-1" d="M225.17,275.87s-11.19-30.33-14.03-31.63-12.55-6.92-16.86-5.42-12.18,8.89-13.57,11.78c-1.39,2.89-6.7,20.88-6.7,20.88l-1.48,11.85,6.08,8.86,15.67-2.46-.36-5.31s20.32-4.99,23.79-6.07c3.47-1.08,7.46-2.49,7.46-2.49Z"/><path class="cls-1" d="M194.43,288.06c.08-.65.16-1.3.33-2,.06-.25.1-.52.21-.78.17-.46.49-.89.87-1.2.37-.32.76-.55,1.13-.75.34-.18.63-.38.98-.54.43-.22.91-.39,1.39-.42.15,0,.13,0,.02.08-.11.07-.27.26-.46.45-.34.31-.59.74-.96,1.03-.32.26-.66.52-1.02.81-.37.32-.5.75-.68,1.22-.18.52-.29,1.13-.37,1.77-.05.39-.1.78-.13,1.17-.05.59-.09,1.19-.06,1.77.05.46.1.9.09,1.35,0,.1,0,.2,0,.3-.02.37-.09.5-.28.6-.04.02-.08.05-.13.06-.14.05-.28-.09-.41-.36-.18-.4-.37-.82-.53-1.25-.11-.43-.1-.88-.12-1.32-.01-.66.03-1.33.08-1.99h.04Z"/><path class="cls-1" d="M193.75,293.29c.47.64.86,1.36,1.14,2.05.11.25.25.49.32.75.25.94.37,1.86.48,2.76.05.4.12.79.15,1.19.06.5.09,1.01.06,1.52,0,.16-.06.15-.17.03-.1-.12-.28-.33-.4-.6-.19-.48-.41-.95-.58-1.41-.15-.47-.28-.94-.4-1.42-.13-.57-.46-1.09-.75-1.6-.28-.57-.6-1.12-.99-1.6-.24-.3-.5-.59-.79-.84-.44-.38-.92-.74-1.46-.91-.42-.14-.89-.07-1.28,0-.09,0-.17.02-.26.02-.16,0-.26-.06-.34-.21-.08-.14-.14-.32-.2-.56l-.08-.33c-.07-.34.06-.7.43-1.01.27-.11.56-.21.85-.25.29-.02.58.02.87.07.58.11,1.11.36,1.6.66.73.45,1.32,1.04,1.83,1.67l-.03.03Z"/><path class="cls-1" d="M193.12,290.66c.18.22.34.45.47.68.05.08.12.14.16.23.15.31.24.63.31.94.04.13.08.26.12.39.05.16.12.33.06.51-.03.11-.65.06-.73-.06-.14-.24-.28-.44-.35-.71-.04-.17-.2-.26-.31-.38-.12-.13-.25-.26-.39-.38-.09-.07-.17-.14-.27-.2-.14-.09-.3-.17-.46-.2-.13-.02-.28.06-.4.11-.03,0-.05.04-.08.04-.09.02-.11-.09-.13-.51v-.29c-.02-.33.04-.59.16-.68.37-.26.82-.26,1.18-.08.26.14.48.35.69.55l-.02.03Z"/><path class="cls-1" d="M198.5,340.89l22.19-47.9s17.15-28.09,20.03-31.61c2.88-3.52,15.83-17.19,19.86-17.15,4.03.05,15.95,1.45,20.59,4.79s21.67,23.51,21.67,23.51c0,0,4.53,3.43,11.9-.53,7.38-3.96,12.8,2.71,14.09,5.01s10.57,23.96,11.67,28.39-2.83,23.22-2.83,23.22l-6.52,11.2-46.73,1.07-23.84-20.54-7.41,16.13-1.77,4.41h-52.9Z"/><path class="cls-1" d="M302.66,272.39c-.47-.59-.88-1.2-1.28-1.8-.14-.22-.32-.42-.45-.64-.49-.79-.94-1.59-1.37-2.39-.2-.35-.41-.7-.62-1.04-.27-.43-.55-.87-.77-1.34-.07-.15.03-.18.2-.14.17.05.43.18.62.4.68.8,1.35,1.6,1.9,2.49.31.54.75,1.02,1.15,1.52.43.55.86,1.1,1.32,1.61.28.31.57.62.88.89.47.42.97.81,1.52,1.06.43.2.9.24,1.33.24.09,0,.19-.01.28-.02.34,0,.44.14.53.58.02.1.05.2.07.3.06.33-.11.62-.49.75-1.1.23-2.29-.19-3.16-.83-.66-.48-1.2-1.05-1.7-1.62l.02-.03Z"/><path class="cls-1" d="M300.1,258.89c-.59.35-1.18.68-1.83.91-.22.1-.45.21-.69.27-.86.22-1.74.2-2.54.08-.35-.08-.71-.08-1.05-.17-.45-.05-.85-.3-1.23-.54-.12-.08-.08-.13.06-.2.14-.07.39-.22.64-.27.22,0,.44-.15.64-.11.2,0,.4.01.59,0,.36,0,.73-.02,1.14-.02.46,0,.89-.21,1.29-.42.45-.22.9-.48,1.32-.82.26-.2.53-.41.78-.64.37-.36.77-.72,1.07-1.17.24-.34.35-.77.54-1.14.04-.08.06-.18.11-.25.19-.29.37-.29.86-.03.11.06.23.11.33.18.36.22.56.54.53.83-.08.87-.54,1.56-1.1,2.2-.4.48-.91.92-1.41,1.35l-.04-.04Z"/><path class="cls-1" d="M299.4,259.58c-.65.49-1.41,1.03-2.39,1.16-.34.06-.73.07-1,.03-.53-.08-1.07-.25-1.54-.51-.47-.27-.85-.62-1.2-.97-.31-.31-.61-.61-.89-.92-.36-.39-.71-.8-.98-1.26-.08-.14,0-.2.2-.18.18.02.48.1.72.28.84.67,1.67,1.28,2.44,1.73.46.29,1.04.36,1.6.35.51.01,1.03-.23,1.54-.64.31-.26.62-.54.9-.87.44-.48.9-.98,1.28-1.53.3-.43.5-.91.75-1.37.05-.1.09-.21.16-.31.25-.35.46-.36.85-.18.09.04.18.08.27.13.28.16.4.47.34.81-.27.94-.81,1.75-1.41,2.56-.44.61-.97,1.17-1.6,1.71l-.03-.03Z"/><path class="cls-1" d="M242.48,230.5c-.41,1.04-.84,2.07-1.28,3.09-.16.37-.28.76-.45,1.12-.61,1.29-1.24,2.57-1.91,3.82-.29.56-.59,1.11-.88,1.66-.37.71-.75,1.41-1.21,2.07-.14.21-.2.13-.2-.1,0-.24.04-.65.2-1.08.59-1.51,1.05-3.06,1.81-4.49.44-.87.71-1.84,1.04-2.78.36-1.03.71-2.06,1.04-3.1.2-.64.39-1.28.58-1.93.28-.98.55-1.96.73-2.96.13-.77.14-1.55.17-2.33,0-.17,0-.34.01-.51.04-.64.23-.81.76-.88.12-.01.24-.04.36-.04.38-.01.7.3.74.79.12,1.46-.13,2.95-.48,4.42-.27,1.09-.58,2.18-.96,3.24h-.04Z"/><path class="cls-1" d="M209.23,127.61c-.37-.09-.73-.21-1.07-.36-.13-.05-.26-.08-.38-.14-.42-.22-.81-.5-1.15-.8-.16-.14-.3-.26-.46-.4-.19-.17-.38-.35-.48-.59-.07-.14.44-.31.67-.2.39.24.78.41,1.12.72.21.18.5.23.76.32.29.09.58.17.88.22.19.03.37.06.56.06.28,0,.58,0,.85-.06.21-.06.4-.2.57-.33.04-.03.08-.06.11-.09.15-.09.23-.03.42.26l.13.2c.14.23.16.46.04.6-.35.41-.87.62-1.4.69-.39.05-.79-.02-1.17-.08v-.03Z"/><path class="cls-1" d="M229.98,79.11c-2.18.89-6.21,5.69-5.89,7.95s4.36,2.16,4.36,2.16c0,0-2.61,3.21-.78,5.75s8.45,4.67,12.9,4.67,5.07,2.76,6.66,4.87,5.36,12.33,5.48,15.09,0,12.84,0,12.84c0,0,2,5.75,5.12,3.63,3.12-2.12,7.54-3.41,9.14-2s3.17,4.95,2.89,6.36-2.57,6.86-4.09,7.7-5.35,4.36-5.35,4.36c0,0-3.14,9.47-1.18,14.48s8.94,8.54,10.03,8.67c1.1.14,10.29-.82,11.66.08s6.23,9.39,8.99,10.72c2.76,1.34,7.64.84,11.29,0,3.65-.84,7.25-3.5,10.44-3.18s16.95,5.42,16.95,5.42c0,0,7.71,1.93,10.75-1.96,2.91-3.72,5.56-15.36,9.01-16.38,3.46-1.01,16.51-3.49,15.25-10.16-1.03-5.44-13.55-10.44-13.55-10.44,0,0-.69-10.14.7-12.82,1.59-3.04,1.28-13.55-4.7-15.31-5.26-1.54-13.55-5.23-13.55-5.23l-24.53-4.04-11.38-10.55s-8.37-14.84-11.94-17.94-18.22-11.01-22.43-11.39c-4.21-.38-22.08,1.85-22.08,1.85l-10.16,4.78Z"/><path class="cls-1" d="M339.41,295.77c.59,1.8,1.13,3.63,1.56,5.52.21.95.4,1.93.49,2.96l.21,2.83c.06,1.38.22,2.75.2,4.14,0,2.44-.13,4.9-.49,7.33-.36,2.43-.84,4.85-1.68,7.17-.74,2.05-1.58,4.07-2.58,5.98-1.28,2.46-3.07,4.62-5.09,6.47-.62.59-.49.54-.15-.1.17-.32.38-.8.59-1.39.2-.6.42-1.32.75-2.02,1.02-2.56,2.28-4.86,3.19-7.34.24-.61.42-1.25.65-1.87.21-.62.35-1.27.57-1.89.38-1.27.71-2.56.99-3.88.68-3.16.61-6.58.48-9.91l-.15-2.76-.24-2.75c-.2-1.7-.71-3.5-1.23-5.26-.67-2.17-1.43-4.33-2.26-6.46-1.26-3.22-2.61-6.45-4.18-9.51-1.22-2.38-2.63-4.61-4.11-6.74-.33-.46-.68-.9-1.01-1.35-1.25-1.7-1.51-2.04-1.34-2.96.02-.19,0-.41.01-.58.03-.29.28-.44.88-.35.55.08,1.19.53,1.8,1.14,1.79,1.87,3.16,3.97,4.45,6.15,1.28,2.19,2.42,4.47,3.5,6.79,1.6,3.44,2.99,6.99,4.24,10.6l-.07.03Z"/><path class="cls-1" d="M374.07,332.34c-2,.48-3.99,1.15-5.94,1.96-.71.29-1.37.69-2.08,1-2.5,1.1-4.96,2.35-7.31,3.8-1.05.63-2.02,1.4-3.01,2.09l-1.88,1.4c-.66.43-1.38.79-2.08,1.18-.45.23-.5.08-.36-.4.15-.46.4-1.36.94-2.16,2.21-2.47,4.96-4.34,7.89-5.87,1.77-.9,3.46-2.09,5.28-2.98,2.01-.98,4.09-1.83,6.23-2.52,1.32-.41,2.67-.77,4.03-1.05,2.07-.43,4.22-.54,6.35-.46,1.65.08,3.33.2,4.98.72.36.12.73.19,1.07.38,1.32.57,1.48,1.19,1.25,1.98-.05.18-.09.37-.16.53-.13.27-.37.43-.7.51-.33.09-.73.11-1.12-.04-2.37-.74-4.79-1.08-7.43-.95-1.94.14-3.96.42-5.95.96l-.03-.07Z"/><path class="cls-1" d="M397.82,377.25c-.12-.63-.12-1.26-.15-1.88.04-.6.05-1.22.13-1.79.14-1.12.35-2.22.61-3.31.19-.79.32-1.59.58-2.36.86-2.73,2.18-5.29,3.79-7.63.73-1.03,1.44-2.08,2.28-3.02.49-.64,1.12-1.18,1.75-1.68.33-.24.65-.48,1.01-.68.38-.17.76-.33,1.13-.48.48-.18.51.03.35.53-.08.25-.2.58-.34.94-.08.18-.15.37-.24.56-.1.18-.21.35-.35.51-.52.52-.86,1.21-1.37,1.72l-.69.84-.65.89c-.85,1.2-1.63,2.47-2.38,3.78-.89,1.59-1.42,3.44-1.88,5.25-.25,1-.5,2-.65,3.01-.1.51-.14,1.01-.21,1.52-.02.49-.07.98-.06,1.46.03,1.19.3,2.33.86,3.32.83,1.52,2.42,2.62,4.15,3.33,1.37.54,2.85.75,4.32.99.32.05.65.08.98.14.61.12,1,.25,1.24.5.23.27.33.58.36.98.02.18.05.37.05.54-.01.29-.17.51-.45.7-.28.18-.7.37-1.16.34-1.39-.08-2.81-.31-4.27-.71-1.45-.41-2.94-.99-4.37-1.91-1.05-.71-2.07-1.57-2.87-2.69-.76-1.13-1.31-2.41-1.54-3.7l.07-.02Z"/><path class="cls-1" d="M410.07,386.7c.77-2.22,1.47-4.47,2.12-6.76.37-1.16.54-2.23.83-3.35.16-1.13.38-2.26.47-3.41.06-.84.12-1.68.13-2.53-.01-.85-.03-1.69-.01-2.54-.12-5.97-1.04-12.03-3.1-17.73l-.33-.95-.4-.92-.82-1.84c-.63-1.18-1.24-2.37-1.95-3.49-1.76-2.93-3.97-5.49-6.28-8-.65-.87-.4-1.02.64-.81.52.1,1.21.33,2.02.68.41.17.78.43,1.19.7.2.14.41.29.62.44.19.17.39.34.58.53,2.6,2.73,4.75,5.87,6.27,9.28,1.58,3.38,2.66,6.96,3.34,10.6.82,4.35,1.54,8.91,1.47,13.46.03,1.25-.14,2.5-.2,3.74-.16,1.24-.3,2.49-.55,3.72-.27,1.23-.54,2.47-.89,3.63-.34,1.17-.64,2.35-1.03,3.52-.86,2.89-1.92,5.73-3.11,8.53-.98,2.09-2.02,4.19-3.43,6.08-.64.98-1.46,1.85-2.24,2.73-.4.44-.87.8-1.3,1.21l-.66.59-.72.51c-2.97,2.17-6.42,3.52-9.94,4.2-.78.18-1.53.31-2.32.39-2.92.37-3.85-.07-4.47-.86-.14-.19-.32-.37-.4-.55-.14-.31.09-.6.59-.88.5-.27,1.28-.55,2.29-.66,2.95-.48,5.9-1.07,8.56-2.18,2.67-1.09,4.98-2.75,6.83-4.99,1.36-1.67,2.57-3.56,3.54-5.65,1.03-2.04,1.84-4.26,2.61-6.48l.08.02Z"/><path class="cls-1" d="M175.1,331.02c-.19-1.34-.34-2.7-.47-4.07-.05-.5-.17-.98-.21-1.48-.13-1.76-.3-3.52-.3-5.29-.02-.78-.1-1.56-.15-2.33-.06-.99-.22-1.98.04-2.99.06-.31.11-.28.29-.03.14.18.27.35.39.51.08.1.18.22.25.34.06.12.1.25.14.39.47,1.96,1.04,3.87,1.18,5.88.05,1.21.41,2.42.63,3.63.23,1.33.48,2.67.67,4.02l.39,2.49c.22,1.26.38,2.54.64,3.78.19.98.54,1.91.75,2.91.03.22.09.44.11.66.06.84-.19,1.13-.81,1.31-.14.04-.28.09-.42.12-.44.07-.92-.24-1.15-.77-.16-.39-.35-.8-.49-1.2-.12-.41-.24-.83-.33-1.25-.21-.85-.37-1.72-.53-2.61-.25-1.32-.45-2.67-.68-4.01l.07-.02Z"/><path class="cls-1" d="M138.47,310.86c-3.89-6.97-6.91-14.36-8.91-22.07-.73-2.81-1.41-5.66-1.76-8.58-.31-2.57-.45-5.19-.24-7.86.22-2.65.73-5.44,2.41-8.01.83-1.27,2.11-2.4,3.62-3.02,1.52-.64,3.19-.68,4.63-.4,2.91.6,5.23,2.08,7.29,3.69,3.65,2.9,6.65,6.38,9.28,10.02,1.68,2.35,3.18,4.83,4.46,7.42.65,1.29,1.22,2.62,1.73,3.97.52,1.35.86,2.76,1.15,4.18.21,1.82-.08,1.62-1.18.44-.56-.59-1.26-1.44-2.12-2.43-.79-1.02-1.6-2.23-2.37-3.6-1.36-2.42-2.88-4.74-4.51-6.96-1.58-2.25-3.29-4.41-5.16-6.37-1.86-1.96-3.9-3.74-6.06-5.02-1.07-.63-2.18-1.11-3.21-1.32-1.04-.19-1.94-.17-2.74.22-.99.41-1.83,1.49-2.39,2.86-.57,1.36-.84,2.99-.96,4.62-.23,3.31.16,6.78.77,10.16,1.38,7.46,3.99,14.78,7.37,21.67,2.1,4.23,4.53,8.32,7.3,12.14,2.1,2.89,4.39,5.68,6.91,8.18,2.52,2.49,5.3,4.77,8.37,6.26,2.36,1.13,5,1.68,7.11.92.53-.18,1.01-.45,1.46-.77.23-.15.42-.36.64-.54.19-.19.3-.34.45-.54.52-.8.82-1.94.94-3.14.1-1.07.04-2.15-.04-3.28-.05-.52-.09-1-.15-1.44-.03-.44-.06-.85-.09-1.22-.05-.74-.11-1.34-.1-1.86.09-1.05.22-1.7.47-2.3.12-.27.2-.61.33-.8.22-.32.6-.09,1.18.63.26.37.62.84.97,1.45.38.6.62,1.36.89,2.22.41,1.28.61,2.63.71,4.02.1,1.39.08,2.83-.2,4.35-.29,1.5-.83,3.19-2.24,4.7-.18.2-.34.35-.5.48l-.49.41c-.32.28-.71.5-1.08.73-.75.45-1.59.79-2.44,1.02-1.71.46-3.46.42-5.04.13-1.58-.3-3.04-.82-4.38-1.46-2.67-1.3-4.99-2.97-7.1-4.8-3.14-2.72-5.87-5.76-8.35-8.96-2.48-3.2-4.71-6.57-6.72-10.07l.08-.06Z"/><path class="cls-1" d="M182.7,244.02c1.85-2.24,4.18-4.22,6.91-5.52,2.73-1.35,5.82-1.78,8.79-1.55,2.18.19,4.33.75,6.26,1.71,3.4,1.71,6.13,4.29,8.4,7.08,2.27,2.8,4.13,5.86,5.75,9.01,1.43,2.79,2.76,5.65,3.87,8.55,1.47,3.69,2.76,7.56,2.68,11.64-.09.65-.12.92-.14.91-.03-.01-.08-.31-.37-.78-.28-.47-.77-1.12-1.24-1.9-.25-.4-.51-.82-.78-1.26-.14-.22-.25-.46-.42-.69-.1-.25-.2-.5-.31-.76-.34-.92-.76-1.82-1.09-2.74-.34-.92-.68-1.84-1.04-2.75-.72-1.82-1.51-3.61-2.29-5.41-1.59-3.57-3.41-7.05-5.61-10.27-1.31-1.92-2.9-3.71-4.7-5.21-1.81-1.49-3.84-2.67-5.97-3.4-2.34-.8-4.89-.92-7.34-.47-2.43.52-4.73,1.66-6.66,3.35-2.4,2.06-4.3,4.75-5.85,7.62-2.33,4.38-4,9.19-5.21,14.03-.93,3.78-1.49,7.56-2.03,11.38-.11.84-.22,1.67-.33,2.52-.24,1.57-.43,2.6-.7,3.31-.29.7-.64,1.08-1.05,1.36-.18.13-.36.31-.51.38-.25.12-.42-.16-.6-.78-.2-.62-.28-1.55-.17-2.72.57-6.94,1.76-14.27,4.02-21.45,1.69-5.31,3.93-10.63,7.65-15.23l.06.04Z"/><path class="cls-1" d="M174.95,289.97c-.67-1.12-1.34-2.24-2.04-3.3l-.52-.77c-.05-.07-.09-.14-.27-.26-.32-.22-.86-.42-1.41-.56-.81-.21-1.71-.25-2.6-.33-1.57-.13-3.21-.11-4.76.11-.39.06-.77.13-1.13.22-.09.02-.18.06-.26.08-.04,0-.08.02-.13.03-.08.02-.17.06-.25.09-.16.07-.34.2-.38.39,0,.18.05.37.14.54.1.25.63.71,1.2,1.02.59.32,1.23.61,1.92.88.87.36,1.81.66,2.76,1.25.24.15.47.32.7.53.21.23.41.5.56.81.16.31.24.67.21,1.02-.04.34-.05.66-.28.91-.35.28-.48.35-.48.35,0,0,.07-.16-.13-.44-.22-.27-.46-.58-.87-.62-.18-.02-.32-.02-.48-.02-.07,0-.16-.01-.24,0-.08-.03-.13-.06-.21-.1-.55-.32-1.43-.62-2.34-.95-.92-.34-1.93-.68-2.95-1.39-.26-.18-.51-.37-.76-.6-.13-.11-.25-.23-.37-.36-.16-.15-.3-.35-.44-.53-.53-.76-.87-1.64-.85-2.48,0-.41.12-.85.36-1.19.1-.18.26-.33.39-.49.16-.14.33-.27.51-.4.4-.21.81-.39,1.22-.54l.55-.14.42-.09c1.3-.26,2.55-.41,3.82-.51,1.27-.09,2.54-.12,3.82.02.7.08,1.41.19,2.13.37.72.19,1.45.42,2.21.92.19.13.38.28.56.47.09.09.19.21.26.29l.15.21.59.84,1.11,1.68c.89,1.38,1.74,2.77,2.63,4.12l.23.35c.07.13.19.24.33.3.15.06.25.09.5.12.46.05,1,.03,1.54-.02,1.08-.11,2.18-.33,3.27-.6,1.82-.46,3.55-1.17,5.33-1.81.39-.14.77-.31,1.17-.41,1.51-.4,2.06-.31,2.57.4.12.16.26.31.34.47.28.53-.2,1.21-1.23,1.7-1.51.78-3.15,1.32-4.85,1.85-1.71.51-3.47.95-5.38,1.23-.77.11-1.56.19-2.46.17-.24-.01-.47-.02-.73-.06-.24-.02-.66-.12-.97-.22-.33-.11-.65-.26-.93-.47-.15-.09-.28-.21-.39-.35-.12-.13-.25-.24-.35-.39l-.62-.95-.5-.79-.98-1.56.06-.04Z"/><path class="cls-1" d="M172.58,314.26c1.76-.35,3.51-.94,5.23-1.68.63-.27,1.22-.62,1.85-.92,2.2-1.06,4.47-2.11,6.77-3.15,1.02-.46,2.05-.92,3.06-1.38.67-.27,1.32-.57,2.05-.69.35-.08.7-.16,1.06-.21.36-.05.74-.02,1.1-.03.46.01.41.08.1.38-.15.15-.37.37-.62.63-.26.23-.56.47-.91.67-.61.34-1.2.72-1.85.95-.62.29-1.25.58-1.87.9-1.25.61-2.5,1.27-3.81,1.87-1.55.74-3.07,1.74-4.69,2.53-1.78.87-3.64,1.64-5.59,2.19-1.2.33-2.42.61-3.69.71-1.93.16-3.93-.08-5.76-1.11-.77-.46-1.31-1.15-1.71-1.85-.39-.71-.68-1.46-.8-2.23-.06-.34-.12-.67-.13-1.02-.02-.64.07-1.06.27-1.34.17-.28.41-.41.71-.48.14-.03.27-.08.39-.09.4-.02.72.5.93,1.22.21,1.08.58,2.14.99,2.9.22.38.46.63.68.75.06.04.35.19.56.27.23.09.47.17.71.24,1.47.38,3.2.33,4.94-.11l.02.06Z"/><path class="cls-1" d="M160.67,293.41c-.24.06-.36.31-.55.64-.09.28-.12.46.03.78.1.23.36.45.61.69.95.9,2.41,1.58,3.87,2.06.65.24,1.33.39,2.01.52.87.15,1.75.21,2.61.54.27.21.24.2,0,.46-.24.23-.72.62-1.27.68-1.92.04-3.89-.09-5.69-1.01-1.06-.53-2.28-.9-3.34-1.85-.56-.52-1.11-1.3-1.17-2.25-.05-.46.03-.92.17-1.31.17-.38.27-.76.57-1.09.63-.87,1.7-1.28,2.56-1.36,1.34-.15,2.53.1,3.69.2.89.08,1.79.04,2.56-.08.17-.02.31-.09.46-.11.51-.12.53-.02,1.02.45l.33.29c.17.17.25.36.2.62-.05.25-.31.56-.64.7-1.04.48-2,.52-2.89.52-.88-.03-1.7-.13-2.48-.2-1.11-.11-2.25-.11-2.6.16l-.03-.05Z"/><path class="cls-1" d="M160.48,299.83c-.08.29-.08,1.1.62,1.78.23.26.55.43.85.67,1.07.83,2.46,1.47,3.89,1.91.63.22,1.3.35,1.95.44.85.04,1.68.32,2.56.54.28.1.25.14.02.32-.22.19-.66.58-1.2.76-.96.39-1.92.26-2.88.21-.96-.05-1.89-.38-2.79-.77-1.06-.49-2.24-.83-3.31-1.54-.58-.39-1.13-.89-1.61-1.49-.43-.64-.84-1.4-.84-2.24-.08-.98.27-2.27,1.26-2.83.36-.21.78-.34,1.16-.38.2-.04.38-.05.54-.05.16,0,.34,0,.49,0,.63.04,1.23.13,1.81.21.9.13,1.79.15,2.64.21.19.01.38,0,.56.03.17.02.31.05.42.09.11.06.19.14.25.23.13.17.19.4.23.71.02.14.05.28.05.41.03.42-.32.82-.93,1.02-1.71.19-3.34-.15-4.69-.24-.49-.03-.94.01-.92,0,0,0-.03-.02-.03,0-.02,0-.04-.02-.05.04h-.07Z"/><path class="cls-1" d="M163.17,306.31c-.11.11-.1,0-.13.15,0,.14.12.45.34.74.15.22.42.37.62.59.72.83,1.71,1.59,2.79,2.17.49.24,1.01.39,1.52.54.33.09.66.13,1,.17.33.01.68.12,1.05.08.23,0,.22,0,.09.2-.12.18-.4.68-.89.91-.86.32-1.78.47-2.64.37-.85-.16-1.66-.44-2.38-.9-.82-.6-1.81-.98-2.61-1.76-.42-.44-.81-.94-1.12-1.56-.3-.61-.48-1.46-.24-2.27.15-.5.45-.88.72-1.17.28-.3.64-.58,1.04-.76.62-.28,1.27-.31,1.83-.25.55.08,1.05.2,1.54.32.74.18,1.47.26,2.14.32.15,0,.28.05.41.1.24.08.4.19.51.31.1.16.17.34.23.56.03.1.06.19.08.28.03.15-.02.27-.14.43-.12.15-.34.37-.6.42-.39.09-.81.27-1.19.22-.38-.02-.74-.06-1.08-.12-.68-.11-1.31-.27-1.8-.33-.37-.05-.6-.02-.7,0-.09.04-.17.04-.32.26l-.05-.04Z"/><path class="cls-1" d="M317.53,270.53c1.83-.23,3.66-.37,5.5-.45.67-.04,1.33-.14,2-.15,2.36-.02,4.72.07,7.05.24,1.04.09,2.08.14,3.1.18.66,0,1.32.13,1.97.27.32.09.64.26.96.39l.48.21c.16.06.32.07.48.11.4.09.34.11,0,.19-.18.05-.42.05-.73.24-.31.17-.67.41-1.06.6-.34.13-.67.19-1.01.28-.17.05-.33.08-.5.13h-.49s-1.97.05-1.97.05c-1.31.05-2.62-.09-3.94-.21-1.59-.17-3.23.09-4.84.19-1.78.12-3.55.29-5.32.49-1.09.12-2.18.27-3.27.46-1.64.29-3.3.59-4.89,1.06-1.24.37-2.39.92-3.56,1.43-.26.11-.5.25-.77.35-.99.34-1.39.18-1.86-.48-.1-.13-.21-.24-.27-.34-.11-.18-.09-.37,0-.72.08-.37.31-.63.65-.86,2.02-1.32,4.4-2.06,6.82-2.67,1.8-.46,3.63-.77,5.47-1.07l.02.07Z"/><path class="cls-1" d="M203.51,124.59c-.09-.41-.03-.87.02-1.28.12-.38.21-.83.4-1.11.36-.68.77-1.11,1.25-1.59.38-.34.66-.62,1.02-.84,1.23-.69,2.49-1.09,3.71-1.56.54-.21,1.06-.46,1.6-.65.66-.33,1.44-.4,2.22-.38.25.02.28.22.2.55-.09.32-.24.89-.52,1.23l-.39.44c-.13.14-.29.22-.43.33-.3.19-.57.43-.9.56-.65.27-1.31.51-2.01.71-.84.23-1.5.84-2.17,1.23-.65.37-1.22,1.01-1.36,1.51-.1.31-.02.7.21,1.12.37.63,1.01,1.27,1.74,1.76.57.39,1.24.62,1.89.94.14.07.3.12.44.21.23.19.37.36.4.56,0,.23-.05.44-.15.68-.05.11-.08.21-.13.3-.08.15-.21.24-.41.33-.19.08-.47.2-.67.15-1.3-.21-2.47-.85-3.7-1.78-.45-.35-.9-.78-1.32-1.3-.4-.57-.84-1.21-.98-2.11h.07Z"/><path class="cls-1" d="M355.81,168.17c2.24-.42,4.4-.94,6.26-1.83,1.9-.86,3.26-2.16,3.62-3.75.23-.97.17-1.61-.12-2.4-.29-.76-.88-1.51-1.62-2.19-1.45-1.38-3.46-2.43-5.49-3.35l-1.56-.64c-.51-.21-1.04-.38-1.63-.6-1.16-.42-2.4-.95-3.55-1.75-1.15-.79-2.2-1.87-2.89-3.15-.09-.18-.17-.26-.28-.56-.1-.25-.2-.55-.22-.72-.09-.43-.12-.78-.14-1.13-.04-.69-.02-1.33.01-1.95.14-2.48.51-4.84.86-7.17.35-2.23.42-4.38.03-6.47-.57-3.04-2.2-5.79-4.47-8.03l-.88-.82c-.3-.26-.53-.45-.84-.65-.57-.41-1.28-.72-1.98-1.03-1.45-.58-3.03-.99-4.65-1.33-5.75-1.15-11.84-1.47-17.9-2.34-3.04-.44-6.1-.97-9.12-1.97-1.5-.5-3.03-1.16-4.38-2.03-.34-.21-.71-.4-1.03-.63l-.97-.72c-.66-.46-1.25-1-1.83-1.55-2.33-2.19-4.18-4.76-5.81-7.37-1.63-2.62-3.07-5.3-4.57-7.89-1.5-2.59-3.08-5.12-4.94-7.37-1.84-2.25-4.07-4.21-6.45-5.95-4.21-3.1-9.14-5.15-14.28-6.21-2.57-.55-5.19-.81-7.82-.94-2.63-.13-5.27-.08-7.9.09-3.36.1-6.53.88-9.68,2.05-3.13,1.16-6.15,2.66-8.99,4.42-2.8,1.77-5.52,3.86-7.44,6.3-.45.61-.82,1.25-1.03,1.82-.21.59-.2.96,0,1.3.02.1.16.18.23.28.04.06.09.09.12.11.01.03.05,0,.04.07.01.02.04.04.06.05.16.14.44.21.76.25.65.07,1.44-.1,2.2-.33,1.91-.66,2.7-1.19,2.74-1.02.02.13-.66.92-2.2,2.02-.39.27-.84.55-1.39.81-.55.25-1.19.51-2.05.54-.44,0-.91-.07-1.43-.26-.26-.12-.45-.26-.65-.41-.2-.15-.41-.3-.59-.53-.38-.4-.69-.98-.83-1.57-.16-.61-.16-1.21-.09-1.77.12-1.15.63-2.06,1.14-2.9.52-.85,1.14-1.61,1.81-2.33,1.35-1.43,2.91-2.72,4.63-3.87,3.04-2.06,6.23-3.81,9.6-5.2,3.37-1.38,6.9-2.48,10.7-2.86,3.64-.28,7.17-.35,10.8-.13,3.61.22,7.23.75,10.77,1.75,3.53,1.02,6.94,2.5,10.07,4.45,1.57.96,3.05,2.06,4.48,3.21.71.58,1.38,1.2,2.06,1.81.66.65,1.32,1.32,1.96,2,4.95,5.61,7.68,12.32,11.4,18.03,1.12,1.71,2.35,3.32,3.73,4.78.35.36.73.68,1.09,1.03l.55.51.59.45c.4.29.79.61,1.2.89l1.28.76c3.44,1.92,7.71,2.62,11.9,3.22,4.24.56,8.56.88,12.91,1.41,2.18.27,4.36.59,6.56,1.11,2.18.53,4.41,1.2,6.48,2.6.28.2.55.43.82.64l.69.64c.47.42.89.89,1.32,1.35.83.95,1.63,1.96,2.28,3.06,1.33,2.2,2.18,4.72,2.41,7.28.13,1.27.12,2.55.02,3.8-.1,1.27-.33,2.45-.49,3.61-.33,2.31-.67,4.68-.64,6.83.02.24.02.53.07.71.02.09.03.23.05.25.02.04,0,.08.09.21.22.44.51.83.83,1.2.66.73,1.5,1.31,2.47,1.78.97.48,2.03.8,3.22,1.26,1.13.45,2.26.92,3.36,1.48,2.19,1.11,4.38,2.46,6.06,4.6.82,1.07,1.41,2.46,1.49,3.92.04.72-.07,1.47-.21,2.07l-.32,1.01c-.1.34-.31.64-.46.95-.86,1.52-2.19,2.62-3.55,3.41-1.38.8-2.83,1.35-4.28,1.79-1.45.44-2.93.76-4.37,1.04-1.41.28-2.77.6-4.04,1.07-1.27.47-2.44,1.1-3.36,1.97-.93.86-1.59,1.96-2.02,3.2-.81,2.5-.84,5.51-1.52,8.49-.25,1.13-.63,2.29-1.22,3.39-.28.56-.68,1.07-1.1,1.57-.47.46-.95.91-1.53,1.22-1.12.66-2.4,1.04-3.66,1.05-1.25.03-2.46-.15-3.6-.48-4.53-1.33-8.23-4-12.07-5.9-1.95-.94-3.94-1.78-5.99-2.3-2.03-.51-4.14-.72-6.08-.25-1.92.41-3.63,1.71-5.59,2.86-.97.58-2.02,1.13-3.17,1.5-1.14.36-2.33.56-3.51.6-3.69.09-7.36-1.29-9.99-3.9-.64-.66-1.25-1.4-1.72-2.16-.48-.76-.9-1.52-1.3-2.26-.8-1.46-1.61-2.86-2.68-3.72-.26-.22-.54-.41-.84-.55-.26-.13-.33-.13-.74-.14-.67-.03-1.54.07-2.35.14-1.67.16-3.41.3-5.16.29-3.49.01-7.22-.74-10.35-2.77-.64-.5-1.35-.93-1.92-1.5l-.86-.85c-.3-.28-.58-.57-.8-.9l-.73-.96c-.24-.32-.49-.62-.7-1.05-.22-.4-.44-.81-.56-1.23-.14-.42-.31-.84-.37-1.26-.37-1.57-.34-2.97-.27-4.23.09-1.26.27-2.37.52-3.37.48-1.99,1.09-3.53,1.72-4.73,1.24-2.41,2.42-3.57,3.53-4.25.48-.33,1.17-.68,1.51-.76.29-.06.33.12.16.49-.08.19-.23.41-.4.69-.16.31-.38.64-.61,1.06-.45.84-1,1.92-1.52,3.29-.51,1.37-1.01,3.01-1.37,4.88-.26,1.38-.42,2.78-.35,4.13.06,1.34.32,2.64.86,3.61l.2.36.32.4.63.81.31.4.36.35.72.7c.48.46,1.07.8,1.58,1.21.6.3,1.15.67,1.78.91,2.48,1.04,5.31,1.34,8.24,1.19,1.48-.06,2.95-.23,4.62-.35.46-.01.82-.07,1.39-.03l.4.02c.13,0,.27.01.47.08.36.1.75.17,1.08.31,1.06.5,1.87,1.17,2.56,1.91,1.35,1.48,2.11,3.05,2.86,4.39.37.67.73,1.3,1.1,1.85.18.28.39.5.57.76.21.23.43.47.65.69,1.84,1.75,4.48,2.8,7.07,2.79,1.29,0,2.57-.23,3.72-.74,1.2-.52,2.44-1.35,3.87-2.22,1.34-.85,3.3-1.83,5.21-2.09,1.91-.3,3.8-.19,5.56.15,2.62.51,4.99,1.46,7.24,2.51,2.3,1.08,4.35,2.35,6.38,3.44,2.02,1.1,4.05,2.1,6,2.59,1.97.55,3.68.33,4.83-.56,1.14-.84,1.77-2.82,2.15-4.98.18-1.1.33-2.25.49-3.46.17-1.21.36-2.48.77-3.84.42-1.35,1.07-2.71,2.02-3.87.95-1.16,2.14-2.11,3.38-2.78,2.48-1.35,5.1-1.87,7.41-2.26l.04.08Z"/><path class="cls-1" d="M245.29,191.13c1.16.16,2.41.09,3.63-.23.45-.12.86-.33,1.3-.49,1.55-.58,3.1-1.42,4.5-2.49.31-.24.61-.49.9-.76.3-.25.6-.51.89-.77.73-.7,1.51-1.36,2.43-1.89.29-.17.28-.12.2.18-.08.29-.12.93-.4,1.48-.23.51-.53.95-.85,1.39-.33.43-.62.89-1.02,1.26-.79.74-1.65,1.43-2.61,2-1.14.67-2.25,1.53-3.53,2.09-1.4.61-2.94.97-4.48,1.04-.92.06-2-.03-2.95-.35-1.46-.47-2.75-1.49-3.55-2.89-.61-1.08-.89-2.44-.64-3.68.04-.28.08-.55.19-.8.33-.98.84-1.03,1.51-.81.16.05.32.09.46.16.24.11.4.3.52.54.12.24.23.53.16.77-.07.77-.02,1.39.14,1.83.12.44.32.81.71,1.19.27.28.65.54,1.08.73.42.21.89.38,1.38.43v.07Z"/><path class="cls-1" d="M231.75,211.88l-3.93,5.83c-.47.71-.9,1.45-1.39,2.15-1.74,2.47-3.61,4.84-5.49,7.19-.83,1.05-1.63,2.12-2.42,3.18-1.07,1.32-2.03,2.75-3.53,3.72-.44.32-.4.26-.28-.22.06-.24.13-.59.2-1.02.04-.21.06-.46.14-.68.09-.21.2-.42.32-.63.46-.73.88-1.48,1.35-2.2l1.47-2.11c.98-1.4,1.99-2.79,3.04-4.17,1.26-1.65,2.32-3.53,3.45-5.31,1.26-1.96,2.5-3.93,3.73-5.92l2.25-3.68c1.12-1.87,2.28-3.73,3.3-5.64.8-1.48,1.41-3.04,2.18-4.52.17-.33.31-.66.49-.98.33-.6.65-.94.93-1.15.14-.1.28-.17.44-.2.17-.02.35-.01.52,0,.16.01.31,0,.43.02.33.04.66.87.34,1.84-.2.74-.49,1.44-.76,2.17-.27.72-.57,1.44-.92,2.13-.68,1.4-1.43,2.78-2.2,4.16-1.15,2.04-2.35,4.08-3.59,6.08l-.07-.03Z"/><path class="cls-1" d="M238.87,242.26c-.8,1.41-1.61,2.81-2.45,4.2-.32.5-.56,1.04-.89,1.53-1.15,1.74-2.37,3.42-3.58,5.11-.55.74-1.09,1.49-1.6,2.24-.32.49-.7.94-1.08,1.39l-.3.33-.36.28c-.23.19-.47.37-.71.57-.3.23-.23.22-.15-.1.04-.16.07-.4.08-.71,0-.18.01-.35.02-.5,0-.09.02-.17,0-.28.03-.07.05-.16.09-.24.38-1.17.95-2.19,1.53-3.21.54-1.05,1.28-1.96,1.97-2.93.86-1.13,1.46-2.49,2.17-3.75.76-1.4,1.59-2.76,2.34-4.17.47-.86.93-1.73,1.37-2.61.65-1.34,1.34-2.67,1.87-4.05.42-1.07.66-2.19.97-3.29.07-.24.13-.48.22-.72.18-.43.34-.7.55-.85.23-.14.49-.18.83-.15.15.01.31,0,.45.03.24.04.41.19.55.43.13.23.23.56.18.92-.06,1.08-.33,2.12-.68,3.14-.35,1.02-.75,2.03-1.2,3.03-.65,1.49-1.41,2.94-2.15,4.4l-.06-.03Z"/><path class="cls-1" d="M275.5,236.18c.39-.77.75-1.58,1.03-2.45.11-.31.13-.65.24-.97.38-1.13.75-2.31,1.11-3.49.17-.52.33-1.06.46-1.59.16-.69.57-1.32,1.04-1.9.15-.18.27-.1.43.15.15.24.44.68.52,1.09.21.76.11,1.4.02,2.07-.05.68-.35,1.32-.6,1.99-.33.79-.36,1.69-.56,2.55-.23.95-.52,1.9-.87,2.84-.21.58-.47,1.15-.74,1.71-.21.42-.47.83-.7,1.24-.28.39-.52.8-.8,1.18-.22.3-.4.63-.6.95-.21.31-.42.63-.65.94-.1.14-.2.27-.32.39-.52.35-.81.29-1.29-.19-.11-.11-.22-.21-.32-.33-.32-.39-.4-.89-.27-1.3.08-.33.26-.52.38-.78.13-.24.27-.46.43-.66.26-.46.58-.85.84-1.31.42-.66.8-1.38,1.16-2.15l.07.02Z"/><path class="cls-1" d="M313.68,217.42c1.33,1.96,2.68,3.9,3.96,5.89l1.95,2.97,1.89,3c.93,1.45,1.9,2.88,2.78,4.37,3.09,5.25,5.94,10.64,8.54,16.13.6,1.21,1.18,2.43,1.76,3.65.57,1.22,1.22,2.41,1.74,3.64.67,1.58,1.4,3.15,2.03,4.75.28.82.54,1.64.8,2.47l.37,1.24c.11.42.1.88.17,1.31.08,1.11.11.94-.57.24-.32-.36-1-.78-1.46-1.43-.51-.63-1.06-1.37-1.52-2.24-.87-1.51-1.58-3.08-2.35-4.63-.78-1.54-1.5-3.11-2.23-4.68-.7-1.58-1.5-3.12-2.23-4.69-.73-1.58-1.51-3.13-2.28-4.7-1.81-3.78-4.22-7.41-6.45-11.06-1.23-2-2.51-3.98-3.78-5.97-1.31-1.96-2.58-3.95-3.94-5.88-1.64-2.4-3.31-4.77-5.03-7.12-2.6-3.55-5.23-7.11-7.98-10.51-2.14-2.64-4.41-5.1-6.64-7.62-.49-.56-1-1.08-1.48-1.65-1.85-2.07-2.05-3.04-1.83-3.98.05-.22.07-.46.15-.63.13-.28.47-.28.99-.05.51.23,1.25.65,1.97,1.38,4.26,4.3,8.32,9.2,12.25,14.25,2.92,3.75,5.74,7.61,8.51,11.5l-.06.05Z"/><path class="cls-1" d="M300.48,255.05c.38-.59.74-1.18,1.09-1.79l.5-.91.22-.43s0-.01,0-.01l.53.22c.31.13.46.2.7.28.07.03.09.02.18.07,0,0,.08.05.12.07.09.06.19.11.29.16l.08.03.04.02c-.15-.08,1.47.75.79.4h0s0,.01,0,.01l-.02.03-.07.11-.14.23c-.28.45-.48.94-.77,1.39-.5.8-1.01,1.6-1.55,2.4-.55.79-1.13,1.56-1.72,2.33-.53.67-1.04,1.37-1.59,2.03-.35.42-.75.81-1.17,1.17-.4.39-.98.57-1.48.8-.33.13-.32.06-.22-.26.05-.16.11-.39.18-.66.04-.16.07-.31.1-.45.02-.08.04-.15.05-.24l.12-.18c.29-.43.54-.87.81-1.3.29-.41.57-.83.84-1.26.55-.86,1.09-1.74,1.69-2.61.74-1.04,1.23-2.3,1.84-3.48l.52-.98.13-.24.05-.09.04-.08.06-.09c-1.09-1,3.11.22,2.17.96l-.03.14h0s-.04.11-.04.11l-.02.05c-.03.06-.05.1-.07.15l-.29.51c-.39.66-.79,1.3-1.2,1.93-.51.77-1.05,1.53-1.61,2.27-.85,1.12-1.76,2.2-2.72,3.23-.75.8-1.47,1.65-2.44,2.33-.21.15-.42.31-.67.4-.94.35-1.34.23-1.63-.3-.07-.11-.14-.21-.18-.3-.11-.27.12-.83.53-1.14.59-.57,1.2-1.04,1.8-1.66.6-.6,1.2-1.26,1.77-1.97.87-1.04,1.63-2.22,2.35-3.42l.06.03Z"/><path class="cls-1" d="M258.24,328.28l-1.71,3.77c-.2.46-.33.95-.58,1.41-.82,1.6-1.71,3.19-2.63,4.75-.41.69-.82,1.39-1.22,2.07-.26.44-.55.87-.89,1.27-.16.2-.36.38-.55.56l-.29.26c-.1.08-.26.12-.39.18-.35.13-.26.14-.27-.21-.07-.39-.15-1.03.04-1.56.13-.5.26-.98.49-1.4.18-.46.37-.91.56-1.35.18-.46.38-.91.63-1.33.24-.43.46-.88.72-1.31.61-1.04.91-2.28,1.34-3.45l1.56-3.83.97-2.38c.47-1.21,1.02-2.4,1.47-3.62.36-.95.54-1.96.89-2.93.08-.22.11-.44.22-.65.4-.76.66-.93,1.57-.59.18.06.35.1.48.16.37.14,1.02.91.83,1.44-.27,1.72-.91,3.32-1.6,5-.52,1.25-1.05,2.51-1.57,3.77l-.07-.02Z"/><path class="cls-1" d="M271.93,333.63c-1.37-1.31-2.73-2.64-4.09-3.97-.49-.49-1.06-.9-1.53-1.41-.85-.89-1.68-1.78-2.49-2.71-.8-.93-1.57-1.89-2.35-2.82-.67-.85-1.43-1.63-2.13-2.44-.44-.53-.96-.99-1.35-1.57-.19-.29-.37-.59-.54-.9-.18-.3-.27-.67-.39-1.01-.1-.47-.06-.42.4-.33.32.06.66.12.96.17.37.09.74.25,1.07.48,1.1.86,1.97,1.9,2.96,2.84.95.98,1.91,1.95,2.8,3.01.56.61,1.15,1.21,1.78,1.77.64.55,1.29,1.11,1.93,1.66,1.39,1.24,2.78,2.49,4.21,3.71l2.64,2.25c1.35,1.12,2.68,2.29,4.09,3.34,1.08.82,2.32,1.43,3.43,2.23.24.18.5.33.73.52.86.73.88,1.26.51,2.01-.09.18-.16.36-.26.52-.34.52-1.05.64-1.86.37-2.32-.89-4.22-2.45-6.22-4-1.46-1.17-2.91-2.4-4.35-3.65l.05-.07Z"/><path class="cls-1" d="M204.53,283.48c-2.04.37-4.09.69-6.09,1.1l-1.48.36-.73.19-.36.1c-.13.03-.08.01-.13.03l-.16.04c-.05.01-.13.04-.11.1.02.15-.03.05,0,.72.03.72.1,1.45.17,2.18l.27,2.18c.64,5.13,1.79,10.3,3.4,15.25.18.52.4,1.12.58,1.56.11.25.2.61.54.57.15,0,.26.01.45,0,.28,0,.56,0,.84-.03.57-.02,1.14-.07,1.71-.12,1.48-.14,2.96-.28,4.44-.43.74-.05,1.48-.17,2.23-.16l1.13.02c.38.01.79.21,1.17.23.97.11.83,0,.11.44-.69.54-1.98,1.94-3.73,2.19-.77.16-1.53.31-2.3.46l-1.16.21-1.17.12c-.79.07-1.57.14-2.38.17-.2.01-.41.02-.62.02h-.35c-.17,0-.37.01-.55-.01-.77-.01-1.44-.22-2.04-.57-.23-.26-.44-.55-.63-.85-.2-.28-.4-.6-.53-.94-.21-.51-.31-.82-.44-1.22-.25-.77-.48-1.53-.68-2.29-.42-1.53-.76-3.06-1.06-4.61-.7-3.7-1.63-7.5-1.97-11.37-.1-1.06-.16-2.13-.18-3.2v-1.16c-.02-.22.06-.38.09-.57l.06-.28s-.02-.11.07-.12c.01-.05.04-.09.06-.13.46-.57,1.4-.78,2.16-.97,1.05-.24,2.08-.43,3.11-.63l3.05-.67c2.5-.55,4.99-1.08,7.47-1.68,3.75-.92,7.52-1.81,11.15-3,2.82-.93,5.48-2.12,8.03-3.44.56-.29,1.09-.61,1.64-.92,2.05-1.11,2.73-1.34,3.62-.98.2.08.42.12.58.21.52.27.06,1.42-1.45,2.57-2.25,1.67-4.81,2.9-7.42,3.97-2.62,1.06-5.33,1.93-8.06,2.7-2.02.59-4.08,1.07-6.14,1.49-2.06.43-4.12.83-6.17,1.22l-.02-.07Z"/><path class="cls-1" d="M144.29,308.13c.99-.79,1.97-1.59,2.88-2.41.45-.41.9-.83,1.26-1.24.18-.2.35-.41.44-.55.01-.02.04-.07.04-.07h0s.15.04.17.05c.12.05.24.09.37.11.45.14.65-.04.52.06l-.12-.3c.05.01.11,0,.17-.01.06-.02.04,0,.07-.03,0,0-.03.03-.02.05-.01.04-.03.12-.02.18.02.04,0,.19.03.27.02.11.05.16.08.32.03.13.07.27.12.4.03.09.03.07.03.07,0,0,0,0,0,0-.04,0-.19.09-.31.16-.27.16-.58.36-.87.57-.95.67-1.84,1.49-2.78,2.23-3.35,2.64-6.65,5.42-9.88,8.26-1.43,1.27-2.85,2.56-4.23,3.86-1.79,1.65-3.46,3.45-5.59,4.74-.65.41-.69.23-.44-.45.14-.32.22-.9.52-1.39.27-.52.63-1.08,1.09-1.61,1.68-1.85,3.46-3.59,5.24-5.34,1.82-1.71,3.72-3.34,5.68-4.93,2.35-1.89,4.57-4.11,7-6.06.61-.48,1.23-.96,1.89-1.43.33-.23.67-.46,1.05-.68.21-.11.39-.22.69-.34.16-.05.31-.13.72-.14.14,0,.22,0,.4.06.2.07.4.18.54.34.14.14.28.42.3.53.03.13.05.26.05.39l-.38-.85c.37.31.52.85.5,1.2-.02.33-.11.56-.18.73-.16.35-.33.59-.5.81-.34.44-.68.79-1.02,1.14-.69.68-1.4,1.3-2.11,1.91-1.61,1.36-3.27,2.63-4.91,3.91-2.49,1.94-5.04,3.81-7.47,5.76-1.89,1.52-3.64,3.14-5.4,4.74-.38.36-.76.71-1.15,1.07-1.47,1.29-1.99,1.61-2.78,1.39-.17-.04-.36-.05-.48-.11-.41-.15-.22-1.15.81-2.21,2.97-3.22,6.5-6.1,10.05-8.93,2.63-2.11,5.34-4.14,7.91-6.26l.05.05Z"/><path class="cls-1" d="M74.1,379.04c.74.45,1.58,1,2.24,2.11.31.56.52,1.2.51,1.85.03.16-.01.32-.02.49-.01.14-.02.27-.05.41-.06.26-.11.53-.2.78-.34,1-.93,1.78-1.53,2.4-.61.62-1.26,1.11-1.91,1.53-2.62,1.66-5.32,2.57-8.03,3.4-1.98.58-3.95,1.15-5.94,1.57-7.04,1.46-14.13,2.21-21.23,2.81-1.58.12-3.16.25-4.76.32-.58,0-2.2.18-3.07-.19-.11-.05-.18-.14-.27-.23-.01,0-.02-.02-.03-.04v-.02s-.02-.01-.02-.01h0c-.16.15-.05.04-.08.07h0s-.03-.09-.03-.09l-.06-.17-.13-.33c-.04-.11-.03-.28-.05-.42-.05-.58-.06-1.16-.08-1.66-.17-3.96-.58-7.9-.82-11.87.04-1.26.27-1.16,1-.21.37.47.77,1.17,1.17,2.05.2.44.39.92.57,1.43.08.26.16.53.25.8.06.28.11.56.15.85.3,2.07.54,4.14.66,6.23l.02.71v.15s-.02.02,0,.03c.01,0,0,.01.04.02l1.48-.03c4.01-.12,8.1-.36,12.17-.77,4.88-.47,9.89-1.49,14.7-2.7,2.64-.67,5.27-1.44,7.72-2.48,1.22-.53,2.4-1.12,3.41-1.86.99-.73,1.79-1.65,1.92-2.52.07-.48-.03-.76-.51-1.19-.48-.4-1.18-.74-1.91-1-1.48-.54-3.12-.87-4.76-1.13-5.01-.75-10.2-.92-15.3-.91-3.97.03-7.86.37-11.79.68-.86.07-1.71.17-2.58.22-1.61.11-2.68.11-3.44-.06-.76-.14-1.21-.44-1.58-.87-.17-.19-.39-.37-.49-.55-.33-.55.94-1.34,3.31-1.72,7.04-.97,14.53-1.36,22.11-1.1,2.82.13,5.64.34,8.5.74,1.43.2,2.86.45,4.31.79,1.46.36,2.92.77,4.47,1.62l-.03.07Z"/><path class="cls-1" d="M155.87,438.72c-1.49,2.47-3.41,4.77-5.79,6.55-2.37,1.79-5.2,2.98-8.08,3.5-2.9.54-5.9.41-8.71-.29-2.82-.69-5.46-1.91-7.84-3.47-3.45-2.3-6.53-5.17-8.79-8.66-.53-.75-.95-1.56-1.4-2.36-.43-.8-.78-1.6-1.17-2.4-.73-1.62-1.4-3.26-1.99-4.93-1.18-3.33-2.09-6.76-2.73-10.22-1.27-6.93-1.55-14.06-.51-21.05.49-3.09,1.12-6.18,2.22-9.18,1.09-2.98,2.55-5.81,4.42-8.39.64-.79,1.22-1.65,1.96-2.37l1.07-1.12,1.18-1.01.59-.5c.21-.16.43-.29.65-.44l1.31-.87c.45-.28.94-.48,1.41-.72.48-.21.93-.5,1.45-.63,1.01-.29,2-.71,3.06-.81l1.56-.23c.52-.07,1.05,0,1.57.02.52.03,1.04.05,1.56.1l1.51.34c.5.1.99.27,1.48.42.46.23.95.38,1.39.66,1.12.62,1.58.87,1.54.88-.04.02-.62-.15-1.69-.14-.54.05-1.15-.04-1.88.09-.18.04-.36.05-.56.13-.18,0-.38.04-.57.06-.39.05-.79.1-1.21.15-.83.15-1.7.43-2.6.54-.44.11-.89.22-1.35.33-.46.1-.94.17-1.4.36-3.33.98-6.26,3.15-8.55,5.99-1.2,1.37-2.15,2.98-3.07,4.6-.86,1.66-1.61,3.38-2.22,5.15-2.23,7.22-2.78,15.18-1.99,22.96.51,4.66,1.55,9.39,3.23,13.92.8,2.28,1.82,4.47,2.89,6.63,1.08,2.07,2.46,3.99,4.04,5.72,3.46,3.79,8,6.73,12.99,7.75,4.95,1.05,10.36-.17,14.18-3.51,2.36-2.05,4.18-4.72,5.52-7.63,1.33-2.93,2.19-6.08,2.71-9.29.83-4.86.78-9.88.39-14.84-.42-4.96-1.34-9.87-2.86-14.56-1.18-3.64-2.71-7.13-4.61-10.37-.97-1.61-1.99-3.18-3.13-4.66-1.12-1.48-2.35-2.95-3.63-4.23-1.14-1.13-2.34-2.06-3.68-2.81-1.24-.69-2.37-1.07-3.33-1.36-.48-.15-.92-.28-1.33-.39-.4-.12-.78-.21-1.11-.3-.67-.19-1.22-.34-1.67-.52-.45-.2-.82-.39-1.15-.6-.3-.2-.71-.38-.89-.55-.3-.29.19-.54,1.38-.81,1.19-.23,3.1-.36,5.59.15,1.83.41,3.67,1.13,5.31,2.19,1.64,1.05,3.07,2.37,4.33,3.74,2.48,2.7,4.69,5.74,6.52,8.99,3.68,6.51,5.97,13.82,7.11,21.24.86,5.53,1.09,11.12.49,16.77-.29,2.81-.84,5.61-1.63,8.36-.8,2.74-1.88,5.44-3.37,7.96l-.08-.03Z"/><path class="cls-1" d="M94.5,443.01c2.04,1.04,4.29,1.6,6.69,1.97,2.38.34,4.83.41,7.24.17,1.74-.18,3.51-.6,4.98-1.18.41-.17.4-.17.51-.23.09-.05.2-.13.22-.24,0-.11-.02-.21-.07-.34-.04-.08-.03-.09-.12-.24l-.28-.48c-.82-1.3-1.82-2.68-2.72-4.09-1.83-2.82-3.42-5.83-4.66-8.96-.56-1.4-1.06-2.76-1.54-4.23-.45-1.5-.65-2.97-.85-4.44-.23-1.89-.37-3.8-.25-5.73.15-1.89.32-3.93,1.52-5.57.71-1,.52-.87.35.11-.08.49.07,1.25.19,2.08.07.42.09.86.11,1.32.05.47.06.95.09,1.47.08,1.81.32,3.63.6,5.43.31,1.79.7,3.6,1.2,5.18,1.17,3.49,2.66,6.85,4.51,10.09,1.1,1.96,2.46,3.74,3.87,5.79l.26.41.13.21c.04.07.1.2.15.3l.32.64c.1.22.15.45.21.68.07.23.08.46.09.69v.35c-.04.11-.02.23-.07.34-.16.44-.43.82-.78,1.15-.37.32-.76.59-1.22.83-.35.18-.63.3-.95.43-.61.25-1.22.44-1.83.61-2.67.7-5.36.95-8.05.93-2.69-.06-5.37-.34-8-1.16-3.22-.99-6.22-2.8-8.55-5.2-1.8-1.8-3.18-3.94-4.3-6.16-1.11-2.22-1.98-4.53-2.68-6.86-1.08-3.63-1.96-7.24-2.33-11.01-.1-.83-.15-1.65-.18-2.49-.02-1.58.13-2.64.43-3.35.14-.36.28-.63.45-.85.21-.21.43-.36.63-.48.19-.11.37-.26.5-.31.23-.08.35.22.53.78.2.56.2,1.36.3,2.41.08,3.09.55,6.34,1.26,9.55.71,3.21,1.67,6.41,3.01,9.39,1,2.2,2.18,4.28,3.7,6.03,1.51,1.76,3.33,3.2,5.39,4.2l-.03.08Z"/><path class="cls-1" d="M147.15,421.39c-1.03,2.08-2.64,4.1-4.93,5.27-.27.17-.57.28-.87.38l-.9.31c-.61.14-1.24.22-1.85.29-.61-.02-1.23,0-1.82-.07-.58-.11-1.16-.21-1.74-.33l-1.19-.38c-.4-.12-.8-.25-1.21-.45-.83-.35-1.56-.85-2.23-1.4-2.32-2.01-3.66-4.63-4.57-7.25-.88-2.64-1.31-5.38-1.32-8.12.01-1.21.06-2.43.22-3.64.15-1.21.37-2.42.79-3.58.5-1.49,1.17-2.97,2.2-4.22.53-.61,1.08-1.22,1.79-1.63.72-.39,1.47-.69,2.23-.87.96-.19.8-.14.21.41-.3.26-.66.74-.98,1.33-.15.31-.3.63-.44.96-.18.29-.37.59-.55.91-.68,1.1-1.16,2.32-1.49,3.61-.16.65-.27,1.31-.38,1.97-.12.66-.21,1.34-.28,2.02-.2,2.73-.12,5.57.44,8.34.66,3.29,2.58,6.58,5.27,8.12.7.39,1.63.69,2.48.93.43.07.88.2,1.31.21.43-.02.87.07,1.28-.02,1.68-.17,3.21-1.06,4.34-2.46,1.36-1.75,2.22-4.03,2.55-6.38.54-3.56.09-7.35-1.48-10.59-1.21-2.52-3.12-4.58-5.32-6.06-.48-.34-1-.58-1.5-.88-1.87-1.08-2.47-1.41-2.64-2.47-.04-.23-.13-.47-.14-.67-.01-.35.25-.57.78-.69.54-.14,1.3-.05,2.23.25,2.75.91,5.26,2.8,7.16,5.16,1.92,2.37,3.24,5.23,3.92,8.22.51,2.23.65,4.53.45,6.79-.21,2.26-.73,4.53-1.75,6.67l-.08-.03Z"/><path class="cls-1" d="M382.08,422.88c-2.78,5.15-6.3,9.85-10.58,13.88-2.17,1.98-4.54,3.79-7.18,5.21-2.64,1.39-5.57,2.45-8.65,2.67-.55.08-1.12.03-1.68.05-.56-.01-1.12.05-1.68-.05-1.11-.16-2.23-.24-3.31-.56-2.16-.6-4.24-1.59-6.01-2.99-1.56-1.23-2.89-2.75-3.92-4.43-.54-.84-.89-1.69-1.34-2.53-.41-.85-.73-1.74-1.1-2.62-1.28-3.56-1.94-7.29-2.11-11-.34-7.45,1.13-14.82,3.7-21.7,1.15-3.05,2.5-6.04,4.09-8.89,1.6-2.85,3.41-5.56,5.42-8.1,2.59-3.26,5.51-6.3,8.9-8.78.84-.63,1.71-1.22,2.63-1.74.89-.56,1.83-1.03,2.77-1.5.92-.5,1.94-.8,2.92-1.17.5-.16,1.03-.23,1.54-.34.51-.11,1.02-.2,1.54-.28,2.56-.39,2.17-.43.16.39-.51.18-1.07.54-1.7.96-.15.12-.33.19-.48.35-.18.08-.35.19-.53.3-.34.24-.7.49-1.08.75-1.53.97-3.23,2.19-5.04,3.55-3.22,2.38-6.14,5.19-8.69,8.31-2.54,3.14-4.73,6.57-6.59,10.17-3.8,7.15-6.26,15.11-6.84,23.25-.13,2.43-.1,4.9.22,7.35.34,2.44.91,4.86,1.76,7.18.48,1.14.94,2.29,1.55,3.36.55,1.12,1.2,2.08,1.98,2.98,1.54,1.78,3.52,3.17,5.74,3.97.61.22,1.23.4,1.87.54.63.14,1.29.17,1.93.26.64.12,1.3.05,1.95.05.33-.01.65,0,.98-.03l.97-.15c2.59-.4,5.09-1.41,7.41-2.78,4.64-2.78,8.54-6.85,11.8-11.3,4.01-5.51,6.77-11.88,8.79-18.45,1.5-4.98,2.59-10.12,2.96-15.29.18-2.58.17-5.18-.11-7.72-.27-2.54-.85-5.04-1.82-7.34-.76-1.78-1.78-3.43-3.07-4.8-.31-.36-.68-.65-1.01-.98-.33-.31-.67-.53-1.06-.77-.78-.46-1.64-.83-2.52-1.13-3.57-1.18-7.52-1.1-11.05-.01-1.55.51-3.01,1.24-4.48,2.09-1.36.79-2.45,1.53-3.37,2.15-.92.62-1.69,1.1-2.33,1.5-1.28.79-2.13,1.15-2.95,1.29-.37.07-.82.21-1.09.2-.46-.02-.28-.59.44-1.62.73-1.02,2.03-2.48,3.98-4.09,2.95-2.27,6.31-4.37,10.38-5.3,3.96-.9,8.23-.69,12.2.81,1,.39,1.97.85,2.95,1.49.47.3,1.02.75,1.37,1.1.39.38.8.73,1.14,1.15,1.45,1.6,2.58,3.45,3.43,5.37,1.7,3.87,2.28,7.98,2.41,11.97.16,5.96-.76,11.8-2.21,17.45-1.47,5.65-3.48,11.14-6.2,16.37l-.08-.03Z"/><path class="cls-1" d="M368.61,417.4c-1.62,1.5-3.54,2.78-5.84,3.46-2.29.7-5.09.24-7.04-1.16-.67-.54-1.36-1.06-1.89-1.7-.57-.54-1.16-1.39-1.48-2.21-.59-1.49-.68-3-.62-4.4.08-1.41.3-2.72.62-4.02.61-2.62,1.54-5.1,2.68-7.49,1.02-2.11,2.19-4.19,3.73-5.99.99-1.14,2.08-2.26,3.42-3.06.62-.46,1.39-.72,2.12-.96l1.14-.24c.37-.09.79.03,1.16.03.95.11.79.04.07.39-.36.16-.83.53-1.34.91-.25.2-.54.35-.8.61-.13.12-.27.23-.41.36-.15.1-.3.19-.46.29-1.08.77-2.03,1.74-2.88,2.8-.81,1.11-1.56,2.26-2.24,3.49-1.37,2.44-2.43,5.12-3.26,7.86-.47,1.63-.79,3.41-.86,5.08-.05,1.68.26,3.24,1.17,4.32,1.11,1.42,2.56,2.4,4.18,2.6,1.63.2,3.39-.46,4.9-1.5,1.87-1.31,3.46-3.12,4.74-5.11,1.9-3.04,3.22-6.57,3.37-10.1.08-1.37-.15-2.71-.51-3.96-.35-1.26-1.04-2.34-1.76-3.33-.34-.43-.67-.84-1.07-1.21-1.45-1.41-1.98-1.87-2.04-2.81-.02-.21-.08-.43-.06-.62.02-.31.29-.45.8-.45.51.02,1.31.11,2.15.64,1.3.68,2.48,1.71,3.47,2.94.91,1.29,1.51,2.77,1.9,4.29.68,3.05.45,6.18-.37,9.04-1.2,4.26-3.43,8.14-6.64,11.25l-.06-.05Z"/><path class="cls-1" d="M337.05,439.1c.11,1.01-.44,2-1.1,2.77-.38.4-.72.67-1.05.88-.34.23-.69.39-1.03.54-.69.29-1.36.45-2.03.55-.67.11-1.35.12-1.89.12-2.28.04-4.61-.13-6.92-.61-1.67-.35-3.37-.79-4.95-1.55-2.81-1.34-5.17-3.49-6.74-6.2-1.49-2.74-2.04-5.66-2.41-8.54-.29-2.56-.41-5.14-.32-7.68.08-1.63.14-3.29.53-4.92.17-.81.41-1.62.72-2.42.27-.81.9-1.52,1.6-2.08.44-.35.69-.41.69-.38.03.05-.16.24-.24.69-.11.42-.01,1.11.09,1.85.05.72-.02,1.49-.13,2.34-.17,1.51-.37,3.05-.48,4.61-.1,1.56-.13,3.13-.06,4.69.13,3.12.51,6.28,1.55,9.12.31.84.71,1.65,1.22,2.34.29.35.57.71.88,1.05.33.31.63.67,1,.95,1.4,1.19,3.06,2.06,4.83,2.65,1.95.64,4.05.93,6.17,1,1.06.03,2.13.04,3.21,0,1-.02,1.94-.2,2.68-.58.22-.11.44-.27.57-.38.12-.1.22-.23.3-.37.08-.14.14-.3.08-.46-.01-.08-.05-.16-.08-.25l-.05-.14-.09-.23c-.51-1.21-1.1-2.49-1.61-3.77-1.61-3.87-2.67-8.17-2.65-12.4-.06-3.22-.11-6.48.6-9.73.15-.71.3-1.42.52-2.12.41-1.31.84-2.11,1.26-2.61.41-.5.82-.7,1.3-.77.22-.03.46-.1.65-.08.66.07.59,1.22.14,2.97-.75,2.56-1.16,5.21-1.28,7.97-.06,1.38-.06,2.79-.02,4.23l.03,1.08.07,1c.04.66.15,1.33.26,2,.35,1.99.96,3.97,1.67,5.96.37.99.77,1.98,1.2,2.98l.67,1.53.17.41.09.21.04.1.06.18.25.72c.06.25.07.51.1.77h-.08Z"/><path class="cls-1" d="M418.15,276.51l.2.26.11.14.2.22c.26.29.53.61.75.91l.62.87c.14.28.29.55.33.79.03.18.12.35.09.53,0,.09-.02.18-.06.29.07.12-.04.16-.06.22-.14.2-.42.35-.76.51-.29.17-.78.29-1.27.36l-1.53.07c-.55,0-.76.01-1.06.01-.51.02-1.01.07-1.51.12-.64.04-1.26.27-1.95-.04-.24-.3-.19-.13-.06-.44.06-.17.16-.31.28-.5.12-.19.27-.34.45-.39.63-.21,1.26-.41,1.89-.57.32-.06.64-.11.96-.14.22-.03.19,0,.24.03.04.02.09.05.16.07.33.09.61.03.81-.11-.05-.23-.2-.45-.44-.81l-1.06-1.22c-.56-.63-1.08-1.31-1.66-1.94-.44-.49-1.03-.87-1.49-1.4-.1-.11-.22-.22-.31-.34-.34-.48-.17-.79.4-1.21.13-.1.26-.2.4-.28.46-.28.97-.31,1.34-.15,1,.54,1.66,1.32,2.39,2.17.54.62,1.07,1.29,1.65,1.93l-.05.05Z"/><path class="cls-1" d="M397.43,320.95c-.22.66-.45,1.32-.66,1.98-.08.24-.08.5-.16.74-.27.85-.67,1.69-.95,2.54-.13.38-.2.77-.26,1.15-.04.25-.15.49-.25.72-.15.23-.4.45-.58.67-.11.14-.1.12-.19-.03-.07-.14-.44-.45-.71-.79-.12-.28-.2-.55-.25-.82.02-.26.05-.51.09-.77.08-.51.21-1.01.41-1.51.23-.59.23-1.25.38-1.87.17-.68.34-1.36.52-2.04.11-.42.22-.83.32-1.25.14-.64.33-1.27.39-1.91.05-.5-.06-1.02-.11-1.54-.01-.11-.05-.23-.04-.34,0-.42.24-.5.98-.45.17.01.34.02.5.04.55.06,1.02.32,1.14.65.32.96.2,1.88.01,2.8-.14.68-.34,1.35-.52,2.03h-.06Z"/><path class="cls-1" d="M403.43,320.99c-.24.66-.48,1.33-.69,2-.08.24-.08.5-.16.74-.28.86-.65,1.71-.89,2.58-.11.39-.17.78-.22,1.17-.03.25-.09.5-.16.75-.06.25-.15.49-.36.72-.12.14-.22.11-.42-.05-.14-.12-.28-.24-.39-.33-.13-.13-.22-.28-.25-.43-.05-.27-.11-.54-.13-.81,0-.26.02-.52.05-.79.05-.52.15-1.04.31-1.55.2-.61.16-1.28.28-1.91.13-.7.29-1.39.45-2.08.1-.43.2-.85.29-1.28.14-.65.31-1.29.39-1.94.06-.51-.04-1.03-.07-1.55,0-.11-.04-.23-.03-.34.03-.42.24-.51.99-.45.17.01.34.02.51.04.58.07,1.01.33,1.12.66.32.97.22,1.9.03,2.82-.16.68-.39,1.35-.58,2.03h-.06Z"/><path class="cls-1" d="M391.61,328.08l.41-.36.22-.2.37-.36,1.38-1.34.24-.24s.08-.13.11-.08l.1.12c.14.16.28.32.41.51.24.35.47.6.68,1.02l.61,1.2c.2.45.4.9.6,1.35.2.37.35.78.54,1.16.24.49.46.99.58,1.55.04.18-.09.23-.33.21-.23-.03-.63-.09-.9-.29-.48-.35-.92-.73-1.31-1.14-.33-.44-.53-.98-.73-1.51-.03-.08-.06-.16-.09-.24l.03-.12c.02-.08.02-.15.02-.23-.02-.13-.11-.16-.16-.29-.03-.1-.08-.06-.12-.02l-.15.1-.18.12s-.05.03-.12.09l-.21.19-1.05.94c-.52.48-1.07.93-1.56,1.43-.38.39-.66.87-1,1.31-.07.1-.13.21-.22.28-.34.29-.55.26-.99-.1-.1-.08-.2-.16-.3-.25-.31-.29-.42-.68-.29-1.02.37-.99,1.08-1.65,1.77-2.36.53-.5,1.06-1.01,1.59-1.51l.04.04Z"/><path class="cls-1" d="M399.75,326.74l.52-.86.24-.38.27-.27c.31.42.62.94.89,1.34.29.42.55.77.81,1.19.42.7.83,1.36.96,1.67.2.39.39.77.59,1.16.18.34.36.67.54,1,.31.37.29.96.42,1.43.04.15,0,.14-.12.08-.1-.09-.43-.15-.75-.27-1.06-.46-1.51-1.27-1.95-2.14-.06-.13-.14-.26-.22-.38l-.18-.25c-.08-.11-.13-.15-.19-.26l-.27-.48-.06-.09s-.04-.06-.05-.03l-.08.11c-.09.11-.19.25-.3.42l-.13.2-.22.38c-.16.27-.31.55-.45.83-.21.44-.31.93-.47,1.4-.04.1-.05.22-.1.31-.18.36-.38.38-.95.11-.13-.06-.26-.12-.38-.18-.4-.22-.68-.59-.64-.89.08-.9.44-1.64.81-2.39.15-.31.23-.41.58-1.14.27-.6.56-1.18.85-1.69l.03.07Z"/><path class="cls-1" d="M277.41,365.12c1.68.08,3.37.12,5.06.13.62,0,1.23-.09,1.85-.08,2.18.06,4.37.12,6.56.08.97-.03,1.94-.07,2.9-.14,1.23-.13,2.47-.15,3.73,0,.39.05.36.3.06.64-.3.33-.86.83-1.55,1.05-.62.21-1.24.32-1.86.43-.62.11-1.25.21-1.88.3-1.26.14-2.53.16-3.82.14-1.54-.05-3.11.24-4.68.31-1.72.06-3.45.06-5.18.06l-3.19-.05c-1.61-.01-3.23-.13-4.83-.13-1.25-.01-2.48.14-3.74.16-.28,0-.55.04-.83.02-1.03-.09-1.33-.34-1.43-1.18-.02-.19-.06-.38-.06-.57,0-.63.47-1.1,1.2-1.21,2.16-.35,4.36-.22,6.62-.17,1.67.04,3.36.13,5.06.14v.07Z"/><path class="cls-1" d="M252.17,108.57c1.18,2.89,1.86,5.87,2.18,8.86.18,1.49.24,3,.25,4.49-.01.75-.01,1.5-.07,2.25-.02.72-.14,1.62-.26,2.33-.36,2.12-.67,4.11-.59,5.84.02.76.21,1.39.46,1.8.23.41.61.68,1.2.88.51.14,1,.06,1.65-.25.64-.3,1.34-.82,2.13-1.37.78-.54,1.68-1.15,2.84-1.49.57-.16,1.21-.27,1.83-.22l.47.04c.14.02.26.06.4.08l.78.18c1.03.26,2.05.76,2.92,1.47.83.76,1.53,1.67,1.91,2.69.73,1.8.74,3.69.43,5.43-.32,1.75-.99,3.41-2,4.87-1.3,1.92-3.36,3.29-5.58,3.81-2.18.53-4.68.37-6.47-1.01-.55-.41-.76-.61-.73-.62.03-.02.32.13.88.21.55.11,1.39-.04,2.26-.13.44-.05.91-.17,1.38-.27.47-.07.96-.18,1.46-.29,1.77-.41,3.36-1.42,4.35-2.76.52-.69.91-1.52,1.24-2.36.28-.86.49-1.75.55-2.62.08-1.76-.39-3.38-1.47-4.23-.54-.42-1.17-.8-1.97-1.05l-.61-.18c-.22-.07-.3-.04-.46-.09-.28,0-.58,0-.94.14-.86.26-1.84,1.03-3.04,1.81-.61.38-1.28.8-2.14,1.06-.85.27-1.84.33-2.76.14-.43-.13-.86-.25-1.27-.44-.4-.25-.85-.44-1.18-.81-.77-.64-1.16-1.53-1.45-2.35-.46-1.65-.36-3.14-.21-4.53.18-1.52.51-2.98.72-4.32.06-.35.08-.64.12-.96l.05-1.04c.03-.69.03-1.39.02-2.08-.06-2.78-.39-5.58-1.11-8.25-.86-3.28-2.33-6.45-4.66-8.76-.46-.42-.9-.85-1.42-1.18-.5-.38-.99-.69-1.53-.91-1.07-.47-2.29-.68-3.56-.72-2.55-.09-5.24.37-8.07.25-1.09-.05-2.24-.21-3.31-.54-1.08-.33-2.13-.79-3.1-1.51-.96-.69-1.85-1.75-2.2-3.1-.33-1.35-.06-2.77.6-3.87.56-.98,1.29-1.76,2.13-2.38,1.55-1.16,2.77-1.5,3.62-1.62.86-.13,1.4.03,1.82.29.2.12.43.22.54.32.37.35-.92,1-2.79,2.16-1.39.82-2.57,2.08-2.81,3.2-.11.56-.07,1.03.11,1.41.17.39.58.82,1.13,1.19.56.37,1.26.68,1.99.89.76.22,1.46.33,2.31.36,1.67.07,3.52-.13,5.54-.27,1.5-.09,3.11-.15,4.83.14.86.16,1.74.38,2.59.76.43.16.83.42,1.24.63.37.24.7.49,1.05.74.36.24.68.51.98.8.31.29.63.56.92.86.55.63,1.13,1.23,1.57,1.91.98,1.32,1.71,2.75,2.35,4.2l-.07.04Z"/><path class="cls-1" d="M209.58,151.97c.73,3.31,2.08,6.47,4.15,9.15.39.48.8.94,1.2,1.4.45.43.91.84,1.34,1.28,3.12,3.07,7.16,5.28,11.38,7,.95.36,1.92.68,2.88,1.03.98.3,1.95.6,2.93.87,1.26.34,2.54.62,3.8,1,1.26.35,2.51.79,3.71,1.44.75.41.64.4-.11.57-.37.08-.92.27-1.56.4-.32.06-.68.16-1.04.19-.36,0-.73,0-1.11-.05-.68-.1-1.36-.14-2.03-.28l-2-.43c-1.33-.3-2.67-.66-3.99-1.05-2.64-.84-5.2-2.02-7.65-3.41-2.9-1.69-5.97-3.55-8.39-6.13-2.67-2.79-4.62-6.25-5.73-9.88-.38-1.11-.57-2.26-.86-3.39-.23-1.14-.39-2.28-.51-3.43-.16-1.74-.21-3.5-.11-5.24.11-1.74.33-3.47.64-5.17.5-2.64,1.11-5.21,2.04-7.71.2-.55.41-1.09.64-1.63.9-2,1.49-2.48,2.26-2.58.17-.03.35-.09.48-.08.41,0,.48,1.02-.02,2.47-1.54,4.27-2.81,8.79-3.09,13.41-.22,3.41-.05,6.91.83,10.23l-.07.02Z"/><path class="cls-1" d="M249.12,188.88c1.33-.03,2.66-.35,3.9-.87.46-.19.86-.47,1.29-.7.76-.41,1.49-.9,2.16-1.46.69-.59,1.37-1.24,2.01-1.91.56-.6,1.05-1.27,1.51-1.93.29-.43.54-.88.79-1.32.29-.42.62-.81.98-1.23.23-.25.39-.18.58.2.2.37.5,1.12.34,1.82-.44,1.13-1.05,2.14-1.75,3.06-.73.9-1.55,1.71-2.43,2.45-1.06.9-2.17,1.97-3.44,2.68-1.4.79-2.93,1.32-4.47,1.65-.96.21-1.89.35-2.94.36-1.55,0-3.02-.41-4.42-1.01-1.06-.49-2.27-.96-3.11-2.11-.19-.24-.37-.49-.5-.78-.44-1.11-.16-1.58.56-1.8.17-.05.33-.11.5-.14.59-.07,1.06.25,1.35.56.43.49.94.74,1.49,1.1.57.34,1.26.66,2.01.89.56.17,1.14.27,1.72.37.29.04.58.07.87.08.3,0,.65,0,.98-.03v.07Z"/><path class="cls-1" d="M239.1,242.15l1.01-5.16c.13-.63.17-1.26.3-1.89.45-2.21.9-4.42,1.24-6.64.15-.99.24-1.98.33-2.97.11-1.27.06-2.54.57-3.79.45-.37.25-.33.64.03.21.18.36.43.54.73.08.15.17.31.23.49.03.09.07.18.1.27,0,.09.02.18.02.27,0,1.32-.02,2.63-.12,3.94-.14,1.31-.33,2.61-.61,3.91-.33,1.55-.4,3.2-.62,4.79-.24,1.76-.56,3.5-.86,5.24l-.56,3.22c-.27,1.63-.58,3.25-.76,4.88-.15,1.26-.1,2.52-.18,3.78-.03.27-.05.54-.1.82-.08.51-.21.84-.4,1.05-.17.22-.41.33-.7.4-.13.03-.24.09-.34.1-.29.06-.76-.42-.93-1.21-.09-.58-.18-1.17-.23-1.76,0-.58.03-1.17.07-1.75.09-1.17.24-2.35.41-3.53.26-1.75.58-3.49.87-5.24h.07Z"/><path class="cls-1" d="M231.07,272.31l1.97-3.05,2.04-3.01c1.34-2.01,2.8-4,4.31-5.92,1.52-1.92,3.1-3.8,4.8-5.58,1.69-1.78,3.47-3.5,5.41-5.06,2.81-2.28,5.85-4.41,9.39-5.7.8-.24,1.58-.52,2.39-.71.83-.14,1.64-.36,2.48-.41,1.7-.15,3.33-.08,4.95.13,3.24.41,6.36,1.43,9.24,2.85,5.78,2.85,10.6,7.1,14.81,11.72,3.75,4.12,7.08,8.6,10.13,13.16,1.94,2.94,3.83,5.93,5.53,9.02,1.67,3.11,3.26,6.26,4.27,9.66.64,2.11.46,1.87-.8.43-.61-.73-1.63-1.68-2.61-2.95-.5-.63-1.06-1.3-1.58-2.05-.51-.75-1.02-1.57-1.52-2.43-3.5-6.12-7.13-12.16-11.4-17.72-4.26-5.53-9.08-10.71-14.86-14.54-3.46-2.25-7.42-3.9-11.58-4.36-.52-.09-1.04-.1-1.56-.12-.52,0-1.05-.09-1.55-.02l-1.51.1-1.5.3c-1.98.5-3.94,1.23-5.76,2.3-4.04,2.26-7.61,5.47-10.83,8.94-3.24,3.5-6.12,7.31-8.79,11.32-3.33,4.91-6.48,9.94-9.41,15.1-4.44,7.82-8.58,15.87-12.35,23.98-2.94,6.31-5.56,12.6-8.29,18.93-.6,1.39-1.18,2.76-1.78,4.16-.58,1.3-1.07,2.36-1.5,3.25-.44.88-.85,1.57-1.19,2.14-.69,1.13-1.24,1.71-1.8,2.12-.26.19-.54.46-.74.54-.64.3-.16-2.02,1.31-5.9,4.64-11.39,9.77-23.33,15.56-35.08,4.29-8.72,9-17.32,14.23-25.59l.07.03Z"/><path class="cls-1" d="M143.34,339.34c.39.21.75.29,1.13.46.39.13.89.19,1.32.29.46.09,1,.13,1.5.2.5.07,1.01.12,1.54.16,2.09.18,4.22.28,6.35.37,4.27.17,8.57.21,12.87.25,8.6.05,17.22-.03,25.84-.14,6.29-.13,12.58-.27,18.86-.4,22.18-.38,44.35-.76,66.52-1.14,9.84-.18,19.74-.37,29.5-.55,12.54-.19,25.16-.74,37.7.59,3.9.49,3.38.3.07.71-1.66.2-4.01.62-6.85.97-1.42.17-2.96.39-4.6.54-1.64.12-3.37.22-5.17.27l-4.8.15-4.8.06-9.6.14c-6.4.1-12.8.21-19.21.31-12.82.23-25.67.42-38.59.51-15.44.12-31.51.72-47.32,1.03-8.69.16-17.38.3-26.08.36-8.7.05-17.4.07-26.13-.27-2.7-.13-5.37-.26-8.15-.67-.72-.17-1.42-.21-2.15-.53l-1.08-.41-.96-.54c-.66-.34-1.22-.77-1.79-1.19-.59-.4-1.1-.86-1.63-1.3-2.09-1.78-4-3.65-5.96-5.45-1.96-1.78-3.96-3.49-6.06-5.04-3.19-2.34-6.66-4.27-10.38-5.53-1.86-.6-3.76-1.14-5.7-1.41l-1.45-.25-1.46-.09-1.46-.09-1.47.05c-3.92.13-7.87.82-11.65,1.99-1.92.49-3.76,1.26-5.61,1.96-.94.32-1.81.79-2.71,1.21l-2.68,1.28c-5.44,2.89-10.35,6.56-14.82,10.67l-3.25,3.19c-1.06,1.08-2,2.28-3.01,3.41l-1.49,1.72c-.5.57-.91,1.21-1.37,1.81l-2.69,3.67c-1.5,2.21-2.78,4.51-4.24,6.78-1.19,2.21-2.17,4.03-3,5.57-.41.77-.83,1.44-1.14,2.08-.31.64-.59,1.22-.87,1.73-1.11,2.05-1.94,3.16-2.76,4-.37.38-.8.92-1.07,1.12-.46.34-.39-.48.07-2.3.22-.91.58-2.06,1.04-3.43.45-1.37,1.04-2.95,1.91-4.63,4.73-10.15,11.43-19.87,20.13-27.93,4.44-3.91,9.26-7.51,14.57-10.37,5.33-2.81,11.04-5.02,17.05-6.24.56-.11,1.11-.25,1.67-.34l1.7-.22c1.14-.15,2.27-.32,3.44-.32,1.16-.03,2.31-.13,3.5,0l1.77.12c.59.04,1.15.18,1.73.26,4.59.71,9.06,2.31,13.06,4.59,4.02,2.27,7.58,5.16,10.85,8.15,1.63,1.49,3.21,3.02,4.78,4.43,1.56,1.4,3.15,2.79,4.71,3.56l-.02.09Z"/><path class="cls-1" d="M101.2,407.98c1.25-.14,2.5-.29,3.72-.47l.91-.1.22-.03h.1s.02-.02.02-.02c.02,0,.04,0,.06,0,.04,0,.08-.01.12-.03.03-.03.02-.07.03-.11,0-.03,0-.06,0-.08v-.52s.03-1.26.03-1.26c.03-.84.06-1.67.12-2.51.11-1.67.26-3.33.48-4.99.43-3.32,1.07-6.61,2.03-9.85.97-3.27,2.16-6.55,4.01-9.54.8-1.32,1.72-2.58,2.78-3.74,1.04-1.17,2.23-2.23,3.54-3.13,2.6-1.84,5.73-2.89,8.85-3.19,3.07-.28,6.2-.02,9.18.82,2.98.82,5.76,2.25,8.22,4.04,4.39,3.18,7.85,7.42,10.6,11.9,1.77,2.88,3.3,5.92,4.54,9.06,1.15,3.18,1.98,6.49,2.3,9.85.06,2.13-.21,1.84-1.05.24-.84-1.61-2.4-4.44-3.94-7.79-2.4-6.05-5.55-11.89-9.9-16.57-2.18-2.31-4.59-4.4-7.34-5.9-.67-.41-1.39-.7-2.1-1.04-.73-.26-1.45-.6-2.21-.79-1.49-.49-3.05-.72-4.63-.88l-1.43-.07c-.48,0-.96.03-1.44.05-.49,0-.95.07-1.42.13l-.7.1-.69.16c-1.84.42-3.59,1.21-5.16,2.31-3.15,2.21-5.46,5.6-7.13,9.21-1.73,3.75-2.84,7.83-3.59,11.97-.37,2.07-.64,4.17-.82,6.28-.09,1.05-.16,2.11-.2,3.16l-.05,1.58v.79c-.02.33,0,.82,0,1.22l-.12.58-.06.29-.03.14v.04s0,0,0,0h0s0,0,0,0h0c.05.04-.07-.05-.06-.04h0s0,.02,0,.02l-.03.07c-.09.19-.26.29-.44.39-.18.1-.37.18-.58.25-.24.09-.51.15-.77.23-.13.04-.26.08-.39.1l-.27.06-1.07.22c-.71.11-1.42.22-2.13.31-1.41.19-2.83.35-4.24.49-2.82.29-5.64.52-8.47.72-8.55.57-17.17.79-25.69.61-3.31-.08-6.6-.19-9.88-.46-3.28-.28-6.57-.67-9.87-1.59-1.45-.42-2.89-.9-4.31-1.77-1.35-.83-2.25-1.87-2.84-2.79-.59-.95-.89-1.84-.98-2.6-.18-1.55.38-2.48.95-2.94.26-.22.59-.46.8-.51.39-.07.33.42.44,1.21.11.78.43,1.87,1.37,3.14.73.95,1.61,1.62,2.78,2.13,1.16.53,2.49.92,3.85,1.24,2.74.63,5.66.99,8.61,1.24,5.91.5,12.01.57,18.11.49,9.06-.17,18.23-.66,27.24-1.63l.02.08Z"/><path class="cls-1" d="M271.93,406.73c14.09,0,28.18-.05,42.23-.48,5.12-.17,10.25-.43,15.28-.88,1.09-.1,2.18-.22,3.23-.38.52-.08,1.03-.18,1.47-.3.19-.05.33-.08.39-.24l2.54-5.14c.9-1.78,1.81-3.57,2.76-5.33,1.89-3.53,3.91-7.01,6.16-10.36,2.25-3.35,4.71-6.58,7.57-9.51,2.84-2.92,6.11-5.56,9.95-7.3,3.86-1.8,8.38-2.39,12.61-1.38,2.12.5,4.15,1.44,5.89,2.76,1.75,1.31,3.19,2.96,4.34,4.74,2.92,4.63,4.26,9.95,4.61,15.22.09,1.32.12,2.64.1,3.96-.07,1.32-.16,2.63-.35,3.94-.17,1.3-.4,2.6-.69,3.88-.3,1.28-.79,2.52-1.28,3.73-.67,1.5-1.08,2.08-1.1,2.02-.06-.07.21-.82.34-2.18.16-1.36.04-3.31.03-5.58-.04-1.14-.09-2.37-.2-3.66-.05-.65-.09-1.31-.19-1.99-.02-.68-.08-1.37-.12-2.07-.4-4.95-1.38-9.92-3.59-14.07-1.13-2.04-2.55-3.86-4.34-5.14-1.75-1.33-3.86-2.04-6.1-2.31-4.53-.55-9.15,1.11-13.11,4.01-3.98,2.9-7.4,6.77-10.47,10.91-2.49,3.35-4.7,7.01-6.78,10.78-1.03,1.89-2.03,3.81-2.99,5.76l-1.42,2.94-1.5,3.17c-.35.82-1.2,1.25-2.04,1.5-.65.19-1.17.3-1.73.41-1.1.2-2.17.34-3.24.46-2.13.24-4.25.4-6.35.54-7.13.46-14.24.61-21.35.75-7.11.13-14.22.19-21.32.22-8.74,0-17.49.02-26.23.02-13.24-.04-26.54-.08-39.68-.11-10.21.01-20.23.21-30.32.33-2.22.03-4.4.06-6.64.09-8.31.03-10.95-.22-12.73-1.15-.41-.21-.94-.42-1.18-.64-.8-.72,2.59-1.3,8.68-1.49,18.05-.56,37.08-.55,56.19-.54,14.19,0,28.44.07,42.65,0l.02.09Z"/><path class="cls-1" d="M415.02,307.99c-1.44,2.19-3.26,4.18-5.41,5.74-2.15,1.56-4.63,2.68-7.22,3.22-.94.21-1.89.35-2.85.44-1.01.08-1.91.06-2.84,0-3.23-.23-6.39-.84-9.48-1.79-3.06-.99-6.07-2.34-8.66-4.37-1.16-.88-2.19-1.82-3.23-2.8-.51-.5-1.01-1-1.5-1.52l-.72-.8-.35-.41c-.15-.16-.31-.4-.47-.6-.34-.43-.63-.89-.93-1.34-.25-.45-.52-.91-.7-1.36-.09-.21-.16-.42-.18-.61-.02-.18-.09-.4-.08-.56l.02-.5c.08-.22.24-.24.34-.3.51-.13,1-.45,2.25-.17.59.13,1.25.41,1.82.56.28.1.57.23.84.29l.51.14c.63.24,1.27.42,1.88.53.48.12.69.1.73.19.03.08-.15.3-.62.59-.47.3-1.21.56-2.12.79-.23.08-.45.07-.69.1-.08,0-.09.01-.09.01,0,0-.02.03-.02.04-.01.02-.02.03-.03.05-.02.06.01.11.01.11,0,0,0,.01,0,.01,0,0,0,0-.01,0-.09-.11.21.28.4.53.22.26.43.53.66.79.9,1.04,1.92,2.01,2.97,2.95,1.06.95,2.09,1.7,3.28,2.43,1.18.71,2.44,1.33,3.74,1.88,3.8,1.58,8.3,2.16,12.46,2.16,2.21-.06,4.46-.61,6.48-1.56,2.02-.98,3.86-2.38,5.36-4.11,1.85-2.13,3.33-4.66,4-7.37.53-2.05.59-4.22.18-6.3-.22-1.04-.53-2.06-.97-3.03-.23-.48-.45-.96-.74-1.41l-.42-.69c-.16-.26-.32-.52-.47-.79-.46-.83-.83-1.73-1.09-2.64-.13-.45-.24-.91-.33-1.36-.08-.48-.2-.8-.18-1.57.11-1.14.39-1.94.61-2.79.23-.83.43-1.63.59-2.41.11-.68.2-1.35.2-1.99.03-1.19-.17-1.81-.18-2.35-.05-.25-.04-.48,0-.72.01-.22.05-.43.13-.68.07-.22.1-.48.19-.68.14-.33.49-.36,1.07-.03.57.31,1.3,1.14,1.7,2.41.31.95.34,1.89.34,2.83-.05.91-.15,1.81-.34,2.65-.17.84-.39,1.66-.59,2.41-.1.38-.19.74-.26,1.06-.03.15-.07.33-.07.42l-.02.16s.06,0-.02.01c-.2,0-.4.02-.6.05h-.08s-.04.02-.04.02c.33-.04-.78.08.75-.08h0s0,.04,0,.04v.07s.05.27.05.27l.09.52c.06.34.14.67.23.98.17.63.41,1.22.71,1.79.16.31.3.53.53.9.23.4.48.79.69,1.2.43.82.81,1.68,1.1,2.57.93,2.63,1.13,5.52.71,8.26-.44,2.74-1.52,5.34-2.97,7.57l-.07-.04Z"/><path class="cls-1" d="M392.03,290.98c-.14-1.67-.77-3.48-1.26-5.54-.48-2.06-.73-4.16-.68-6.29.02-1.55.13-3.13.55-4.67.36-1.36.92-2.7,1.74-3.91.37-.62.88-1.16,1.35-1.71.54-.49,1.06-1.01,1.68-1.39,2.38-1.67,5.27-2.35,8.08-2.15,2.49.16,4.9.97,6.98,2.28,1.34.83,2.56,1.9,3.5,3.24,1,1.27,1.47,3.06,1.07,4.68-.22.51-.33.69-.38.68-.06,0-.12-.24-.45-.58-.21-.16-.29-.36-.56-.55-.24-.19-.51-.39-.79-.57-.31-.18-.55-.39-.8-.59-.12-.1-.25-.21-.4-.3-.1-.12-.21-.24-.29-.37-.69-.93-1.61-1.72-2.59-2.41-.95-.74-2.06-1.28-3.2-1.68-1.14-.41-2.36-.6-3.57-.57-.62-.03-1.21.1-1.83.18-.3.06-.6.16-.91.24l-.46.12-.43.18c-1.41.54-2.62,1.55-3.48,2.86-.86,1.31-1.38,2.89-1.68,4.53-.34,1.8-.3,3.7-.08,5.58.21,1.89.75,3.67,1.29,5.68.31,1.23.58,2.53.55,3.92,0,.69-.13,1.41-.34,2.11-.25.69-.58,1.36-1.05,1.92-.35.42-.71.81-1.21,1.16-.49.33-1.01.56-1.53.7-1.05.3-2.07.34-3.06.32-1.98-.07-3.85-.46-5.68-.88-.66-.15-1.31-.3-1.96-.45-.37-.08-.71-.14-1.02-.19-.3-.04-.57-.1-.8-.04-.08.02,0,.16,0,.23.02.09.05.17.08.25.06.16.14.31.22.45.15.24.35.43.5.59.3.31.33.37.78.88.31.39.43.73.46,1.18.01.2.07.42.06.61-.02.31-.3.49-.82.45-.26-.02-.57-.09-.92-.22-.37-.17-.66-.25-1.3-.77-.86-.67-1.61-1.5-2.15-2.36-.53-.86-.87-1.75-.99-2.62-.01-.21-.08-.45-.05-.64.04-.19.05-.4.11-.57.08-.17.14-.33.23-.5.14-.18.23-.25.34-.34.41-.33,1.02-.61,2.11-.49,1.11.16,2.41.57,3.66.91l1.21.34.93.24c1.24.32,2.47.59,3.66.76.89.12,1.76.19,2.53.14.78-.04,1.43-.22,1.78-.47.08-.04.19-.16.31-.28.13-.11.22-.23.32-.35.2-.24.33-.51.44-.8.21-.58.25-1.33.16-2.15h.07Z"/><path class="cls-1" d="M403.93,275.71c.12.36.2.74.25,1.11l-.04-.33c.07.57.08,1.14,0,1.71-.04.29.17.69.37.88.22.22.57.38.88.37s.66-.12.88-.37l.2-.25c.11-.19.17-.41.17-.63.14-1.05.02-2.15-.3-3.16-.1-.31-.29-.58-.57-.75-.27-.16-.66-.22-.96-.13s-.59.29-.75.57-.23.64-.13.96h0Z"/><path class="cls-1" d="M220.7,120.32c-.8,1.28-1.3,2.8-1.43,4.31-.15,1.71.59,3.17,2.06,4.05,2.63,1.56,5.95.35,8.27-1.23,1.27-.87,2.44-1.91,3.31-3.19.42-.62.12-1.52-.49-1.88-.68-.4-1.46-.12-1.88.49-.05.08-.11.15-.16.23-.13.19.14-.16-.07.08-.16.18-.32.36-.48.53-.18.19-.37.36-.56.54-.11.1-.22.19-.33.29-.06.05-.32.26-.26.21.07-.05-.18.13-.23.17-.13.09-.25.18-.38.26-.24.16-.49.31-.75.46s-.51.28-.78.4c-.06.03-.36.16-.16.08-.16.07-.33.13-.5.19-.27.09-.54.17-.81.23-.12.03-.25.05-.37.07-.16.03.03,0,.06,0-.08,0-.16.02-.25.02-.26.02-.52,0-.78,0-.16,0,.05.01.07.02-.06,0-.12-.02-.17-.03-.15-.03-.3-.07-.46-.12-.06-.02-.11-.04-.17-.06.02,0,.2.09.06.02-.13-.06-.25-.12-.37-.2-.06-.04-.3-.21-.12-.07-.12-.09-.22-.2-.33-.3-.04-.04-.09-.09-.12-.13.2.26.04,0,.02,0-.02,0-.09-.2-.03-.04s0-.03-.01-.06c-.02-.12-.06-.23-.08-.35.04.28,0-.19,0-.27,0-.16.01-.32.03-.47s0,0,0,.02c.02-.12.04-.23.06-.35.07-.33.16-.65.26-.96.06-.18.12-.35.19-.52.06-.15,0-.01,0,.02.03-.08.07-.16.11-.24.13-.28.28-.55.44-.81.94-1.51-1.44-2.89-2.37-1.39h0Z"/><path class="cls-1" d="M213.04,150.01c1.38,2.28,4.34,2.67,6.58,1.51,1.88-.98,3.13-2.91,4.03-4.76.31-.65.2-1.52-.49-1.88-.62-.33-1.54-.2-1.88.49-.36.75-.77,1.48-1.25,2.16-.02.03-.21.28-.1.14s-.09.11-.11.13c-.14.16-.28.32-.42.47s-.3.29-.46.43c-.19.17.1-.06-.03.03-.09.06-.18.13-.28.19-.17.11-.35.21-.54.3-.23.12.12-.03-.03.01-.09.02-.18.06-.27.09-.11.03-.22.06-.33.08-.26.07.13,0-.04.01-.22.02-.43.02-.65,0-.26-.01.11.04-.05,0-.09-.03-.19-.04-.29-.07-.11-.03-.23-.07-.34-.11.28.11-.06-.04-.1-.06-.08-.05-.16-.11-.25-.16-.13-.08.13.14-.04-.04-.08-.08-.16-.16-.24-.25.16.18,0-.02-.05-.1-.37-.62-1.25-.9-1.88-.49s-.89,1.22-.49,1.88h0Z"/><path class="cls-1" d="M239.95,107.44c-1.4-1.55-3.29-2.69-5.31-3.21-.78-.2-1.63-.25-2.25.37-.74.75-.57,1.89.11,2.6.81.84,2.08,1.13,3.12,1.54.06.02.13.05.19.08-.3-.15-.07-.03,0,0,.14.06.27.13.41.19.25.13.51.26.75.41s.48.3.72.46c.02.01.33.23.33.24,0,0-.21-.17-.04-.03.08.06.16.13.23.19.55.46,1.41.58,1.94,0,.47-.51.59-1.45,0-1.94-.74-.61-1.52-1.17-2.37-1.61s-1.77-.75-2.67-1.11c-.25-.1.19.09-.05-.02-.09-.04-.18-.09-.27-.13s-.18-.1-.26-.15c-.04-.03-.08-.06-.13-.08-.17-.1.2.17.08.05s.13.23.06.08c-.09-.18.11.48.11.44l-.38.5c-.07.34-.23.51-.48.51-.18.05-.1,0-.02.01,0,0-.3-.06-.16-.02.04.01.09.02.13.03.11.03.21.05.32.08.2.05.39.12.59.18.09.03.18.06.27.1.04.02.09.03.13.05.04.01.24.1.05.02s.09.04.14.07c.1.05.2.1.3.15.18.09.36.19.54.3.2.12.4.25.6.38.09.06.18.13.27.19.12.09-.09-.07-.09-.07.04.05.1.08.15.12.37.3.71.63,1.03.98.48.53,1.46.53,1.94,0,.52-.57.52-1.38,0-1.94h0Z"/><path class="cls-1" d="M217.91,123.86c.93-2.18,1.79-4.39,2.63-6.6.4-1.05.8-2.1,1.21-3.15.21-.54.43-1.09.64-1.63.11-.26.21-.53.32-.79.05-.13.11-.26.16-.39-.08.19-.07.17.03-.06.44-1.02.34-2.33-.76-2.91-.91-.48-2.44-.33-2.91.76-.93,2.18-1.79,4.39-2.63,6.6-.4,1.05-.8,2.1-1.21,3.15-.21.54-.43,1.09-.64,1.63-.11.26-.21.53-.32.79-.05.13-.11.26-.16.39.08-.19.07-.17-.03.06-.44,1.02-.34,2.33.76,2.91.91.48,2.44.33,2.91-.76h0Z"/><path class="cls-1" d="M452.81,370.56l9.53.23c1.16.02,2.32-.03,3.48,0,4.09.12,8.18.23,12.27.4,1.81.08,3.64.1,5.44.13,1.16.02,2.32.03,3.47.05,1.16.07,2.31.23,3.47.38.72.11.62.3,0,.57-.62.25-1.75.67-3.08.83-2.36.1-4.71.13-7.07.16-1.18,0-2.36,0-3.54,0-1.18-.03-2.37-.08-3.55-.14-2.84-.15-5.8.01-8.71.03h-9.6s-5.91-.04-5.91-.04c-2.98-.01-5.98-.08-8.95-.05-2.3.02-4.57.2-6.85.28-.5.02-.99.06-1.5.07-1.88,0-2.47-.22-2.85-.95-.09-.17-.2-.33-.25-.5-.16-.55.61-1,1.98-1.16,4.06-.41,8.33-.42,12.63-.43,3.19.02,6.4.03,9.6.05v.07Z"/><path class="cls-1" d="M447.27,381.09c2,.06,4.02.09,6.03.1.74,0,1.47-.07,2.2-.07,2.6.02,5.2.08,7.8.17,1.15.03,2.31.01,3.46,0,.74.04,1.47.06,2.21.12.74.07,1.47.16,2.2.27.46.07.39.19,0,.38-.39.18-1.1.51-1.94.67l-2.23.4c-.74.1-1.48.11-2.23.16-1.49.07-2.98.12-4.49.09-1.8-.07-3.67.15-5.51.23-2.03.08-4.06.13-6.1.17l-3.76.04c-1.9,0-3.82,0-5.71,0-1.47,0-2.92.15-4.4.18-.32,0-.64.05-.97.02-.61-.04-1-.16-1.25-.38-.26-.2-.39-.45-.48-.81-.04-.16-.1-.32-.12-.47-.06-.5.48-.92,1.36-1.16,2.56-.35,5.19-.35,7.88-.27,1.99.03,4.01.11,6.03.1v.07Z"/><path class="cls-1" d="M452.28,388.77c1.92.07,3.85.11,5.78.13.7,0,1.41-.06,2.11-.05,2.49.03,4.98.06,7.46.09,1.11.03,2.22,0,3.31,0,1.41,0,2.83.02,4.24.21.44.06.38.23,0,.45-.37.22-1.05.54-1.85.67-2.84.47-5.68.8-8.58.65-1.73-.06-3.52.15-5.29.22-1.95.08-3.9.11-5.85.14l-3.61.02c-1.82-.02-3.66-.04-5.47-.07-.71,0-1.41.03-2.11.06-.7.04-1.41.07-2.12.07-.31,0-.62.02-.94,0-1.17-.12-1.52-.36-1.66-1.09-.03-.17-.08-.33-.08-.5-.02-.55.51-.94,1.32-1.01,2.42-.24,4.95-.16,7.53-.14,1.92.03,3.86.05,5.78.08v.06Z"/></svg>