<?xml version="1.0" encoding="UTF-8"?><svg id="Layer_1" xmlns="http://www.w3.org/2000/svg" width="520" height="520" viewBox="0 0 520 520"><defs><style>.cls-1,.cls-2{fill:#231f20;}.cls-2{opacity:.2;}</style></defs><path class="cls-1" d="M332.02,396.54c-.75,1.81-1.76,3.48-2.97,4.98-.45.54-.88,1.1-1.39,1.58-1.77,1.75-3.94,2.99-6.2,3.85-1,.38-2.03.71-3.06.95-1.33.3-2.71.39-4.05.28-.42-.03-.36-.1-.01-.21.35-.1.98-.31,1.71-.5.65-.15,1.28-.35,1.91-.56.63-.18,1.25-.39,1.86-.63,1.22-.47,2.38-1.06,3.52-1.72,1.34-.82,2.56-1.93,3.61-3.14,1.17-1.32,2.15-2.82,2.88-4.44.45-.99.82-2.03,1.06-3.1.37-1.61.52-3.3.47-4.97-.04-1.3-.3-2.57-.5-3.85-.04-.28-.09-.56-.12-.85-.11-1.07-.04-1.43.33-1.71.08-.07.16-.15.25-.19.28-.15.61.25.87,1.02.19.57.37,1.15.53,1.75.14.6.25,1.21.35,1.83.18,1.25.29,2.54.25,3.86-.09,1.95-.54,3.94-1.25,5.78h-.04Z"/><path class="cls-1" d="M245.68,396.18c2.15-2.32,5.07-4.04,8.1-4.77,1.1-.28,2.2-.54,3.3-.66,3.91-.41,7.67-.19,11.45-.27,1.68-.01,3.36-.08,5.02-.16,1.07-.04,2.14-.08,3.21-.11h.8s.81.1.81.1c.54.08,1.07.15,1.61.23.67.11.58.15.03.38-.28.12-.67.29-1.15.51-.26.12-.51.24-.77.36-.14.07-.28.11-.42.19-.15.02-.3.04-.45.05l-3.26.26c-1.09.07-2.18.09-3.27.13-2.18.06-4.37.07-6.58.03-2.63-.05-5.32.17-7.86.65-2.78.53-5.45,1.5-7.6,3.32-1.34,1.09-2.48,2.44-3.43,3.91-1.44,2.24-2.45,4.79-3.01,7.41-.44,2.04-.56,4.1-.64,6.18,0,.46-.02.91-.03,1.37-.02.86-.14,1.42-.27,1.81-.19.39-.37.62-.58.79-.1.08-.19.19-.26.24-.14.08-.25-.06-.41-.38-.15-.32-.38-.83-.42-1.47-.26-3.8.08-7.94,1.36-11.95.97-2.98,2.51-5.82,4.69-8.19l.04.03Z"/><path class="cls-1" d="M186.8,432.98c.27-1.42.91-2.9,1.91-4.02.98-1.14,2.2-1.95,3.44-2.55.91-.44,1.82-.84,2.76-1.11,1.66-.46,3.31-.76,4.98-.96.83-.1,1.66-.18,2.5-.23.83-.05,1.67-.04,2.5-.04,1.47,0,2.94.02,4.39.03,1.86-.03,3.72.24,5.57.44.58.08.49.2,0,.37-.49.15-1.4.41-2.47.56-1.89.28-3.76.28-5.62.44-1.86.12-3.7.34-5.56.38-2.21.13-4.51.69-6.57,1.42-2.26.8-4.36,2.12-5.25,4.22-.56,1.28-.68,2.8-.67,4.33.01,1.17.09,2.37.08,3.6,0,1.22-.06,2.44-.18,3.65-.19,1.88-.45,3.76-1.14,5.59-.14.41-.31.79-.49,1.19-.8,1.41-1.41,1.63-1.97,1.59-.14-.01-.28-.01-.39-.05-.38-.14-.22-.79.12-1.77,1.21-2.75,1.83-5.87,1.89-9.17.03-1.22-.02-2.43-.07-3.75-.05-1.31-.06-2.71.2-4.16h.05Z"/><path class="cls-1" d="M232.2,460.5c.45-1.01.73-2.23,1.06-3.51.12-.46.18-.94.33-1.4.55-1.61,1.2-3.17,1.93-4.69.32-.67.69-1.33,1.04-1.98.46-.83.98-1.63,1.64-2.33.2-.22.28-.11.27.18-.01.29-.06.79-.25,1.28-.35.87-.63,1.75-.91,2.62-.28.88-.67,1.71-1.01,2.57-.44,1.03-.6,2.19-.85,3.31-.31,1.22-.52,2.48-.91,3.79-.24.8-.56,1.62-1.03,2.38-.71,1.18-1.89,2.02-3.06,2.55-.92.42-1.82.83-2.76,1.08-.21.05-.4.12-.61.15-.77.14-1.04-.13-1.26-.63-.05-.12-.11-.24-.15-.35-.12-.39.15-.79.65-1.1,1.5-.73,3.01-1,4.07-1.7.77-.5,1.34-1.19,1.75-2.23l.05.02Z"/><path class="cls-1" d="M287.8,435.66c.16-1.78.34-3.66.61-5.48.09-.67.13-1.34.24-2.01.2-1.17.41-2.34.67-3.5l.92-3.44c.26-1.02.53-2.03.79-3.04.34-1.29.72-2.57,1.15-3.83.14-.39.14-.33.1.02-.04.35-.07,1.01-.16,1.77-.35,2.7-.53,5.39-.95,8.06-.1.8-.24,1.62-.34,2.44-.08.83-.17,1.66-.25,2.48-.2,1.81-.35,3.62-.49,5.45-.09,1.13-.18,2.28-.35,3.44-.25,1.75-.74,3.53-1.67,5.13-.72,1.21-1.59,2.41-2.89,3.19-.28.18-.57.34-.89.46-.59.25-1.05.18-1.34.12-.3-.07-.47-.25-.6-.48-.06-.11-.13-.21-.16-.31-.1-.35.33-.64.89-1.02.41-.28.82-.5,1.18-.84.36-.32.69-.68,1.02-1.05.64-.76,1.18-1.62,1.52-2.61.54-1.48.8-3.18.93-4.97h.06Z"/><path class="cls-2" d="M267.71,72.06s-1.45,18.65,1.76,23.72c2.66,4.21-5.15,2.1-6.82,5.95s-7.65,6.97-11.33,10.13c-7.89,6.79-20.58.68-20.58.68,0,0-5.63,7.26-4.35,8.48s-16.55-3.34-15.4-5.72c1.15-2.38,8.95-11.59,8.95-11.59l10.85-11.53s-5.56-5.89-.81-7.68c4.75-1.8,9.1,2.41,9.1,2.41,0,0,5.6-3.12,5.95-5.61.34-2.5-1.18-8.32.76-7.26s11.05,0,11.71-1.59c.67-1.59,2.41-2.11,2.41-2.11l7.81,1.72Z"/><path class="cls-2" d="M291.77,177.43s4.25-4.3,8.27-6.92,8.71-11.43,8.63-17.62c-.09-6.19,1.33-7.9,1.33-7.9,0,0,8.34,4.97,8.04,4.1s4.36-11.38,5.98-7.26,1.29,11.77,1.29,11.77c0,0,1.46.26,1.6,2.66s-8.05,11.58-8.05,11.58c0,0-13.15,9-15.89,12.9-2.74,3.9-7.28,7.19-9.08,2.57s-2.12-5.88-2.12-5.88Z"/><path class="cls-1" d="M262.58,83.62c-1.67.08-2.78,1.39-3.1,2.96s-.1,3.3.66,4.73c.42.8,1.08,1.52,1.88,1.95.58.31,1.39.16,1.71-.45s.17-1.38-.45-1.71c-.08-.04-.16-.1-.24-.14-.28-.17.12.13-.03-.01-.14-.13-.27-.26-.4-.4l-.05-.05c-.08-.1-.06-.07.06.08-.06-.04-.13-.18-.16-.24-.11-.17-.19-.34-.28-.52-.11-.22.1.28,0-.01-.03-.08-.06-.17-.09-.25-.06-.19-.12-.39-.16-.59-.02-.1-.04-.2-.06-.3-.02-.15.03-.24,0,.03.02-.19-.04-.41-.04-.6s0-.39.02-.59c0-.06.04-.16.02-.21-.03.21-.03.26-.01.12,0-.05.02-.09.03-.14.04-.18.08-.35.14-.52,0,0,.07-.18.07-.18-.09.2-.1.24-.05.12.02-.04.04-.07.06-.11.04-.07.08-.14.12-.21.02-.03.04-.07.07-.1.08-.1.05-.06-.09.11.04-.01.13-.13.16-.17.12-.13.13-.01-.08.05.06-.02.14-.09.18-.12.25-.16-.23.05-.05.01.07-.02.15-.04.22-.06.19-.06-.36.03-.04.01.65-.03,1.28-.55,1.25-1.25-.03-.65-.55-1.28-1.25-1.25h0Z"/><path class="cls-1" d="M243.05,78.84c8.05,5,16.45,9.41,24.5,14.41,1.37.85,2.63-1.31,1.26-2.16-8.05-5-16.45-9.41-24.5-14.41-1.37-.85-2.63,1.31-1.26,2.16h0Z"/><path class="cls-1" d="M244.97,47.21c1-.5,2.14-.56,3.13-1.02.12-.06.27-.08.41-.11.62-.12,1.23-.23,1.83-.3.39-.05.79-.11,1.17-.08.73.06,1.44-.1,2.19-.18,1.19-.12,2.44-.19,3.65.08.64.15,1.36.2,1.85.68.1.1.33.12.51.13,1.26.06,2.49.41,3.62,1.06,1.42.81,3,1.69,4.27,2.88,1.07.99,2.27,2.09,2.7,3.5.33,1.13,1.34,1.75,1.63,2.86.15.56.27,1.14.4,1.71.13.51.24,1.03.44,1.53.21.48.32.9.45,1.62.03.68.12,1.39.04,2.07-.14,1.38-.57,2.71-1.26,3.84-1.42,2.42-4.09,3.87-6.81,3.89-.64.02-1.29.13-1.96.11-.98-.04-1.98-.27-2.94-.65-.24-.1-.47-.21-.7-.32-.22-.1-.5-.25-.63-.33-.33-.19-.63-.4-.93-.63-.6-.46-1.17-.96-1.72-1.54-.27-.29-.54-.58-.8-.91-.31-.37-.61-.78-.89-1.19-.82-1.21-1.52-2.52-1.9-3.95-.2-.7-.24-1.42-.21-2.14.1-1.53.72-2.97,1.55-4.22.84-1.23,1.99-2.25,3.28-2.98.64-.35,1.35-.67,2.02-.86.63-.2,1.27-.32,1.92-.4.85-.09,2.76-.27,4.91.55,1.07.41,2.17,1.12,2.93,1.99.79.87,1.16,1.75,1.35,2.21.32.72.73,2.79.04,4.73-.33.99-.88,1.86-1.42,2.49-.54.63-1.06,1.06-1.36,1.35-.05.04-.67.56-1.72,1.01-.53.22-1.15.42-1.87.54-.73.11-1.66.17-2.76-.14-1.1-.28-2.25-1.1-2.87-1.97-.64-.86-.94-1.71-1.08-2.4-.17-.69-.11-1.26-.08-1.66.04-.4.1-.63.1-.64.24-.45.42-.8.59-1.13.16-.33.36-.63.56-.91.39-.56.78-1.02,1.25-1.33.3-.15.56-.31.85-.42.95-.32,1.27-.2,1.81.45.61.74.89,1.71,1.25,2.78.21.57.11.96.2,1.22.03.13.16.26.24.32l.03.03c-1-.32-.28-.09-.5-.16h0s0,0,0,0h0s0,0,0,0h0s.01,0,.01,0h.03s.1.03.1.03c.06.01.1.02.13.02.1,0-.27-.01-.65.16,0,0-.2.08-.37.22-.09.07-.14.14-.13.14.04-.07.13-.25.19-.67.03-.2.04-.46.03-.75,0-.14-.02-.3-.04-.45l-.03-.21h0s.1.04.17.04c.14,0,.3-.05.3-.08,0,0,0,0,0,0l.03.02.27.13c-.07-.03-.14-.06-.2-.07-.12-.03-.11-.02-.07-.02.14.02.59-.17.68-.28-.39.29-.5.68-.51.56-.05,0-.13-.01-.15,0-.04.03-.06-.06-.1-.09-.12-.1-.3,0-.46.11-.16.11-.26.25-.43.21-.05,0-.07.12-.08.22,0,.03-.09.07-.18.07-.06.01-.14,0-.23,0-.17,0-.37.09-.33.15.19.29.1.29-.06.37-.11.05.03.17.09.24l.03.02s.14.04.1.06c-.2.09-.13.22,0,.25.14.04.31.01.38,0,.03-.02.18.2.27.35.11.17.22.35.39.5.15.14.39.14.58.23l.21.12s.05.03.08.03c.03,0,.07-.08.09-.09.03-.02.05-.16.07.01.1.45.19.19.23.15.08-.04.2-.05.27-.14.07-.08.13-.19.11-.32,0-.05-.03-.11-.04-.15-.04,0-.03-.32-.09-.53-.06-.46-.22-.91-.37-1.37-.09-.22-.16-.44-.27-.65-.08-.23-.17-.45-.26-.68-.2-.45-.43-.91-.72-1.34-.44-.67-1.02-1.23-1.53-1.89-.34-.46-.73-.88-1.29-1.12-.11-.04-.22-.13-.28-.25-.14-.23-.7-.78-1.62-1.33-.91-.56-2.2-1.11-3.56-1.53-2.73-.84-5.76-1.04-6.18-1.07-.44-.04-1.4.03-2.23.15-.84.11-1.57.31-1.76.2-.35-.23-.68-.42-.93-.65-.15-.14-.13-.41-.15-.65-.02-.22.28-.52.73-.78.3-.17.55-.51.93-.69Z"/><path class="cls-1" d="M247.93,45.67c.33-.63.94-.96,1.29-1.67.04-.08.13-.13.2-.19.33-.23.68-.44,1.04-.62.23-.11.47-.25.71-.26.48-.04.87-.32,1.32-.52.71-.3,1.49-.56,2.26-.47.41.05.84-.02,1.15.36.06.08.2.06.3.04.73-.17,1.44-.05,2.08.2.82.32,1.68.48,2.46.8.65.27,1.39.41,1.8.99.33.47.96.22,1.36.49.21.14.41.3.63.41.2.1.41.2.67.19.97,0,1.74.39,2.46.91.75.55,1.48,1.17,2.19,1.84.17.16.44.21.67.31,1.35.61,2.04,1.99,2.8,3.24.29.47.66.89,1.04,1.32.61.7.81,1.67,1.04,2.53.33,1.17.4,2.38.34,3.57-.01.37-.04,1.28-.18,2.19-.12.91-.38,1.82-.47,2.18-.06.28-.37,1.01-.76,1.73-.38.73-.89,1.42-1.03,1.78.02.08-.95,1.17-2.16,1.92-.59.4-1.18.66-1.58.83-.2.09-.37.11-.49.14-.12.02-.19.03-.19.03-.72-.37-.95.08-1.39.03-.14-.05-.26-.05-.4-.1-.47-.17-.71-.4-1.18-1.22-.53-.93-.83-1.9-.9-2.9-.06-.55.22-.78.39-1.02.18-.24.28-.6.33-.96.05-.38.09-.68.19-.8,0-.01.22-.15.34-.31.15-.17.29-.4.59-.64.55-.53.85-1.62.75-1.73-.03-.04.07-.07.1-.11.19-.26-.35-.51-.21-.77.02-.04-.09-.07-.18-.1-.06-.02,0-.27.08-.53.05-.26.1-.54.03-.56-.34-.11-.3-.31-.25-.53.05-.17-.15-.25-.26-.35-.03-.03-.14-.02-.12-.07.2-.53-.44-.68-.71-.98-.17-.19-.13-.55-.25-.81-.05-.12-.22-.15-.3-.25-.13-.16-.25-.33-.4-.49-.07-.07-.18-.1-.27-.16-.09-.07-.26-.08-.23-.26.06-.46-.28-.5-.47-.69-.26-.24-.49-.53-.76-.79-.28-.26-.57-.54-.9-.76-.59-.4-1.22-.74-1.86-1.11-.61-.35-1.23-.73-1.82-1.04-.46-.24-.94-.38-1.34-.67-.27-.2-.54-.4-.87-.39-.07,0-.13-.03-.17-.1-.15-.32-1.4-.78-2.52-.96-1.19-.17-2.31.16-2.48.21-.17.04-.56.11-.94.22-.38.09-.77.2-.99.09-.41-.21-.79-.38-1.13-.57-.21-.12-.36-.34-.54-.55-.16-.18-.14-.47,0-.74.1-.18.02-.55.16-.76Z"/><path class="cls-1" d="M246.46,50.85c-.1.31-.59.6-.49,1.33.01.08-.03.15-.06.22-.14.31-.23.58-.4.99-.1.25-.18.51-.34.71-.32.39-.31.88-.35,1.33-.08.72-.06,1.38-.23,1.92-.1.29-.02.6-.4.83-.08.05-.04.14.01.21.33.48.48.87.58,1.25.14.52.57.7.75.75.14.12.47.1.89.56.17.19.41.16.59.07.19-.07.37-.2.56-.17.2.02.42.05.62,0,.18-.04.37-.09.5-.27.49-.65.99-.94,1.5-1.25.53-.33,1.01-.7,1.31-1.15.09-.1,0-.28-.01-.41-.09-.33-.04-.57.03-.91.07-.33.14-.75.05-1.14-.07-.28-.28-.53-.54-.65-.37-.2-.48-.51-.71-.67-.29-.18-.51-.36-1.01-.41-.14-.01-.54.03-.94.21-.4.17-.75.47-.84.6-.09.09-.34.32-.52.59-.18.26-.27.54-.19.68,0,0,0,.11,0,.27.02.14,0,.25-.05.28-.14.07-.24.17-.25.18h0s-.56.58-.56.58h0s.01-.01.01-.01l.02-.02.03-.04.07-.09c.04-.06.08-.12.11-.18.11-.24.09-.28.1-.28,0-.02,0-.02,0,.05,0,.04,0,.08,0,.1,0,.04.02.06.02.06,0,.11.09.39.18.55.05.1.12.19.16.23.08.08.06.05.04.04-.06-.03.12.07.29.15.17.09.38.19.62.32.54.3,1.02.67,1.32,1.18.3.51.41,1.18.18,1.82-.22.7-1.13,1.16-1.85,1.34-.73.2-1.48.42-2.32.47-.83.05-1.76-.08-2.59-.6-.02-.01-.12-.07-.28-.2-.15-.12-.42-.34-.62-.55-.45-.44-1.01-1.15-1.42-2.04-.21-.45-.38-.93-.51-1.44-.11-.51-.16-1.04-.16-1.57,0-1.06.17-2.11.52-3.13.36-1,.87-1.91,1.45-2.68.59-.75,1.22-1.37,1.81-1.84,1.19-.95,2.2-1.35,2.35-1.48.12-.09.3-.07.45-.11.91-.2,1.73-.93,2.78-.88.15,0,.3-.11.45-.19.1-.06,1.12-.02,2.12.27,1,.26,1.9.77,2.05.78.84.08,1.49.57,2.01,1.15.4.41.89.72,1.31,1.11.11.11.29.17.35.31.59,1.33,1.57,2.28,2.1,3.6.32.81.27,1.72.31,2.58,0,.4.13.8.11,1.21,0,.66-.12,1.32-.24,1.98-.07.31-.09.64-.17.96-.09.35-.14.75-.38.98-.64.57-.84,1.3-1.28,1.94-.57.8-1.28,1.46-2.01,2.05-.77.6-1.58,1.1-2.41,1.55-1.48.79-3.1,1.34-4.81,1.53-1.65.15-3.24.06-5.06-.57-.69-.25-1.41-.56-2.09-1.02-.66-.49-1.23-1.07-1.64-1.71-.57-.89-.92-1.78-1.36-2.6-.08-.17-.14-.37-.13-.56.03-.39-.19-1.49-.15-2.91.03-1.45.39-3.06.95-4.46.55-1.4,1.23-2.59,1.76-3.47.25-.41.53-.87.77-1.2.23-.33.42-.56.5-.65.32-.36,1.07-1.21,2.2-1.79.56-.29,1.22-.46,1.75-.46.54,0,.9.14.98.28.31.55.42,1.11.4,1.59-.02.31-.19.61-.27.94-.09.29-.21.45-.31.56-.09.07-.04.43-.09.54Z"/><path class="cls-1" d="M243.84,61.8c.06.32-.26.56.11.93.04.04.05.08.06.12l.13.5c.02.1.09.21.04.3-.09.19.14.36.29.52.23.26.56.45.53.7-.01.14.11.24-.18.48-.06.05,0,.08.05.1.37.12.5.27.6.5.11.29.46.44.7.62.21.17.53.16.56.57.04.35.47-.03.6.07.07.06.15.14.24.15.08.03.16.04.28-.06.4-.39.62-.38.81-.32.2.09.27.08.31.22v.02s.03.05.03.05h0s0-.02,0-.02v-.03s-.04-.06-.05-.08c-.04-.08-.11-.2-.19-.31-.01-.02,0,0,.04,0,.07.02.24.02.34-.07.07-.07.05-.21-.02-.34-.11-.2.14-.34.23-.58.12-.32.31-.73.47-1.22.07-.14.18-.56.26-.97.09-.41.13-.8.13-.95.01-.23.25-1.28.06-1.49,0-.03-.09-.48-.11-.9,0-.44-.07-.82-.06-.84.3-.44-.04-.42-.04-.65.02-.1.01-.17.02-.27.04-.34.15-.6.64-1.22.56-.7,1.19-1.23,1.98-1.53.41-.17.7.05.94.2.5.31,1.39.43,1.82.9.02.02.32.44.65,1.09.3.66.53,1.55.69,2.39.32,1.71.3,3.28.4,3.44.04.06-.04.12-.06.18-.14.36.41.77.25,1.17-.02.06.08.13.15.19.13.08-.49,1.61-.44,1.76.22.39.07.74-.14,1.07-.15.24-.09.56-.14.86-.01.08.06.2,0,.26-.63.58-.54,1.46-.97,2.2-.26.45-.77.72-1.18,1.06-.19.15-.3.4-.49.57-.3.28-.66.5-1.01.74-.17.11-.31.27-.49.38-.2.12-.4.34-.65.29-.63-.13-1.05.19-1.54.3-.63.12-1.24.11-1.81.08-.59-.03-1.14-.12-1.67-.21-.95-.16-1.92-.32-2.76-.78-.81-.4-1.54-.93-2.2-1.51-.51-.45-1.05-.87-1.39-1.48-.23-.41-.41-.83-.75-1.15-.07-.07-.11-.16-.1-.27.04-.44-.82-2.19-.86-3.99-.05-1.8.52-3.42.65-3.66.11-.24.22-.79.46-1.26.23-.47.56-.84.85-.76.54.13,1.05.31,1.53.52.3.13.57.35.87.54.27.17.34.34.33.5-.01.11.24.32.24.43Z"/><path class="cls-1" d="M247.15,55.75c.08.09-.27.16.12.27.05.01.05.02.05.03.02.05.05.09.06.14,0,.03.05.05-.02.09-.12.07.05.11.14.13.14.05.29.05.22.15-.03.05.03.05-.22.23-.05.04-.02.04.01.03.23-.06.26-.05.25.02-.02.1.09.04.14.07.05.03.14-.08.1.2-.01.24.15-.15.17-.1.02.03.03.06.06.06.02,0,.04-.02.06-.12.03-.2.04-.3.03-.36,0-.07.02.09.03.12.02.06.04.12.05.16v.03s.1.17.1.17v-.02s-.06-.07-.06-.07c-.02-.03-.04-.05-.05-.07-.12-.15-.26-.23-.24-.22,0,0,.03.01.07.03.07.02.17.04.28.04.07,0,.15,0,.21-.01.03,0,.17-.05.07-.01.16-.05.6-.26.83-.46.06-.05.11-.1.15-.13l.05-.05.02-.02h0s0-.01,0-.01h0s0,0,0,0h0c-.22.31-.06.09-.11.15h0s0,0,0,0c.04-.04.08-.14.08-.13.01-.01.01-.08,0,.13-.01.17.06.53.12.71,0,.03.05.17.17.45.09.22.05.09.04.13-.01,0-.03,0-.06,0-.1.03-.29.13-.3.12-.38-.29-.28,0-.46-.03-.05,0-.08.01-.14,0-.2-.03-.44-.2-1.12-.83-.78-.72-1.38-1.4-1.73-2-.18-.31-.1-.47-.05-.62.09-.31-.06-.98.2-1.22.02-.01.25-.17.68-.39.44-.21,1.07-.51,2.05-.61.49-.04,1.05-.02,1.58.14.53.14.99.39,1.32.63.73.53.99,1,1.08,1.04.06.04.05.14.07.21.12.42.65.59.68.99,0,.06.1.09.18.12.06.02.11.4.1.77,0,.37-.05.72-.01.77.24.27.17.55.06.81-.08.19,0,.4,0,.62,0,.06.07.13.03.18-.4.42-.21.99-.4,1.49-.12.3-.46.48-.68.7-.11.1-.14.26-.23.38-.15.18-.34.33-.51.5-.08.08-.13.19-.22.27-.09.09-.16.25-.32.23-.4-.06-.57.21-.84.34-.34.16-.7.24-1.05.32-.36.08-.72.11-1.07.15-.62.08-1.24.09-1.84-.01-.57-.1-1.11-.29-1.63-.55-.39-.19-.83-.37-1.13-.72-.21-.24-.38-.5-.66-.65-.06-.03-.1-.09-.1-.16-.02-.31-.71-1.31-.98-2.39-.32-1.07-.27-2.16-.23-2.33.03-.16-.05-.54,0-.89.04-.35.2-.65.56-.57.67.13,1.35.31,2.01.52.41.13.83.31,1.25.47.38.14.52.23.53.28,0,.04.35.16.35.19Z"/><path class="cls-1" d="M233.41,54.12c-.69-.68-1.28-1.58-2.53-1.59-.15,0-.27-.05-.39-.09-.51-.22-.92-.54-1.41-.75-.29-.16-.64-.26-.87-.49-.48-.45-1.18-.4-1.79-.42-.49,0-.99,0-1.49.01-.49-.03-.96-.08-1.44-.22-.53-.13-1.08-.05-1.61-.57-.11-.11-.3-.06-.45.01-1,.45-1.98.63-3.04.77-1.36.21-2.64.84-3.93,1.37-1.1.49-2.06,1.25-3.29,1.52-1.02.24-1.26,1.25-1.97,1.74-.39.25-.75.54-1.09.86-.3.28-.56.62-.72,1-.55,1.48-1.45,2.6-2.32,3.82-.91,1.29-1.73,2.66-2.35,4.13-.15.35-.15.74-.18,1.12-.23,2.17-1.09,4.24-1.23,6.52-.06.83.05,1.68.2,2.5.27,1.25.23,2.54.47,3.81.32,1.69.68,3.42,1.33,5.06.2.51.74,1.74,1.44,2.89.68,1.16,1.46,2.26,1.78,2.61.24.29.86,1.09,1.54,1.68.66.61,1.45.97,1.83,1.06.07,0,1.4.55,3.11.55.84.02,1.72-.04,2.4-.13.34-.03.63-.08.83-.11.21-.03.33-.04.34-.04.97.33,1.81-.32,2.79-.28.29,0,.57-.06.85-.07.98-.02,1.29.23,1.46,1.24.19,1.14-.05,2.26-.68,3.26-.33.5-1.01.86-1.63,1.05-1.22.42-2.42,1.34-3.84,1.55-.07,0-1.23.16-3.1.07-.94-.07-2.04-.17-3.24-.5-1.19-.32-2.47-.82-3.63-1.53-2.39-1.46-3.91-3.47-4.93-4.88-1.01-1.45-1.64-2.53-1.78-2.71-.11-.13-.15-.32-.22-.49-.4-1.02-1.31-1.79-1.65-2.85-.05-.15-.21-.28-.34-.4-.07-.09-.5-1.08-.79-2.12-.34-1.03-.57-2.09-.68-2.23-.52-.73-.66-1.56-.77-2.42-.05-.63-.35-1.24-.5-1.88-.04-.17-.17-.35-.16-.51.08-1.67-.49-3.24-.61-4.91-.02-.51.02-1.03.09-1.55.09-.51.19-1.03.25-1.54.06-.47.03-.96.07-1.44.06-.77.26-1.51.37-2.27.05-.36.1-.73.15-1.09.08-.4.06-.89.32-1.19.63-.78.71-1.71,1.04-2.59.42-1.12.97-2.18,1.55-3.23.59-1.09,1.25-2.13,1.93-3.17,1.19-1.86,2.58-3.6,4.16-5.18,1.49-1.5,3.2-2.81,5.01-3.97,1.38-.9,2.82-1.79,4.41-2.32,1.08-.37,2.19-.55,3.25-1.01.21-.09.47-.14.7-.1.48.08,1.89-.11,3.79-.19,1.9-.06,4.34.02,6.73.63,1.17.33,2.35.78,3.4,1.3,1.05.52,1.98,1.1,2.77,1.66.78.58,1.42,1.12,1.88,1.56.5.41.68.89.8,1.04.2.31.53.82.91,1.42.34.61.72,1.31,1.06,1.97.66,1.36.91,2.73.61,3.03-.55.58-1.1,1.03-1.68,1.33-.36.18-.84.13-1.28.18-.41.03-.73-.26-1.02-.65-.18-.28-.74-.36-.98-.63Z"/><path class="cls-1" d="M215.84,100.17c.05-.2.35-.15.23-.52-.01-.04,0-.07,0-.09.05-.1.09-.2.14-.29.03-.06.06-.13.13-.15.15-.02.12-.22.14-.37.03-.24.05-.5.23-.6.1-.05.11-.18.38-.05.06.03.06-.02.05-.07-.05-.31.04-.48.2-.6.2-.15.26-.44.4-.64.14-.15.19-.4.53-.35.29.04.06-.35.2-.42.07-.04.15-.07.2-.13.04-.06.08-.12.04-.24-.14-.46,0-.67.18-.84.19-.18.42-.34.6-.53.04-.05,0-.17-.01-.26-.06-.53.43-.6.69-.86.1-.1.12-.25.12-.43,0-.27.24-.34.39-.49.2-.2.44-.37.7-.52.16-.09.67-.57.76-.71.07-.11.61-.43.6-.63.02,0,.15-.28.41-.45.3-.16.59-.32.61-.31.48.15.29-.15.64-.09.09,0,.14,0,.23,0,.3.03.53.13,1.13.53.68.46,1.25.92,1.75,1.4.24.24.35.44.36.56.03.24.46.76.47,1,0,0-.05.17-.13.41-.13.2-.38.42-.6.66-.44.47-.89.95-.87,1.05,0,.04-.06.02-.09.02-.2.05.06.43-.13.49-.03,0,.03.08.07.14.06.09-.6.31-.56.4.12.24,0,.29-.16.33-.11.03-.07.17-.1.27,0,.03.05.1,0,.1-.4-.01-.24.4-.34.61-.06.13-.31.12-.44.2-.06.04-.04.14-.08.19-.06.08-.15.15-.22.23-.03.04-.02.11-.04.16-.03.05,0,.16-.12.12-.31-.09-.28.1-.36.19-.11.12-.27.2-.39.31-.13.11-.27.21-.38.34-.19.23-.36.49-.55.72-.19.22-.39.42-.58.63-.07.08-.14.17-.2.26-.09.07-.18.14-.3.17-.17.05-.34.09-.38.25,0,.03-.04.05-.1.03-.48-.13-2.25,1.23-2.46,1.28-.18.08-.47.7-.89.31-.39-.36-.77-.73-1.14-1.1-.23-.23-.44-.51-.65-.77-.2-.24-.24-.38-.2-.46.03-.05-.13-.31-.09-.37Z"/><path class="cls-1" d="M195.08,60.84c-.13.71-.44,1.4-.39,2.15,0,.09,0,.19-.02.29-.05.42-.12.83-.16,1.25-.03.27-.05.55-.12.79-.11.49-.15.96-.16,1.45-.04.78-.04,1.57-.2,2.33-.07.41-.07.84-.34,1.19-.06.07-.04.22-.02.33.13.77.13,1.51.08,2.26-.07.97.09,1.95.18,2.91.08.82.34,1.63.21,2.42-.09.65.39,1.11.5,1.66.05.29.08.59.18.87.07.25.15.51.31.73.64.82.95,1.7,1.29,2.6.34.95.72,1.88,1.19,2.78.11.21.33.36.5.54,1.02.99,1.55,2.26,2.43,3.31.31.4.74.69,1.16.97.66.4,1.13,1,1.71,1.47.77.62,1.59,1.21,2.44,1.77.27.16.95.54,1.67.84.72.3,1.45.55,1.75.61.22.07.83.26,1.46.43.64.14,1.3.26,1.59.21.05,0,1.12.09,2.17.07.53.02,1.05-.04,1.45-.04.39-.04.66-.07.67-.06.59.44.99-.17,1.6.11.17.04.33.04.5.08.58.14.81.38,1.05,1.24.27.98.25,1.93-.07,2.88-.08.24-.23.45-.41.61-.18.17-.37.32-.58.37-.4.17-.78.44-1.18.69-.4.26-.81.51-1.25.58-.04,0-.78.09-1.86.07-1.09-.01-2.51-.17-3.91-.45-2.81-.53-5.43-1.72-5.7-1.79-.11-.02-.19-.13-.28-.19-.57-.39-1.37-.32-1.93-.75-.08-.07-.22-.04-.34-.04-.2.04-2.14-1.65-2.31-1.73-.57-.12-.95-.49-1.29-.91-.26-.3-.65-.47-.96-.72-.09-.07-.23-.08-.28-.17-.53-.91-1.47-1.36-2.16-2.1-.44-.44-.66-1.07-1-1.59-.14-.25-.37-.43-.54-.67-.27-.37-.49-.77-.73-1.15-.11-.18-.28-.33-.4-.51-.13-.2-.34-.4-.34-.64-.02-.61-.39-1.02-.63-1.51-.31-.63-.53-1.29-.77-1.94-.25-.68-.46-1.36-.69-2.04-.38-1.21-.83-2.42-.98-3.69-.2-1.19-.27-2.4-.32-3.59-.03-.91-.08-1.83.04-2.73.09-.62.19-1.22.17-1.83,0-.12.02-.26.07-.37.22-.47.6-2.98,1.28-5.37.58-2.42,1.8-4.59,1.97-4.93.19-.33.52-1.09.91-1.74.37-.66.78-1.23.92-1.27.28-.08.52-.13.71-.11.12,0,.19.17.28.29.08.11.05.39-.04.72-.06.23-.01.5-.07.77Z"/><path class="cls-1" d="M217.7,53.42c-1.07.64-2.41.88-3.18,1.96-.09.13-.23.23-.35.34-.54.47-1.05.97-1.51,1.5-.33.31-.63.66-.98.92-.68.52-1.05,1.3-1.44,2.04-.63,1.2-1.11,2.48-1.71,3.73-.33.67-.51,1.44-1.04,2.01-.11.12-.15.38-.16.58-.1,1.41-.31,2.78-.49,4.1-.22,1.73.03,3.48.44,5,.18.64.45,1.24.72,1.77.3.52.55,1.02.8,1.5.19.42.55.64.91.79.35.17.7.25,1.05.44.36.19.76.37,1.19.45.38.07.8.12,1.19.02,1.47-.36,2.88-.73,4.31-1.37,1.5-.68,2.92-1.76,4.1-3.14.26-.34.45-.74.62-1.13,1.08-2.25,2.28-4.48,2.58-7.01.11-.92.03-1.84-.17-2.7-.31-1.29-.52-2.55-1.13-3.62-.78-1.31-2.09-2.42-3.54-2.99-.44-.19-1.6-.5-2.61-.3-.98.14-1.97.78-2.32,1.11-.27.22-1.07.9-1.78,1.88-.71.95-1.3,2.16-1.45,2.69-.03.07-.86,2.05-.91,3.64-.06.77.11,1.53.26,1.85.08.2.19.37.26.49.07.12.14.18.13.19.02.4.28.64.53.86.26.2.54.32.78.48.14.1.3.14.44.19.56.61,1.03.77,1.14,1.41.07.35.04.79-.2,1.3-.12.24-.29.55-.54.81-.25.23-.57.44-.94.6-.78.35-2.09.13-3.03-.27-.99-.37-1.92-.89-2.78-1.57-.85-.68-1.63-1.58-2.07-2.72-.01-.06-.19-.5-.35-1.27-.16-.77-.29-1.86-.21-3.09.18-2.48,1.25-5.19,2.65-7.55.72-1.21,1.58-2.38,2.57-3.42,1-1.03,2.12-1.91,3.25-2.51,1.12-.62,2.21-.94,3.04-1.12.83-.16,1.38-.2,1.54-.22.25-.04.53.01.78.05,1.57.16,3.2.11,4.59.84.19.11.46.14.69.18.17.01,1.47.78,2.56,1.79,1.12.99,1.95,2.25,2.12,2.4.88.84,1.36,1.84,1.74,2.93.27.79.65,1.56.9,2.37.06.22.21.44.22.65.12,2.12.54,4.11.36,6.15-.11,1.26-.54,2.46-.96,3.64-.17.55-.31,1.11-.5,1.66-.33.86-.74,1.69-1.17,2.51-.22.38-.36.8-.59,1.17-.25.42-.47.95-.83,1.22-.89.74-1.5,1.66-2.3,2.48-1.04,1.03-2.25,1.9-3.55,2.65-1.34.78-2.81,1.38-4.34,1.8-2.74.72-5.76.81-8.71-.3-2.85-1.02-5.09-3.45-6.31-5.96-.93-1.93-1.5-3.94-1.58-5.87-.06-1.33.02-2.59,0-3.86-.01-.26.03-.54.11-.78.17-.5.43-2.05.97-3.98.54-1.95,1.39-4.38,2.65-6.65,1.24-2.27,2.91-4.34,4.49-5.73,1.61-1.35,3.03-1.97,3.4-2.17.73-.34,2.33-1.17,3.96-1.51,1.68-.19,3.19.19,3.4.38.41.43.71.77.85,1.07.08.19-.14.41-.27.65-.11.21-.6.44-1.19.68-.4.17-.74.6-1.14.86Z"/><path class="cls-1" d="M212.59,56.96c-.52.57-1.16,1.02-1.72,1.62-.56.58-1.09,1.24-1.44,1.97-.08.17-.22.36-.34.54-.54.78-1.02,1.59-1.48,2.41-.29.53-.55,1.09-.86,1.58-.6.96-.88,2.02-1.16,3.09-.45,1.7-.71,3.44-1.06,5.13-.22.91-.26,1.87-.7,2.68-.09.17-.06.49-.04.74.2,1.71.28,3.33.52,4.88.28,2.02,1.23,3.68,2.34,4.74.95.94,2.38,1.41,3.7,2.09.56.28,1.15.3,1.71.24.57-.05,1.08-.16,1.63-.15.57.01,1.16-.03,1.71-.16.49-.11.98-.3,1.35-.59.7-.56,1.3-1.09,1.78-1.63.49-.53.86-1.06,1.21-1.79.73-1.52,1.02-3.8.97-6.29,0-.59-.17-1.16-.28-1.7-.34-1.59-.63-2.97-1.08-4.06-.11-.28-.24-.53-.36-.78-.12-.2-.23-.41-.39-.6-.31-.39-.73-.72-1.15-.92-.63-.32-1.24-.26-1.46-.05-.16.14-.41.27-.82.63-.4.36-.89.92-1.34,1.64-1.22,1.91-2.13,4.07-2.58,6.32-.16.67-.32,2.35.03,3.24.09.25.16.37.27.54.1.17.21.35.33.49.25.3.53.49.68.57.06.05.15.07.19.09.07.02.14.06.23.08.18.05.43.06.67-.01.5-.13.85-.63.83-.87,0-.02.09-.23.05-.55-.02-.32-.27-.72-.66-.94-.38-.23-.88-.2-1.17-.01-.3.18-.45.38-.46.37-.07,0-.14.03-.19.06-.03.02-.06.03-.09.06-.04.05-.09.11-.13.17-.16.23-.32.55-.39.73-.16.45-.21.95-.26,1.29-.04.2.02.34,0,.35-.3.08-.53.26-.51.25.03-.04-.13.14-.15.24l-.03.09c-.06.12-.03.07-.05.12-.02.05-.03.11-.05.17-.05.12-.11.26-.22.4-.23.3-.63.6-1.32.53-.34-.03-.75-.19-1.14-.46-.34-.31-.6-.72-.79-1.19-.4-1-.08-2.43.39-3.46.11-.26.25-.55.37-.79.11-.23.23-.45.35-.68l.2-.37c.11-.14.19-.31.29-.46l.67-.87c.93-1.14,2.17-2.05,3.54-2.33.06,0,.67-.17,1.68-.09,1.01.07,2.37.48,3.81,1.36.7.46,1.39,1.07,1.97,1.85.58.77,1.02,1.73,1.14,2.79.4,2.07-.16,4.57-1.82,6.35-1.58,1.81-4.01,2.97-6.41,2.89-.59-.01-1.18-.07-1.75-.2-.28-.08-.57-.1-.85-.2-.27-.08-.5-.16-.74-.26-.94-.38-1.75-.88-2.45-1.43-1.41-1.08-2.28-2.46-2.72-3.55-.44-1.04-.57-1.73-.65-1.94-.1-.31-.08-.66-.09-.99-.09-1.97-.38-3.8.09-5.43.07-.23.03-.53,0-.78-.02-.18.45-1.77,1.13-3.26.66-1.51,1.54-2.91,1.62-3.14.4-1.25,1.13-2.26,2.17-3.32.76-.76,1.53-1.7,2.64-2.45.3-.2.6-.48.94-.6.84-.3,1.74-.5,2.61-.63.87-.09,1.74-.11,2.57-.02,1.65.18,3.18.7,4.47,1.53.81.51,1.49,1.17,2.11,1.89.61.71,1.15,1.57,1.55,2.32.39.71.81,1.39,1.1,2.12.46,1.16.73,2.32.94,3.44.1.53.24,1.04.32,1.55.09.58.25,1.21.15,1.7-.25,1.27-.02,2.48-.05,3.82-.05,1.7-.3,3.5-.88,5.35-.58,1.91-1.69,3.87-3.19,5.43-2.68,2.79-6.19,4.18-9.66,4.56-.83.1-1.67.11-2.5.09-.83-.04-1.65-.17-2.46-.34-1.63-.35-3.23-.93-4.75-1.79-2.32-1.26-4.48-3.41-5.54-5.81-.74-1.64-1.12-3.26-1.54-4.82-.08-.31-.13-.68-.11-.99.01-1.32-.33-7.75,2-13.47,1.07-2.86,2.58-5.49,3.96-7.41,1.37-1.93,2.61-3.15,2.94-3.5.66-.64,1.99-2.15,3.64-3.25,1.72-1.03,3.64-1.28,3.92-1.14.56.23.97.46,1.17.69.12.14-.13.37-.24.6-.11.21-.64.48-1.25.9-.43.28-.72.78-1.12,1.19Z"/><path class="cls-1" d="M216.58,62.4c-.14.48-.49.87-.45,1.42,0,.06-.01.13-.03.19l-.19.81c-.04.17-.06.35-.13.5-.15.28-.1.62-.08.94.03.51.15.99.1,1.42-.03.24.06.48-.18.68-.05.04-.01.12.03.18.28.42.42.77.51,1.13.06.23.17.44.31.61.03.04.09.1.05.08-.02,0,.03,0,.02.02.01.02.02.04.02.06.03.1.11.02.05.39-.01.14.04.15.09.1.06-.04.11-.17.14-.12.03.05.08.09.12.09.04,0,.08-.03.07-.14-.07-.4-.01-.52.21-.72.22-.19.45-.44.61-.74.05-.07-.05-.19-.08-.28-.25-.51.17-.77.16-1.21,0-.15-.13-.29-.29-.39-.24-.14-.21-.43-.34-.65-.17-.28-.36-.59-.58-.83-.01-.02-.03-.03-.03-.05h0s.04-.12.04-.12c.05-.15.09-.29.13-.42.07-.26.11-.5.12-.66v-.11s0,.04,0,.04v.08c.02.15.13.53.33.91.07.13.03.07.04.08,0,0-.01,0-.02,0-.01,0-.03.02-.04.03-.03.03-.22.1-.47.31-.25.21-.42.42-.4.52,0,0-.05.09-.08.16-.01.02-.02.04-.04.07h0s-.13-.02-.13-.02c-.07-.01-.17-.01-.21-.02h-.11s0,0,0,0l-.8.1h0s.03,0,.03,0h.05s.09-.03.09-.03c.12-.03.22-.08.26-.11.09-.06.04-.02.04-.02-.06.04-.32.38-.36.67-.02.07-.02.13-.02.17,0,.03,0,.02,0,.04,0,0,0-.02,0-.03h0s-.02-.06.02.05c.06.15.13.33.21.55.37.95.41,2.05-.52,2.81-.46.37-1.29.37-1.83.13-.55-.22-1.13-.42-1.68-.73-.56-.3-1.06-.76-1.34-1.38-.01-.03-.13-.3-.24-.81-.12-.58-.16-1.18-.08-1.88.14-1.44.89-2.87,1.69-3.84.41-.5.81-.91,1.29-1.34.48-.42,1.03-.81,1.61-1.11,1.19-.64,2.5-.69,2.69-.72.16-.03.34.05.5.09.96.23,1.87.12,2.42.53.08.06.22.03.34.01.09-.01.63.37,1.09.82.47.45.87.94.96.97.53.17.82.59,1.03,1.06.15.34.48.58.71.89.06.08.21.13.22.24.14,1,.86,1.72,1.12,2.72.16.62,0,1.27-.05,1.88-.04.28.05.57.03.85-.03.45-.13.89-.23,1.32-.04.21-.04.42-.09.63-.05.23-.05.52-.24.67-.5.37-.57.9-.86,1.36-.36.58-.84,1.09-1.33,1.57-.52.49-1.09.93-1.74,1.35-1.14.69-2.7,1.35-4.2,1.22-.47-.03-.94-.13-1.4-.24-.91-.32-1.77-.8-2.48-1.51-.79-.81-1.54-1.8-1.69-3.03-.14-.69-.13-1.18-.29-1.72-.03-.11-.03-.23.01-.34.09-.23.12-.91.25-1.75.13-.84.38-1.83.74-2.75.71-1.84,1.78-3.26,1.96-3.49.31-.46,1.34-1.94,1.69-1.87.31.05.59.12.84.23.15.07.25.23.37.37.11.13.08.33-.01.55-.07.15,0,.38-.06.55Z"/><path class="cls-1" d="M227.16,54.77c-.35.4-.98.79-1.01,1.58,0,.09-.05.18-.08.26-.15.38-.29.77-.41,1.18-.08.26-.13.55-.27.79-.26.48-.22,1.01-.2,1.5.01.79.19,1.44.21,1.94,0,.29.17.48-.06.8-.04.07.03.13.1.16.49.24.8.47,1.19.8.47.45,1.22.68,1.9.79.65.13,1.35-.04,2.11.21.65.21,1.09-.41,1.67-.51.31-.05.63-.11.94-.23.28-.11.52-.22.7-.44.68-.8,1.35-1.3,1.81-1.69.5-.44.62-.59.68-.83.01-.08-.12-.17-.21-.28-.25-.3-.47-.95-.67-1.47-.2-.55-.43-1.12-.78-1.58-.26-.33-.62-.55-.96-.65-.51-.14-.76-.43-1.05-.48-.09-.02-.18-.03-.27-.04-.08-.01-.14-.02-.23-.02-.17,0-.4.06-.63.17-.14.06-.48.32-.68.65-.21.32-.23.6-.22.75.02.1-.03.4.02.81.04.4.25.8.41.88.03.03.38.55.94.81.29.12.64.27.93.35.29.08.51.09.52.1.49.49.87.06,1.31.05.16.04.32.05.48.07.59.08.89.18,1.37.85.54.74.8,1.68.55,2.85-.1.66-.76.98-1.29,1.29-1.06.56-2.26,1.52-3.69,1.59-.03,0-.34,0-.86-.05-.52-.07-1.24-.23-2.08-.57-1.71-.65-3.67-2.21-4.77-4.24-.56-1.01-.98-2.12-1.14-3.24-.15-1.12-.09-2.23.11-3.17.42-1.92,1.22-2.98,1.29-3.21.06-.17.25-.28.38-.41.78-.79,1.25-1.95,2.32-2.49.15-.07.26-.26.37-.42.07-.11,1.13-.62,2.32-.84.59-.11,1.2-.16,1.67-.16.46,0,.79.02.88,0,.91-.24,1.84-.02,2.64.38.3.13.61.24.91.35.32.09.63.2.91.33.16.07.38.07.49.19,1.14,1.14,2.46,1.79,3.43,2.9.58.69.89,1.55,1.24,2.35.16.37.43.69.58,1.06.27.61.44,1.17.63,1.85.09.31.23.63.31.97.09.39.25.85.13,1.25-.29.99-.24,2.06-.58,3.06-.42,1.29-1.19,2.33-1.97,3.16-.82.87-1.71,1.5-2.57,2.05-1.54.98-3.12,1.64-4.66,2.1-1.5.44-3.15.72-4.91.69-.67-.01-1.37-.05-2.06-.17-.71-.12-1.43-.32-2.08-.63-.9-.43-1.7-.96-2.59-1.45-.17-.1-.34-.27-.44-.45-.2-.38-1.11-1.29-1.86-2.88-.79-1.61-1.01-3.83-.65-5.6.34-1.81,1.01-3.24,1.58-4.35.59-1.13,1.18-1.92,1.36-2.13.33-.4,1-1.39,2.02-2.1.99-.74,2.24-.95,2.43-.71.41.43.69.9.83,1.38.08.3-.01.64-.01.97-.01.3-.19.47-.42.62-.17.1-.18.44-.33.58Z"/><path class="cls-1" d="M234.54,64.06c-.02.27-.21.42,0,.78.03.04.03.08.04.11.03.14.08.28.13.41.03.08.08.17.06.23-.06.12.16.3.24.44.04.05.08.11.11.16.01.03.04,0,.05.01.02,0,.02,0-.04,0-.06.02-.02,0-.31.13-.06.03-.03.03,0,.03.19-.04.19-.05.13.05-.06.13.03.11.04.18.02.07.08-.05.04.38,0,.37.12-.15.14-.06.02.05.05.12.07.13.02,0,.05-.01.05-.15,0-.14-.01-.25-.02-.34,0-.15-.02-.2.03-.14.06.06.16.13.23.12.02,0-.07-.1-.11-.15-.29-.26.06-.02.18-.12.04-.02-.03-.06-.12-.08-.14-.02.03-.05.07-.11.05-.06.14-.18.18-.34.05-.09-.09-.41-.18-.43-.11,0-.06-.42-.16-.41,0,0-.12-.16-.36-.24-.23-.08-.49-.05-.51-.06-.34-.18-.28.03-.45.04-.05,0-.07.03-.12.05-.17.04-.38.04-.96-.15-.66-.21-1.21-.54-1.5-1.05-.16-.26-.06-.57.03-.81.17-.49.18-1.25.58-1.71.02-.01.36-.37.97-.74.61-.38,1.53-.76,2.61-.82.55,0,1.06.07,1.53.19.42.16.82.28,1.16.44.68.3,1.13.62,1.23.65.08.02.1.12.15.18.28.38.98.38,1.23.83.03.06.16.07.27.09.08,0,.33.45.49.92.18.47.28.95.35,1,.4.27.45.68.43,1.08-.01.29.18.57.26.87.02.08.13.16.1.24-.3.76.11,1.52.04,2.33-.04.49-.37.89-.58,1.31-.09.19-.08.44-.16.64-.13.32-.3.62-.46.93-.08.14-.12.31-.2.46-.1.15-.15.38-.35.41-.5.07-.65.45-.9.76-.36.35-.8.57-1.23.8-.22.13-.43.26-.67.33-.24.07-.45.22-.7.27-.22.08-.45.1-.66.23l-.98.1c-.33,0-.66.12-.98.02-.83-.18-1.64-.34-2.36-.86-.55-.36-1.14-.7-1.54-1.35-.27-.44-.46-.91-.8-1.26-.07-.07-.12-.18-.11-.31,0-.14-.04-.36-.12-.64-.01-.32,0-.77-.09-1.16-.09-.4-.12-.88-.14-1.37-.04-.25.03-.5.1-.76.08-.27.07-.5.11-.76-.01-.06.03-.12.09-.18l.04-.19.07-.28c.06-.18.1-.35.18-.51.18-.32.38-.61.57-.84.37-.48.73-.77.83-.85.18-.15.55-.51.98-.72.42-.22.86-.27.98-.17.23.19.41.37.55.56.08.12.11.28.17.44.05.14.02.28-.03.4-.04.09.02.28,0,.38Z"/><path class="cls-1" d="M224.9,91.89c-.44-.45-.52-1.07-1.16-1.47-.07-.05-.11-.13-.14-.2-.15-.32-.3-.65-.42-.99-.08-.22-.18-.44-.17-.66.02-.44-.25-.8-.43-1.21-.29-.64-.56-1.33-.51-2.04.03-.38-.08-.77.3-1.11.08-.07.03-.2,0-.29-.29-.7-.31-1.35-.15-2.12.11-.48.17-.99.3-1.53.13-.47.38-1.22.73-1.8.57-1,1.33-2.07,2.45-2.35.12-.03.23-.07.33-.12.65-.27,1.12-.84,1.84-.93.43-.05.85-.06,1.27-.07.37-.02.76-.01,1.13-.1.34-.08.76-.1,1.06-.09.31,0,.62.05.92.11.58.13,1.17.4,1.62.66.98.57,1.71,1.2,2.34,1.69.05.04.1-.06.15-.1.11-.15.09-.15.11-.06.01.09.07.26.15.31.06.04.08-.06.05-.18-.06-.18.09,0,.17-.04.09-.02.26-.05.41-.18.02-.03.06-.03.08-.14.03-.18.04-.42.05-.65,0-.46-.04-.93-.09-1.11-.03-.27-.15-1.57-.45-1.84-.03-.02-.26-.63-.59-1.19-.4-.67-.49-.76-.48-.79.07-.11.09-.19.1-.22,0-.02,0-.04,0-.04h0s.06-.12.06-.12c.21-.35.33-.67.38-.9.03-.14.03-.24.03-.28,0-.09,0-.03,0,0-.08-.25-.16-.39-.28-.76-.11-.34-.2-.74-.15-1.3.03-.28.09-.61.23-.97.14-.25.35-.47.59-.64.53-.37,1.32-.16,1.79.05.98.4,2.09.55,2.71,1.24.09.1,1.37,1.96,2,4.14.68,2.16.7,4.44.76,4.66.03.08-.04.18-.06.27-.08.28.02.51.06.9.06.38.12.78.01,1.14-.03.1.04.25.1.38.04.09-.14.82-.44,1.48-.31.65-.67,1.24-.69,1.36-.04.65-.39,1.09-.83,1.41-.31.25-.52.63-.82.94-.08.08-.12.24-.23.27-1.03.29-1.83,1.04-2.89,1.19-.65.1-1.34-.17-1.98-.38-.29-.09-.6-.09-.9-.19-.48-.16-.95-.41-1.42-.65-.22-.12-.47-.18-.69-.31-.25-.13-.58-.23-.73-.47-.08-.15-.25-.32-.28-.38-.06-.07-.13-.13-.2-.17-.14-.09-.3-.14-.43-.22-.33-.21-.6-.44-.86-.6-.28-.17-.47-.28-.68-.33-.09-.02-.18-.03-.27-.04-.09,0-.06.02-.11.03-.05.03-.08.06-.11.1-.03.03-.05.05-.07.09-.02.02-.03.05-.03.09-.02.08.13.09,0,.16-.09.15-.31.34-.25.61,0,.05-.01.11-.09.15-.32.11-.71,1.49-.74,2.86-.06,1.39.21,2.78.24,3.01.01.44.38,1.91-.08,2.29-.45.35-.88.68-1.31.96-.27.17-.61.25-.93.36-.3.1-.54-.02-.74-.23-.12-.14-.52-.17-.67-.34Z"/><path class="cls-1" d="M235.67,74.89c-.28-.04-.48-.2-.8-.13-.04,0-.07,0-.11,0-.15,0-.3-.02-.44-.03-.09,0-.19,0-.26-.02-.14-.05-.32.04-.48.12-.26.12-.47.31-.59.36-.07.02-.14.14-.19-.05-.01-.04-.04,0-.05.05-.1.3-.13.46-.15.52,0,.01.01.08,0,.05-.03-.07-.06-.13-.09-.18-.05-.1-.13-.19-.15-.22l-.03-.03h0s-.17-.15-.17-.15h0s0,0,0,0h0s0,0,0,0c.02.01.06.03.12.06.09.03.22.06.33.06.06,0,.11,0,.16,0,.02,0,.04,0,.09-.01.08-.02-.02,0-.16.11-.07.05-.15.14-.19.19-.03.04-.04.06-.06.09h0s0,.02,0,.02h0s0,0,0,0h0s0,0,0,0l.11-.22h0s0,0,0,0h0s0-.03,0-.03c0-.02.02-.06.02-.08.07-.21,0-.58-.04-.63-.01-.03,0-.01.02.02.03.05.12.16.23.24.04.03.06.05.11.07h0s0,0,0,0h0s0,0,0,0c-.55-.31-.15-.09-.28-.15h0s0,0,0,0h0s.03.01.03.01l.05.03.13.06c.19.08.42.15.6.17.11.03.44-.01.24.02-.13.03-.36.2-.44.27-.06.05-.22.21-.3.33-.08.13-.07.13-.06.08,0,0,0-.01,0-.03,0-.01,0-.02.01-.04h0s0-.01,0-.01h0s0,0,0,0h0c-.18.61-.05.17-.09.31h0s0,0,0,0h0s-.05-.07-.13-.11c-.14-.08-.45-.13-.45-.15-.17-.55-.34-.31-.54-.52-.06-.06-.12-.07-.18-.13-.23-.28-.31-.56-.37-1.34-.07-.88-.06-1.76.06-2.46.06-.36.22-.49.36-.61.14-.12.28-.4.45-.62.17-.19.36-.37.56-.4.02,0,.35,0,.91.09.28.04.62.11,1,.22.4.12.84.3,1.24.53.81.45,1.55,1.13,2.03,1.87.49.74.67,1.45.74,1.56.05.08,0,.2,0,.31-.02.6.45,1.23.24,1.79-.03.08.05.19.11.28.04.07-.15.59-.4,1.01-.24.42-.56.78-.56.87.02.47-.28.75-.61.95-.24.15-.35.43-.53.66-.05.06-.05.19-.13.2-.76.14-1.1.84-1.77,1.17-.41.19-.91.1-1.35.11-.21,0-.4.13-.63.14-.34.03-.7-.01-1.06-.04-.17-.02-.35.02-.53,0-.2-.01-.45.02-.58-.16-.33-.47-.78-.45-1.23-.71-.55-.32-.97-.76-1.34-1.2-.37-.46-.69-.93-.9-1.45-.4-.89-.63-1.84-.57-2.88.02-.49.13-.99.3-1.49.18-.5.42-1.01.81-1.4.57-.64,1.17-1.09,1.88-1.28.48-.12.91-.14,1.28-.28.08-.03.17-.03.26.01.18.09.68.13,1.23.28.56.14,1.19.39,1.71.74,1,.7,1.53,1.48,1.63,1.59.2.22.76.97.72,1.13-.03.14-.05.26-.08.35-.02.05-.09.08-.15.12-.06.04-.17.03-.29,0-.08-.03-.21.01-.31-.01Z"/><path class="cls-1" d="M228.47,50.68c-.39.08-.66-.04-.88.53-.02.07-.05.1-.08.15-.13.18-.28.38-.41.63-.13.1-.24.26-.41.33-.35.16-.49.58-.66.93-.27.57-.44,1.16-.8,1.63-.2.26-.25.59-.69.71-.1.02-.1.15-.09.24.06.67-.04,1.21-.19,1.76-.03.24-.09.21-.09.25-.01.03-.02.06-.02.09,0,.06.02.11,0,.18-.02.15.11.06-.15.61-.18.51.25-.03.25.11v.03c.01.11.04.2.08.23.04.02.1.03.16-.16.21-.74.12-.79.24-.67.1.11.3.26.5.28.05,0-.1-.18-.18-.28-.25-.28-.25-.25-.08-.22.15.04.45.07.55,0,.08-.05-.08-.14-.29-.18-.32-.04.05-.11.08-.22.05-.12.17-.34.13-.58,0-.07-.1-.22-.26-.31-.16-.1-.37-.14-.45-.12-.06.01-.23-.04-.43-.01-.2.03-.41.13-.44.25,0,0-.08.06-.17.15-.04.01-.15.18-.25.3-.1.14-.2.29-.3.45-.2.31-.29.66-.45.9-.15.24-.2.42-.23.42-.59.27-.32.69-.46,1.04-.07.11-.11.23-.19.35-.22.41-.48.63-1.34.82-.96.22-1.94.15-2.84-.39-.51-.28-.58-.88-.68-1.37-.15-.98-.7-2.16-.49-3.25.03-.04.32-.9,1.02-2.02.19-.27.37-.58.61-.86.23-.3.48-.59.86-.96.69-.73,1.54-1.35,2.44-1.87.91-.48,1.87-.84,2.79-1,.92-.18,1.78-.16,2.51-.12,1.47.12,2.43.47,2.62.49.14.02.25.13.37.2.73.41,1.81.47,2.45,1.06.09.08.28.1.44.13.12.02.75.58,1.26,1.22.54.62.94,1.32,1.05,1.4.62.43.87,1.02,1.04,1.62.11.45.43.87.6,1.34.05.13.19.25.18.38-.06,1.2.43,2.41.28,3.66-.09.77-.54,1.44-.93,2.09-.18.3-.27.64-.47.93-.31.47-.69.88-1.09,1.28-.19.19-.33.41-.52.59-.22.2-.41.49-.73.55-.81.15-1.26.62-1.89.95-.81.41-1.67.71-2.55.97-.91.26-1.85.42-2.79.51-1.65.16-3.4-.12-4.85-.97l-.06-.04c-.67-.47-1.31-.96-1.84-1.59-.53-.64-.98-1.38-1.34-2.21-.27-.64-.52-1.31-.68-2.05-.05-.38-.1-.77-.16-1.15-.03-.39-.02-.8-.02-1.19.13-1.08.25-2.02.4-3.21.01-.15.06-.31.16-.42.21-.25.53-1.09,1.08-2.13.54-1.04,1.32-2.28,2.27-3.37.96-1.1,2-1.99,3.06-2.65,1.11-.6,2.24-.73,2.52-.74.3-.02.72-.07,1.32,0,.57.06,1.18.24,1.7.55,1.08.59,1.59,1.74,1.44,1.97-.21.45-.49.75-.79.92-.19.1-.44.07-.67.12-.22.04-.39-.02-.57-.07-.12-.05-.38.1-.5.12Z"/><path class="cls-1" d="M247.42,49.87c-.14.13-.34-.14-.43.27-.01.05-.03.06-.05.07-.08.05-.16.11-.24.15-.05.02-.1.08-.16.04-.13-.08-.18.11-.25.24-.11.2-.21.4-.38.4-.1,0-.15.1-.34-.17-.04-.06-.06-.02-.07.02-.07.28-.2.34-.39.35-.24,0-.38.21-.58.31-.17.08-.26.3-.57.16-.26-.12-.13.3-.27.34-.07.02-.16.03-.21.08-.05.04-.09.1-.08.21.05.44-.09.61-.29.74-.21.14-.43.26-.63.42-.05.04-.01.16,0,.24,0,.24-.1.38-.25.49-.17.09-.38.15-.54.26-.11.08-.16.22-.19.37-.04.23-.31.3-.48.45-.23.19-.5.36-.77.55-.17.11-.71.66-.81.82-.08.11-.61.56-.65.75,0,.01-.25.27-.5.52-.25.26-.49.51-.51.52-.37,0-.28.23-.45.33-.05.03-.08.07-.13.1-.18.09-.38.04-.93-.26-.63-.34-1.14-.7-1.48-1.04-.18-.17-.16-.3-.16-.42,0-.24-.3-.63-.28-.86,0-.01.06-.18.15-.44.11-.25.19-.61.39-.92.36-.63.75-1.28.74-1.38,0-.04.05-.04.08-.05.17-.11-.04-.46.12-.57.02-.02-.02-.08-.06-.14-.05-.08.54-.52.5-.6-.1-.25.01-.34.15-.42.1-.06.07-.22.1-.34,0-.03-.04-.11,0-.12.37-.08.24-.53.35-.81.07-.17.31-.22.44-.34.06-.06.06-.17.11-.23.08-.11.19-.19.27-.3.04-.05.05-.13.08-.19.04-.06.03-.18.16-.15.31.07.32-.15.44-.26.15-.15.34-.26.51-.39.18-.14.36-.26.53-.41.29-.27.57-.56.88-.81.29-.24.62-.45.94-.67.25-.16.46-.39.77-.46.21-.04.41-.08.55-.26.03-.04.07-.05.13-.02.23.12,1.01-.22,1.88-.3.84-.14,1.69-.16,1.83-.14.13.02.41-.09.68-.1.27,0,.51.07.55.4.07.61.12,1.23.14,1.85.01.38-.02.79-.03,1.19-.01.37-.07.52-.15.56-.05.02-.09.36-.14.38Z"/><path class="cls-1" d="M265.09,99.25c-.08-.36-.17-.71-.16-1.07,0-.13-.05-.24-.04-.37.05-.46.15-.89.26-1.28.04-.18.06-.35.07-.52.02-.22.01-.46.22-.63.06-.05.33.04.59.16.26.12.55.27.56.36.07.33.12.61,0,.94-.08.2.09.38.15.57.07.2.11.42.17.64.04.13.08.27.14.39.1.18.17.4.34.53.13.11.36.07.51.12.03.01.08,0,.11.02.1.06.05.2-.19.68l-.16.33c-.19.36-.42.62-.63.67-.64.16-1.1-.15-1.44-.51-.27-.27-.41-.63-.55-.97l.05-.03Z"/><path class="cls-1" d="M208.51,116.26c1.04-.17,2.15-.04,3.16.27.36.13.75.2,1.08.38,1.18.63,1.91,1.43,2.89,1.9.43.22.89.37,1.35.5.6.14,1.2.31,1.83.44.19.05.17.1,0,.19-.17.09-.49.26-.88.32-1.38.19-2.83-.09-4.07-.74-.72-.39-1.45-.67-2.09-.81-.71-.19-1.44-.21-2.21-.13-.47.03-.95.13-1.43.28-.72.23-1.45.53-2.12.93-.53.31-.93.8-1.41,1.17-.11.08-.2.18-.32.25-.44.25-.7.18-1.07-.14-.09-.07-.18-.14-.25-.22-.25-.25-.27-.63-.09-1.05.55-1.19,1.56-1.96,2.7-2.65.88-.44,1.86-.76,2.91-.96l.02.06Z"/><path class="cls-1" d="M207.81,117.48c1.53-.26,3.11-.21,4.63.01.55.08,1.11.14,1.65.29,1.94.54,3.49,1.59,5.1,2.23.72.3,1.46.48,2.2.54.95.1,1.9.11,2.85-.17.29-.09.32.02.16.3-.17.26-.57.74-1.21.99-.56.2-1.15.34-1.74.38-.59,0-1.16-.08-1.73-.2-1.12-.24-2.14-.66-3.08-1.1-1.14-.55-2.33-.79-3.49-.95-1.28-.19-2.61-.19-3.91,0-.81.1-1.62.26-2.41.5-1.2.37-2.38.85-3.44,1.54-.82.53-1.52,1.2-2.22,1.85-.15.15-.28.31-.44.45-.63.48-.91.55-1.38.35-.11-.05-.22-.08-.31-.13-.31-.18-.3-.63,0-1.24.95-1.72,2.52-3.18,4.37-4.13,1.37-.73,2.85-1.24,4.39-1.58l.02.06Z"/><path class="cls-1" d="M202.78,121.06c1.24-.87,2.6-1.66,4.09-2.18.54-.2,1.09-.38,1.65-.5,2.01-.37,4-.14,5.85.32.82.21,1.66.34,2.44.64,1.01.34,1.99.77,2.98,1.13.3.13.22.25-.09.31-.31.07-.84.05-1.44-.04l-1.62-.14-.8-.07-.77-.15c-1.02-.2-2.03-.37-3.04-.49-1.22-.19-2.48.01-3.66.33-1.3.34-2.54.98-3.7,1.76-.72.48-1.42,1.02-2.1,1.58-1.03.86-2.08,1.75-3.07,2.67-.77.71-1.48,1.46-2.23,2.18-.17.16-.32.33-.5.46-.68.52-.96.61-1.35.45-.09-.03-.18-.05-.24-.09-.21-.12-.15-.56.22-1.09.51-.82,1.15-1.53,1.79-2.27.62-.76,1.36-1.4,2.1-2.04,1.09-.95,2.23-1.91,3.46-2.82l.03.04Z"/><path class="cls-1" d="M187.7,162.65c.26-1.33.58-2.65.83-3.99.1-.49.13-.98.22-1.47.33-1.72.64-3.45.85-5.18.08-.78.16-1.55.24-2.32.05-.49.04-.99.17-1.48.1-.49.22-.99.26-1.48.04-.31.16-.26.3,0,.07.13.14.32.2.55.08.23.21.5.28.79.16.52.19,1.03.22,1.55.04.51.05,1.03.06,1.54-.08,1.02-.2,2.05-.4,3.07-.23,1.22-.27,2.5-.43,3.76-.19,1.37-.4,2.75-.68,4.11l-.52,2.51c-.28,1.26-.56,2.53-.84,3.78-.22.97-.31,1.95-.54,2.91-.05.21-.09.42-.16.63-.24.78-.42,1-.79,1.08-.08.02-.17.05-.24.06-.26.01-.39-.36-.38-.96-.04-1.8.24-3.61.52-5.42.26-1.34.52-2.68.78-4.02h.05Z"/><path class="cls-1" d="M192.37,147.48c-.12.13-.31.25-.46.4-.06.05-.07.12-.12.18-.19.2-.37.43-.47.69-.05.11-.06.24-.07.36,0,.15.03.3-.06.47-.04.1-.69.05-.78-.17-.11-.38-.13-.79.04-1.15.1-.21.08-.46.15-.69.08-.25.18-.49.34-.7.1-.13.2-.25.3-.38.15-.19.33-.35.47-.54.11-.15.16-.36.25-.54.02-.04.03-.09.07-.11.14-.08.25-.02.51.27l.17.19c.18.22.29.45.31.6.06.45-.11.56-.25.76-.11.13-.25.25-.36.39l-.03-.02Z"/><path class="cls-1" d="M234.8,195.41c-.51-1.76-1-3.53-1.45-5.3-.17-.64-.4-1.27-.55-1.92-.5-2.3-.85-4.63-1.25-6.94-.17-1.03-.42-2.04-.6-3.05-.11-.65-.24-1.3-.34-1.96-.07-.66-.07-1.34-.07-2,0-.42.16-.39.44-.09.28.3.79.85,1.13,1.55.97,2.53,1.55,5.11,2.02,7.76.26,1.59.9,3.15,1.3,4.74.47,1.74.94,3.49,1.47,5.22.32,1.07.67,2.13,1.02,3.18.52,1.6,1.06,3.22,1.72,4.76.54,1.19,1.14,2.32,1.67,3.49.12.26.25.5.35.77.37.99.38,1.37.13,1.74-.06.08-.1.18-.16.24-.18.2-.63-.06-1.14-.69-.8-.91-1.45-1.93-2.13-2.97-.62-1.06-1.14-2.19-1.65-3.32-.75-1.69-1.44-3.41-1.99-5.18l.06-.02Z"/><path class="cls-1" d="M256.92,150.52c.38-2.12.82-4.22,1.35-6.3.17-.76.35-1.52.57-2.27.8-2.64,1.71-5.24,2.73-7.78.43-1.14.91-2.27,1.35-3.39l.91-2.14c.35-.69.75-1.36,1.15-2.03.25-.41.32-.31.31.13-.03.44-.08,1.23-.32,2.09-1.03,2.93-2.06,5.85-3.11,8.84-.65,1.77-1.03,3.69-1.47,5.56l-.7,3.09c-.19,1.04-.43,2.07-.59,3.12-.22,1.28-.42,2.57-.56,3.87-.23,1.96-.4,3.94-.44,5.9.01,1.52.12,3.02.2,4.51.02.33.04.65.07.99-.02,1.24-.16,1.64-.57,1.93-.09.07-.18.15-.27.19-.3.14-.6-.35-.85-1.27-.2-.68-.32-1.37-.4-2.07-.09-.7-.19-1.41-.24-2.13-.07-1.44-.01-2.9.08-4.35.14-2.17.42-4.33.76-6.48h.05Z"/><path class="cls-1" d="M313.29,151.33c-.38-.32-.7-.79-.87-1.18-.07-.15-.18-.26-.23-.41-.18-.53-.13-1.08-.12-1.54,0-.21-.02-.41-.05-.6-.04-.25-.1-.49.03-.75.04-.08.31-.09.6-.05.28.04.6.12.66.23.2.42.37.78.35,1.18,0,.25.19.41.28.59.11.21.21.39.35.54.09.1.19.2.31.27.18.1.39.21.59.17.16-.05.25-.21.31-.31.01-.02.01-.06.04-.06.08,0,.19.12.55.48l.24.24c.27.26.42.57.33.86-.11.45-.46.72-.82.91-.38.16-.78.16-1.15.1-.55-.08-1.02-.34-1.44-.64l.03-.05Z"/><path class="cls-1" d="M316.53,149.85c-.62.27-1.38.48-2.23.32-.3-.06-.62-.12-.87-.29-.9-.65-1.09-1.39-1.32-1.96-.11-.26-.26-.5-.41-.73-.17-.31-.36-.61-.4-1.01-.01-.13.18-.24.45-.31.26-.07.64-.11.83,0,.16.11.33.21.48.33.15.12.25.27.37.41.21.28.44.61.51.92.1.39.37.5.48.56.13.09.4.14.75.02.21-.07.43-.18.63-.32.29-.21.64-.53.93-.89.24-.27.4-.65.71-.97.07-.06.14-.14.22-.19.33-.18.53-.09.79.32.06.09.12.19.17.28.17.33.2.66.17.87-.03.17-.05.31-.07.45-.04.12-.08.25-.14.37-.11.25-.27.5-.52.74-.34.35-.89.82-1.5,1.14l-.03-.05Z"/><path class="cls-1" d="M321.1,143c-.54.61-1.03,1.3-1.53,2.02-.18.26-.33.55-.52.81-.7.92-1.49,1.83-2.42,2.54-.42.31-.85.61-1.32.84-.59.3-1.26.5-1.92.46-.41-.02.11-.34.7-.66,1.09-.52,1.87-1.41,2.73-2.27.51-.53.84-1.25,1.24-1.92.44-.74.88-1.51,1.39-2.26.31-.46.65-.91,1.03-1.35.57-.65,1.26-1.26,2.11-1.66.65-.31,1.44-.54,2.25-.41.18.03.36.06.54.13.66.3.76.63.45,1.07-.06.1-.12.19-.19.27-.22.22-.65.38-.85.35-.34-.03-.68,0-1,.09-.3.08-.64.24-1.01.46-.55.34-1.12.88-1.63,1.51l-.03-.02Z"/><path class="cls-1" d="M348.76,131.28c-.5,1.39-1.22,2.81-2.37,3.94-.41.41-.83.82-1.32,1.11-1.73,1.04-3.67,1.34-5.48,1.31-.81-.02-1.6,0-2.38-.09-.5-.07-.99-.14-1.48-.24-.49-.07-.95-.35-1.41-.53-.29-.14-.24-.18.04-.32.2-.1.4-.2.58-.29.14-.07.27-.13.38-.19.07-.03.14-.05.21-.1.07,0,.14-.02.21-.02,2.01-.3,3.8-.04,5.58-.29,1.08-.12,2.09-.67,2.89-1.31.9-.68,1.56-1.68,2.02-2.85.28-.71.51-1.47.65-2.24.2-1.16.31-2.38.15-3.55-.12-.92-.47-1.77-.83-2.58-.09-.18-.19-.34-.26-.53-.29-.67-.27-.93.21-1.35.11-.09.21-.2.32-.28.36-.27.89-.16,1.27.36,1.14,1.54,1.71,3.56,1.79,5.59.06,1.51-.25,3.03-.7,4.46h-.06Z"/><path class="cls-1" d="M348.21,128.11c-.21,1.81-1.02,3.31-1.98,4.57-.37.45-.7.93-1.15,1.3-1.58,1.36-3.42,2.06-5.24,2.47-.81.18-1.61.35-2.4.5-1.02.17-2.05.21-3.08.16-.32-.02-.3-.14-.06-.35.24-.2.69-.57,1.23-.8.49-.19.96-.4,1.44-.57l1.42-.43c.9-.3,1.81-.6,2.74-.91,1.1-.39,1.99-1.15,2.71-1.99.82-.91,1.44-2.04,1.64-3.21.13-.72.11-1.44-.07-2.12-.28-1.02-1-1.92-2.02-2.38-.79-.36-1.67-.3-2.41-.19-.16.04-.32.08-.48.13-.58.14-.81,0-1.27-.54-.1-.13-.22-.25-.32-.37-.32-.4-.23-1.03.46-1.49,1.01-.62,2.29-.88,3.53-.7,1.22.23,2.41.8,3.36,1.7.71.66,1.29,1.52,1.63,2.45.34.91.48,1.88.39,2.8h-.07Z"/><path class="cls-1" d="M312.43,173.94c-.45.02-.91.06-1.36.15-.17.03-.31.12-.47.16-.57.15-1.18.26-1.75.5-.26.1-.48.27-.69.42-.27.22-.5.48-.85.61-.11.04-.3-.16-.42-.42-.12-.26-.19-.61-.05-.8.52-.63,1.17-1.17,1.96-1.43.46-.17.9-.41,1.37-.57.52-.16,1.06-.27,1.59-.34.33-.05.66-.07.99-.09.5-.04,1,0,1.49-.03.38,0,.77-.11,1.16-.13.09,0,.17-.03.26-.02.08,0,.15.02.2.04.05.04.08.12.11.18.05.13.06.28.05.48,0,.09,0,.17,0,.25-.03.25-.2.51-.44.74-.63.22-1.2.24-1.8.26-.44,0-.89,0-1.33.06v-.04Z"/><path class="cls-1" d="M314.22,172.44c-.1-.03-.21-.06-.31-.07-.04,0-.06.02-.1.01-.13-.04-.27-.09-.4-.11-.06-.01-.1.01-.15.05-.06.04-.1.14-.2.03-.06-.07-.34-1.2-.28-1.24.12-.07.26-.07.44.05.11.07.17,0,.26-.01.09,0,.19,0,.29.01.06,0,.12,0,.18,0,.09,0,.18,0,.26-.04.06-.04.09-.15.13-.24,0-.02.01-.05.03-.06.04-.04.09.05.21.41l.08.25c.09.29.14.53.13.62-.04.27-.15.33-.27.36-.09.02-.19,0-.29,0v-.03Z"/><path class="cls-1" d="M304.79,164.42c.14-.44.24-.89.31-1.38.03-.18,0-.36.03-.54.05-.32.09-.65.16-.97.08-.33.16-.66.24-.98.06-.3.12-.58.18-.87.08-.37.17-.75.4-1.07.07-.1.19-.04.29.1.1.14.23.35.22.55-.04.7.03,1.39-.07,2.11-.06.43-.02.9-.03,1.36-.02.51-.07,1.04-.16,1.57-.05.32-.13.65-.21.97-.13.49-.32.96-.52,1.44-.18.35-.29.77-.57,1.09-.06.07-.12.14-.2.19-.28.21-.45.17-.68-.01-.05-.04-.11-.08-.15-.13-.15-.15-.17-.38-.13-.6.03-.17.05-.32.06-.48,0-.16.06-.26.09-.39.07-.25.14-.5.26-.74.16-.37.32-.78.43-1.22h.04Z"/><path class="cls-1" d="M292.87,182.13c-.08-.86-.06-1.72.09-2.6.05-.31.07-.63.16-.94.32-1.07.85-2.07,1.58-2.87.31-.37.64-.71.99-1.02.45-.4.99-.74,1.59-.85.19-.04.21.13.15.35-.07.22-.2.53-.41.72-.77.69-1.23,1.56-1.74,2.45-.34.53-.43,1.19-.52,1.82-.11.69-.1,1.39-.06,2.12.03.45.09.9.19,1.34.15.68.33,1.36.62,2,.23.5.58.93.9,1.38.07.1.16.19.22.29.14.43.05.63-.33.93-.09.07-.17.14-.26.2-.3.19-.66.16-.99-.06-.26-.16-.42-.36-.58-.58-.16-.21-.3-.44-.43-.68-.26-.47-.48-.99-.66-1.52-.27-.79-.46-1.63-.57-2.49h.05Z"/><path class="cls-1" d="M288.38,176.46c-.58-.04-1.21,0-1.87.14-.24.05-.46.16-.71.23-.86.25-1.72.64-2.6.99-.39.16-.76.36-1.13.55-.47.25-.94.5-1.45.68-.16.06-.19-.05-.13-.23.06-.18.2-.45.44-.64.87-.67,1.72-1.35,2.73-1.8.61-.27,1.18-.68,1.83-.97.71-.3,1.49-.58,2.31-.61.5-.03,1.02,0,1.53.12.77.18,1.45.57,2.06,1.05.47.37.95.79,1.27,1.41.08.13.14.27.18.42.12.57-.1.78-.53.84-.1.02-.2.03-.3.04-.34,0-.61-.19-.78-.37-.39-.51-.75-.94-1.38-1.32-.45-.27-.94-.46-1.49-.48v-.04Z"/><path class="cls-1" d="M206.96,394.94c0-1.39.17-2.83.72-4.22.2-.5.4-1.02.72-1.48.57-.81,1.33-1.49,2.18-1.93.85-.47,1.78-.66,2.67-.75.39-.04.79-.07,1.17-.09.39,0,.77.02,1.15.05.97.07,1.92.26,2.84.52.29.08.24.12-.01.2-.26.07-.73.25-1.27.36-.96.14-1.88.39-2.74.57-.87.1-1.66.32-2.44.56-.95.29-1.65,1.07-2.11,1.95-.54.97-.8,2.17-.9,3.39-.06.76-.05,1.54,0,2.32.11,1.22.23,2.44.34,3.65.09.96.24,1.91.19,2.92,0,.22-.04.44-.1.65-.21.81-.49,1.01-.88,1.05-.09,0-.18.03-.26.02-.26-.02-.4-.4-.44-.93-.09-.79-.13-1.54-.19-2.33-.07-.79-.17-1.61-.29-2.46-.17-1.25-.37-2.6-.4-4.01h.05Z"/><path class="cls-1" d="M208.13,397.59c.14-1.27.34-2.55.7-3.82.12-.46.23-.93.4-1.38.62-1.59,1.65-3.06,2.96-4.12.59-.46,1.2-.92,1.9-1.19.87-.39,1.87-.55,2.8-.39.29.05.24.13,0,.26-.24.12-.64.35-1.07.56-.79.31-1.38.91-2.04,1.36-.62.51-1.21,1.08-1.77,1.7-.68.76-1.02,1.78-1.32,2.8-.33,1.12-.53,2.3-.63,3.51-.06.74-.12,1.5-.15,2.25-.04,1.15-.09,2.32-.06,3.47.02.89.16,1.77.24,2.65.02.19.06.38.06.58.03.73-.08.96-.62,1.11-.11.04-.22.08-.32.1-.32.07-.76-.23-.85-.76-.34-1.58-.39-3.24-.39-4.92,0-1.24.04-2.49.11-3.78h.05Z"/><path class="cls-1" d="M272.43,376.44c-.53-.02-1.06-.05-1.58-.07-.19,0-.38.06-.57.04-.68-.04-1.36-.11-2.04-.13-.3-.01-.59.05-.88.1-.19.03-.37.08-.56.09-.09,0-.19,0-.29,0-.03-.01-.05.02-.08-.04-.03-.06-.06-.11-.09-.17-.06-.1-.11-.09-.16-.14-.13-.11-.13-.28-.07-.59.03-.18.09-.27.12-.75.05-.31.15-.37.25-.43.74-.3,1.53-.24,2.33-.05.48.12.95-.03,1.43-.04.52,0,1.06,0,1.58,0,.32,0,.65,0,.97-.01.49-.02.98,0,1.46-.1.37-.07.72-.27,1.08-.42.08-.03.15-.09.23-.11.31-.02.42.14.55.71l.09.37c.07.4,0,.83-.21,1.02-.61.55-1.31.63-2.01.71-.52.05-1.05.05-1.58.07v-.06Z"/><path class="cls-1" d="M264.96,381.84c.15-1.08.46-2.15.92-3.17.17-.37.29-.77.52-1.11.78-1.22,1.98-2.3,3.35-2.71.6-.2,1.21-.37,1.83-.43.79-.08,1.67-.02,2.34.47.21.15.03.39-.25.6-.29.21-.65.45-.96.47-1.16.04-2.12.67-3.16,1.2-.64.33-1.02,1.05-1.36,1.74-.39.76-.66,1.62-.82,2.52-.1.55-.18,1.12-.19,1.7-.03.88-.02,1.79.11,2.68.09.7.37,1.36.49,2.07.02.16.06.31.07.47-.01.6-.26.81-.68.96-.1.03-.18.08-.26.1-.24.07-.64-.14-.93-.53-.38-.58-.62-1.18-.75-1.82-.15-.64-.25-1.3-.31-2-.1-1.02-.1-2.1,0-3.2h.06Z"/><path class="cls-1" d="M252.71,321.76c-.29.33-.59.63-.9.91-.11.1-.19.24-.32.32-.46.3-.94.54-1.41.76-.2.1-.4.22-.59.34-.25.14-.51.27-.83.25-.1,0-.17-.2-.19-.44-.02-.24-.03-.54.07-.65.17-.21.35-.37.55-.5.2-.14.41-.25.64-.36.29-.12.44-.41.65-.63.24-.23.49-.47.7-.73.14-.16.27-.33.38-.51.17-.27.34-.55.45-.85.07-.24.02-.5.09-.73.01-.05.01-.1.03-.16.07-.19.19-.23.52-.23h.23c.25.01.45.13.54.33.13.29.26.6.28.91-.01.3-.07.59-.16.87-.15.41-.42.77-.67,1.13l-.04-.02Z"/><path class="cls-1" d="M250.62,324.4c.06-.17.12-.35.17-.52.02-.06,0-.13.02-.19.07-.22.16-.44.21-.67.02-.1.02-.2.01-.29-.01-.13-.07-.25.04-.38.06-.08.89.02.93.17.05.26.04.51-.08.77-.07.15-.01.32-.02.47-.01.17-.04.35-.06.52-.01.11-.03.22-.04.32-.01.16-.04.32-.02.49.03.12.09.25.14.37,0,.03.03.05.03.08,0,.1-.08.13-.4.16h-.22c-.25.02-.46-.02-.54-.09-.25-.22-.37-.45-.31-.69.02-.17.07-.35.11-.52h.03Z"/><path class="cls-1" d="M312.3,176.54c.08-.42.15-.89.14-1.24,0-.14-.06-.27-.09-.41-.11-.48-.22-1.07-.6-1.48-.16-.18-.38-.31-.6-.38-.29-.09-.6-.09-.91,0-.1.02-.12-.03-.06-.13.05-.1.2-.25.42-.31.4-.09.83-.02,1.19.16.36.18.7.4.95.71.3.36.62.75.75,1.23.18.53.17,1.07.16,1.54,0,.3-.03.59-.06.88-.04.43-.1.86-.06,1.27.05.32.13.6.19.89.02.06.03.13.05.18.04.24,0,.34-.19.48l-.12.1c-.12.09-.32.06-.5-.12-.25-.26-.48-.58-.65-.93-.13-.35-.13-.71-.14-1.04,0-.5.02-.98.09-1.42h.03Z"/><path class="cls-1" d="M192.1,222.19s-7.49,63.66-9.12,69.29c-1.62,5.63-2.66,57.21-2.33,64.36.33,7.15,2.33,26.8,2.33,26.8,0,0,1.94,5.33,12.22,5.25,10.28-.08,34.47-1.44,34.47-1.44l-.59-28.37.59-62.55,1.29-6.73s-4.96-10.66-3.94-12.47,18.49,27.15,18.49,27.15l9.46,10.6s-9.31,36.11-9.46,39.12c-.15,3.01,1.91,19.25,1.91,19.25,0,0,12.62.07,15.53.76,2.92.69,26.75-2.52,26.41-3.74-.34-1.21.4-48.65.4-48.65l-2.13-35.76-19.45-26.6-18.23-22.36-.55-16.97-35.62,1.67-21.7,1.38Z"/><path class="cls-1" d="M218.4,411.13c.68.86,1.29,1.78,1.82,2.74l1.34,2.6c.42.77.86,1.42,1.35,1.86.1.09.29.24.33.27.01.02.08.06.12.08.1.05.22.08.34.07.18-.01.3-.19.3-.36,0-.09,0-.17-.01-.26l-.12-.89c-.32-2.34-.97-4.65-1.94-6.84-.48-1.09-1.04-2.16-1.68-3.18-.63-1.02-1.38-2-2.13-3.05-1.31-1.84-2.74-3.97-2.99-6.53-.08-.81-.05-1.66.16-2.49.23-.82.63-1.52,1.03-2.16.81-1.26,1.7-2.28,2.14-3.48.35-.73.46-.72.77.13.32.84.1,2.63-.53,4.12-.27.65-.48,1.26-.56,1.79-.08.51-.16.96-.1,1.49.1,1.03.49,2.16,1.07,3.23.6,1.1,1.43,2.2,2.3,3.41.87,1.2,1.74,2.56,2.41,3.95.82,1.67,1.57,3.4,2.17,5.2.3.9.56,1.82.77,2.74.11.46.2.93.28,1.4l.11.73c.05.37.08.75.07,1.11-.02.81-.25,1.57-.73,2.17-.47.6-1.2.98-1.95,1.07-.76.1-1.56-.04-2.29-.36-.34-.15-.77-.42-.98-.58-.26-.18-.49-.39-.71-.6-1.74-1.74-2.4-3.75-3.34-5.3-1.14-1.94-2.7-3.65-4.56-4.95-.71-.5-1.43-.92-2.23-1.32-.81-.41-1.73-.83-2.58-1.55-.88-.71-1.51-1.8-1.75-2.84-.27-1.05-.29-2.06-.28-3.01.07-2.89.04-5.68.18-8.51.03-.62.03-1.24.09-1.86.2-2.32.56-3.03,1.53-3.4.2-.09.38-.21.53-.26.26-.08.46.13.74.59.31.46.4,1.13.41,1.97.02,2.5-.02,5.04-.07,7.62-.02,1.28-.04,2.56-.06,3.85-.01,1.19.14,2.19.43,2.68.1.2.2.32.38.49.19.17.45.35.79.55.34.19.75.4,1.21.63.46.23.98.51,1.45.8,1.92,1.16,3.62,2.65,5.03,4.37l-.06.06Z"/><path class="cls-1" d="M245.85,393.53c2.04-1.54,4.37-2.52,6.7-3.15,2.33-.63,4.69-.88,7-1.03,1.69-.11,3.35-.2,5.01-.2,5.85.05,11.66.55,17.42,1.18,2.56.26,5.13.55,7.66.85l2.44.28c.81.12,1.62.26,2.43.41.8.17,1.62.26,2.41.53.79.29,1.58.56,2.38.74.99.27.85.29-.03.41-.44.07-1.06.12-1.84.38-.38.1-.81.28-1.25.36-.44.05-.89.08-1.37.09h-2.51c-.84.02-1.66-.09-2.49-.13-1.65-.12-3.31-.25-4.96-.37-3.29-.39-6.58-.78-9.9-1.18-3.96-.47-8.11-.38-12.17-.29-4.42.1-8.86.48-12.71,2.22-2.36,1.08-4.38,2.77-5.75,5-2.1,3.38-2.89,7.58-3.15,11.66-.21,3.2.03,6.36.29,9.54.07.7.13,1.39.2,2.09.19,2.62.07,3.48-.75,4.09-.17.14-.34.32-.5.4-.51.28-1.25-.75-1.49-2.69-.81-5.73-1.09-11.93-.08-18.27.4-2.35,1.09-4.73,2.19-6.99,1.08-2.27,2.72-4.4,4.78-5.97l.05.06Z"/><path class="cls-1" d="M308.2,270.94c.58,6.8,1.38,13.57,2.43,20.3,1.03,6.74,2.43,13.36,4.25,19.93,1.3,4.8,2.84,9.56,4.27,14.34,2.55,8.44,5.16,16.88,7.6,25.38,2.42,8.51,4.75,17.07,6.38,25.82.69,3.89,1.34,7.81,1.61,11.79l.18,2.99c.03,1-.05,2.02-.07,3.02l-.05,1.51c-.03.51-.17,1.06-.25,1.59-.06.26-.08.54-.17.79l-.27.77c-.19.51-.34,1.04-.64,1.49-1.31,2.47-3.44,4.35-5.74,5.67-2.31,1.34-4.82,2.18-7.35,2.7-5.06,1.12-10.26.96-15.23.11-3.08-.7-2.62-.72.03-.91.66-.05,1.46-.12,2.37-.21.91-.07,1.93-.2,3.04-.36,2.21-.34,4.75-.72,7.42-1.26,2.36-.49,4.68-1.17,6.74-2.21,2.05-1.04,3.84-2.43,4.98-4.12.29-.42.48-.89.74-1.32.19-.46.34-.94.52-1.4l.26-1.5.06-1.8.06-1.8c.04-.59-.05-1.22-.07-1.83-.09-1.23-.11-2.45-.25-3.68-.32-2.47-.58-4.94-1.07-7.41-.39-2.48-.95-4.95-1.45-7.43-.5-2.48-1.13-4.95-1.68-7.43-.62-2.47-1.24-4.95-1.87-7.43-3.08-11.86-7.2-23.97-10.79-36.05-1.96-6.64-3.85-13.35-5.24-20.2-1.37-6.84-2.37-13.72-3.17-20.61-.96-8.49-1.58-17.02-1.91-25.55-.5-12.92-.27-25.93.81-38.73.86-9.94,2.06-19.71,4.58-29.34.53-2.13,1.15-4.19,1.84-6.29.35-.97.67-1.85.97-2.66.3-.81.64-1.52.92-2.18.56-1.32,1.1-2.35,1.6-3.17.94-1.67,1.75-2.48,2.52-3.05.36-.26.77-.62,1.04-.72.46-.18.39.52-.11,1.89-.27.68-.6,1.54-1.01,2.58-.41,1.03-.92,2.21-1.41,3.58-3.08,8.05-4.91,16.81-6.25,25.75-1.3,8.96-2.02,18.14-2.33,27.37-.43,13.7-.02,27.52,1.21,41.23l-.08.02Z"/><path class="cls-1" d="M329.31,130.14c1.14-1.62,2.6-3.23,4.1-4.47.55-.47,1.06-.99,1.65-1.41,2.08-1.48,4.39-2.67,6.85-3.4,1.07-.35,2.18-.65,3.3-.8l1.09-.12c.37-.01.73-.02,1.1-.01.37.04.73.16,1.08.27.18.05.35.14.52.22.17.08.3.36.47.41.41.14.34.16-.03.23-.41.19-1.12.87-1.8,1.12-.62.15-1.21.24-1.8.43-.3.07-.59.19-.88.28-.29.11-.59.16-.88.27-1.18.36-2.35.82-3.56,1.32-1.47.58-2.72,1.69-3.96,2.73-.69.57-1.35,1.18-2,1.79-.65.61-1.21,1.25-1.78,1.95-.67.88-1.32,1.79-1.89,2.77-.87,1.47-1.71,3-2.34,4.6-.49,1.24-.76,2.55-1.08,3.83-.07.28-.11.57-.19.85-.35,1.02-.68,1.28-1.53,1.25-.19,0-.39,0-.58-.02-.62-.09-.99-.69-.95-1.54.17-2.52,1.06-4.98,2.14-7.39.81-1.78,1.78-3.52,2.89-5.21l.07.04Z"/><path class="cls-1" d="M178.75,321.38c.23-4.18.45-8.36.83-12.52.18-2.08.32-4.17.52-6.25l.64-6.23c.29-3.04.58-6.07.95-9.09.32-2.66.66-5.33,1.04-7.98.38-2.65.71-5.32,1.13-7.96l2.54-15.88c.74-4.69,1.44-9.42,2.13-14.08.45-2.99.89-6,1.34-9,.51-2.99,1.12-5.97,1.7-8.94.38-1.85.49-1.58.52.04.02,1.62.11,4.6-.11,8.09-1.37,12.3-2.99,24.54-4.75,36.87-1.08,7.37-1.87,15.07-2.64,22.64-.47,4.16-.78,8.33-1.21,12.49-.31,4.17-.7,8.34-.92,12.51l-.41,7.71-.2,7.71-.06,2.92.02,2.92.04,5.85c.09,3.89.29,7.78.51,11.64.27,2.99.59,5.95.92,8.9.39,2.94.89,5.85,1.32,8.78.1.64.2,1.28.3,1.92.12.64.25,1.27.37,1.92.85,4.8.9,6.36.12,7.58-.17.27-.31.62-.49.8-.54.58-1.59-1.26-2.37-4.8-2.39-10.49-3.66-21.82-4.03-33.18-.13-2.11-.13-4.22-.15-6.34l-.05-6.35.14-6.34c.04-2.12.09-4.23.21-6.34h.09Z"/><path class="cls-1" d="M230.54,343.57c.2,7.19.49,14.38.8,21.58.12,2.63.34,5.25.43,7.89.08,2.4.15,4.81.17,7.23,0,1.22,0,2.43-.08,3.7l-.03.48c-.02.18-.04.48-.07.71-.08.48-.17.96-.33,1.38-.17.41-.38.82-.76,1.06-.19.08-.37.15-.58.21-.22.05-.48.02-.67.14-.5-.08-.93,0-1.39,0h-.84s-1.67.06-1.67.06l-3.35.11-6.72.27c-4.11.19-8.26.41-12.37.42-5.26,0-10.65-.21-15.79-1.62-1.59-.49-1.3-.66.13-.75,1.42-.03,3.97-.16,6.93-.08,5.26.15,10.54-.3,15.86-.62,5.32-.3,10.69-.67,16.12-.81.4,0,.79-.02,1.19-.03h.3c.12-.01.08,0,.13,0,.05-.01.14.06.16-.02.09.09.12.02.18.04.05-.01.1,0,.15-.03.07-.08.09-.18.11-.28l.03-.16v-.08s.02-.16.02-.16c.02-.33.04-.67.05-1.02.04-1.39,0-2.82-.05-4.26-.1-2.88-.28-5.79-.41-8.69-.34-7.25-.7-14.51-.93-21.79-.15-4.48-.25-8.96-.33-13.43-.11-6.78-.05-13.61.12-20.35.14-5.24.22-10.4.7-15.6.11-1.15.2-2.27.36-3.42.69-4.26,1.3-5.57,2.31-6.27.23-.16.46-.39.66-.46.64-.25.79,1.54.47,4.58-.89,9.04-1.25,18.66-1.28,28.37-.02,7.21.1,14.46.37,21.71h-.09Z"/><path class="cls-1" d="M287.26,307.56c-.11-4.18-.31-8.36-.72-12.48-.44-4.1-1.01-8.26-2.34-11.95-.48-1.34-1.13-2.61-1.9-3.88-.75-1.27-1.58-2.52-2.42-3.77-2.99-4.4-6.38-8.61-9.84-12.76-3.47-4.14-7.06-8.21-10.66-12.27-1.6-1.81-3.21-3.62-4.81-5.43-1.59-1.85-3.19-3.61-4.63-5.74-.22-.38-.46-.74-.65-1.3-.13-.43-.2-.79-.3-1.19-.16-.78-.3-1.57-.4-2.35-.21-1.57-.31-3.14-.34-4.71-.06-3.13.17-6.23.58-9.28.27-1.9.47-1.63.8,0,.17.82.37,1.98.6,3.37.21,1.39.38,3,.53,4.72.12,1.53.3,3.04.56,4.51.13.74.28,1.46.46,2.18.1.35.18.71.29,1.06.04.17.12.34.16.52l.07.26h0c-.22.07.49-.12-.49.15l.11-.02.22-.05.18-.05h0s.02.04.02.04c0,.01.07.14.15.27.07.12.14.24.24.38.19.28.39.56.62.85.44.58.92,1.17,1.41,1.75.98,1.17,2.01,2.33,3.05,3.5,4.14,4.67,8.34,9.39,12.4,14.27,2.43,2.92,4.94,5.87,7.42,8.91,2.46,3.05,4.9,6.16,6.99,9.55,1.13,1.86,2.23,3.86,2.94,6.01.72,2.13,1.22,4.27,1.59,6.41.76,4.28,1.14,8.57,1.4,12.84.31,5.26.4,10.52.41,15.77.03,7.95-.22,15.92-.34,23.79-.09,6.12-.01,12.12.09,18.15.04,1.32.07,2.62.11,3.95.1,4.94.04,6.42-.76,7.57-.18.26-.34.61-.53.79-.61.64-1.64-1.45-1.92-5.15-.46-5.48-.51-11.05-.51-16.69.01-5.64.12-11.34.2-17.05.11-8.48.2-16.98-.09-25.42h.09Z"/><path class="cls-1" d="M296.74,390.3c-.1.64-.29.88-.56,1.17-.26.28-.59.53-1.07.75-.92.47-2.59.71-4.33.79-.86.04-1.76.07-2.6.07h-.6s-.36,0-.36,0h-.73s-2.9-.1-2.9-.1c-1.41-.06-2.81-.04-4.21-.14-2.3-.16-4.58-.36-6.87-.59l-3.43-.38-1.73-.23c-.3-.05-.53-.07-1.02-.16-.44-.07-.85-.19-1.17-.45-.35-.38-.58-.84-.73-1.35-.04-.19-.11-.42-.14-.58l-.08-.45c-.04-.3-.07-.59-.1-.87-.05-.57-.08-1.14-.1-1.7-.02-1.12,0-2.23.05-3.32.06-1.41.14-2.81.28-4.21.08-.7.14-1.4.31-2.09.17-.69.34-1.37.58-2.05.39-.83.5-.68.82.11.17.39.34.94.53,1.59.08.32.2.67.25,1.04.03.36.05.74.03,1.14-.09,2-.14,4-.11,5.97.02.98.05,1.96.1,2.89.03.46.07.91.14,1.31l.02.13v.02s0,.04,0,.04c0,.03,0,.06.01.09.04.04.02.05.16.09l1.15.17c.78.11,1.57.22,2.36.32,3.37.45,6.92.46,10.39.59,1.91.07,3.81.11,5.71.12h.71s.36,0,.36,0h.61c.42,0,.88,0,1.35-.05.22-.02.46-.05.69-.11.12-.03.23-.06.34-.12.11-.05.18-.17.14-.27-.11-.31-.42-.46-.71-.62-.3-.15-.62-.29-.96-.41-.43-.16-.82-.29-1.35-.45l-1.17-.35-1.29-.36c-1.72-.47-3.46-.9-5.19-1.32-1.35-.33-2.7-.6-4.08-.97-.18-.05-.34-.09-.53-.15-.2-.06-.49-.16-.71-.26-.25-.09-.48-.21-.69-.35-.24-.12-.38-.32-.51-.54-.28-.4-.33-.95-.39-1.48l-.08-1.19c-.03-.62-.07-1.22-.06-1.84.05-2.28.26-2.99,1.15-3.43.18-.1.35-.24.51-.29.45-.19,1.18.76,1.24,2.4.1,1.21.18,2.45.29,3.62.03.4.05.3.07.36.02.03.04.06.08.06.04,0,.07,0,.1,0,.02,0-.03-.02.05,0l.2.06.41.11c2.31.58,4.87,1.11,7.39,1.71.92.22,1.85.44,2.78.68l1.61.44c.83.23,1.72.5,2.6.79,1.71.6,3.17,1.31,3.96,2.03.4.36.67.71.84,1.07.18.37.19.7.33,1.26-.02.09.01.19-.05.27h-.08Z"/><path class="cls-1" d="M243.87,318.35c-.61-1.57-1.24-3.13-1.69-4.76-.19-.58-.44-1.14-.6-1.74-.56-2.1-1.06-4.2-1.51-6.31-.2-.93-.43-1.86-.65-2.77-.13-.59-.28-1.18-.4-1.77-.1-.6-.17-1.2-.2-1.81-.01-.38.29-.39.68-.15.38.24.9.72,1.14,1.36.85,2.27,1.77,4.47,2.32,6.84.34,1.41,1.07,2.75,1.66,4.11.65,1.49,1.28,3,1.89,4.52.39.93.78,1.86,1.21,2.78.65,1.39,1.29,2.79,2.07,4.11.61,1.02,1.41,1.9,2.09,2.86.15.21.33.4.47.62.38.89.22,1.34-.3,1.89-.12.12-.23.26-.35.36-.2.17-.45.22-.75.2-.3-.03-.67-.14-.99-.37-1.86-1.37-2.93-3.35-4.01-5.34-.79-1.48-1.47-3.04-2.17-4.58l.08-.04Z"/><path class="cls-1" d="M188.81,433.28c-.5,2.47-.36,5.31-.36,8.22.01,1.47.04,2.96-.08,4.55-.06.79-.16,1.61-.37,2.47-.11.43-.24.87-.45,1.33-.09.23-.21.45-.35.68-.13.26-.36.52-.55.78-.2.18-.42.33-.62.5-.22.14-.48.24-.72.36-.26.14-.45.15-.63.21-.18.05-.38.11-.54.13-.69.14-1.34.22-1.97.29-2.69.26-5.25.39-7.84.42-4.55.04-9.07,0-13.57.1-4.48.12-9.02.26-13.27,1.18-.92.23-1.83.5-2.58.91-.72.37-1.24.98-1.7,1.73-.9,1.52-1.34,3.42-1.6,5.3-.36,2.43-.38,4.94-.25,7.43.05,1.25.07,2.5.14,3.75.05,1.25.17,2.5.41,3.73.35,1.48.14,1.43-.73.28-.41-.59-.95-1.47-1.5-2.59-.27-.56-.57-1.18-.8-1.85-.23-.67-.42-1.4-.57-2.16-.35-2.72-.34-5.46-.05-8.25.15-1.39.45-2.79.9-4.19.46-1.4,1.08-2.83,2.2-4.16.56-.66,1.32-1.26,2.1-1.68.38-.19.74-.34,1.11-.5l1.07-.36c1.41-.41,2.77-.64,4.13-.83,2.71-.36,5.38-.49,8.04-.55,6.36-.14,12.94-.28,19.34-.5,1.38-.05,2.76-.12,4.1-.24.67-.07,1.34-.14,1.94-.26.31-.05.6-.13.82-.19.13-.04.25-.09.34-.19.1-.09.31-.48.43-.88.13-.4.22-.85.28-1.33.12-.95.14-1.98.13-3.03-.02-2.09-.19-4.26-.14-6.47.07-2.24.21-4.59,1.16-6.86.23-.57.53-1.11.87-1.64.17-.26.37-.51.56-.76.25-.24.5-.53.77-.72,1.07-.8,2.17-1.21,3.26-1.57,3.31-1.05,6.65-1.45,9.98-1.78,3.33-.29,6.65-.46,9.95-.53,5.13-.11,10.18-.18,15.29.21,1.13.09,2.23.16,3.37.32,2.11.29,3.5.65,4.42,1.12.93.43,1.4.92,1.67,1.48.12.26.3.53.34.73.06.34-.36.46-1.1.47-.77.05-1.86-.11-3.33-.26-4.3-.6-8.87-.82-13.49-.94-4.62-.1-9.32-.08-13.99.25-3.45.26-6.94.62-10.19,1.38-1.58.37-3.26.91-4.17,1.57-.14.08-.18.15-.25.21-.03.04-.07.04-.11.1l-.14.19c-.18.26-.33.54-.46.85-.27.61-.45,1.31-.58,2.05h-.08Z"/><path class="cls-1" d="M305.59,337.73c-.73-.17-1.46-.33-2.21-.43-.27-.04-.54,0-.81-.05-.96-.16-1.92-.24-2.9-.35-.43-.05-.87-.02-1.29,0-.55.03-1.09.16-1.67,0-.18-.05-.19-.27-.09-.56.1-.29.32-.72.64-.83.56-.2,1.13-.38,1.7-.49.58-.12,1.16-.19,1.76-.06.71.11,1.43-.03,2.15-.01.79.02,1.58.09,2.36.17.48.06.97.12,1.45.17.73.08,1.45.26,2.17.31.57.03,1.13-.02,1.69.04.12.01.25,0,.37.03.44.17.55.38.55.9,0,.12,0,.23,0,.34-.03.37-.27.67-.63.84-.53.25-1.04.34-1.55.45-.5.05-.99-.02-1.49-.06-.73-.05-1.46-.23-2.2-.35v-.06Z"/><path class="cls-1" d="M307.94,350.46c-.9-.06-1.81-.13-2.71-.19-.33-.02-.66.02-.98,0-1.16-.09-2.32-.21-3.47-.29-.51-.03-1.03,0-1.53-.02-.65-.02-1.3.08-1.96-.2-.2-.11-.18-.28-.01-.56.17-.32.48-.69.85-.76.66-.11,1.31-.28,1.97-.28.66,0,1.32.02,1.99.1.8.1,1.62-.05,2.44-.08.89-.02,1.79-.04,2.69-.06.55,0,1.11-.02,1.66-.03.84-.02,1.68-.02,2.5-.12.64-.07,1.25-.35,1.88-.44.14-.02.27-.07.41-.08.52-.03.71.15.88.68.04.12.08.24.11.36.09.4-.09.78-.45,1.02-1.08.72-2.3.85-3.51.95-.9.06-1.82.09-2.73.08v-.06Z"/><path class="cls-1" d="M308.98,381.74c-.73-.09-1.48-.12-2.23-.09-.27.01-.54.08-.82.1-.99.07-2.03.19-3.09.17-.47,0-.94.02-1.41,0-.6-.01-1.22-.09-1.76-.37-.17-.09-.1-.22.09-.35.19-.12.48-.28.78-.31,1.08-.07,2.09-.42,3.23-.56.69-.03,1.39-.3,2.12-.44.81-.15,1.64-.23,2.46-.25.51-.01,1.01,0,1.52,0,.77.01,1.53.13,2.28.19.59.05,1.19-.02,1.79,0,.13,0,.27-.01.4,0,.49.07.6.27.53.9-.02.14-.02.29-.05.43-.09.48-.37.82-.71.88-1.02.18-1.96.08-2.94,0-.72-.06-1.45-.21-2.19-.25v-.05Z"/><path class="cls-1" d="M258.84,401.69c1.05.12,2.1.2,3.15.33.38.05.77.03,1.15.09l2.02.29c.67.12,1.35.23,2.02.32.6.08,1.2.11,1.79.14.76.03,1.53.07,2.29.21.24.04.21.16,0,.3-.2.14-.57.36-1.01.44-1.56.25-3.12.48-4.69.41-.94-.05-1.92.05-2.88.07-1.06.02-2.11-.06-3.17-.12l-1.95-.1c-.98-.03-1.97-.11-2.95-.06-.76.04-1.51.24-2.26.23-.17,0-.33.03-.49.02-.62-.04-.81-.21-.95-.76-.03-.12-.07-.25-.09-.37-.06-.41.19-.76.65-.95.67-.26,1.36-.56,2.06-.66.7-.06,1.41-.06,2.12-.05,1.06.02,2.12.11,3.18.16v.06Z"/><path class="cls-1" d="M256.77,411.19c.8.05,1.59.12,2.38.19.29.05.57.03.86.09l1.51.33c.5.14.99.27,1.49.39.44.1.88.17,1.31.24.56.08,1.11.18,1.65.38.17.06.13.17-.03.3-.16.13-.45.32-.78.37-1.15.16-2.27.34-3.39.24-.67-.07-1.37.04-2.06.08-.75.05-1.51-.05-2.27-.05-.47,0-.94-.02-1.4,0-.71.03-1.42.04-2.11.17-.54.12-1.03.41-1.56.48-.12.02-.23.07-.34.08-.44.05-.62-.14-.82-.65-.04-.12-.1-.23-.13-.34-.12-.36,0-.78.29-1.05.44-.36.9-.77,1.41-.97.51-.15,1.05-.23,1.58-.28.8-.08,1.61-.07,2.41-.08v.06Z"/><path class="cls-1" d="M201.81,435.95c.99.03,1.99.06,2.98.06.36,0,.72-.07,1.08-.07,1.28.04,2.57.16,3.85.14.57-.02,1.14-.03,1.7-.04.72-.03,1.45-.05,2.19.04.23.03.22.15.05.35-.17.19-.48.52-.88.7-.71.29-1.42.58-2.14.8-.74.11-1.48.17-2.23.15-.9-.03-1.81.25-2.73.28-1.01.06-2.02.08-3.02.1l-1.86.04c-.94.04-1.88.03-2.81.11-.72.07-1.42.29-2.13.43-.16.03-.31.09-.47.11-.59.08-.79-.27-.94-.85-.03-.13-.08-.26-.1-.38-.04-.21,0-.4.1-.61.1-.2.25-.45.46-.55,1.24-.59,2.56-.71,3.9-.83.99-.05,1.99-.03,2.99-.05v.06Z"/><path class="cls-1" d="M156.47,457.85c.66-.03,1.36-.06,2.06-.12.25-.02.51-.1.77-.11.92-.09,1.88-.02,2.83.08.42.03.84.07,1.25.11.26.04.53.08.79.13.26.07.51.16.76.27.15.07.09.19-.08.31-.17.11-.44.25-.71.25-.99.04-1.92.32-2.92.39-.59.06-1.22.21-1.84.34-.69.12-1.39.24-2.11.32-.45.04-.89.09-1.35.11-.69.06-1.39,0-2.1,0-.55-.04-1.12.03-1.7-.08-.12-.03-.25-.05-.37-.11-.21-.12-.34-.22-.39-.37-.04-.17-.01-.34.05-.55.03-.1.05-.19.08-.28.06-.14.16-.25.29-.36.13-.11.31-.23.45-.24.22-.03.42-.06.63-.12.19-.01.36.03.55.02.19,0,.37.02.56.03.2,0,.39,0,.59.02.6,0,1.23,0,1.9-.07v.05Z"/><path class="cls-1" d="M155.36,462.48c.43.07.87.24,1.31.31.16.03.32.01.48.05.57.11,1.15.21,1.73.23.26.01.51-.02.76-.04.32-.04.64-.1.97-.07.1.01.12.16.07.33-.05.17-.18.38-.36.46-.64.25-1.3.46-1.99.46-.41,0-.83.14-1.24.19-.46.05-.92.08-1.38.07-.29-.02-.57-.04-.85-.05-.43-.02-.86-.08-1.29-.06-.33.02-.67.16-1.01.25-.07.02-.15.03-.22.02-.27-.04-.34-.26-.35-.77v-.34c0-.34.15-.73.35-.9.15-.1.3-.27.44-.3.14-.05.29-.07.43-.08.29-.03.57-.01.86.02.43.04.86.13,1.29.17v.05Z"/><path class="cls-1" d="M188.65,76.77c.01-3.31.48-6.6,1.31-9.77.83-3.16,1.99-6.25,3.53-9.14,1.12-2.11,2.35-4.18,3.87-6.04,2.65-3.29,5.9-6.1,9.56-8.2,3.66-2.09,7.76-3.48,11.98-3.79,1.87-.16,3.76-.11,5.63.16,1.86.26,3.7.75,5.42,1.48,2.22.9,4.31,2.14,6.15,3.68,1.82,1.56,3.36,3.42,4.49,5.49.71,1.29.27,1.31-.86.64-.28-.16-.61-.37-.97-.61-.39-.22-.77-.49-1.2-.78-.21-.15-.42-.31-.64-.47-.23-.15-.46-.31-.69-.47-.45-.34-.93-.69-1.42-1.06-1.67-1.38-3.48-2.56-5.43-3.39-1.95-.85-4.03-1.35-6.14-1.6-4.24-.5-8.67.31-12.74,2.1-4.93,2.13-9.14,6.18-12.27,10.72-3.46,5-5.64,10.96-6.39,17.06-.48,3.75-.29,7.59.56,11.26,1.29,5.56,4.36,10.74,8.67,14.46,3.32,2.83,7.66,4.21,11.82,4,.46-.02.91-.1,1.36-.14.45-.07.89-.18,1.34-.25.83-.21,1.51-.38,2.07-.58.57-.17,1.02-.33,1.41-.45.79-.2,1.29-.27,1.83-.13.24.06.54.08.73.18.32.16.22.53-.28,1.08-.25.27-.59.61-1.07.9-.47.31-1.03.66-1.71.93-4.02,1.76-8.91,1.82-13.23.21-2.16-.8-4.21-1.97-6.01-3.47-.47-.37-.87-.76-1.27-1.16-.4-.4-.82-.78-1.21-1.19-.73-.87-1.54-1.68-2.18-2.63-4.1-5.44-6.09-12.3-6.09-18.98h.07Z"/><path class="cls-1" d="M268.39,98.53s.04-.03.06-.06c.02-.04.04-.04.02-.34-.03-.47-.07-.94-.12-1.42-.04-.35-.15-.68-.18-1.03-.13-1.23-.24-2.48-.41-3.71-.08-.55-.21-1.09-.34-1.62-.24-.67-.23-1.4-.13-2.14.04-.23.17-.22.41-.08.23.14.66.39.93.73.1.16.26.3.31.47l.17.5c.11.34.21.68.31,1.02.19.68.34,1.38.43,2.1.1.86.44,1.7.66,2.56.11.48.22.95.31,1.44l.14.73.17,1.02c.13.91.14,1.81-.65,2.17-.52.27-1.26.4-1.81.51-.48.07-.95.14-1.42.21-.74.09-1.49.32-2.37.29-.19,0-.4,0-.61-.05-.79-.21-1-.71-.62-1.4.08-.16.17-.32.27-.46.18-.24.4-.42.58-.58.18-.16.3-.28.44-.35.35-.17.79-.27,1.28-.37.24-.04.5-.09.77-.13l.82-.05c.6-.05.39-.02.45,0,.03.02.07.03.08,0l.07.03Z"/><path class="cls-1" d="M267.23,44.71c1.75,1.13,3.42,2.38,4.89,3.88,1.45,1.52,2.78,3.19,3.73,5.11.35.7.64,1.44.95,2.15.2.77.46,1.52.55,2.31.05.7.16,1.39.13,2.09-.05.69-.08,1.39-.16,2.07-.21,1.33-.57,2.66-1.14,3.91-1.12,2.52-3.2,4.63-5.65,5.69-1.07.49-2.18.87-3.31,1.11-.54.15-1.25.21-1.84.2-.61-.04-1.21-.13-1.78-.28-1.46-.4-2.87-1.09-3.93-2.23-1.06-1.08-1.79-2.67-1.59-4.18.3-.92.23-.74.5-.02.16.35.35.83.69,1.29.34.46.76.93,1.29,1.36.45.4.98.7,1.52.98.53.3,1.12.49,1.69.65.58.15,1.17.2,1.72.2.27-.02.53-.04.76-.1.25-.05.6-.18.9-.26,2.47-.79,4.53-2.17,5.9-4.23.8-1.25,1.25-2.79,1.39-4.39.05-1.57-.02-3.15-.57-4.63-.99-3.3-3.43-6.2-6.37-8.37-1.82-1.34-3.84-2.45-5.97-3.26-3.22-1.24-6.7-1.86-10.1-1.35-2.63.38-5.07,1.44-7.23,2.81-.47.32-.91.65-1.36.98-1.69,1.23-2.27,1.55-3.25,1.23-.22-.07-.47-.11-.66-.21-.64-.3-.41-1.43.84-2.76,3.79-3.85,9.65-5.93,15.44-5.65,2.17.12,4.3.53,6.3,1.21,2,.7,3.91,1.58,5.72,2.65l-.04.08Z"/><path class="cls-1" d="M225.09,99.7c-.93.98-1.84,1.97-2.73,2.98-.33.37-.59.78-.92,1.15-1.14,1.31-2.32,2.59-3.44,3.93-.5.59-.95,1.22-1.39,1.85-.62.76-1.16,1.59-1.97,2.23-.25.2-.32.1-.34-.24-.02-.33-.08-.96.18-1.46l.67-1.37c.24-.44.53-.85.81-1.28.56-.83,1.16-1.65,1.82-2.42.78-.93,1.44-2.01,2.17-3.02.82-1.1,1.66-2.17,2.52-3.24l1.59-1.96c.8-1,1.65-1.95,2.41-2.98.59-.79,1.04-1.68,1.57-2.52.11-.19.21-.39.34-.56.47-.67.88-.65,1.58-.25.16.09.33.18.48.28.5.35.68.95.49,1.54-.72,1.63-1.87,2.99-3.07,4.35-.9,1-1.81,2.01-2.71,3.01l-.05-.04Z"/><path class="cls-1" d="M185.16,146.56c-2.62,4.47-4.91,9.14-6.82,13.98-.37.87-.67,1.78-.96,2.67l-.91,2.69c-2.05,6.36-4.11,12.87-4.39,19.42-.11,2.91.39,5.81,1.31,8.51,1.21,3.52,3.5,6.45,5.72,9.66.67,1,.51.93-.33.32-.83-.63-2.51-1.6-4.13-3.26-1.47-1.46-2.56-3.33-3.47-5.2-.89-1.89-1.59-3.96-1.82-6.06-.55-4.2-.1-8.38.9-12.3,1.19-4.7,2.39-9.47,3.99-14.13,1.79-5.09,3.99-10.02,6.53-14.76.79-1.46,1.58-2.91,2.45-4.32.83-1.43,1.73-2.82,2.63-4.2,2.74-4.19,5.82-8.17,9.01-11.96,2.45-2.98,4.97-5.82,7.63-8.57.6-.59,1.17-1.19,1.79-1.77,2.32-2.14,3.27-2.58,4.3-2.38.24.05.51.07.7.16.63.31,0,1.54-1.59,3.12-4.7,4.74-9.42,9.89-13.74,15.41-3.18,4.12-6.14,8.45-8.72,12.99l-.07-.03Z"/><path class="cls-1" d="M307.74,172.29c1.08-.84,2.32-1.59,3.46-2.16,1.15-.6,2.32-1.08,3.45-1.61.83-.38,1.6-.83,2.39-1.22l1.03-.53c.32-.19.62-.35.92-.56.59-.41,1.18-.88,1.72-1.41,1.11-1.04,2.07-2.28,2.98-3.55.8-1.14,1.45-2.39,2.02-3.63.38-.8.67-1.61.85-2.42.08-.39.11-.8.03-1.01-.04-.09-.09-.16-.25-.23-.16-.07-.37-.09-.61-.11-.29-.02-.46-.1-.43-.15.02-.05.17-.09.39-.21.24-.09.52-.37,1.23-.28.33.13.72.41.87.77.16.34.24.7.25,1.01.03.58-.02,1.09-.09,1.6-.08.52-.19,1.02-.32,1.5-.23.98-.66,1.86-1.09,2.74-.86,1.75-1.95,3.4-3.36,4.83-.83.86-1.68,1.74-2.67,2.52-1.03.81-2.05,1.4-3.08,1.96-2.25,1.22-4.59,2.23-6.6,3.46-1.22.78-2.35,1.74-3.39,2.83-1.58,1.65-3.05,3.49-4.51,5.34-1.14,1.44-2.21,2.94-3.54,4.29-.3.29-.56.61-.89.88-1.2,1.01-1.79,1.08-2.45.62-.15-.11-.32-.2-.44-.32-.4-.4-.19-1.17.54-1.86,2.11-2.15,4.02-4.62,6.12-7.31,1.55-1.98,3.28-4.04,5.42-5.82l.05.05Z"/><path class="cls-1" d="M303.27,170.41l-2.66,2.02c-.32.25-.6.54-.93.78-1.16.83-2.35,1.63-3.52,2.44-.53.34-1.03.73-1.52,1.11-.63.49-1.22,1.05-2.06,1.26-.32-.02-.32-.07-.35-.45,0-.36.02-.95.31-1.32,1.15-1.14,2.27-2.29,3.68-3.12.83-.51,1.51-1.28,2.25-1.93l2.46-2.16c.5-.45,1.01-.89,1.49-1.36.74-.7,1.5-1.39,2.16-2.16.51-.6.88-1.31,1.29-1.98.09-.15.16-.31.26-.45.38-.52.66-.54,1.35-.1.16.1.32.19.47.3.51.37.71.91.52,1.37-.57,1.39-1.58,2.5-2.65,3.55-.8.78-1.66,1.51-2.51,2.24l-.05-.05Z"/><path class="cls-1" d="M290.48,107.34c7.99-1.48,16.07-1.64,24.06-.87,2.91.29,5.86.68,8.68,1.26,5.01,1.03,9.98,2.28,14.85,4.02,2.43.9,4.85,1.88,7.13,3.3,1.14.71,2.26,1.52,3.24,2.59.49.53.93,1.15,1.29,1.85l.77,1.87c1.67,4.48,1.34,9.84-1.28,13.92-.44.65-.87,1.28-1.46,1.87-.14.15-.32.3-.48.44-.17.14-.5.37-.67.42-.41.17-.82.34-1.23.41-1.67.39-3.19.15-4.62-.04-2.85-.43-5.57-.89-8.22-.19-1.6.5-1.58.26-.3-.72.66-.43,1.69-1.01,3.07-1.34,1.36-.35,3.02-.47,4.69-.41,1.46.06,2.91.09,4.03-.05.28-.03.55-.08.77-.16.12-.03.24-.06.33-.12l.15-.07.07-.03h.04s0-.02,0-.02h0c-.1-.2.87,1.72.45.89l-.09-.2c-.06-.13-.13-.26-.2-.39l-.11-.19c-.04-.06-.09-.14-.07-.11h-.01s.09-.09.09-.09c.07-.06.15-.15.25-.26.18-.19.35-.45.53-.68,1.35-2.04,2.19-4.54,2.12-7.04.04-.63-.09-1.25-.14-1.88-.15-.62-.21-1.25-.44-1.86l-.28-.92-.38-.9-.19-.45-.09-.22-.09-.15c-.09-.2-.26-.4-.4-.61-.69-.83-1.71-1.64-2.86-2.33-1.15-.69-2.39-1.33-3.67-1.92-3.08-1.41-6.48-2.45-9.93-3.31-3.46-.86-6.99-1.55-10.5-2.17-7.62-1.28-15.53-1.48-23.27-.62-4.76.54-9.48,1.54-13.93,3.21l-2.48,1.05-2.38,1.24c-.71.51-1.49.91-2.16,1.49-.67.58-1.4,1.1-2.01,1.76-2.57,2.5-4.78,5.42-6.72,8.46-2.95,4.78-5.24,9.86-7,15.1-.41,1.15-.7,2.3-1.05,3.47-.32,1.08-.52,1.99-.76,2.74-.21.75-.34,1.36-.53,1.85-.39.99-.64,1.54-1.11,1.99-.2.2-.41.48-.6.6-.32.2-.54-.18-.67-1.07-.16-.9-.12-2.29.18-4.02.98-5.11,2.74-10.14,5.05-14.98,2.34-4.83,5.09-9.58,8.69-13.86.34-.4.66-.8,1.01-1.19l1.1-1.13c.7-.78,1.55-1.46,2.36-2.16.39-.36.85-.67,1.31-.98.46-.31.92-.63,1.38-.92.93-.49,1.85-1.03,2.8-1.47,3.81-1.79,7.8-2.96,11.82-3.78l.03.08Z"/><path class="cls-1" d="M227.63,221.1c-3.48.05-6.95.12-10.43.25-1.27.05-2.53.19-3.8.23-4.47.18-8.94.28-13.4.6-1.98.14-3.95.39-5.9.63-2.52.22-4.99.72-7.56.67-.83-.18-.72-.15-.13-.64.58-.54,1.72-1.29,3.16-1.63,5.08-1.39,10.29-1.74,15.53-1.95,3.13-.1,6.37-.51,9.56-.67,3.51-.19,7.03-.32,10.55-.43,2.16-.06,4.33-.12,6.49-.18,3.28-.09,6.57-.12,9.82-.26,2.53-.1,5-.38,7.5-.56.55-.04,1.09-.11,1.65-.13,2.06-.07,2.72.14,3.16,1.01.1.2.23.39.29.59.2.67-.64,1.23-2.14,1.43-4.44.59-9.12.73-13.82.87-3.5.09-7.01.17-10.51.26v-.08Z"/><path class="cls-1" d="M297.57,119.6c1.93.66,3.48,1.31,5.28,1.67.65.14,1.32.17,1.98.27,2.35.33,4.78.5,7.2.56,1.08.01,2.16-.07,3.22-.18.68-.08,1.37-.14,2.05-.2.69-.07,1.38-.11,2.09-.08.44.02.39.04.06.25-.17.11-.4.28-.68.49-.29.19-.63.36-1.02.49-1.37.49-2.8.76-4.23.96-1.43.19-2.89.3-4.34.25-1.74-.13-3.55-.03-5.35-.22-1.96-.19-4-.68-5.8-1.35-1.11-.38-2.18-.75-3.26-.91-1.63-.26-3.39-.15-5.12.1-1.36.2-2.68.59-4.11.78-.31.04-.62.1-.95.11-1.21.06-1.6-.24-1.77-.94-.04-.16-.09-.32-.1-.47-.03-.51.46-.91,1.2-1.05,2.22-.38,4.59-1.02,7.34-1.28,1.02-.09,2.09-.1,3.18,0,1.11.11,2.19.38,3.15.67l-.02.06Z"/><path class="cls-1" d="M271.05,163.81c.57.16,1.25.17,2.04.09.29-.03.57-.12.89-.14,1.11-.04,2.2.05,3.27.17.47.06.95.06,1.41.14.59.1,1.18.25,1.73.54.17.09.12.22-.07.36-.18.14-.5.37-.84.43-1.19.31-2.25.18-3.39.13-.69-.06-1.36.18-2.05.3-.77.13-1.63.3-2.56.28-.58-.02-1.12-.12-1.63-.23-.78-.17-1.49-.42-2.19-.5-.54-.08-1.05.03-1.46.17-.09.04-.16.09-.25.11-.29.11-.43-.02-.79-.5l-.24-.33c-.26-.36-.25-.82.14-1.15.58-.45,1.34-.66,2.01-.71.68-.06,1.31.02,1.85.18.81.22,1.51.48,2.13.6v.06Z"/><path class="cls-1" d="M286.9,128.14l3.6.98c.44.09.87.18,1.31.27,1.53.37,3.05.76,4.61.92.69.07,1.4.1,2.09.14.9.04,1.81.11,2.69.31.27.06.23.1-.01.13-.24.03-.68.11-1.19.16-.9.06-1.8.2-2.73.29-.92.08-1.87.07-2.8-.02-1.12-.11-2.28-.14-3.41-.27-1.24-.15-2.46-.36-3.68-.54l-2.23-.35c-1.12-.17-2.25-.3-3.37-.28-.87.02-1.7.26-2.52.4-.18.03-.35.09-.54.08-.68.04-.93-.1-1.19-.55-.06-.1-.13-.2-.17-.31-.15-.34.08-.72.59-1.04,1.54-.99,3.4-1.01,5.14-.91,1.3.09,2.57.29,3.82.53v.06Z"/><path class="cls-1" d="M278.71,228.4c-1.34-.04-2.67-.08-4.02-.17-.49-.02-.98,0-1.47-.07-1.72-.23-3.44-.51-5.12-.9-.75-.18-1.49-.36-2.23-.54l-1.41-.4c-.46-.16-.91-.35-1.36-.54-.28-.12-.21-.21.08-.28.28-.06.79-.15,1.33-.1,1.94.21,3.86.1,5.75.51,1.14.21,2.36.12,3.55.13,1.31.05,2.62.1,3.94.11.81,0,1.63,0,2.44-.01,1.23-.03,2.48-.04,3.7-.15.95-.09,1.88-.29,2.83-.43.21-.03.41-.08.62-.1.78-.06,1.04.08,1.23.69.04.14.1.27.12.41.09.47-.21.87-.77,1.04-1.65.5-3.41.69-5.2.77-1.33.07-2.67.07-4.02.09v-.06Z"/><path class="cls-1" d="M284.05,239.79c-1-.11-2-.22-2.99-.33-.36-.04-.73,0-1.09-.05-1.28-.17-2.56-.34-3.83-.54-.57-.09-1.14-.12-1.7-.15-.36-.02-.73-.01-1.09-.04-.18-.01-.36-.04-.54-.07-.18-.02-.35-.17-.53-.26-.22-.14-.18-.36.03-.7.1-.17.25-.39.42-.61.17-.19.37-.29.58-.31.74-.06,1.47-.11,2.21-.11.37,0,.73.01,1.1.04.37.05.73.13,1.1.21.88.21,1.8.11,2.71.17l2.99.2c.61.04,1.23.08,1.84.1.93.03,1.86.1,2.78.04.72-.05,1.42-.24,2.12-.36.16-.03.31-.08.46-.09.58-.05.77.12.91.81.03.16.07.31.1.47.07.53-.16.98-.58,1.16-1.27.53-2.62.64-3.97.61-1.01,0-2.02-.09-3.03-.15v-.06Z"/><path class="cls-1" d="M290.66,253.98c-.77-.14-1.54-.27-2.31-.37-.28-.04-.56-.01-.84-.05-.99-.14-1.99-.29-2.98-.38-.44-.04-.89-.02-1.32,0-.56.07-1.13.05-1.7-.13-.18-.06-.17-.31-.03-.59.14-.28.4-.66.72-.77.29-.11.58-.14.87-.15.29-.02.58-.03.87-.04.58,0,1.17.02,1.75.11.7.11,1.43,0,2.14,0,.79.01,1.57.06,2.36.1.48.03.97.06,1.45.09.73.03,1.47.12,2.19.11.57,0,1.13-.17,1.69-.24.12,0,.25-.03.37-.01.46.05.59.24.66.83.01.13.04.27.04.4.02.44-.19.81-.53.98-.25.13-.51.25-.77.34-.26.05-.51.09-.77.11-.51.04-1.03.03-1.55,0-.77-.04-1.54-.2-2.32-.28v-.06Z"/><path class="cls-1" d="M257.97,110.38c-1.94,1.66-4.06,3.07-6.41,4.1-.85.38-1.69.76-2.58,1.04-3.16.85-6.44,1.01-9.59.49-1.4-.18-2.78-.59-4.09-1.06-1.65-.65-3.38-1.44-4.42-2.98-.35-.44-.26-.41.23-.3.24.06.6.12,1.02.18.2.04.46.02.68.07.21.06.42.14.63.24,1.51.67,3.1,1.08,4.7,1.31,1.59.32,3.22.46,4.89.46,2.01.02,4.03-.66,5.93-1.36,2.1-.77,4.06-1.93,5.85-3.36,1.1-.87,2.13-1.85,3.07-2.91,1.43-1.61,2.73-3.37,3.72-5.29.78-1.49,1.26-3.08,1.72-4.66.09-.35.19-.7.28-1.05.4-1.29.73-1.64,1.6-1.68.2-.01.4-.04.59-.03.64.05.97.75.84,1.83-.49,3.15-1.81,6.31-3.66,9.19-1.37,2.13-3.02,4.13-4.94,5.84l-.05-.05Z"/><path class="cls-1" d="M239.52,87.14c-1.4-.36-2.34-1-3.15-1.44-.8-.45-1.58-.81-2.33-.98-.56-.13-1.06-.06-1.55,0-.89.15-1.52.52-1.91,1.32-.38.81-.42,2.02-.15,3.09.24.96.73,1.9,1.4,2.62.43.47.94.85,1.47,1.14.13.08.27.15.41.21.12.11.25.2.39.28.27.17.57.4.9.5.41.1.4.26,0,.51-.2.13-.5.32-.94.54-.21.09-.45.15-.72.21-.13.03-.26.02-.41.05-.12-.03-.26-.05-.38-.1-1.79-.66-3.17-1.99-4.06-3.56-.45-.79-.71-1.67-.86-2.58-.14-.89-.14-1.82.07-2.77.25-1.11.78-2.37,1.8-3.21.99-.83,2.18-1.24,3.33-1.29,2.58-.11,4.66,1.26,6.26,2.04,1.01.48,1.83.61,2.54.19.54-.31,1.01-.94,1.32-1.68.32-.76.48-1.55.5-2.44.05-1.35-.31-2.66-.75-3.88-.1-.27-.24-.52-.33-.79-.19-.49-.27-.82-.21-1.12.08-.3.28-.54.64-.83.16-.13.32-.28.48-.4.54-.38,1.35-.19,1.87.65.76,1.24,1.24,2.7,1.43,4.21.17,1.54.16,3.04-.31,4.76-.36,1.22-.94,2.5-2.13,3.59-.59.53-1.38.98-2.22,1.18-.84.22-1.71.18-2.43.02v-.08Z"/><path class="cls-1" d="M256.18,73.77c-.99.6-2.03,1.05-3.1,1.39-.39.12-.76.3-1.16.38-1.43.23-2.91.2-4.3-.14-.62-.16-1.23-.34-1.81-.61-.37-.18-.74-.37-1.05-.64-.3-.28-.56-.61-.73-.99-.11-.23.16-.38.53-.45.37-.06.86-.11,1.17.02,1.04.57,2.15.77,3.46.88.79.08,1.59-.27,2.36-.52.87-.27,1.71-.65,2.51-1.12.49-.29.96-.62,1.38-1,.63-.57,1.24-1.21,1.57-1.96.26-.59.24-1.24.16-1.8-.02-.12-.06-.24-.08-.36-.05-.43.12-.55.94-.78l.55-.16c.62-.16,1.19.03,1.41.59.58,1.69-.1,3.6-1.11,4.9-.75,1.01-1.69,1.77-2.66,2.42l-.04-.05Z"/><path class="cls-1" d="M215.77,118.1c.94.53,1.99.9,3.07,1.2.4.09.81.08,1.21.17,1.42.23,2.91.49,4.4.36.34,0,.66-.08.98-.15.32-.07.66-.09.97-.19.4-.12.81-.25,1.22-.35.41-.11.86-.13,1.32-.18.29-.02.33.13.24.46-.1.32-.3.94-.71,1.4-.83.54-1.72,1.03-2.68,1.28-.48.13-.97.18-1.46.22-.49.05-.99.06-1.48.01-.59-.05-1.18,0-1.78-.03h-.9c-.3-.03-.6-.07-.89-.11-1.31-.16-2.58-.56-3.81-1.01-.74-.33-1.49-.63-2.19-1.06-.27-.15-.54-.3-.8-.46l-.75-.55c-.52-.34-.95-.78-1.43-1.17-.7-.65-1.48-1.25-2.1-2.05-.14-.17-.32-.32-.41-.52-.4-.73-.27-1.08.4-1.5.15-.1.3-.2.46-.28.52-.25,1.16-.19,1.52.12,1.04.95,1.93,1.79,2.98,2.65.81.58,1.64,1.23,2.64,1.65l-.03.07Z"/><path class="cls-1" d="M181.87,190.45c.46-3.91,1.1-7.78,1.77-11.65.27-1.41.45-2.83.73-4.23.53-2.47,1.08-4.93,1.77-7.35.63-2.44,1.33-4.86,2.03-7.27.66-2.13,1.26-4.29,1.88-6.41.38-1.37.8-2.73,1.26-4.07.22-.68.47-1.34.72-2.01l.39-.99c.14-.33.34-.64.52-.95.5-.77.48-.65.58.17.18.84.26,2.3-.09,3.89-1.24,5.63-2.48,11.21-4.11,16.78-.45,1.67-.86,3.39-1.16,5.14-.35,1.74-.68,3.49-.99,5.23-.76,3.82-1.37,7.66-1.9,11.52-.3,2.38-.6,4.76-.79,7.15-.3,3.62-.56,7.26-.53,10.87-.02,2.8.3,5.55.51,8.3.05.61.15,1.2.2,1.81.2,2.26,0,3-.75,3.55-.17.13-.33.29-.5.37-.55.27-1.16-.62-1.47-2.3-.94-4.98-1.1-10.32-.96-15.65.05-1.98.14-3.97.3-5.95.12-1.98.33-3.96.53-5.94h.08Z"/><path class="cls-1" d="M255.47,161.01c-.21-4.69-.51-9.37-1.07-13.99-.19-1.69-.52-3.35-.79-5.02-.49-2.93-1.13-5.83-2.11-8.58-.52-1.35-1.09-2.69-1.84-3.89-.73-1.23-1.59-2.31-2.71-3.1-.99-.71-2.14-1.27-3.35-1.62-1.22-.34-2.48-.53-3.75-.56-3.26-.04-6.51.77-9.36,2.5-.91.52-.91.37-.4-.46.24-.44.68-.96,1.26-1.59.3-.3.66-.6,1.05-.9.4-.29.87-.51,1.35-.75,3.5-1.58,7.58-1.72,11.31-.5,1.87.62,3.68,1.63,5.14,3.13,1.38,1.48,2.37,3.15,3.13,4.88,1.72,4.14,2.89,8.49,3.63,12.83.79,4.77,1.14,9.56,1.41,14.33.16,2.94.27,5.88.38,8.8.17,4.44.24,8.9.51,13.28.21,3.41.62,6.73,1.09,10.04.09.73.26,1.43.36,2.15.43,2.68.5,3.48-.09,4.26-.13.18-.25.4-.4.53-.46.45-1.33-.55-1.92-2.61-1.62-6.07-1.94-12.51-2.28-18.9-.24-4.75-.38-9.51-.66-14.24h.08Z"/><path class="cls-1" d="M327.63,149.64c-.31.89-.65,1.62-1.02,2.37-.13.27-.2.57-.34.84-.52.95-1.12,1.86-1.74,2.75-.29.38-.49.82-.79,1.2-.18.25-.35.5-.56.73-.26.19-.59.31-.89.43-.2.07-.28-.05-.37-.34-.08-.28-.23-.77-.29-1.19.33-1.06.89-1.89,1.56-2.81.42-.54.53-1.25.76-1.9.26-.72.52-1.44.79-2.16.14-.43.26-.86.33-1.29.09-.65.16-1.31-.05-1.9-.16-.46-.54-.8-.9-1.11-.08-.07-.18-.11-.24-.2-.21-.3-.13-.52.42-1.1l.36-.39c.42-.42.93-.59,1.36-.4,1.27.58,1.91,2.12,2.02,3.53.09,1.07-.12,2.05-.35,2.95h-.07Z"/><path class="cls-1" d="M318.58,145.19l.23-.54c.13-.32.26-.65.41-.95.28-.63.62-1.17.98-1.62.72-.93,1.52-1.44,2.33-1.57.6-.14,1.47.06,1.88.56.37.42.56.93.65,1.52.02.33.04.65.03.99-.06.4-.08.77-.17,1.16-.1.39-.19.81-.3,1.15-.1.35-.21.74-.29.93-.17.47-.36.94-.56,1.39-.34.81-.7,1.62-1.14,2.37-.27.49-.56.97-.88,1.42-.35.44-.76.83-1.18,1.2-.27.23-.31.13-.29-.21.04-.33.05-.95.19-1.56.4-.99.7-2,1.03-2.98.18-.48.35-.97.51-1.46l.24-.74.06-.18c.02-.06.03-.05.04-.08l.08-.14c.23-.39.36-.92.04-1.29-.23-.19-.46-.01-.64.14-.19.17-.35.41-.5.7-.06.08-.28.64-.46,1.06-.19.44-.41.9-.67,1.34-.41.7-.87,1.24-1.34,1.8-.48.55-.97,1.08-1.49,1.6-.8.8-1.6,1.65-2.74,2.26-.26.12-.51.27-.8.35-1.11.29-1.57-.03-1.66-.73-.03-.16-.06-.32-.05-.47,0-.26.12-.49.27-.68.14-.19.31-.32.51-.42,1.14-.57,2.41-1.73,3.59-3.1.42-.5.88-1.08,1.21-1.56.31-.45.56-1.01.82-1.69l.06.02Z"/><path class="cls-1" d="M306.94,153.51c.2-.65.25-1.24.24-2.02-.02-.76-.11-1.6-.13-2.53,0-.68-.04-1.42.15-2.17l.15-.49c.07-.2.15-.38.25-.55.2-.35.39-.62.72-.95.64-.64,1.51-1.03,2.36-.9.43.04.79.29,1.12.57.18.11.29.31.43.46l.2.24.14.3c.36.74.41,1.26.51,1.86.13,1.02.16,2,.2,2.95.01.61.09,1.2.07,1.8-.04.59-.08,1.16-.12,1.78-.02.39.01.35-.26.1-.28-.24-.89-.78-1.19-1.5-.06-.16-.14-.32-.18-.47l-.09-.48-.15-.93-.27-1.78c-.11-.56-.18-1.11-.3-1.58l-.1-.32c-.02-.12-.1-.21-.05-.2.02-.05,0-.15-.04-.23-.1-.25-.43-.19-.58,0-.1.1-.26.36-.3.53-.07.25-.14.55-.17.85-.18,1.36.26,3.06.1,4.98-.12,1.19-.52,2.26-.9,3.23-.59,1.48-1.19,2.82-1.13,4.23.02,1.1.52,1.97,1.18,2.69.15.16.32.3.48.46.61.6.73.9.42,1.58-.07.15-.13.31-.21.46-.27.47-.88.57-1.58.13-1-.64-2.03-1.69-2.53-3.13-.25-.7-.36-1.44-.37-2.15,0-.7.06-1.37.21-2.05.45-1.98,1.33-3.45,1.64-4.78h.06Z"/><path class="cls-1" d="M279.44,177.12c2.24-1.52,4.42-3.08,6.93-4.4l.82-.42c.39-.14.77-.38,1.16-.44l.29-.07c.1,0,.19.01.29.02l.58.06c.34.17.66.38.92.71.25.27.44.61.64.92l.21.38.16.3c.21.4.41.8.6,1.2.38.8.74,1.6,1.08,2.41.68,1.61,1.31,3.24,1.89,4.88.53,1.45,1.04,2.92,1.48,4.4.28.95.56,1.9.75,2.89.09.49.13,1,.16,1.5.04.5-.12,1.03-.21,1.53-.19.63-.13.53-.38.03-.12-.25-.35-.59-.67-.98-.27-.39-.48-.85-.68-1.35-.53-1.82-1.21-3.63-1.93-5.43-.66-1.82-1.38-3.64-2.09-5.48-.43-1.1-.96-2.18-1.55-3.21-.29-.51-.62-1.06-.9-1.48l-.17-.25c-.05-.08-.13-.18-.24-.14-.11.01-.21.06-.32.1l-.08.04-.2.11-.41.23c-.55.32-1.11.67-1.66,1.03-1.12.7-2.23,1.45-3.33,2.21-1.35.94-2.7,1.89-4.03,2.88-2.01,1.49-4.03,2.99-5.94,4.59-1.48,1.24-2.81,2.6-4.19,3.93-.3.29-.58.6-.89.88-1.16,1.05-1.67,1.22-2.43.87-.17-.08-.36-.14-.51-.24-.5-.34-.35-1.14.41-2.05,2.27-2.66,5.04-5.01,7.88-7.29,2.12-1.69,4.31-3.31,6.51-4.91l.05.06Z"/><path class="cls-1" d="M244.64,208.04c1.29,1.92,2.82,3.6,4.73,4.59,1.92,1.01,4.19,1.48,6.53,1.51,1.72,0,3.44-.27,5.17-.57,6.12-1.15,12.11-3.66,17.74-6.71,2.49-1.38,4.92-2.91,7.24-4.52,2.99-2.07,5.78-4.41,8.6-6.65.88-.69,1.03-.39.7.65-.3,1.07-1.26,2.76-2.89,4.19-2.87,2.54-5.93,4.82-9.14,6.9-3.26,2-6.66,3.78-10.24,5.23-4.27,1.72-8.77,3.53-13.58,4.18-2.63.34-5.37.35-8.05-.28-2.68-.58-5.25-2.07-7.13-4.05-2.33-2.42-3.89-5.32-5.17-8.25-1.94-4.46-3.08-9.16-4.09-13.78-.77-3.6-1.53-7.14-2.05-10.76-.11-.8-.24-1.57-.32-2.38-.3-2.99-.04-3.97.63-4.65.16-.15.31-.35.46-.45.52-.31,1.04.87,1.47,2.99,1.15,6.3,2.17,12.94,3.94,19.36.65,2.38,1.4,4.73,2.28,7,.87,2.27,1.93,4.45,3.24,6.38l-.06.05Z"/><path class="cls-1" d="M249.08,331.25c1.27-5.28,2.72-10.59,3.87-15.78.09-.45.18-.94.22-1.29.02-.12-.03-.17-.02-.25l-.13-.43c-.25-.68-.73-1.49-1.19-2.28-1.71-2.83-3.86-5.61-5.98-8.34l-6.44-8.27c-1.93-2.44-3.87-4.89-5.79-7.31-1.21-1.57-2.39-3.18-3.5-4.84-1.11-1.65-2.15-3.37-2.94-5.22-.49-1.15-.33-1.03.39-.25.35.4.89.93,1.53,1.57.63.65,1.31,1.43,2.02,2.31,1.24,1.56,2.55,3.07,3.87,4.58l3.93,4.55c2.65,3.03,5.32,6.07,7.89,9.24,1.54,1.91,3.1,3.86,4.68,5.82.79.99,1.57,2,2.33,3.05.75,1.06,1.48,2.14,2.08,3.44.3.74.66,1.53.64,2.7-.08.93-.23,1.54-.36,2.25-.29,1.37-.6,2.71-.92,4.04l-1.92,7.99c-.78,3.27-1.58,6.54-2.31,9.82-1.1,4.97-2.18,9.97-2.9,14.95-.55,3.87-.8,7.72-.76,11.49.01.83.08,1.63.14,2.44.1,1.51.26,2.41.27,3.04,0,.32-.03.58-.08.8-.07.25-.16.47-.24.72-.09.23-.08.48-.14.68-.05.16-.15.24-.35.24-.2,0-.49-.11-.82-.35-.7-.46-1.26-1.51-1.57-2.77-.45-1.89-.58-3.75-.62-5.6-.03-1.85.05-3.7.2-5.55.3-3.69.85-7.37,1.48-11.03.95-5.44,2.14-10.83,3.35-16.2h.09Z"/><path class="cls-1" d="M272.62,375.26c-2.01-.11-4.02-.29-6.02-.45-.73-.05-1.46-.03-2.19-.1-2.57-.26-5.13-.6-7.68-.9-1.13-.13-2.27-.21-3.4-.28-1.45-.09-2.9-.22-4.31-.6-.44-.19-.36-.38.05-.71.41-.32,1.14-.69,1.97-.73,1.48-.09,2.94-.05,4.4,0,1.46.05,2.93.15,4.4.3,1.76.2,3.6.04,5.4.05,1.98,0,3.97.02,5.95,0,1.22-.02,2.45.01,3.67-.03,1.85-.05,3.71-.07,5.54-.27,1.42-.16,2.79-.55,4.18-.87.31-.07.6-.17.91-.23.57-.11.96-.08,1.25.11.29.18.48.47.66.92.08.21.18.41.24.61.19.67-.21,1.35-1.04,1.78-2.47.95-5.18,1.23-7.9,1.39-2.02.12-4.06.1-6.08.11v-.09Z"/><path class="cls-1" d="M235.88,447.89c.82-1.22,1.95-2.3,3.27-3.03.66-.37,1.35-.65,2.05-.86.66-.21,1.54-.33,2.14-.37,2.53-.16,4.79-.06,7.13,0l13.77.57c3.34.11,6.67.11,9.97.13,2.91.01,5.83-.02,8.65-.31,1.39-.15,2.81-.37,3.9-.78.15-.04.24-.11.35-.16.09-.05.25-.11.26-.15.11-.07.19-.14.29-.34.22-.38.39-1.02.5-1.66.45-2.66.41-5.66.47-8.59.04-2.95.07-5.93.34-8.94.25-2.66.6-5.38,1.66-8.02.54-1.31,1.31-2.62,2.49-3.64.27-.28.63-.46.94-.69.32-.2.63-.33.94-.5.62-.35,1.27-.56,1.91-.83,3.33-1.2,6.79-1.53,10.16-1.69,1.69-.09,3.37-.09,5.04-.07l2.5.02c.83,0,1.68.32,2.52.3,2.08-.05,1.8-.07.07.33-.87.11-2.07.94-3.59,1.16-.75.18-1.57.35-2.43.52-.43.09-.88.15-1.33.25-.45.05-.92.11-1.39.17-1.67.19-3.33.4-4.94.69-.8.16-1.6.31-2.36.52-.39.07-.78.16-1.15.27-.38.1-.77.18-1.12.31-.74.22-1.44.5-2.12.8l-.97.5c-.21.17-.46.28-.65.5-.85.73-1.47,2.04-1.93,3.45-.89,2.89-1.12,6.24-1.26,9.58-.14,3.36-.1,6.77-.29,10.3-.07,1.06-.14,2.13-.3,3.25-.08.56-.19,1.13-.34,1.73-.08.3-.19.62-.3.93-.17.34-.26.65-.54,1.01-.22.36-.55.66-.9.94-.34.27-.63.38-.96.57-.6.27-1.19.47-1.76.61-1.14.31-2.23.48-3.32.63-4.35.53-8.62.6-12.86.58-4.65-.05-9.28-.24-13.9-.42l-6.91-.24c-1.15-.02-2.29-.05-3.42-.04-1.11.01-2.3.03-3.22.17-1.14.2-2.24.72-3.07,1.51-.85.79-1.48,1.85-1.89,3.04-.83,2.3-.43,5.14-.57,8.12-.06,1.01-.17,2.06-.51,3.14-.35,1.08-.97,2.16-2.04,2.93-.26.14-.54.32-.81.4-.26.08-.52.17-.74.21-.46.11-.91.18-1.35.23-.88.12-1.73.19-2.59.24-1.71.11-3.39.16-5.08.2-3.37.07-6.72.08-10.04.11-3.33.02-6.62.08-9.89.19-3.25.13-6.56.24-9.67.63-.34.05-.67.1-.97.16-.16.03-.32.06-.43.09-.1.03-.32.07-.31.1h-.03s-.02.02-.02.02c-.02-.02.02.06-.08-.1l-.1-.17-.03-.04c-.04-.07.34.61.18.32h0s0,0,0,0h0s-.01,0-.01,0l-.04.03-.09.06-.35.23c-.21.17-.44.33-.63.53-1.42,1.43-1.63,3.05-1.9,4.11-.23,1.11-.43,1.81-.81,2.42-.17.28-.31.65-.48.83-.28.31-.66-.05-1.03-1.06-.32-1-.73-2.7-.21-5.03.39-1.71,1.42-3.48,2.94-4.66.18-.16.38-.28.58-.42l.3-.2c.16-.08.32-.16.48-.23.37-.17.54-.19.8-.28.25-.08.46-.12.67-.17.86-.19,1.63-.27,2.42-.37,3.12-.33,6.17-.44,9.25-.53,6.15-.18,12.36-.14,18.52-.2,1.8-.03,3.61-.07,5.37-.16.89-.04,1.75-.11,2.58-.2.39-.06.81-.1,1.13-.18.19-.03.3-.07.39-.09.09-.01.02-.02.05-.01-.04,0,.18-.12.23-.23.11-.09.18-.26.27-.4.16-.35.3-.78.37-1.33.17-1.07.15-2.39.12-3.79-.02-1.41-.07-2.91.16-4.6.15-.9.36-1.7.66-2.51.3-.81.69-1.61,1.19-2.36l.08.04Z"/><path class="cls-1" d="M178.75,479.82c-2.85-.06-5.71-.11-8.56-.11-1.04,0-2.08.09-3.13.08-3.68,0-7.37-.02-11.05-.03-1.63.01-3.28.09-4.9.18-1.04.07-2.09.1-3.13.11h-.78s-.79-.11-.79-.11c-.52-.07-1.05-.15-1.57-.27-.65-.16-.57-.36-.03-.76.27-.2.65-.49,1.12-.74.23-.13.48-.26.75-.38.13-.06.27-.1.41-.18.14-.02.29-.05.44-.07,2.11-.28,4.23-.33,6.35-.37,2.12-.04,4.26-.04,6.4.03,2.57.09,5.23-.17,7.85-.24,2.89-.08,5.78-.11,8.67-.13l5.34.03c2.7.01,5.41.13,8.08.13,2.08.02,4.13-.12,6.2-.13.46,0,.9-.04,1.36-.02.85.02,1.41.12,1.79.33.38.2.59.46.74.84.07.17.16.35.2.51.11.55-.61,1-1.85,1.2-3.66.28-7.46.21-11.31.19-2.86-.02-5.73-.07-8.6-.05v-.07Z"/><path class="cls-1" d="M240,465.14c.38.07.67.33.94.47.09.05.06.12-.05.15-.22.04-.45.11-.67.19-.05.01-.21.05-.43.11-.23.04-.53.06-.85.11-.64.1-1.35.25-1.71.33-.7.23-1.37.2-2.05.25-1.38.04-2.75.24-4.13.33-.31.02-.62,0-.93-.03-1.07-.14-2.14-.07-3.21.06-.18.02-.37.02-.53.13-.26.19-3.25.4-3.66.24-.98-.22-1.95-.37-2.91-.57-.14-.03-.29-.01-.41-.12-.28-.27-.58-.24-.87-.29-.41-.09-.81-.21-1.21-.36-.2-.09-.38-.24-.57-.35-.17-.1-.05-.3.01-.33.19-.06.05-.19.05-.28,0-.03,0-.08,0-.1,0-.02.16-.06.39-.14.23-.09.53-.16.84-.25.62-.21,1.25-.36,1.37-.35.01,0,.23-.01.56-.03.32-.03.75-.07,1.19-.11.88-.11,1.79-.24,1.98-.29.19-.05.39,0,.59.04.09.03,2.75-.36,2.86-.36.56,0,1.12-.15,1.7.06.11.04.23.02.34,0,.97-.1,1.96-.06,2.95-.02.51.04,1.01.02,1.52.05.09,0,.18.04.27.06.11.02.23.06.34.06,1.2.07,2.39.19,3.57.37.27.06,1.54.56,1.85.59.17.05.72.36.87.39Z"/><path class="cls-1" d="M293.73,445.26c.36-.04.67.15.95.37.09.07.08.27-.02.31-.23.1-.44.2-.61.27-.12.04-2.11.65-2.79.77-.65.17-1.31.27-1.97.35l-4.04.21c-.3.01-.6,0-.9-.05-1.03-.14-2.06-.14-3.09-.08-.17.01-.35,0-.52.08-.28.19-3.08.05-3.44-.04-.89-.24-1.78-.34-2.67-.61-.13-.03-.26-.02-.37-.13-.26-.26-.53-.24-.81-.3-.38-.08-.76-.18-1.13-.29-.19-.06-.36-.19-.55-.28-.16-.09-.06-.33,0-.36.18-.07.05-.2.04-.31,0-.04,0-.08,0-.11.01-.03.57-.16,1.16-.33.59-.18,1.21-.33,1.33-.33.03.02.85-.1,1.7-.11.85-.03,1.74-.06,1.92-.08.19-.02.38.04.56.08.09.02,2.63-.16,2.73-.13.52.04,1.05-.03,1.57.19.1.04.21.03.32.03.9-.02,1.81.07,2.72.13.46.03.93,0,1.39,0,.08,0,.17.03.25.04.11.02.21.05.32.04,1.1-.06,2.21.11,3.31.09.25,0,1.47.23,1.77.29.16.02.71.31.85.28Z"/><path class="cls-1" d="M311.36,408.96c-.34.07-.64-.11-.99-.28-.11-.06-.18-.29-.08-.38.19-.16.4-.32.63-.45.07-.02.69-.31,1.36-.38.64-.06,1.34-.13,1.71-.16.69-.08,1.37-.1,2.05-.12,1.39-.03,2.78-.11,4.16-.2.31-.02.62-.01.92,0,1.06.08,2.12.02,3.17-.14.17-.02.36-.03.52-.13.27-.18,3.11-.46,3.49-.45.93.06,1.86.04,2.79.04.13,0,.27-.05.4.03.31.2.59.12.87.09.4-.03.8-.06,1.2-.04.21.04.42.13.64.26.2.1.15.39.09.45-.16.14.01.27.05.4.01.04.03.1.03.14.02.21-2.19,1.16-2.45,1.19-.06.01-3.41.6-3.81.67-.2.05-.41,0-.61-.01-.09,0-2.81.4-2.92.37-.57,0-1.13.1-1.71-.08-.11-.04-.23-.02-.34-.01-.97.06-1.95,0-2.92-.06-.5-.03-.99,0-1.49-.01-.09,0-.18-.03-.27-.05-.11-.02-.23-.04-.34-.04-1.17,0-2.34-.14-3.52-.13-.27,0-1.56-.27-1.83-.26-.16.02-.68-.34-.83-.28Z"/><path class="cls-1" d="M306.59,410.64c-.46.05-.85-.15-1.2-.32-.11-.06-.11-.23.02-.28.25-.1.5-.21.75-.33.08-.01.73-.29,1.47-.42.74-.17,1.56-.36,1.99-.45.82-.16,1.64-.26,2.46-.34l5-.57c.37-.04.74-.05,1.12-.05,1.28.01,2.56-.11,3.82-.29.21-.03.43-.04.63-.13.32-.15,3.77-.55,4.22-.55,1.12,0,2.24-.04,3.37-.07.16,0,.33-.05.48.01.36.16.7.08,1.04.05.48-.02.95-.12,1.45-.02.24.04.49.13.74.2.22.07.13.27.06.31-.2.1-.02.19.02.28.01.03.02.07.02.1,0,.02-.17.11-.42.23-.25.12-.59.32-.94.41-.71.23-1.45.45-1.6.47-.07.01-4.04.66-4.52.74-.24.05-.48.03-.72.03-.12.02-3.31.5-3.44.52-.67.05-1.33.19-2.01.08-.13-.02-.27,0-.4.02-1.14.14-2.29.2-3.44.24-.59.03-1.17.09-1.76.14-.11,0-.21,0-.32-.01-.13,0-.27-.02-.4,0-1.39.12-2.78.13-4.16.3-.32.04-1.86-.13-2.23-.09-.21.03-.9-.21-1.08-.2Z"/><path class="cls-1" d="M253.03,102.07c-.56,2.36,1.07,4.78,3.36,5.44.68.19,1.38.2,2.07.05.64-.14,1.07-.92.87-1.54-.22-.67-.85-1.02-1.54-.87-.09.02-.17.03-.26.05l.33-.04c-.24.03-.49.03-.73,0l.33.04c-.26-.04-.51-.11-.75-.21l.3.13c-.29-.12-.57-.29-.82-.48l.25.2c-.25-.2-.48-.42-.68-.68l.2.25c-.19-.25-.35-.53-.48-.82l.13.3c-.1-.24-.17-.49-.21-.75l.04.33c-.04-.26-.04-.52,0-.78l-.04.33c.01-.09.03-.18.05-.26.15-.64-.2-1.38-.87-1.54-.64-.15-1.38.19-1.54.87h0Z"/><path class="cls-1" d="M261.65,78.57c.1-.1.21-.2.32-.3.11-.09.11-.09,0-.01.06-.04.12-.09.18-.13.21-.15.43-.28.66-.39.05-.02.46-.19.2-.1.1-.04.21-.08.31-.11.28-.09.56-.16.85-.21.35-.07-.25.01.1-.01.15-.01.29-.02.44-.03.26,0,.51,0,.77.03.15.02.15.02,0,0,.07.01.14.02.22.04.14.03.29.06.43.1.11.03.21.06.31.1.07.02.14.05.21.08-.13-.06-.13-.06,0,0,.23.11.48.23.69.39-.09-.07-.09-.06.02.03-.07-.11-.06-.1.01.03-.09-.25-.15-.46.11-.68l.32-.18c.52.12.65.12.39-.01-.12-.09-.14-.1-.06-.03-.12-.09-.24-.18-.35-.27-.24-.17-.49-.33-.75-.47-1.24-.65-2.67-.95-4.06-.77-.65.08-1.28.51-1.25,1.25.03.6.56,1.34,1.25,1.25.29-.04.59-.06.88-.05.15,0,.29.01.44.03s0,0-.02,0c.1.02.21.04.31.06.29.06.57.15.85.25.13.05.02,0,0,0,.08.03.15.07.23.11.15.07.3.16.44.24.13.08.25.16.37.25s.02.01,0,0c.12.09.23.19.36.27.35.24.77.4,1.19.4.99,0,1.72-.85,1.77-1.8.09-1.55-1.57-2.41-2.83-2.8-1.14-.36-2.37-.37-3.54-.15-1.32.25-2.57.92-3.52,1.87-.46.46-.5,1.31,0,1.77s1.27.49,1.77,0h0Z"/><path class="cls-1" d="M270.01,86.28c-1.66,2.9-3.55,5.7-5.63,8.28-.42.52-.51,1.25,0,1.77.44.44,1.34.53,1.77,0,2.24-2.77,4.26-5.7,6.03-8.79.33-.59.14-1.37-.45-1.71s-1.37-.14-1.71.45h0Z"/><path class="cls-1" d="M354.77,82.8c.13.22,0,.45-.26.7-.08.08-.37.14-.43.09-.12-.11-.24-.23-.34-.35-.06-.07-.64-1.35-.85-1.79-.22-.42-.32-.87-.43-1.32-.2-.91-.41-1.84-.54-2.77-.03-.21-.04-.42-.01-.63.08-.72.04-1.43,0-2.15,0-.12,0-.24-.08-.36-.17-.19-.09-2.16.01-2.4.24-.61.4-1.22.68-1.8.04-.08.02-.18.15-.24.3-.14.29-.33.35-.51.07-.26.2-.5.36-.73.08-.12.25-.21.39-.31.13-.09.45.05.48.09.09.14.27.08.41.1.05,0,.11.02.15.03.07.04.58,1.59.54,1.73,0,.02-.01.54-.03,1.09-.02.55-.04,1.12-.02,1.23.01.12-.06.24-.11.36-.04.06.05,1.69.05,1.76-.06.34.04.67-.2,1.01-.05.07-.04.14-.04.2,0,.58-.11,1.17-.16,1.76-.03.3,0,.6,0,.9,0,.05-.03.11-.04.17-.01.07-.04.14-.03.21.04.71,0,1.44.15,2.15.02.16-.08.99-.02,1.18.02.11-.15.51-.1.59Z"/><path class="cls-1" d="M360.41,84.73c-.06.22-.34.1-.75-.2-.13-.1-.41-.47-.41-.55,0-.17,0-.33.03-.47.02-.08.64-.91.83-1.21.19-.29.43-.52.67-.74l1.49-1.36c.11-.1.24-.18.38-.23.49-.19.89-.52,1.25-.89.06-.06.14-.11.14-.23,0-.22,1.07-1.1,1.26-1.14.46-.13.89-.31,1.33-.47.06-.02.09-.09.21-.04.27.13.35,0,.47-.06.17-.1.34-.18.55-.23.1-.02.27.04.42.08.13.04.35.38.35.43.01.15.18.26.29.39.04.04.08.1.11.14.06.09-.39,1.31-.48,1.38,0,0-.3.3-.6.61-.3.31-.61.63-.67.71-.06.08-.17.09-.27.12-.04.03-.94.95-.99.97-.23.13-.39.36-.75.33-.07,0-.11.04-.15.07-.35.29-.78.49-1.18.71-.21.11-.38.27-.57.41-.03.02-.09.02-.13.04-.05.02-.11.03-.16.06-.44.34-.95.57-1.35.97-.09.09-.73.26-.83.37-.06.06-.48-.04-.5.05Z"/><path class="cls-1" d="M368.81,90.54c-.13.21-.36-.07-.67-.64-.1-.18-.26-.77-.23-.87.06-.19.12-.38.2-.52.04-.09,1.02-.69,1.37-.9.33-.22.68-.32,1.04-.4.73-.16,1.47-.34,2.21-.44.17-.02.33-.02.5.03.58.17,1.14.16,1.71.09.09-.01.19,0,.28-.11.15-.2,1.72-.18,1.91-.03.48.28.96.47,1.42.72.07.03.15,0,.19.15.1.33.26.3.4.35.2.06.4.15.58.29.09.07.16.25.23.41.06.14-.07.56-.11.61-.11.12-.08.34-.11.52,0,.06-.02.14-.03.19-.04.1-1.24.71-1.35.7-.03-.02-1.6.12-1.77.19-.09.03-.18-.05-.27-.1-.04-.04-1.27.18-1.32.18-.25-.04-.5.08-.76-.19-.05-.05-.1-.04-.15-.03-.43.07-.88-.03-1.33-.07-.23-.02-.45.04-.67.05-.04,0-.09-.03-.13-.05-.05-.02-.11-.05-.16-.04-.53.08-1.09.01-1.6.22-.12.04-.76-.14-.9-.07-.07.03-.44-.32-.49-.23Z"/></svg>