<?xml version="1.0" encoding="UTF-8"?><svg id="Layer_1" xmlns="http://www.w3.org/2000/svg" width="520" height="520" viewBox="0 0 520 520"><defs><style>.cls-1{opacity:.35;}.cls-1,.cls-2,.cls-3,.cls-4{fill:#231f20;stroke-width:0px;}.cls-2,.cls-5{opacity:.2;}.cls-6{fill:none;stroke:#231f20;stroke-miterlimit:10;stroke-width:.75px;}.cls-3{opacity:.15;}</style></defs><path class="cls-1" d="M409.94,163.13c.06,1.06-.19,2.12-.8,3.04-2.96,4.53-11.2,1.61-11.03-3.25.1-2.87,2.89-5.21,6.14-5.21,3.36,0,5.54,2.68,5.69,5.42Z"/><circle class="cls-1" cx="325.87" cy="217.1" r="2.14"/><ellipse class="cls-1" cx="140.37" cy="68.63" rx="4.48" ry="4.25"/><path class="cls-4" d="M278.9,55.35c.11-.26.22-.52.32-.78.14-.26.24-.54.33-.82.08-.21.05-.42.11-.63.2-.75.32-1.56.23-2.36-.02-.36-.16-.69-.25-1.03-.14-.43-.29-.85-.38-1.34-.02-.15.11-.22.35-.21.22.01.59.08.83.3.84.76,1.23,1.84,1.29,2.92.03.65.23,1.3.26,1.96,0,.73-.02,1.47-.25,2.17-.12.43-.27.85-.43,1.27-.23.63-.57,1.22-.83,1.83-.21.47-.31,1.01-.53,1.51-.04.11-.07.24-.14.33-.25.36-.5.35-1.11-.09-.14-.1-.28-.19-.42-.3-.45-.36-.71-.8-.7-1.1.03-.44.08-.83.18-1.17.1-.35.27-.65.42-.98.23-.48.48-.96.66-1.48h.07Z"/><path class="cls-2" d="M236.52,90.66s-11.79,1.98-11.79,5.7,2.18,8.66,5.26,10.04c3.08,1.38,3.88,2.14,3.88,2.14,0,0-1.6,16.62,7.69,26.25,9.1,9.44,18.75,6.77,23.57,4.69,4.82-2.08,12.82-8.21,14.58-10.45,1.76-2.24,11.8-20.04,12.85-25.2,1.05-5.16-6.37-11.22-7.6-16.29-1.22-5.07-4.22-10.16-4.22-10.16l-16.01,9.45s-9.91-6.35-12.82-4.94c-2.91,1.41-8.83,5.21-6.84,9.88,1.99,4.67,1.43,4.85-.8,5.82-2.23.96-7.75-6.95-7.75-6.95Z"/><path class="cls-2" d="M291.5,168.22s15.48-4.02,18.31-3.43c2.82.6,15.53,6.34,15.98,8.04.45,1.71,6.58,7.43,7.17,9.38.59,1.95,1.27,8.55,0,9.66s-3.87,1.14-3.81-.64.34-6.25-.38-7.11-2.98-1.97-2.98-1.97c0,0,.18,3.49,0,5.06-.18,1.57-2.68,5.47-3.95,6.87s-4.61-.43-4.61-.43c0,0-5.49-1.95-5.24-2.41s-4.99-.28-4.15-2.71c.84-2.43,3.62-.65,3.67-2.77s-1.72-4.25-1.72-4.25l-8.88,1.98-6.85-2.66-4.11-7.99,1.55-4.62Z"/><path class="cls-2" d="M248.47,222.93s1.51,5.77,1.55,10.76c.08,9.77-5.84,17.92-8.46,20.13-2.61,2.21-8.24,6.04-7.99,3.8s3.39-8.89,3.39-8.89c0,0-9.03,5.24-12.23,5.09s-4.23-2.4-4.23-2.4c0,0-6.93-.68-6.48-2.12s1.44-4.2,1.44-4.2l-3.08-.98s-1.09-3.03,3.08-4.93c4.18-1.9,33-16.27,33-16.27Z"/><path class="cls-4" d="M147,481.97s7.9.39,10.99-3.36c2.39-2.89,2.29-8.35,2.39-13.46.24-12.36-1.37,16.57,3.91,16.82s-17.29,0-17.29,0Z"/><path class="cls-4" d="M308.72,482.02c-2.3-.03-6.01-.87-7.64-4.13-1.66-3.33-1.17-14.69-1.17-14.69l-2.48,7.5s-2.97,12.3,3.11,11.84c6.07-.47,8.19-.52,8.19-.52Z"/><path class="cls-4" d="M191.22,159.98c-.34-1.02-.76-2.01-1.18-3-.08-.2-.17-.39-.25-.59-.06-.15-.05-.11.05.12-.02-.05-.05-.11-.07-.16-.05-.11-.09-.22-.14-.33-.2-.49-.38-.98-.54-1.48-.25-.74-1.05-1.31-1.85-1.05-.74.24-1.31,1.05-1.05,1.85.34,1.02.76,2.01,1.18,3,.08.2.17.39.25.59.06.15.05.11-.05-.12.02.05.05.11.07.16.05.11.09.22.14.33.2.49.38.98.54,1.48.25.74,1.05,1.31,1.85,1.05.74-.24,1.31-1.05,1.05-1.85h0Z"/><path class="cls-4" d="M240.47,188.88c.79-2.72,1.98-5.13,3.74-7.53.43-.58.12-1.56-.49-1.88-.72-.38-1.42-.13-1.88.49-1.81,2.46-3.16,5.25-4.02,8.18-.2.69.24,1.53.96,1.69s1.48-.22,1.69-.96h0Z"/><path class="cls-4" d="M212.21,387.4c-.05-.16-.13-.24-.22-.39-.13-.14-.23-.29-.4-.44-.3-.3-.65-.6-1.01-.88-.26-.21-.57-.37-.84-.57-.97-.72-1.99-1.43-3.03-2.1-.46-.3-.93-.6-1.41-.87-.61-.35-1.16-.83-1.66-1.38-.15-.18-.06-.24.19-.26.23,0,.65-.05,1.04.06,1.44.29,2.66,1.03,3.83,1.91.7.53,1.53.91,2.28,1.41.83.57,1.64,1.14,2.38,2,.49.58.73,1.29.81,1.99.11,1.07-.21,2.06-.59,2.95-.29.69-.58,1.38-.97,2.03-.09.14-.16.29-.26.42-.42.45-.68.47-1.1.22-.1-.06-.2-.11-.28-.17-.28-.22-.34-.6-.19-.98.46-1.1,1.09-2.02,1.38-3,.22-.71.26-1.37,0-1.9l.04-.02Z"/><path class="cls-4" d="M247.07,387.64c.33-.89.79-1.67,1.34-2.35.18-.26.36-.51.58-.74.84-.73,1.74-1.3,2.65-1.78.39-.23.82-.4,1.22-.59.27-.11.53-.22.8-.32.28-.08.56-.13.84-.18.18-.02.19.08.12.27-.08.19-.22.52-.45.74-.4.4-.78.8-1.14,1.19-.39.34-.85.58-1.28.87-.56.31-.88.9-1.27,1.36-.24.24-.4.53-.62.79-.15.29-.36.56-.47.87-.18.37-.28.76-.35,1.16-.05.6-.08,1.25.16,1.83.14.47.58.8.84,1.18.07.08.16.15.22.24.22.33.16.53-.21.94-.08.09-.16.2-.25.28-.29.3-.68.37-1.03.17-1.15-.5-1.72-1.77-1.95-3.05-.2-.97-.03-1.98.22-2.9h.05Z"/><path class="cls-3" d="M191.25,354.53l76.06.99s-6.83,14.28-22.39,23.59c-4.31,2.58-6.43,6.67-7.86,11.78-2.65,9.43-2.38,41.86-.43,48.17,1.54,5.01,10.41,13.96,15.1,17.02,4.69,3.06,10.42,8.47,13.16,15.09l-69.84-.57s7.58-11.33,13.09-14.61c6.02-3.58,15.22-11.74,16.66-16.93,1.44-5.19,2.14-43.73.66-48.17-1.48-4.45-5.44-8.48-10.55-11.23-5.11-2.74-18.88-12.1-23.68-25.13Z"/><path class="cls-4" d="M176.25,481.53c-6.12-1.38-10.35-1.27-11.81-3.63-1.59-2.58-2.07-10.76-2.4-10.77,0,0-4.14,14.6.66,14.84s13.55-.44,13.55-.44Z"/><path class="cls-4" d="M280.34,481.53c.26,0,12.61,1.21,14.97-1.93,2.12-2.82,1.61-8.34,1.98-12.47l.14,15.41-17.09-1.01Z"/><path class="cls-4" d="M183.91,298.19c2.34.85,4.76,1.48,7.23,1.89.91.11,1.82.19,2.73.28,3.21.4,6.5.4,9.76.13l2.18-.2c.72-.11,1.44-.22,2.16-.33.92-.14,1.84-.3,2.76-.48.92-.16,1.85-.29,2.79-.42.58-.07.53.02.08.28-.45.25-1.26.74-2.29,1.15-.9.38-1.84.61-2.78.87-.94.24-1.88.52-2.84.7-.96.2-1.93.3-2.9.41-.98.08-1.96.11-2.94.14-1.17.04-2.38,0-3.58.07-1.21-.03-2.43,0-3.63-.12-2.65-.23-5.27-.8-7.82-1.54-1.57-.46-3.1-1.03-4.6-1.63-1.14-.45-2.25-.95-3.34-1.35-1.08-.41-2.21-.62-3.36-.72-1.8-.15-3.61.07-5.49.15-.42.01-.82.05-1.25.04-1.58-.05-2.09-.32-2.31-1.07-.05-.17-.12-.33-.14-.49-.05-.51.61-.9,1.67-.95,1.58-.1,3.22-.24,4.99-.27,1.76-.02,3.65.07,5.56.59,1.44.4,2.65.96,3.84,1.45,1.18.49,2.35.97,3.54,1.36l-.02.06Z"/><path class="cls-4" d="M285.86,176.65c.25.69.46,1.39.64,2.09.07.25.16.5.21.76.19.91.34,1.81.45,2.72.05.41.11.8.16,1.2.07.51.14,1.02.14,1.54,0,.32-.4-.04-.58-.6-.25-1.01-.58-2-.69-3.03-.08-.62-.3-1.23-.48-1.84-.2-.66-.42-1.33-.68-1.97-.16-.4-.33-.79-.52-1.16-.29-.57-.61-1.13-1.01-1.63-.33-.37-.7-.67-1.1-.93-.08-.06-.17-.12-.26-.16-.27-.27-.32-.43-.26-.68.01-.06.02-.12.03-.16.04-.15.28-.22.63-.13.99.3,1.73,1.13,2.31,1.96.22.31.41.64.59.98.15.35.32.68.45,1.03h-.02Z"/><path class="cls-4" d="M304.41,362.89c-.72-.35-1.44-.71-2.16-1.06-.26-.13-.54-.21-.8-.35l-1.36-.73c-.44-.27-.89-.53-1.33-.79-.39-.23-.81-.41-1.2-.64-.51-.28-1.01-.57-1.48-.92-.15-.11-.08-.18.11-.23.19-.04.52-.09.85-.03,1.2.19,2.29.59,3.33,1.14.62.35,1.32.56,1.98.83.73.3,1.46.61,2.19.92.45.18.9.37,1.35.55.69.27,1.37.56,2.08.76.55.15,1.12.21,1.67.29.12.02.25.02.36.07.43.16.54.32.53.73,0,.09,0,.19,0,.28-.04.3-.29.49-.66.54-1.1.13-2.13-.2-3.18-.49-.77-.24-1.53-.51-2.28-.82v-.04Z"/><path class="cls-4" d="M259.32,395.71c3.86,1.83,7.8,3.71,11.59,5.91,1.89,1.11,3.69,2.38,5.48,3.67,1.8,1.27,3.54,2.63,5.19,4.09,2.42,2.13,4.72,4.42,6.71,6.96,3.54,4.47,6.24,9.57,8.05,14.93,1.84,5.35,2.75,10.96,3.26,16.48.43,4.92.59,9.88.61,14.75.01,3.13-.11,6.26-.26,9.38-.17,3.12-.38,6.23-.88,9.32-.34.96-.5,1.37-.58,1.34-.08-.03-.12-.51-.44-1.34-.33-.83-.54-2.01-.8-3.43-.26-1.42-.45-3.08-.45-4.87-.02-3.17-.09-6.33-.14-9.48,0-3.15-.04-6.28-.19-9.41-.36-6.24-.73-12.5-2.21-18.53-1.72-7.24-5.55-14.21-10.73-19.77-2.85-3.06-6.08-5.77-9.59-8.12-3.56-2.26-7.27-4.32-11.11-6.19-2.36-1.16-4.77-2.26-7.18-3.41-2.4-1.18-4.85-2.33-7.14-4.08-.85-.68-1.7-1.46-2.33-2.54-.32-.52-.56-1.14-.68-1.77-.07-.32-.09-.64-.1-.96,0-.33.06-.7.11-1.04.36-1.35,1.15-2.29,1.93-3.06.8-.76,1.63-1.43,2.49-2.02,3.44-2.35,7.02-4.15,10.5-6.1,5.4-3.01,10.57-6.15,15.32-9.83,1.05-.8,2.03-1.65,3.03-2.51,1.86-1.6,3.03-2.69,3.92-3.4.9-.7,1.53-1.02,2.21-1.15.31-.06.67-.18.92-.16.82.01.02,2.09-2.56,4.94-3.84,4.19-8.53,7.69-13.42,10.82-4.88,3.15-10.16,5.74-15,8.6-1.78,1.06-3.53,2.19-4.77,3.37-.62.57-.99,1.2-.98,1.36-.03,0-.02.32.03.51.05.21.17.44.33.7.34.52.97,1.1,1.71,1.64.74.54,1.6,1.05,2.49,1.54,1.79.98,3.72,1.88,5.67,2.79l-.03.09Z"/><path class="cls-4" d="M294.42,297.46s7.29,4.39,14.26,16.25c4.66,7.94,15.42,27.57,21.15,30.87,2.12,1.22-6.26,20.8-6.26,20.8,0,0-10-1.85-14.62-3.46-4.62-1.61-31.08-11.65-32.65-15.02-1.57-3.37,3.88-16.97,3.88-16.97l11.77-27.18,2.48-5.3Z"/><path class="cls-4" d="M366.97,344.03c-.58.33-1.16.67-1.72,1.02-.21.13-.37.31-.58.43-.74.44-1.53.82-2.26,1.28-.33.2-.6.46-.91.69-.39.28-.68.7-1.29.72-.18.02-.27-.12-.34-.4-.04-.14-.07-.33-.1-.53-.04-.22-.03-.41.07-.51.59-.85,1.38-1.47,2.29-1.94.55-.28.96-.77,1.48-1.11.56-.39,1.13-.75,1.7-1.12.35-.23.7-.46,1.05-.68.52-.35,1.07-.68,1.55-1.08.38-.31.67-.72,1-1.08.07-.08.13-.18.21-.25.3-.26.49-.21.91.24.1.1.2.2.29.31.3.37.4.78.24,1.05-.46.82-1.16,1.37-1.88,1.9-.54.39-1.11.74-1.67,1.11l-.03-.04Z"/><path class="cls-4" d="M295.07,363.85c-.48.68-.95,1.37-1.39,2.08-.16.26-.24.55-.41.8-.57.91-1.16,1.81-1.7,2.74-.23.42-.41.86-.57,1.3-.23.56-.43,1.13-.93,1.59-.15.15-.34.05-.56-.19-.19-.24-.58-.69-.55-1.05.02-.32.03-.65.07-.97.08-.3.16-.61.26-.9.2-.59.45-1.17.78-1.72.42-.64.59-1.42.9-2.13.35-.77.73-1.53,1.12-2.29l.73-1.38c.36-.7.77-1.38,1.06-2.1.22-.57.26-1.2.38-1.81.03-.13.02-.28.06-.41.15-.47.41-.52,1.28-.22.19.07.39.12.57.2.61.24,1.09.7,1.1,1.1.05,1.21-.4,2.23-.91,3.22-.38.74-.82,1.45-1.23,2.17l-.07-.03Z"/><path class="cls-4" d="M320.73,389.97c.08.42.04.92.06,1.37-.01.23-.07.45-.11.67-.03.22-.11.43-.21.63-.3.82-1,1.5-1.84,1.75-.1.04-.21.07-.31.12l-.34.05-.67.09c-.42.1-.96.02-1.24,0-.34-.02-.64-.1-.95-.17-.31-.07-.61-.15-.88-.27-2.27-.85-3.95-2.22-5.52-3.64-1.12-1.05-2.21-2.11-3.16-3.29-3.28-4.18-5.75-8.86-7.44-13.8-.71-2.21-1.33-4.46-1.7-6.74-.22-1.47-.38-2.95-.33-4.45.07-1.48.15-3.01.76-4.4.36-.87.48-.69.68.12.09.4.28.97.39,1.61.09.64.24,1.37.26,2.15.46,5.58,2.42,10.89,4.74,16.13,1.45,3.12,3.64,6.03,5.99,8.58,1.3,1.4,2.7,2.69,4.23,3.69.77.48,1.56.89,2.36,1.15l.59.15c.17.04.43.05.53.07.22.02.45.02.66-.07.27-.12.37-.42.38-.7,0-.16,0-.24-.04-.49-.03-.25-.1-.53-.17-.8-.28-1.09-.73-2.21-1.2-3.32-1.46-3.36-3.13-6.73-4.7-10.1-1.21-2.63-2.57-5.17-3.43-8.04-.19-.63-.38-1.25-.5-1.92-.43-2.5.04-3.43.87-3.85.19-.1.38-.23.56-.27.3-.07.55.15.77.55.2.4.45.99.6,1.74,1.19,4.45,3.42,9.17,5.68,13.98.85,1.79,1.71,3.6,2.53,5.47.41.93.81,1.9,1.19,2.89.37,1.02.74,2,.97,3.33l-.08.02Z"/><path class="cls-4" d="M277.87,342.98c-.14.69-.22,1.35-.28,1.98,0,.28-.01.61.01.75,0,.1,0,.11.04.15l.02.02.13.11c.09.08.19.16.3.24.21.16.43.33.67.49.47.32.96.64,1.47.95,1.01.62,2.07,1.21,3.13,1.78,1.07.57,2.14,1.14,3.24,1.67l3.33,1.52c2.1,1,4.25,1.88,6.37,2.82,3.75,1.66,7.53,3.22,11.34,4.73,3.81,1.47,7.68,2.88,11.6,3.81.87.19,1.74.36,2.58.43.41.04.86.04,1.16,0,.2-.03.46-.09.54-.31l.67-2.33c.24-.88.48-1.75.72-2.63.61-2.25,1.2-4.53,1.96-6.77.8-2.23,1.76-4.41,3.05-6.4.5-.57.72-.81.75-.78.03.04-.09.38-.15,1.03-.15,1.29-.49,3.57-1.15,6.11-.68,2.22-1.3,4.48-1.89,6.79l-.92,3.46-.48,1.73-.19.65c-.08.28-.21.53-.36.77-.31.48-.82.78-1.34.99-.28.08-.54.18-.85.21-.27.04-.42.04-.62.05-.38.02-.73,0-1.07-.02-.68-.05-1.32-.13-1.94-.25-1.25-.22-2.44-.51-3.63-.84-2.36-.65-4.66-1.43-6.94-2.27-5.44-2-11.07-4.1-16.47-6.5-1.46-.65-2.92-1.31-4.36-2.01l-4.28-2.19c-1.43-.73-2.85-1.49-4.25-2.3-.7-.41-1.4-.83-2.09-1.28-.35-.23-.69-.46-1.03-.71l-.51-.4-.26-.22c-.09-.07-.22-.2-.32-.3-.1-.1-.17-.24-.25-.35-.11-.15-.22-.31-.26-.5-.05-.18-.14-.36-.17-.54-.04-.36-.09-.65-.08-.93-.01-.58.05-1.11.11-1.63.13-1.05.36-2.04.59-3.03.49-1.97,1.08-3.89,1.7-5.8,1.91-5.76,4.24-11.37,6.54-16.9,1.8-4.3,3.52-8.54,5.41-12.74.42-.93.81-1.84,1.25-2.77,1.65-3.42,2.44-4.38,3.53-4.72.25-.08.53-.2.74-.21.72-.02.45,1.58-.66,4.1-3.29,7.48-6.88,15.29-10.13,23.27-1.21,2.96-2.34,5.96-3.38,8.98-1.03,3.01-2.01,6.07-2.58,9.06h-.07Z"/><path class="cls-4" d="M230.07,297.93l-23.71-.69c-2.89-.06-5.77-.11-8.65-.17l-30.48-1.07c-4.51-.15-9.04-.22-13.52-.28-2.88-.03-5.76-.05-8.64-.14-2.88-.1-5.76-.17-8.63-.72-.89-.26-1.27-.44-1.24-.57.03-.14.48-.27,1.25-.59.77-.32,1.86-.6,3.17-.93,1.31-.28,2.84-.4,4.49-.4,5.87,0,11.73.22,17.6.4,5.88.2,11.76.45,17.68.77,7.07.38,14.44.37,21.68.55,7.96.2,15.92.4,23.88.6,4.9.11,9.8.22,14.7.33,7.42.14,14.87.32,22.24.34,5.73,0,11.34-.17,17-.29,1.25-.03,2.47-.07,3.72-.1,4.66-.05,6.14.13,7.14,1.07.23.2.53.39.66.57.45.56-1.45,1.31-4.87,1.44-10.13.51-20.81.53-31.53.39-7.96-.09-15.96-.28-23.93-.44v-.08Z"/><path class="cls-4" d="M174.42,217.15c0,1.22.62,22.57,14.03,24.98,13.41,2.41,21.22-.27,21.22-.27,0,0,2.72-.05,3.52,1.6.8,1.65,4.59,2.3,4.59,2.3,0,0-4.48,1.91-3.75,3.55s6.48,2.12,6.48,2.12c0,0,1.13,2.36,4.23,2.4,3.1.04,11.1-3.28,11.1-3.28,0,0-2.8,5.48-2.26,7.08s3.21.58,3.21.58l7.65-7.66,5.58-9.2s-.11-2.84,3.28-3.22c3.39-.39,41.27-1.67,41.27-1.67,0,0,17.85,3.93,24.37,9.2s33.65,32.95,33.65,32.95l36.23,40.42s2.29,2.2-1.87,5c0,0-38.04,30.86-41.22,31.04,0,0-1.67,1.57-3.48,0s-21.74-33.29-21.74-33.29c0,0-14.88-22.92-16.62-23.14-1.74-.22-12.68-8.8-14.54-9.66-1.86-.86-4.97-2.52-4.97-2.52,0,0-55.89,10.46-66.05,12.18-10.16,1.72-38.8,1.43-47.35-7.56-8.55-8.98-15.77-7.34-18.74-26.14-2.97-18.8-3.09-28.48-3.09-28.48l1.23-15.57s8.9.35,13.02,0c4.12-.35,11.03-3.73,11.03-3.73Z"/><path class="cls-4" d="M260.02,228.53c-.09-.46-.24-.93-.45-1.38-.08-.16-.18-.31-.27-.48-.28-.59-.65-1.17-1.01-1.75-.15-.26-.34-.52-.51-.77-.22-.33-.47-.66-.53-1.1-.02-.13.06-.13.2-.07.13.06.33.13.49.27.53.5,1.27.91,1.65,1.65.25.42.63.78.92,1.2.31.47.6.96.82,1.5.14.32.26.66.35,1.01.14.52.19,1.07.23,1.61.05.41.13.84.14,1.27,0,.09,0,.19-.02.28-.07.35-.21.43-.64.37-.1-.01-.2-.02-.29-.04-.32-.07-.56-.27-.63-.49-.2-.65-.21-1.18-.24-1.75-.04-.21-.06-.42-.09-.64-.06-.21-.08-.44-.14-.66l.04-.02Z"/><g class="cls-5"><path class="cls-4" d="M212.38,241.86c8.39-2.01,24.53-11.2,35.21-17.37"/></g><path class="cls-4" d="M286.69,173.18l3.84-3.04s2.64,10.97,2.64,14.45.25,1.76-.83,2.61-3.83,3.77-3.83,3.77c0,0-.56-11.71-.85-13.41s-.96-4.38-.96-4.38Z"/><path class="cls-4" d="M173.71,215.47c-.62.82-1.43,1.49-2.23,2.08-.31.19-.58.44-.9.62-1.14.58-2.33.94-3.52,1.06-.53.06-1.03.18-1.54.24-.64.13-1.32.07-1.97,0-.21-.03-.19-.09-.04-.24.15-.14.42-.44.75-.64.3-.14.57-.38.87-.48.29-.13.59-.23.86-.37.28-.13.57-.23.85-.34.28-.11.54-.25.86-.28.71-.16,1.32-.6,1.89-1.01.66-.42,1.22-.97,1.74-1.56l.46-.58.4-.63c.37-.67.72-1.37.89-2.14.16-.59.15-1.2.21-1.8.01-.13,0-.27.03-.4.13-.48.32-.62.83-.66.12,0,.23-.03.34-.03.37,0,.66.25.79.67.24.62.23,1.25.23,1.89-.02.65-.13,1.29-.38,1.92-.31.94-.81,1.85-1.38,2.7l-.05-.03Z"/><path class="cls-4" d="M176.96,195.2c1.01-2.77,2.15-5.48,3.38-8.16.43-.98.84-1.97,1.32-2.94,1.68-3.39,3.49-6.72,5.55-9.89.87-1.43,1.82-2.82,2.72-4.22.61-.88,1.22-1.76,1.88-2.6.16-.21.34-.41.52-.62l.63-.53c.43-.34.73-.78,1.09-1.17.44-.49.42-.4.15.11-.17.32-.36.68-.55,1.04-.11.22-.16.5-.25.78-.03.15-.09.28-.11.45-.08.13-.15.25-.23.38-.55.93-1.07,1.87-1.68,2.75-.59.89-1.11,1.83-1.69,2.73-1.11,1.83-2.18,3.69-3.26,5.56-1.33,2.22-2.36,4.72-3.42,7.14-.59,1.33-1.13,2.69-1.69,4.03-.52,1.36-1.06,2.72-1.57,4.09l-.93,2.53-.86,2.56c-.85,2.59-1.65,5.21-2.31,7.83-.49,2.05-.83,4.09-1.19,6.14-.08.45-.15.9-.23,1.35-.3,1.69-.63,2.17-1.29,2.41-.15.05-.3.14-.44.16-.44.08-.74-.7-.62-1.97.4-3.75,1.25-7.63,2.33-11.47.39-1.43.84-2.84,1.27-4.27.48-1.41.92-2.83,1.42-4.23h.06Z"/><path class="cls-4" d="M166.82,220.22c-1.36.22-2.72.43-4.09.61-.5.07-.98.21-1.48.26-1.76.2-3.54.29-5.31.33-.78.04-1.57.09-2.35.18-1,.03-2.01.21-3.01-.29-.31-.21-.27-.29,0-.65.13-.19.31-.39.52-.63.11-.11.22-.25.35-.33.12-.07.25-.12.39-.15.49-.1.97-.22,1.45-.29.49-.04.97-.09,1.46-.12.98-.07,1.97-.12,2.97-.12,1.21.03,2.42-.29,3.63-.47,1.33-.21,2.67-.41,4-.66.82-.15,1.64-.31,2.46-.48,1.23-.28,2.48-.53,3.68-.91.93-.3,1.8-.75,2.69-1.14.2-.09.38-.2.58-.27.74-.29,1.05-.16,1.42.47.08.14.18.28.25.43.23.49.06,1.05-.46,1.38-1.53.96-3.29,1.54-5.08,2.01-1.33.36-2.7.63-4.05.92l-.02-.06Z"/><path class="cls-4" d="M248.12,151.3c-.5.09-.99.02-1.48.03-.48-.06-.95-.1-1.41-.2-.33-.08-.68-.11-1-.2-1.15-.35-2.22-.84-3.25-1.39-.44-.27-.91-.49-1.35-.76-.28-.17-.57-.33-.85-.51-.25-.23-.45-.51-.66-.77-.12-.17-.05-.21.18-.23.22,0,.63-.04,1,.05,1.09.63,2.19,1.19,3.32,1.76.68.34,1.47.49,2.22.63.41.07.83.16,1.25.17.42.06.83.04,1.24.02.26,0,.5-.06.75-.1l.37-.07.35-.13c.73-.21,1.33-.68,1.78-1.25.14-.25.25-.51.37-.76.08-.27.16-.54.25-.8.04-.11.03-.25.08-.37.15-.45.3-.59.6-.67.07-.02.14-.04.2-.05.21-.03.37.2.45.63.18.65.05,1.32-.09,2.04-.13.34-.36.64-.55.96-.22.3-.52.54-.79.8-.89.67-1.94,1.09-2.95,1.18v-.04Z"/><path class="cls-4" d="M224.73,100.07c-3.2,2.26-26.36,3.01-30.29-14.12,0,0-.4-7.43,3.97-11.3,4.37-3.88,6.87-5.46,11.16-6.61,4.3-1.15,11.23-2.8,12.61-6.15,1.38-3.35,4.8-13.5,8.22-16.36,3.42-2.86,10.93-7.46,16.17-7.76,5.24-.3,16.79,1.77,19.69,3.78s8.69,7.78,9.83,10.34c1.14,2.56,2.51,6.94,2.51,6.94,0,0,14.63-3.72,18.95-1.57,4.33,2.15,11.29,7.23,12.99,10.62s1.84,13.06,2.33,16.51-2.33,7.29-.29,10.66c2.04,3.37,8.75,15.19,9.16,17.85s-.99,9.7-2.22,10.97-7.06,4.81-10.73,5.15c-6.91.65-14.76-10.54-25.55-2.96,0,0,9.52-15.1,9.08-17.96-.44-2.86,1.25-9.41,1.25-9.41,0,0-6.33-5.32-8.64-11.13-2.32-5.81-4.02-7.31-4.02-7.31l-11.24,5.12s-2.71,1.83-4.97,1.48-7.98-4.38-11.16-3.39-5.15,2.11-5.68,4.02-.27,8.84-1.3,10.54-2.59,2.42-3.55,1.89-4.51-8.48-6.52-9.23-6.02.23-7.34,1.38c-1.32,1.15-4.45,2.86-4.45,4.31s0,3.72,0,3.72Z"/><path class="cls-4" d="M368.31,354.51c1.09,1.12,2.2,2.24,3.37,3.33.43.4.91.73,1.34,1.14,1.49,1.45,3.03,2.89,4.44,4.46.63.69,1.31,1.34,1.96,1.99.79.88,1.68,1.71,2.07,2.93.15.36,0,.42-.42.38-.19-.03-.61.04-.9-.05-.31-.07-.64-.18-.92-.37-.48-.35-1-.65-1.46-1.01l-1.31-1.14c-.43-.39-.86-.78-1.29-1.18-.43-.4-.81-.86-1.22-1.29-.94-1.08-2.21-1.89-3.33-2.84-1.23-1.06-2.48-2.12-3.66-3.28-.74-.7-1.44-1.44-2.15-2.16-1.07-1.11-2.08-2.29-3.09-3.44-.81-.87-1.68-1.67-2.52-2.53-.17-.2-.37-.37-.53-.58-.6-.78-.52-1.2.03-1.81.13-.14.24-.29.38-.41.44-.4,1.13-.39,1.72.02,1.61,1.31,2.93,2.87,4.32,4.42,1.03,1.15,2.08,2.29,3.21,3.38l-.05.06Z"/><path class="cls-4" d="M401.21,341.74c2.12-.57,4.25-1.19,6.52-1.69,1.14-.24,2.31-.48,3.68-.5.36.01.69,0,1.09.07.42.02.92.21,1.37.36.24.06.42.23.64.34.22.11.41.26.57.43.38.3.59.75.86,1.14.11.41.3.8.3,1.23l.05.55c0,.18-.05.37-.07.55-.05.37-.1.74-.25,1.06-.2.59-.46,1.03-.73,1.5-.56.86-1.17,1.61-1.84,2.25-2.37,2.26-5.01,3.91-7.75,5.35-2.73,1.44-5.58,2.59-8.49,3.53-2.59.82-5.24,1.52-7.91,1.95-1.72.26-3.48.38-5.24.33-.88-.04-1.76-.09-2.63-.3-.86-.23-1.71-.47-2.51-.84-1.01-.45-.79-.57.16-.73.26-.04.54-.09.84-.14.33-.1.68-.14,1.06-.23.38-.05.79-.19,1.22-.24.42-.03.86-.05,1.32-.07,1.63-.02,3.25-.21,4.87-.49,1.62-.25,3.24-.58,4.84-1.02,3.21-.87,6.36-2.05,9.42-3.47,1.83-.85,3.61-1.92,5.25-3.14,1.64-1.21,3.19-2.61,4.28-4.08.15-.22.33-.44.43-.66l.18-.32c.03-.09.08-.22.11-.28.09-.23.13-.46.04-.68-.06-.14-.16-.27-.29-.35-.15-.09-.24-.12-.51-.15-.6-.06-1.37,0-2.14.12-1.56.26-3.19.69-4.82,1.14-2.77.77-5.58,1.57-8.44,2.23-4.32,1.01-8.84,1.61-13.35,1.27-.87-.08-1.75-.16-2.62-.31-.44-.06-.87-.14-1.3-.24-.44-.1-.84-.16-1.35-.34-1.88-.67-3.31-1.75-4.67-2.89-.59-.51-1.17-1.01-1.7-1.57-1.99-2.11-2.2-3.16-1.77-4.15.1-.23.17-.48.28-.64.2-.28.57-.24,1.07-.01.52.22,1.13.68,1.8,1.36,1.01.99,2.07,1.96,3.17,2.81.55.43,1.11.82,1.66,1.16.55.34,1.11.6,1.54.72,1.23.32,2.69.57,4.09.69,1.42.12,2.88.1,4.34,0,4.37-.29,8.82-1.38,13.29-2.66l.03.08Z"/><path class="cls-4" d="M325.19,327.95c3.95,6.57,7.92,13.15,12.33,19.31.81,1.12,1.65,2.21,2.53,3.24.87,1.02,1.78,2.04,2.68,2.8.38.33.79.57.87.57.04,0,.07.02.12.03.08-.01.16-.02.24-.03.15.02.42-.1.63-.14.94-.29,1.99-.85,3.01-1.43,2.04-1.2,4.04-2.62,6.01-4.07,3.94-2.92,7.79-6.02,11.65-9.11,3.43-2.74,6.82-5.58,10.26-8.28,2.22-1.73,4.45-3.45,6.77-5.07l1.76-1.19c.61-.37,1.21-.74,1.82-1.09.62-.35,1.23-.7,1.86-1.03.64-.31,1.33-.53,2-.79,1.68-.61,1.51-.37.45.74-1.01,1.22-2.84,3.3-5.37,5.2-9.01,6.75-17.64,14.18-26.92,21.13-2.8,2.06-5.59,4.24-8.71,6.18-.79.48-1.61.94-2.51,1.35-.47.19-.91.4-1.46.53-.26.08-.52.15-.85.18-.32.03-.61.1-1,.03-.75-.03-1.47-.41-1.9-.7-.47-.31-.87-.63-1.23-.97-.73-.66-1.36-1.34-1.96-2.04-2.6-3.06-4.79-6.28-6.96-9.53-2.15-3.25-4.22-6.55-6.25-9.85-2.5-4.07-4.94-8.18-7.39-12.28-1.86-3.1-3.65-6.24-5.61-9.23-1.95-3-4.05-5.9-6.33-8.61-1.77-2.11-3.69-4.04-5.69-5.85-2.02-1.79-4.17-3.39-6.4-4.87-1.02-.58-1.98-1.21-3.04-1.74-1.91-1.07-3.23-1.62-4.08-2.21-.89-.49-1.33-.97-1.64-1.56-.14-.27-.35-.56-.41-.79-.1-.39.32-.56,1.21-.52.44.01,1,.1,1.65.24.65.15,1.36.43,2.17.74.61.22,1.19.48,1.77.77.58.28,1.16.57,1.75.85,1.11.66,2.29,1.26,3.36,2.02,2.22,1.42,4.24,3.13,6.23,4.9,3.89,3.62,7.32,7.76,10.37,12.13,2.27,3.22,4.34,6.64,6.3,9.96l5.98,9.97-.06.05Z"/><path class="cls-4" d="M317.93,242.5c3.88,2.64,7.3,5.66,10.64,8.74,3.32,3.1,6.51,6.31,9.64,9.56,2.29,2.37,4.59,4.72,6.81,7.14,7.81,8.56,15.3,17.37,22.82,26.13,3.33,3.9,6.78,7.72,10.15,11.53,4.29,4.93,8.83,9.63,12.68,14.96,1.35,1.53,1.09,1.4-.26.31-.68-.54-1.71-1.25-2.98-2.09-.63-.43-1.35-.85-2.03-1.39-.66-.56-1.33-1.17-2.01-1.83-4.76-4.72-9.35-9.58-13.69-14.67-4.39-5.04-8.72-10.14-13.05-15.29-5.17-6.16-10.88-12.26-16.5-18.24-6.19-6.55-12.48-13.05-19.38-18.73-2.14-1.72-4.33-3.37-6.66-4.71-2.32-1.33-4.88-2.23-7.48-3.03-3.98-1.1-8.11-1.83-12.26-2.34-4.16-.44-8.34-.76-12.5-.81-6.47-.11-12.82.28-19.19.89-1.4.15-2.77.3-4.18.45-2.61.27-4.33.45-5.55.43-1.23-.04-1.95-.2-2.58-.54-.28-.15-.65-.29-.83-.45-.3-.27.06-.61.98-1.01.46-.2,1.06-.41,1.79-.63.73-.21,1.58-.36,2.55-.54,5.74-.95,11.68-1.48,17.73-1.73,6.05-.23,12.21-.16,18.38.33,4.58.34,9.18,1.02,13.75,2.07,2.28.51,4.55,1.22,6.79,2.06,1.1.5,2.24.9,3.31,1.49,1.1.56,2.11,1.2,3.11,1.85l-.03.07Z"/><path class="cls-4" d="M315.82,192.29c.87-.14,1.86-.72,2.63-1.5.28-.29.47-.65.71-.97.21-.28.4-.58.55-.88.14-.28.26-.62.34-.98.17-.73.23-1.55.22-2.36-.02-.73-.08-1.46-.22-2.18-.23-.9-.29-1.85-.37-2.8-.02-.27,0-.31.3-.17.3.14.87.48,1.23.99,1.09,1.85,1.48,3.96,1.15,6.17-.12.67-.18,1.34-.42,2.09-.22.7-.52,1.35-.91,1.93-.89,1.25-2.09,2.26-3.53,2.88-.89.37-1.9.57-2.91.43-.65-.11-1.05-.21-1.72-.52-.65-.3-1.16-.79-1.55-1.33-.21-.29-.37-.59-.49-.9-.08-.29-.08-.64.05-.91.11-.28.29-.5.51-.73.22-.23.5-.44.8-.64l.46-.31c.11-.08.18-.14.26-.21.15-.11.25-.25.38-.36.45-.4.63-.42,1.28-.13.14.06.3.11.44.18.47.21.64.8.22,1.44-.28.41-.62.79-.97,1.09l-.26.22s0,.04,0,.05c0,.03,0,.05.01.07.03.07.1.08.11.08h0s0,0,0,0c-.04-.01.08.04.18.07.1.03.25.08.34.1.34.1.73.12,1.15.02l.02.06Z"/><path class="cls-4" d="M310.91,179.95c.52.24.98.6,1.31,1.08.17.23.32.48.45.74.14.32.21.5.27.71.24.82.31,1.58.26,2.42-.04.43-.08.85-.33,1.42-.27.55-.66.98-1,1.23-.7.53-1.3.81-1.83,1.11-.38.21-.72.42-.98.62-.12.1-.16.15-.23.26-.06.07-.02.15-.06.24.03.19.16.39.39.45.04.02.12.03.25.04.11.02.24.02.38.01.26,0,.56-.05.85-.12,1.17-.27,2.38-.92,3.23-1.75.37-.38.75-1,1.05-1.54.31-.56.51-1.15.63-1.75.29-1.55-.17-3.19-.19-5.06-.02-.58,0-.51.36-.13.18.19.45.46.8.79.31.34.62.77.85,1.3.81,1.86.58,4.44-.41,6.32-.24.51-.49.88-.87,1.37-.38.5-.81.87-1.26,1.21-.89.67-1.85,1.15-2.88,1.47-.89.25-1.81.47-2.93.39-1.33-.1-2.6-1.04-2.88-2.36-.3-1.06.14-2.22.97-2.92.23-.19.4-.33.55-.41.16-.1.32-.2.47-.28.31-.17.6-.32.87-.45.55-.26,1.05-.55,1.32-.81.36-.1.35-1.54,0-2.34-.09-.32-.36-.68-.75-.66-.1,0-.17.01-.29.03-.16.04-.32.08-.5.13l-1.09.33c-2.3.68-4.62,1.05-7.01,1.35-1.04.08-2.02-.02-2.98-.23-.96-.21-1.89-.53-2.78-1.01-.39-.21-.79-.42-1.15-.72-.66-.56-.99-1.09-1.11-1.51-.11-.43-.01-.76.26-1.08.12-.14.23-.3.37-.4.5-.31,1.08-.04,1.75.39,1.04.65,2.3,1.23,3.6,1.49.64.14,1.28.2,1.8.15l.19-.02.28-.04.59-.09,1.17-.19c1.16-.21,2.29-.44,3.42-.75l1.79-.47c.36-.08.6-.17,1.3-.25.6-.06,1.2,0,1.74.22l-.02.07Z"/><path class="cls-4" d="M289.2,188.68l-.03.12c-.02.06,0,.1.03.09.05,0,.11,0,.2-.03l.13-.05s.02-.01.04-.02l.15-.1c.11-.07.21-.14.31-.21.42-.29.79-.6,1.13-.93.23-.23.45-.5.56-.73.09-.12.1-.22.16-.32.05-.11.08-.29.13-.43.27-1.17.34-2.62.32-4-.02-1.4-.13-2.82-.31-4.23-.17-1.25-.41-2.5-.71-3.72l-.62-2.34-.3-1.17c-.08-.19-.05-.41-.02-.64.01-.22-.07-.41-.1-.62-.09-.51-.08-.45.21-.1.16.17.3.44.79.66.35.27.56.67.81,1.09,1.51,3.11,2.3,6.5,2.41,9.98.03,1.04.11,2.09.12,3.19.01.54,0,1.1-.06,1.67-.04.29-.05.57-.13.89l-.11.46-.2.5c-.69,1.36-1.66,2.16-2.62,2.91l-.37.27c-.18.13-.37.26-.56.38-.37.26-.76.47-1.13.68-.78.46-1.43.48-2,.52-.04,0-.09,0-.13-.01l-.07-.02c.03-.1-.02-.06-.03-.1-.05-.08-.09-.16-.13-.23l-.23-.48c-.18-.33-.24-.84-.25-1.37l-.05-1.53-.02-1.09c-.05-2.1-.1-4.21-.37-6.26-.2-1.6-.62-3.13-1.06-4.62-.11-.32-.21-.64-.32-.96-.19-.6-.26-1-.18-1.33.06-.33.22-.56.48-.8.12-.11.22-.24.33-.33.34-.28,1.05.05,1.61.97,1.34,2.81,1.8,5.96,2.07,9.05.1,1.15.16,2.3.2,3.45l.05,1.64v.11s-.01.02-.01.02v.05s-.08.06-.08.06Z"/><path class="cls-4" d="M233.87,123.86c.48.86.55,5.42,2.65,10.42s7.11,8.67,11.21,8.47c4.1-.2,6.94-2.15,6.94-2.15,0,0-12.32-4.6-14.39-6.76s-6.41-9.98-6.41-9.98Z"/><path class="cls-4" d="M315.15,82.78c-.09,1.77-.35,3.49-.6,5.14-.25,1.65-.52,3.25-.49,4.61,0,.35.07.62.08.94.05.29.16.51.21.78.25.56.66,1.25,1.08,1.94.85,1.38,1.78,2.8,2.65,4.25,1.28,2.12,2.58,4.28,3.57,6.63.86,2.07,1.56,4.26,1.91,6.55.09.57.17,1.15.18,1.74.03.58.06,1.16-.02,1.79-.05.61-.08,1.22-.26,1.81-.14.59-.26,1.19-.52,1.74-.86,2.27-2.37,4.21-4.19,5.66-1.82,1.47-3.94,2.46-6.14,3.06-1.96.49-3.97.69-5.97.64-1.99-.14-3.98-.4-5.84-1.04-1.27-.38-2.24-.72-3.39-.94-1.11-.21-2.24-.33-3.37-.32-1.13,0-2.25.15-3.33.39-.54.12-1.06.29-1.56.5-.5.21-.9.52-1.33.77-.57.29-.71.6-.81.56-.05-.03-.14-.37.04-1.14.42-1.52,2.83-3.51,5.95-3.82,1.37-.15,2.75-.13,4.11.03,1.35.13,2.74.6,3.93.98,2.14.77,4.39,1.13,6.61,1.13,4.43.04,8.9-1.9,11.37-5.44.67-1.08,1.24-2.26,1.42-3.54.09-.31.07-.64.09-.96,0-.33.07-.63.02-.99-.05-.69-.08-1.37-.22-2.07-.44-2.78-1.62-5.5-2.94-8.12-1.47-2.9-3.28-5.62-5.09-8.53-.42-.76-.96-1.48-1.24-2.56-.19-.51-.25-1-.3-1.49-.08-.5-.05-.96-.06-1.42.05-1.84.35-3.51.58-5.16.3-2.02.51-4,.5-5.98.03-.99-.09-1.96-.17-2.94-.17-.96-.29-1.94-.59-2.87-.77-2.86-2.15-5.58-3.88-8.03-1.73-2.35-4.17-4.19-6.83-5.51-2.06-1.05-4.29-1.74-6.54-2.17-2.25-.44-4.53-.66-6.79-.59-.5-.01-.99.05-1.47.09-.49.05-.98.06-1.46.16-.45.06-.86.12-1.24.17-.37.06-.7.15-1.01.2-.31.05-.58.1-.84.14-.24.06-.46.11-.67.13-.86.04-1.38.03-1.94-.15-.26-.08-.57-.13-.77-.23-.33-.17-.22-.55.34-1.16.28-.31.68-.67,1.2-.97.52-.34,1.18-.64,1.93-.85,2.23-.7,4.56-1.02,6.88-1.02,2.33-.01,4.69.22,6.99.77,2.31.52,4.61,1.28,6.79,2.38,1.11.5,2.15,1.19,3.2,1.84,1,.75,2.02,1.48,2.92,2.4.71.62,1.3,1.39,1.91,2.13.32.37.57.75.81,1.13l.73,1.15c.51.74.9,1.58,1.32,2.39.44.8.76,1.67,1.08,2.53,1.3,3.45,1.77,7.23,1.55,10.8h-.09Z"/><path class="cls-4" d="M280.22,131.27c-3.48,3.72-7.65,6.95-12.5,8.83-1.77.64-3.57,1.28-5.45,1.52-6.61.96-13.38-.65-18.87-4.15-2.43-1.56-4.69-3.44-6.52-5.69-1.16-1.45-2.19-3.05-2.8-4.83-.35-.87-.57-1.79-.68-2.72l-.13-1.39c-.03-.46,0-.93.03-1.38.14-1.15.21-.97.64-.06.35.92,1.24,2.46,2.07,4.13,1.43,3.01,3.51,5.67,6.12,7.84,1.32,1.06,2.75,2.02,4.25,2.85,1.52.81,3.11,1.51,4.75,2.05,3.98,1.27,8.49,1.34,12.58.25,2.27-.57,4.45-1.48,6.49-2.66,2.04-1.2,3.93-2.67,5.67-4.31,2.15-2.02,4.07-4.3,5.78-6.74,2.59-3.7,4.78-7.73,6.49-11.9,1.32-3.25,2.24-6.57,3.08-9.92.18-.74.36-1.46.54-2.2.35-1.37.62-2.27.93-2.88.29-.61.58-.94.95-1.19.17-.11.34-.27.5-.33.26-.1.43.16.53.72.11.56.16,1.42.07,2.5-.18,1.6-.41,3.21-.73,4.82-.37,1.6-.8,3.21-1.31,4.8-.99,3.2-2.3,6.34-3.85,9.39-2.29,4.52-5.13,8.84-8.58,12.67l-.06-.04Z"/><path class="cls-4" d="M203.7,67.69c4.23-1.88,8.57-2.38,12.16-3.65.44-.16.9-.31,1.29-.52.41-.19.83-.37,1.18-.61.81-.44,1.29-.89,1.78-1.51.95-1.22,1.51-3.12,2.14-5.13.89-2.95,2.03-6.15,4.04-8.85,1.74-2.35,3.87-4.31,6.2-5.98,2.35-1.64,4.94-2.9,7.63-3.78,2.69-.9,5.5-1.36,8.29-1.52,1.4-.13,2.79-.04,4.18-.03,1.4.13,2.81.22,4.18.53,1.23.18,2.42.58,3.63.89,1.17.44,2.37.8,3.48,1.37,1.15.49,2.21,1.14,3.29,1.75,1.02.7,2.08,1.35,3.02,2.16,2.45,2,4.67,4.37,6.26,7.15.39.7.77,1.4,1.06,2.15.31.74.64,1.46.82,2.25.23.76.45,1.53.55,2.32.12.78.19,1.57.12,2.37-.09.99-.16,1.4-.23,1.39-.08-.02-.21-.48-.59-1.23-.79-1.5-2.23-4.02-4.01-6.69-.81-1.18-1.64-2.33-2.53-3.43-.49-.52-.93-1.08-1.44-1.57-.53-.48-1.02-1-1.57-1.44-2.17-1.84-4.65-3.31-7.29-4.37-2.63-1.11-5.45-1.77-8.31-1.99-2.91-.21-5.88-.1-8.75.43-1.74.28-3.42.86-5.07,1.52-1.63.72-3.19,1.61-4.66,2.65-2.89,2.13-5.41,4.83-6.94,7.99-.89,1.74-1.5,3.62-2.12,5.64-.31,1-.64,2.06-1.1,3.13-.45,1.07-1.06,2.17-1.92,3.12-.42.48-.92.89-1.42,1.27-.5.31-1,.64-1.52.93-.52.24-1.04.51-1.57.73-.53.19-1.06.4-1.58.57-2.11.69-4.18,1.12-6.18,1.65-2.46.64-4.81,1.41-6.86,2.66-2.06,1.23-3.76,2.95-5.02,5.01-1.89,3.14-3.06,6.87-2.69,10.5.32,3.65,2.22,7.04,4.73,9.8,3.84,4.4,9.44,6.66,15.08,6.87.62.04,1.24.04,1.85,0,.62,0,1.23-.07,1.86-.12,2.31-.24,3.82-.54,4.9-.68,1.1-.12,1.77-.1,2.41.12.29.1.66.17.86.3.34.22.09.62-.69,1.17-.39.28-.92.58-1.59.86-.33.14-.7.3-1.09.44-.4.13-.83.26-1.29.38-5.46,1.45-11.71,1.12-17.29-1.45-1.37-.68-2.73-1.43-3.97-2.38-1.27-.9-2.4-2.03-3.44-3.1-2.05-2.24-3.9-4.87-4.96-7.97-.81-2.27-1.14-4.77-.94-7.19.19-2.43.85-4.75,1.79-6.88.21-.54.51-1.06.79-1.58.3-.52.53-1.06.89-1.55l1.06-1.47c.36-.49.81-.91,1.22-1.36,1.7-1.75,3.76-3.12,5.89-4.1l.05.08Z"/><path class="cls-4" d="M234.84,142.81c1.33,1.56,2.78,3.03,4.42,4.23.6.44,1.25.78,1.88,1.14,1.1.66,2.27,1.2,3.47,1.56,1.2.4,2.46.57,3.72.46,1.12-.06,2.12-.46,2.59-1.27.31-.51.46-1.19.52-1.93.08-.74.11-1.54.07-2.34,0-.51-.02-.43.2-.06.19.39.77,1.04,1.16,2.01.14.44.22.9.26,1.41.05.5-.01,1.05-.22,1.59-.36,1.11-1.32,2.04-2.27,2.52-.49.27-.97.42-1.46.56-.46.1-.93.21-1.41.22-.95.07-1.89,0-2.79-.19-1.08-.21-2.14-.52-3.16-.91-1.03-.37-2.02-.83-2.93-1.38-2.01-1.21-3.76-2.73-5.35-4.36-.98-1.01-1.86-2.1-2.71-3.2-1.28-1.68-2.38-3.48-3.4-5.32-.79-1.42-1.64-2.81-2.22-4.41-.12-.35-.29-.69-.35-1.07-.27-1.4-.03-1.93.74-2.23.17-.07.33-.15.5-.19.54-.11,1.08.37,1.41,1.14,1.01,2.29,2.19,4.7,3.68,7.02,1.1,1.72,2.33,3.4,3.72,4.92l-.06.06Z"/><path class="cls-4" d="M174.05,295.05c-.49-.24-.98-.47-1.47-.72l-1.4-.84c-.92-.59-1.91-1.06-2.76-1.75l-2.63-1.95-2.43-2.19c-3.11-3.05-5.84-6.5-7.95-10.29-.58-.92-.98-1.92-1.48-2.88-.48-.97-.97-1.93-1.33-2.95l-1.17-3.01c-.35-1.02-.62-2.05-.94-3.08-.68-2.04-1.03-4.15-1.51-6.23-.41-2.09-.65-4.21-.97-6.31l-.4-4.63c-.17-1.54-.13-3.09-.2-4.63l-.07-2.31c0-.77.03-1.55.04-2.32.05-1.55.05-3.09.22-4.63.36-5.44,1.3-10.82,2.55-16.1,1.26-5.28,2.86-10.48,4.84-15.52,1.97-5.04,4.21-9.97,6.73-14.75,2.55-4.77,5.34-9.39,8.35-13.87,5.37-7.92,11.41-15.46,18.08-22.23,4.29-4.34,8.81-8.51,13.81-12.09,4.99-3.54,10.35-6.82,16.38-8.37,1.94-.26,2.76-.31,2.72-.24-.03.09-.93.39-2.35,1.14-.67.48-1.55.87-2.49,1.44-.93.61-2,1.2-3.1,2-2.26,1.45-4.82,3.28-7.58,5.27-2.46,1.76-4.78,3.71-7.1,5.67-1.17.97-2.27,2.02-3.41,3.02l-3.3,3.15c-4.32,4.29-8.36,8.87-12.13,13.67-7.53,9.61-14.07,20.07-19.17,31.28-6.1,13.39-9.68,28.61-9.73,43.61-.02,8.26.87,16.55,3.28,24.39.15.49.28.99.44,1.47l.55,1.43c.38.95.71,1.92,1.12,2.85.91,1.82,1.72,3.71,2.85,5.41.99,1.79,2.28,3.37,3.49,5l2.05,2.26.51.56.57.51,1.13,1.02c3.74,3.33,8.14,5.89,12.86,7.64,4.72,1.76,9.73,2.76,14.79,3.23,3.84.35,7.71.43,11.59.32,3.88-.13,7.75-.45,11.62-.89,7.73-.89,15.4-2.27,22.99-3.79,11.82-2.34,23.32-5.18,35.22-6.91,2.62-.39,5.2-.72,7.87-.95,4.96-.42,8.27-.29,10.58-.08,1.15.15,2.06.32,2.8.51.74.2,1.32.47,1.82.75.46.26,1.06.54,1.31.77.42.4-.39.64-2.15.71-1.76.06-4.51.14-8.03.25-10.47.49-21.16,2.54-32.01,4.73-10.85,2.2-21.88,4.63-33.15,6.34-8.37,1.22-16.88,2.11-25.49,1.82-4.3-.15-8.62-.59-12.88-1.46-2.14-.39-4.24-1.06-6.34-1.66l-3.09-1.15c-1.04-.36-2-.92-3-1.37l.02-.08Z"/><path class="cls-4" d="M274.06,169.31c-6,1.26-11.95,3.43-17.7,5.93-2.11.9-4.14,1.97-6.21,2.96-7.27,3.54-14.26,7.69-21,12.2-1.51.98-2.96,2.06-4.41,3.13l-2.16,1.62c-.7.56-1.4,1.12-2.1,1.68-1.8,1.43-3.53,2.94-5.32,4.39-1.79,1.45-3.58,2.89-5.45,4.26-1.3.71-1.08.66-.45-.44.31-.56.82-1.28,1.44-2.17.31-.44.65-.91,1.03-1.4.19-.24.39-.5.59-.75.23-.23.46-.45.7-.69,1.73-1.63,3.43-3.31,5.32-4.76l2.77-2.25,2.86-2.15c3.82-2.85,7.8-5.5,11.96-7.88,4.95-2.88,10.11-5.87,15.4-8.41,5.82-2.76,11.81-5.22,18.06-6.96.89-.23,1.75-.52,2.67-.7l1.35-.3.68-.15.34-.08.51-.06c.68-.11,1.35,0,1.91.28.58.3.92.92,1.01,1.54.11.62,0,1.39-.11,1.87l-.11.54c-.02.11-.04.23,0,.34.06.16.15.29.26.41.27.27.83.55,1.37.73.56.19,1.18.31,1.81.39.63.09,1.27.12,1.91.13.32,0,.64,0,.96,0l.48-.02c.18-.02.26-.01.55-.05.29-.04.58.02.87.03.27.09.55.2.76.39.24.16.4.41.58.64.17.24.29.53.39.72.37.86.55,1.7.72,2.53.31,1.66.48,3.3.61,4.93.37,4.62.61,9.13.89,13.66.07.99.14,1.96.21,2.97.11,1.85.18,3.06.12,3.92-.08.86-.25,1.37-.54,1.81-.13.2-.25.46-.39.59-.42.45-1.24-1.03-1.61-3.81-.53-4.1-.74-8.28-.97-12.49-.11-2.1-.23-4.21-.4-6.3-.18-2.06-.39-4.2-.89-5.95-.06-.24-.14-.44-.22-.63-.03-.1-.08-.19-.1-.23,0,0,0,0,0,0,0,0,0,0,0,0,.01,0-.03,0,.03,0h-.16s-.32.04-.32.04l-.62.03c-.41.01-.82.02-1.24,0-.82-.02-1.65-.08-2.5-.21-.85-.13-1.72-.33-2.65-.74-.23-.09-.47-.23-.71-.37-.24-.13-.46-.31-.72-.52-.53-.48-.95-1.12-1.23-1.79-.12-.52-.13-1.06-.03-1.6l.15-.78c.03-.13.02-.08.02-.13-.01-.02-.03-.04-.06-.04h-.02s-.01,0-.01,0c0,0,0,0-.09.02l-.78.18-.02-.07Z"/><path class="cls-4" d="M320.79,168.51c1.67,1.12,3.27,2.32,4.82,3.53l2.31,1.83,1.13.88c.36.28.85.65,1.24,1.01,1.18,1.07,2.24,2.29,2.98,3.68,1.31,2.45,1.97,5.17,1.89,7.91-.06,1.37-.26,2.74-.84,4.09-.3.67-.69,1.36-1.38,1.92-.33.28-.78.5-1.25.6-.48.08-.98.06-1.38-.08-.19-.05-.37-.12-.55-.23-.18-.11-.37-.18-.52-.34-.34-.28-.57-.64-.74-1.01-.3-.75-.28-1.42-.26-2.04.07-1.23.32-2.33.4-3.35.07-.64.03-1.27-.13-1.54-.3-.51-.73-1.04-1.17-1.53-.45-.49-.92-.97-1.39-1.46-.24-.24-.49-.47-.74-.7-.13-.11-.23-.26-.35-.39-.1-.16-.26-.23-.34-.43-.24-.43-.37-.61-.35-.62.02-.02.21.09.65.09.89-.03,2.53.26,3.89,1.46.58.55,1.13,1.13,1.64,1.83.06.09.13.18.19.27.06.1.12.16.2.34.15.3.3.64.34.91l.09.43.03.38c.02.26.03.49.02.71-.02.89-.17,1.63-.28,2.34-.11.7-.2,1.35-.19,1.83,0,.14.02.2.02.31,0,.09.04.12.04.19.04.05,0,.04.04.06.01.02.19.1.22.1.05,0,.06.04.15-.02.17-.06.51-.47.72-.97.22-.51.38-1.12.48-1.74.24-1.51.09-3.19-.31-4.77-.43-1.58-1.14-3.09-2.09-4.39-.52-.72-1.11-1.37-1.78-1.95-.34-.27-.68-.55-1.1-.87l-1.17-.92c-1.54-1.22-3.07-2.42-4.65-3.56-1.94-1.39-3.93-2.71-6.02-3.77-1.59-.79-3.23-1.48-4.91-1.81-1.64-.35-3.4-.17-5.17.13-2.75.46-5.4,1.28-8.17,1.9-.61.14-1.21.29-1.84.4-2.34.4-3.18.15-3.69-.58-.12-.16-.27-.33-.33-.49-.2-.55.68-1.04,2.25-1.38,2.35-.51,4.79-1.18,7.34-1.77,1.28-.3,2.58-.58,3.93-.8,1.36-.21,2.73-.43,4.29-.38,2.38.09,4.46.83,6.39,1.68,1.92.87,3.7,1.91,5.41,3.02l-.03.06Z"/><path class="cls-4" d="M250.75,161.6l-.08-1.58-.03-.86c0-.1,0-.15,0-.37l.02-.15.03-.13c.03-.11.07-.22.13-.31l.04-.07.03-.04s.07-.09.12-.14c.18-.2.53-.36.82-.37.14-.01.3.01.36.03.05.01.1.03.16.05.1.04.21.09.3.16.09.06.18.15.23.21l.04.05.07.1c.06.1.05.09.05.1v.03s.03.05.03.05c.06.15.12.29.17.44.14.43.3.82.38,1.24.24,1.46.28,2.85.24,4.24,0,.62-.01,1.22-.02,1.83-.05.77-.03,1.59-.49,2.32-.13.23-.21.16-.34-.08-.09-.23-.47-.63-.49-1.03-.19-1.47-.39-2.94-.46-4.43-.02-.9-.34-1.79-.62-2.6-.08-.22-.16-.44-.25-.64-.05-.1-.09-.2-.13-.3h0c-.56.31.77-.42.63-.35h0s.02-.01.02-.01l.04-.02s.05-.03.08-.05c.06-.04.07-.06.07-.07,0,0,.06.04.09.03.07.02.15.03.22.03.16,0,.42.03.62.02.08,0,.02,0,.04.01v.14c.01.47.06,1.01.1,1.53l.16,1.94c.1.98.15,1.97.29,2.95.1.76.33,1.49.46,2.28.03.17.07.35.08.53.05.69-.29.98-.89.99-.14,0-.27.01-.39,0-.21-.03-.38-.13-.55-.24-.17-.11-.35-.25-.41-.44-.4-1.14-.64-2.52-.78-3.89-.1-1.04-.19-2.08-.29-3.12h.06Z"/><path class="cls-4" d="M219.72,251.77c-1,.18-2.03.32-3.17.27-.16,0-.24-.02-.51-.05-.23-.02-.47-.04-.66-.1-.4-.12-.78-.27-1.15-.42-.67-.41-1.16-.94-1.51-1.62-.08-.2-.08-.44-.14-.65,0-.23,0-.45.05-.66.09-.43.35-.82.62-1.2.23-.29.49-.57.8-.81.15-.12.29-.27.44-.38l.32-.24c.41-.29.81-.54,1.23-.77,2.92-1.55,5.85-2.71,8.68-4.11,1.26-.6,2.45-1.35,3.64-2.04.76-.45,1.48-.97,2.24-1.4.4-.2.73-.49,1.17-.62l.67-.21c.22-.08.49-.1.69-.21.49-.28.48-.19.23.26-.13.21-.19.68-.35,1.16-.08.24-.13.56-.26.79-.15.21-.31.43-.51.61-2.83,2.67-6.35,4.13-9.77,5.53-2.05.82-4.09,1.95-5.88,3.06l-.55.35c-.08.05-.16.11-.24.18-.14.12-.34.35-.21.55.27.49.65.55,2.11.47,1.41-.11,2.88-.47,4.3-.9,2.18-.66,4.29-1.49,6.23-2.66,1.53-.88,2.87-2.01,4.36-2.98.33-.22.63-.45.97-.65,1.25-.77,1.76-.84,2.32-.5.13.08.28.14.38.23.34.3.03.94-.77,1.65-2.36,2.13-5.09,4.08-8.28,5.65-2.41,1.15-4.83,1.94-7.46,2.51l-.02-.06Z"/><path class="cls-4" d="M215.18,240.92c-.52.29-1.02.62-1.32.92-.08.09-.08.08-.11.11-.02.02-.04.04-.05.07-.03.06-.03.12-.01.19.03.06.19.26.35.36.3.19.76.25,1.27.3,1.84.25,4.07-.18,6.12-.77.92-.28,1.82-.64,2.72-.97,1.16-.44,2.23-1.04,3.47-1.33.38-.1.43.07.28.47-.08.2-.2.47-.37.77-.18.28-.43.54-.74.75-1.11.71-2.23,1.43-3.46,1.93-1.24.45-2.53.82-3.88,1.02-.8.12-1.62.28-2.47.38-.85.1-1.75.17-2.7-.06-.92-.22-1.97-.74-2.55-1.83-.38-.67-.36-1.51.01-2.17.42-.71.85-.99,1.28-1.33.97-.69,1.95-1.15,2.93-1.62,1.48-.7,2.99-1.31,4.42-2.02,1.11-.56,2.12-1.24,3.17-1.82l.68-.41c.87-.47,1.21-.5,1.63-.28.09.05.2.09.28.15.25.2.07.67-.49,1.23-.84.79-1.77,1.55-2.77,2.17-1.02.59-2.08,1.11-3.13,1.61-1.56.74-3.17,1.41-4.53,2.22l-.03-.04Z"/><path class="cls-4" d="M262.21,225.97c.18.81.34,1.62.37,2.46.03.3.09.6.06.9-.11,1.08-.42,2.1-.83,3.02-.21.39-.34.82-.56,1.19-.16.23-.29.48-.48.68-.19.21-.39.4-.6.58-.13.11-.21.03-.26-.18-.05-.2-.13-.55-.08-.85.07-.25.07-.53.11-.78.06-.24.14-.46.19-.69.14-.45.25-.89.38-1.34.17-.55.02-1.14-.08-1.7-.07-.63-.2-1.26-.41-1.9-.12-.39-.28-.78-.45-1.16-.28-.57-.56-1.16-.96-1.68-.31-.4-.76-.69-1.16-1.01-.09-.07-.18-.14-.24-.23-.24-.33-.16-.56.34-1.06.11-.11.22-.23.34-.34.39-.36.85-.5,1.22-.37.57.16.97.49,1.33.86.34.39.68.79.92,1.28.37.7.64,1.49.9,2.27l-.06.03Z"/><path class="cls-4" d="M192.42,400.42c2.74-1.42,5.53-2.69,8.3-3.91,2.75-1.23,5.53-2.4,8.02-3.76,1.22-.69,2.43-1.38,3.26-2.19.41-.4.72-.8.9-1.19.18-.36.24-.89.18-1.07-.1-.62-1.05-1.67-2.11-2.48-1.07-.85-2.3-1.63-3.56-2.37-3.71-2.17-7.7-4.05-11.6-6.13-6.87-3.66-13.76-7.62-19.65-13.05-2.92-2.71-5.57-5.82-7.52-9.4-.97-1.79-1.76-3.68-2.32-5.64l-.74-2.87c-.24-.96-.41-1.93-.62-2.89-.67-3.43-1.15-6.89-1.49-10.34-.37-3.46-.57-6.91-.71-10.35-.18-4.41-.13-8.84.07-13.25.22-4.41.56-8.82,1.4-13.16.45-1.33.66-1.9.73-1.85.08.05.06.72.28,1.91.24,1.18.33,2.83.51,4.83.07.99.16,2.07.2,3.21.03,1.14.06,2.35.04,3.6-.05,4.44.07,8.87.27,13.29.14,4.42.41,8.83.9,13.2l.42,3.27c.15,1.09.35,2.16.52,3.25.37,2.16.79,4.3,1.33,6.4.92,4.11,2.98,7.8,5.72,11.14,3.29,3.98,7.59,7.31,12.18,10.23,4.61,2.92,9.51,5.46,14.43,7.98,2.7,1.4,5.42,2.77,8.1,4.38,1.34.81,2.66,1.67,3.93,2.77.63.56,1.25,1.18,1.77,2,.27.39.49.88.65,1.4.15.52.2,1.17.14,1.64-.07,1.02-.45,2.01-.97,2.81-.53.8-1.16,1.44-1.81,1.99-1.3,1.1-2.69,1.9-4.08,2.62-2.78,1.43-5.58,2.61-8.34,3.86-6.78,3.03-13.37,6.43-18.98,11.14-4.25,3.53-7.95,7.76-10.73,12.54-2.79,4.77-4.72,10.04-5.82,15.45-.45,2.09-.71,4.22-1,6.37-.27,2.14-.53,4.27-.75,6.41-.45,4.27-.75,8.53-.97,12.81-.09,1.89-.12,3.73-.17,5.63-.1,3.52-.14,5.84-.29,7.48-.15,1.63-.4,2.58-.82,3.35-.19.35-.37.82-.57,1.03-.63.71-1.36-2.18-1.59-7.43-.29-7.79.02-15.82.84-23.9.2-2.02.43-4.04.71-6.07.28-2,.56-4.07.99-6.16.83-4.14,2.11-8.25,3.87-12.16,2.6-5.82,6.4-11.16,11.01-15.57,4.61-4.44,9.97-7.93,15.49-10.81l.06.07Z"/><path class="cls-4" d="M244.95,97.82c.21-.23.44-.74.57-1.34.14-.6.19-1.3.22-2,.01-.71,0-1.44-.06-2.18l-.04-.56-.04-.69c-.02-.47,0-.94.05-1.41.21-1.86.92-3.72,2.27-5.16.67-.71,1.47-1.33,2.37-1.74.9-.4,1.87-.64,2.82-.69.69-.03,1.38-.01,2.08.12.7.12,1.34.35,1.93.59,1.18.5,2.15,1.04,3.12,1.47.85.39,1.71.7,2.6.92.44.11.9.2,1.35.27.22.03.47.07.68.09.18,0,.35,0,.53,0,1.57-.17,3.41-1.04,5.13-1.96,1.75-.93,3.49-1.96,5.35-2.89.95-.44,1.89-.91,3-1.2.56-.13,1.13-.27,1.82-.21.69-.03,1.53.4,1.97.91.77.88,1.14,1.76,1.51,2.63.35.86.65,1.72.96,2.56.6,1.69,1.19,3.34,1.93,4.9,1.86,4.03,4.88,7.29,9.05,8.88,1.29.52,1.14.55-.13.63-.63.01-1.58.07-2.68-.19-1.09-.26-2.37-.76-3.55-1.63-2.05-1.6-3.54-3.75-4.69-5.92-1.14-2.19-2-4.47-2.75-6.63-.38-1.07-.77-2.14-1.21-2.91-.11-.17-.22-.34-.31-.44-.11-.1-.09-.11-.12-.13-.02,0-.02,0-.04-.02-.05,0-.1,0-.18,0-.12-.04-.35.03-.55.05-.85.16-1.88.6-2.87,1.07-1.01.49-2.03,1.04-3.06,1.59-1.24.66-2.5,1.36-3.83,2.02-1.35.64-2.73,1.31-4.51,1.52-1,.06-1.72-.04-2.49-.17-.77-.11-1.53-.32-2.29-.54-1.5-.47-2.89-1.18-4.12-1.78-.68-.32-1.32-.59-1.94-.72-.32-.07-.6-.11-.94-.11h-.49s-.48.04-.48.04c-1.27.16-2.39.82-3.18,1.84-.78,1.03-1.24,2.36-1.27,3.72-.03.34.01.67.03,1.03l.1,1.22c.04.82.08,1.65.02,2.5-.06,1.04-.19,2.11-.62,3.21-.23.54-.52,1.1-1.01,1.58-.47.47-1.09.84-1.72,1-1.19.32-2.63.1-3.65-.69-1-.76-1.57-1.72-2.06-2.6-.74-1.35-1.32-2.67-2.1-3.76-.77-1.09-1.73-1.89-2.92-2.12-.3-.06-.62-.05-.92-.09-.31-.02-.65.04-.98.05-.64.11-1.29.24-1.87.51-1.2.49-2.19,1.38-2.87,2.46-1.06,1.71-1.19,3.82-.59,5.75.58,1.94,1.73,3.65,3.31,4.72.71.45,1.45.8,2.26,1.03,1.5.45,2.6.44,3.37.61.78.14,1.27.33,1.72.65.2.15.47.29.61.45.24.27,0,.58-.66.93-.33.19-.78.35-1.34.47-.55.16-1.23.22-2,.24-1.14-.05-2.31-.21-3.45-.62-1.13-.41-2.23-1.01-3.19-1.8-1.91-1.61-3.23-3.88-3.79-6.27-.64-2.42-.37-5.32,1.06-7.64,1.38-2.36,3.94-4.02,6.57-4.43.49-.11.97-.12,1.46-.15.5-.02,1.06.05,1.58.09.54.09,1.09.27,1.61.45.49.26,1.04.48,1.46.83,1.78,1.34,2.68,3.06,3.43,4.49.37.71.71,1.43,1.05,2.01.17.32.34.54.51.8.08.11.17.18.25.28l.12.14.11.08c.37.45,1.35.31,1.55-.02l.06.04Z"/><path class="cls-4" d="M277.89,164.51c1.86-1.78,4.43-2.78,6.94-2.8.91-.01,1.83,0,2.7.21,1.68.39,3.2,1.38,4.12,2.86.46.73.77,1.6.8,2.49.05.88-.22,1.78-.59,2.47-.65,1.27-1.73,2.29-2.96,2.89-1.55.78-3.4,1.02-4.96.36-.49-.18-.39-.27.05-.44.45-.23,1.19-.61,1.95-.84,1.37-.36,2.55-1.01,3.25-1.97.34-.45.66-1.04.8-1.52.14-.48.12-.96-.04-1.48-.11-.31-.29-.61-.54-.89-.26-.27-.56-.5-.89-.71-.68-.41-1.39-.59-2.29-.69-1.88-.26-3.83.16-5.42,1.25-.49.33-.95.72-1.37,1.15-.42.43-.8.93-1.04,1.39-.37.72-.46,1.51-.16,2.22.28.71.95,1.3,1.74,1.6.61.24,1.28.28,2.01.24.72-.03,1.43-.15,2.14-.29.31-.08.61-.15.93-.23,1.17-.24,1.58-.19,2.02.37.1.13.22.24.3.38.27.44-.11,1.01-1.04,1.43-1.36.61-2.91.95-4.57.98-.78.01-1.78-.07-2.71-.43-.93-.34-1.84-.92-2.54-1.77-.52-.63-.91-1.41-1.08-2.26-.18-.84-.1-1.72.12-2.49.21-.78.61-1.46,1.01-2.01.38-.52.79-1.02,1.26-1.47l.05.05Z"/><path class="cls-4" d="M322.12,192.48c.64-.67,1.22-1.56,1.65-2.51.15-.35.24-.72.37-1.05.11-.26.2-.59.29-.94.08-.34.16-.69.22-1.03.16-.69.27-1.4.27-2.11,0-.63-.12-1.26-.24-1.88-.09-.4-.22-.79-.35-1.18-.17-.37-.14-.87-.35-1.24-.1-.25-.08-.22.1-.07.09.07.22.18.43.29.13.07.24.13.34.18.06.03.12.07.19.1.04.05.09.09.13.15.62.72,1.21,1.54,1.53,2.47.29.93.43,1.92.35,2.88-.03.58-.12,1.15-.16,1.73-.05.54-.12,1.23-.31,1.8-.39,1.25-1,2.39-1.76,3.46-.48.65-1.04,1.27-1.72,1.79-.51.41-1.14.7-1.79.89-.34.06-.67.15-1.05.14-.35,0-.66-.04-.97-.08-.4-.06-.79-.12-1.21-.22-.41-.1-.99-.33-1.37-.7-.16-.16-.31-.34-.43-.54-.15-.25-.3-.53-.35-.84-.11-.58.06-.99.24-1.21.26-.23.49-.22.85-.22.16.01.32.01.46.04.25.05.44.17.62.33.19.19.32.29.4.36.13.14.28.18.38.16.06,0,.1-.03.13-.05l.46.09c.33.06.83.1.86.08.25-.04.51-.13.81-.3.3-.18.62-.47.92-.8l.06.04Z"/><path class="cls-4" d="M213.96,241.15c-5.21,1.85-10.57,3.56-16.38,3.9-2.89.18-5.86-.13-8.67-1.07-2.81-.91-5.43-2.47-7.58-4.5l-.6-.55-.54-.6c-.35-.41-.73-.79-1.06-1.22-.62-.87-1.29-1.72-1.79-2.66-1.11-1.83-1.88-3.82-2.47-5.84-.22-.9-.49-1.79-.61-2.71-.16-.91-.32-1.82-.37-2.74l-.12-1.37-.03-1.34-.05-2.69c-.04-.9.03-1.79.08-2.68l.15-2.68c.13-1.78.41-3.55.61-5.33,1.05-7.07,3.12-13.95,5.88-20.49,2.44-5.82,5.45-11.42,8.92-16.61,1.14-1.65,2.27-3.31,3.47-4.92l1.87-2.36c.61-.8,1.26-1.56,1.93-2.31l2-2.25c.67-.75,1.4-1.44,2.09-2.16.71-.71,1.4-1.43,2.13-2.11.75-.66,1.57-1.26,2.35-1.88,2.03-1.47,1.72-1.3.51.46-1.15,1.83-3.4,4.97-6.19,8.5-4.9,6.31-9.45,12.88-12.96,20.02-3.64,7.05-6.58,14.53-8.28,22.35-1.08,4.67-1.5,9.57-1.54,14.48l.08,3.69c.11,1.2.17,2.4.41,3.57.42,2.35,1.06,4.67,2.11,6.77,1.12,2.32,2.66,4.43,4.59,6.11,1.92,1.68,4.24,2.9,6.72,3.58,2.49.69,5.12.85,7.75.67,2.63-.21,5.27-.85,7.87-1.55,3.21-.89,6.37-2.03,9.5-3.25,3.13-1.22,6.22-2.56,9.29-3.95,9.3-4.23,18.46-8.92,27.49-13.62,7.03-3.64,13.82-7.4,20.98-10.72,1.58-.73,3.13-1.43,4.78-2.08,6.1-2.37,8.68-2.2,10.08-1.33.32.23.72.46.86.66.23.35-.33.56-1.33.75-1.04.26-2.68.68-4.83,1.4-3.19,1.1-6.37,2.54-9.57,4.05-3.2,1.51-6.41,3.14-9.63,4.79-6.47,3.33-13.03,6.71-19.6,10.09-4.91,2.49-9.86,4.95-14.89,7.29-5.03,2.34-10.13,4.57-15.38,6.5l-.04-.06Z"/><path class="cls-4" d="M237.4,255.79c2.11-1.68,4.08-3.69,5.87-5.82.65-.78,1.22-1.62,1.82-2.43,1.05-1.42,2.06-2.92,2.63-4.44.58-1.68,1.03-3.41,1.28-5.18.22-1.57.29-3.18.26-4.76-.05-2.04-.4-4.05-.13-6.18.07-.66.06-.58.37-.07.15.25.41.61.73,1.04.28.44.49.98.66,1.58.15.53.24,1.07.29,1.61.07.54.12,1.09.15,1.64.07,1.09.11,2.2.06,3.3-.15,2.21-.56,4.41-1.25,6.53-.22.62-.4,1.26-.69,1.95-.27.66-.59,1.28-.92,1.88-.67,1.2-1.39,2.35-2.19,3.43-1.77,2.35-3.74,4.53-5.91,6.52-.67.61-1.37,1.2-2.1,1.76-.37.28-.75.55-1.15.8-.2.12-.4.25-.62.37-.23.13-.38.21-.73.37-.46.2-.93.32-1.39.35-.46,0-.91-.11-1.29-.38-.75-.57-.95-1.59-.76-2.53.04-.22.11-.5.17-.67.06-.18.12-.36.19-.53.13-.34.28-.67.44-.98.31-.63.66-1.23,1.02-1.82,1.11-1.81,2.23-3.54,3.47-5.22.27-.37.52-.74.81-1.1,1.09-1.32,1.58-1.61,2.35-1.39.17.04.36.07.5.13.46.21.39,1.07-.31,2.07-1.03,1.49-2.07,3-3.13,4.53-1.02,1.51-2.08,3.09-2.69,4.56-.05.13-.11.27-.14.39l-.05.15h0s0,0,0,0c0,0,0,.02,0,.03,0,0,.04,0,0,.01.25-.11.51-.25.78-.42.53-.33,1.07-.72,1.59-1.15l.04.04Z"/><path class="cls-4" d="M222.43,251.79c-.12.07-.07.03-.11.05l-.05.02s-.07.04-.1.07c-.06.07.01.15.07.22.01.02.04.04.05.05l.14.07c.18.08.41.12.62.2.24.02.47.07.72.09.26,0,.51.02.77,0,.77-.03,1.56-.23,2.37-.4,1.42-.31,2.85-.76,4.29-1.26l1.09-.38c.33-.12.67-.25,1-.4.66-.29,1.3-.64,1.93-1.04,1.11-.7,2.13-1.58,3.12-2.49.63-.59,1.26-1.18,1.92-1.76.34-.28.65-.59,1.03-.82.39-.23.79-.44,1.22-.61.54-.2.46-.18.26.29-.1.23-.19.63-.34,1.04-.08.21-.14.45-.25.66-.13.2-.27.39-.44.57-1.17,1.33-2.44,2.6-3.89,3.77-1.43,1.16-3.1,2.24-4.98,2.81-2.02.63-4.14,1.6-6.42,2.04-1.26.23-2.59.37-3.99.08-.35-.09-.7-.16-1.05-.34-.22-.11-.46-.2-.64-.33l-.52-.45c-.39-.27-.57-.66-.8-1.01-.21-.35-.16-.84.04-1.19.24-.45.62-.85,1.09-1.18.5-.39.77-.53,1.12-.74.67-.39,1.33-.74,2.01-1.08,2.03-1.02,4.09-1.92,6.05-2.97,1.52-.81,2.93-1.75,4.28-2.72.3-.21.57-.45.86-.66,1.16-.68,1.56-.82,2.1-.69.12.03.26.04.35.07.31.09.18.81-.54,1.7-.5.68-1.15,1.2-1.8,1.69-.65.49-1.33.95-2.03,1.38-1.39.87-2.83,1.64-4.28,2.39-2.12,1.11-4.36,2.15-6.22,3.28l-.04-.05Z"/><path class="cls-4" d="M251.53,483.96l-32.11-.26c-3.91,0-7.81,0-11.71.01l-41.29-.38c-6.11-.05-12.25,0-18.31.03-3.89.04-7.8.08-11.7.05-3.91-.05-7.8-.03-11.71-.59-1.21-.25-1.73-.43-1.69-.57.04-.14.64-.27,1.68-.59,1.04-.33,2.48-.6,4.25-.97,1.76-.3,3.83-.45,6.06-.48,7.94-.13,15.89-.04,23.85,0,7.96.06,15.94.17,23.95.35,9.58.22,19.56.05,29.37.07,10.78.05,21.57.1,32.35.15,6.64.04,13.28.07,19.91.11,10.05.05,20.15.09,30.13.14,7.76,0,15.36-.2,23.03-.25,1.69-.02,3.34-.04,5.05-.06,6.32.05,8.33.29,9.66,1.25.3.2.7.4.88.58.59.57-2,1.27-6.61,1.31-13.69.29-28.13.34-42.64.28-10.77-.05-21.6-.1-32.4-.14v-.08Z"/><path class="cls-4" d="M284.47,167.93c0-.07-.04-.09-.15-.09,0-.02-.15.09-.31.13-.54.16-1.09.3-1.61.51-.23.09-.45.2-.66.32-.29.13-.58.24-.9.32-.1.03-.1,0-.07-.11.04-.09.1-.28.22-.44.4-.58.96-.9,1.54-1.2.36-.16.66-.44,1.01-.63.47-.28,1.31-.79,1.72-.68.08,0,.14,0,.21,0l.05.02s.03.04.04.06l.08.1c.1.13.19.28.25.45.2.51.25,1.19.29,1.56.04.34.16.69.19,1.07,0,.08.03.17.02.26-.03.32-.2.39-.68.28-.11-.02-.22-.05-.33-.08-.37-.11-.64-.31-.7-.45-.22-.44-.24-.86-.28-1.29,0,.02.04-.02.05-.07l.03-.05Z"/><path class="cls-6" d="M150.37,220.89s17.52,1.54,24.05-2.51"/><path class="cls-4" d="M193.9,353.54h-.28c-.33-.01-.63.06-.92.2-.29.1-.55.26-.76.49-.23.22-.4.47-.49.76-.15.28-.22.59-.2.92l.08.63c.11.4.32.75.61,1.05l.48.37c.37.21.77.32,1.2.32h.28c.33.01.63-.06.92-.2.29-.1.55-.26.76-.49.23-.22.4-.47.49-.76.15-.28.22-.59.2-.92l-.08-.63c-.11-.4-.32-.75-.61-1.05l-.48-.37c-.37-.21-.77-.32-1.2-.32h0Z"/><path class="cls-4" d="M207.38,353.54h-.28c-.33-.01-.63.06-.92.2-.29.1-.55.26-.76.49-.23.22-.4.47-.49.76-.15.28-.22.59-.2.92l.08.63c.11.4.32.75.61,1.05l.48.37c.37.21.77.32,1.2.32h.28c.33.01.63-.06.92-.2.29-.1.55-.26.76-.49.23-.22.4-.47.49-.76.15-.28.22-.59.2-.92l-.08-.63c-.11-.4-.32-.75-.61-1.05l-.48-.37c-.37-.21-.77-.32-1.2-.32h0Z"/><path class="cls-4" d="M217.99,353.54h-.28c-.33-.01-.63.06-.92.2-.29.1-.55.26-.76.49-.23.22-.4.47-.49.76-.15.28-.22.59-.2.92l.08.63c.11.4.32.75.61,1.05l.48.37c.37.21.77.32,1.2.32h.28c.33.01.63-.06.92-.2.29-.1.55-.26.76-.49.23-.22.4-.47.49-.76.15-.28.22-.59.2-.92l-.08-.63c-.11-.4-.32-.75-.61-1.05l-.48-.37c-.37-.21-.77-.32-1.2-.32h0Z"/><path class="cls-4" d="M228.95,353.95h-.28c-.33-.01-.63.06-.92.2-.29.1-.55.26-.76.49-.23.22-.4.47-.49.76-.15.28-.22.59-.2.92l.08.63c.11.4.32.75.61,1.05l.48.37c.37.21.77.32,1.2.32h.28c.33.01.63-.06.92-.2.29-.1.55-.26.76-.49.23-.22.4-.47.49-.76.15-.28.22-.59.2-.92l-.08-.63c-.11-.4-.32-.75-.61-1.05l-.48-.37c-.37-.21-.77-.32-1.2-.32h0Z"/><path class="cls-4" d="M238.9,353.98h-.28c-.33-.01-.63.06-.92.2-.29.1-.55.26-.76.49-.23.22-.4.47-.49.76-.15.28-.22.59-.2.92l.08.63c.11.4.32.75.61,1.05l.48.37c.37.21.77.32,1.2.32h.28c.33.01.63-.06.92-.2.29-.1.55-.26.76-.49.23-.22.4-.47.49-.76.15-.28.22-.59.2-.92l-.08-.63c-.11-.4-.32-.75-.61-1.05l-.48-.37c-.37-.21-.77-.32-1.2-.32h0Z"/><path class="cls-4" d="M251.26,354.11h-.28c-.33-.01-.63.06-.92.2-.29.1-.55.26-.76.49-.23.22-.4.47-.49.76-.15.28-.22.59-.2.92l.08.63c.11.4.32.75.61,1.05l.48.37c.37.21.77.32,1.2.32h.28c.33.01.63-.06.92-.2.29-.1.55-.26.76-.49.23-.22.4-.47.49-.76.15-.28.22-.59.2-.92l-.08-.63c-.11-.4-.32-.75-.61-1.05l-.48-.37c-.37-.21-.77-.32-1.2-.32h0Z"/><path class="cls-4" d="M265.45,354.11h-.28c-.33-.01-.63.06-.92.2-.29.1-.55.26-.76.49-.23.22-.4.47-.49.76-.15.28-.22.59-.2.92l.08.63c.11.4.32.75.61,1.05l.48.37c.37.21.77.32,1.2.32h.28c.33.01.63-.06.92-.2.29-.1.55-.26.76-.49.23-.22.4-.47.49-.76.15-.28.22-.59.2-.92l-.08-.63c-.11-.4-.32-.75-.61-1.05l-.48-.37c-.37-.21-.77-.32-1.2-.32h0Z"/><path class="cls-4" d="M195.34,467.22h-.28c-.33-.01-.63.06-.92.2-.29.1-.55.26-.76.49-.23.22-.4.47-.49.76-.15.28-.22.59-.2.92l.08.63c.11.4.32.75.61,1.05l.48.37c.37.21.77.32,1.2.32h.28c.33.01.63-.06.92-.2.29-.1.55-.26.76-.49.23-.22.4-.47.49-.76.15-.28.22-.59.2-.92l-.08-.63c-.11-.4-.32-.75-.61-1.05l-.48-.37c-.37-.21-.77-.32-1.2-.32h0Z"/><path class="cls-4" d="M205.83,467.22h-.28c-.33-.01-.63.06-.92.2-.29.1-.55.26-.76.49-.23.22-.4.47-.49.76-.15.28-.22.59-.2.92l.08.63c.11.4.32.75.61,1.05l.48.37c.37.21.77.32,1.2.32h.28c.33.01.63-.06.92-.2.29-.1.55-.26.76-.49.23-.22.4-.47.49-.76.15-.28.22-.59.2-.92l-.08-.63c-.11-.4-.32-.75-.61-1.05l-.48-.37c-.37-.21-.77-.32-1.2-.32h0Z"/><path class="cls-4" d="M216.44,467.22h-.28c-.33-.01-.63.06-.92.2-.29.1-.55.26-.76.49-.23.22-.4.47-.49.76-.15.28-.22.59-.2.92l.08.63c.11.4.32.75.61,1.05l.48.37c.37.21.77.32,1.2.32h.28c.33.01.63-.06.92-.2.29-.1.55-.26.76-.49.23-.22.4-.47.49-.76.15-.28.22-.59.2-.92l-.08-.63c-.11-.4-.32-.75-.61-1.05l-.48-.37c-.37-.21-.77-.32-1.2-.32h0Z"/><path class="cls-4" d="M227.39,467.63h-.28c-.33-.01-.63.06-.92.2-.29.1-.55.26-.76.49-.23.22-.4.47-.49.76-.15.28-.22.59-.2.92l.08.63c.11.4.32.75.61,1.05l.48.37c.37.21.77.32,1.2.32h.28c.33.01.63-.06.92-.2.29-.1.55-.26.76-.49.23-.22.4-.47.49-.76.15-.28.22-.59.2-.92l-.08-.63c-.11-.4-.32-.75-.61-1.05l-.48-.37c-.37-.21-.77-.32-1.2-.32h0Z"/><path class="cls-4" d="M237.34,467.66h-.28c-.33-.01-.63.06-.92.2-.29.1-.55.26-.76.49-.23.22-.4.47-.49.76-.15.28-.22.59-.2.92l.08.63c.11.4.32.75.61,1.05l.48.37c.37.21.77.32,1.2.32h.28c.33.01.63-.06.92-.2.29-.1.55-.26.76-.49.23-.22.4-.47.49-.76.15-.28.22-.59.2-.92l-.08-.63c-.11-.4-.32-.75-.61-1.05l-.48-.37c-.37-.21-.77-.32-1.2-.32h0Z"/><path class="cls-4" d="M250.71,467.8h-.28c-.33-.01-.63.06-.92.2-.29.1-.55.26-.76.49-.23.22-.4.47-.49.76-.15.28-.22.59-.2.92l.08.63c.11.4.32.75.61,1.05l.48.37c.37.21.77.32,1.2.32h.28c.33.01.63-.06.92-.2.29-.1.55-.26.76-.49.23-.22.4-.47.49-.76.15-.28.22-.59.2-.92l-.08-.63c-.11-.4-.32-.75-.61-1.05l-.48-.37c-.37-.21-.77-.32-1.2-.32h0Z"/><path class="cls-4" d="M264.9,467.8h-.28c-.33-.01-.63.06-.92.2-.29.1-.55.26-.76.49-.23.22-.4.47-.49.76-.15.28-.22.59-.2.92l.08.63c.11.4.32.75.61,1.05l.48.37c.37.21.77.32,1.2.32h.28c.33.01.63-.06.92-.2.29-.1.55-.26.76-.49.23-.22.4-.47.49-.76.15-.28.22-.59.2-.92l-.08-.63c-.11-.4-.32-.75-.61-1.05l-.48-.37c-.37-.21-.77-.32-1.2-.32h0Z"/><path class="cls-4" d="M203.92,365.18h-.28c-.33-.01-.63.06-.92.2-.29.1-.55.26-.76.49-.23.22-.4.47-.49.76-.15.28-.22.59-.2.92l.08.63c.11.4.32.75.61,1.05l.48.37c.37.21.77.32,1.2.32h.28c.33.01.63-.06.92-.2.29-.1.55-.26.76-.49.23-.22.4-.47.49-.76.15-.28.22-.59.2-.92l-.08-.63c-.11-.4-.32-.75-.61-1.05l-.48-.37c-.37-.21-.77-.32-1.2-.32h0Z"/><path class="cls-4" d="M213.4,365.18h-.28c-.33-.01-.63.06-.92.2-.29.1-.55.26-.76.49-.23.22-.4.47-.49.76-.15.28-.22.59-.2.92l.08.63c.11.4.32.75.61,1.05l.48.37c.37.21.77.32,1.2.32h.28c.33.01.63-.06.92-.2.29-.1.55-.26.76-.49.23-.22.4-.47.49-.76.15-.28.22-.59.2-.92l-.08-.63c-.11-.4-.32-.75-.61-1.05l-.48-.37c-.37-.21-.77-.32-1.2-.32h0Z"/><path class="cls-4" d="M224.02,365.18h-.28c-.33-.01-.63.06-.92.2-.29.1-.55.26-.76.49-.23.22-.4.47-.49.76-.15.28-.22.59-.2.92l.08.63c.11.4.32.75.61,1.05l.48.37c.37.21.77.32,1.2.32h.28c.33.01.63-.06.92-.2.29-.1.55-.26.76-.49.23-.22.4-.47.49-.76.15-.28.22-.59.2-.92l-.08-.63c-.11-.4-.32-.75-.61-1.05l-.48-.37c-.37-.21-.77-.32-1.2-.32h0Z"/><path class="cls-4" d="M234.97,365.59h-.28c-.33-.01-.63.06-.92.2-.29.1-.55.26-.76.49-.23.22-.4.47-.49.76-.15.28-.22.59-.2.92l.08.63c.11.4.32.75.61,1.05l.48.37c.37.21.77.32,1.2.32h.28c.33.01.63-.06.92-.2.29-.1.55-.26.76-.49.23-.22.4-.47.49-.76.15-.28.22-.59.2-.92l-.08-.63c-.11-.4-.32-.75-.61-1.05l-.48-.37c-.37-.21-.77-.32-1.2-.32h0Z"/><path class="cls-4" d="M244.92,365.61h-.28c-.33-.01-.63.06-.92.2-.29.1-.55.26-.76.49-.23.22-.4.47-.49.76-.15.28-.22.59-.2.92l.08.63c.11.4.32.75.61,1.05l.48.37c.37.21.77.32,1.2.32h.28c.33.01.63-.06.92-.2.29-.1.55-.26.76-.49.23-.22.4-.47.49-.76.15-.28.22-.59.2-.92l-.08-.63c-.11-.4-.32-.75-.61-1.05l-.48-.37c-.37-.21-.77-.32-1.2-.32h0Z"/><path class="cls-4" d="M257.07,365.42h-.28c-.33-.01-.63.06-.92.2-.29.1-.55.26-.76.49-.23.22-.4.47-.49.76-.15.28-.22.59-.2.92l.08.63c.11.4.32.75.61,1.05l.48.37c.37.21.77.32,1.2.32h.28c.33.01.63-.06.92-.2.29-.1.55-.26.76-.49.23-.22.4-.47.49-.76.15-.28.22-.59.2-.92l-.08-.63c-.11-.4-.32-.75-.61-1.05l-.48-.37c-.37-.21-.77-.32-1.2-.32h0Z"/><path class="cls-4" d="M205.87,456.85h-.28c-.33-.01-.63.06-.92.2-.29.1-.55.26-.76.49-.23.22-.4.47-.49.76-.15.28-.22.59-.2.92l.08.63c.11.4.32.75.61,1.05l.48.37c.37.21.77.32,1.2.32h.28c.33.01.63-.06.92-.2.29-.1.55-.26.76-.49.23-.22.4-.47.49-.76.15-.28.22-.59.2-.92l-.08-.63c-.11-.4-.32-.75-.61-1.05l-.48-.37c-.37-.21-.77-.32-1.2-.32h0Z"/><path class="cls-4" d="M215.07,456.85h-.28c-.33-.01-.63.06-.92.2-.29.1-.55.26-.76.49-.23.22-.4.47-.49.76-.15.28-.22.59-.2.92l.08.63c.11.4.32.75.61,1.05l.48.37c.37.21.77.32,1.2.32h.28c.33.01.63-.06.92-.2.29-.1.55-.26.76-.49.23-.22.4-.47.49-.76.15-.28.22-.59.2-.92l-.08-.63c-.11-.4-.32-.75-.61-1.05l-.48-.37c-.37-.21-.77-.32-1.2-.32h0Z"/><path class="cls-4" d="M225.68,456.85h-.28c-.33-.01-.63.06-.92.2-.29.1-.55.26-.76.49-.23.22-.4.47-.49.76-.15.28-.22.59-.2.92l.08.63c.11.4.32.75.61,1.05l.48.37c.37.21.77.32,1.2.32h.28c.33.01.63-.06.92-.2.29-.1.55-.26.76-.49.23-.22.4-.47.49-.76.15-.28.22-.59.2-.92l-.08-.63c-.11-.4-.32-.75-.61-1.05l-.48-.37c-.37-.21-.77-.32-1.2-.32h0Z"/><path class="cls-4" d="M236.63,457.26h-.28c-.33-.01-.63.06-.92.2-.29.1-.55.26-.76.49-.23.22-.4.47-.49.76-.15.28-.22.59-.2.92l.08.63c.11.4.32.75.61,1.05l.48.37c.37.21.77.32,1.2.32h.28c.33.01.63-.06.92-.2.29-.1.55-.26.76-.49.23-.22.4-.47.49-.76.15-.28.22-.59.2-.92l-.08-.63c-.11-.4-.32-.75-.61-1.05l-.48-.37c-.37-.21-.77-.32-1.2-.32h0Z"/><path class="cls-4" d="M246.59,457.29h-.28c-.33-.01-.63.06-.92.2-.29.1-.55.26-.76.49-.23.22-.4.47-.49.76-.15.28-.22.59-.2.92l.08.63c.11.4.32.75.61,1.05l.48.37c.37.21.77.32,1.2.32h.28c.33.01.63-.06.92-.2.29-.1.55-.26.76-.49.23-.22.4-.47.49-.76.15-.28.22-.59.2-.92l-.08-.63c-.11-.4-.32-.75-.61-1.05l-.48-.37c-.37-.21-.77-.32-1.2-.32h0Z"/><path class="cls-4" d="M255.95,457.42h-.28c-.33-.01-.63.06-.92.2-.29.1-.55.26-.76.49-.23.22-.4.47-.49.76-.15.28-.22.59-.2.92l.08.63c.11.4.32.75.61,1.05l.48.37c.37.21.77.32,1.2.32h.28c.33.01.63-.06.92-.2.29-.1.55-.26.76-.49.23-.22.4-.47.49-.76.15-.28.22-.59.2-.92l-.08-.63c-.11-.4-.32-.75-.61-1.05l-.48-.37c-.37-.21-.77-.32-1.2-.32h0Z"/><path class="cls-4" d="M217.13,375.79h-.28c-.33-.01-.63.06-.92.2-.29.1-.55.26-.76.49-.23.22-.4.47-.49.76-.15.28-.22.59-.2.92l.08.63c.11.4.32.75.61,1.05l.48.37c.37.21.77.32,1.2.32h.28c.33.01.63-.06.92-.2.29-.1.55-.26.76-.49.23-.22.4-.47.49-.76.15-.28.22-.59.2-.92l-.08-.63c-.11-.4-.32-.75-.61-1.05l-.48-.37c-.37-.21-.77-.32-1.2-.32h0Z"/><path class="cls-4" d="M226.74,375.79h-.28c-.33-.01-.63.06-.92.2-.29.1-.55.26-.76.49-.23.22-.4.47-.49.76-.15.28-.22.59-.2.92l.08.63c.11.4.32.75.61,1.05l.48.37c.37.21.77.32,1.2.32h.28c.33.01.63-.06.92-.2.29-.1.55-.26.76-.49.23-.22.4-.47.49-.76.15-.28.22-.59.2-.92l-.08-.63c-.11-.4-.32-.75-.61-1.05l-.48-.37c-.37-.21-.77-.32-1.2-.32h0Z"/><path class="cls-4" d="M235.69,376.2h-.28c-.33-.01-.63.06-.92.2-.29.1-.55.26-.76.49-.23.22-.4.47-.49.76-.15.28-.22.59-.2.92l.08.63c.11.4.32.75.61,1.05l.48.37c.37.21.77.32,1.2.32h.28c.33.01.63-.06.92-.2.29-.1.55-.26.76-.49.23-.22.4-.47.49-.76.15-.28.22-.59.2-.92l-.08-.63c-.11-.4-.32-.75-.61-1.05l-.48-.37c-.37-.21-.77-.32-1.2-.32h0Z"/><path class="cls-4" d="M244.64,376.23h-.28c-.33-.01-.63.06-.92.2-.29.1-.55.26-.76.49-.23.22-.4.47-.49.76-.15.28-.22.59-.2.92l.08.63c.11.4.32.75.61,1.05l.48.37c.37.21.77.32,1.2.32h.28c.33.01.63-.06.92-.2.29-.1.55-.26.76-.49.23-.22.4-.47.49-.76.15-.28.22-.59.2-.92l-.08-.63c-.11-.4-.32-.75-.61-1.05l-.48-.37c-.37-.21-.77-.32-1.2-.32h0Z"/><path class="cls-4" d="M219.06,447.47h-.28c-.33-.01-.63.06-.92.2-.29.1-.55.26-.76.49-.23.22-.4.47-.49.76-.15.28-.22.59-.2.92l.08.63c.11.4.32.75.61,1.05l.48.37c.37.21.77.32,1.2.32h.28c.33.01.63-.06.92-.2.29-.1.55-.26.76-.49.23-.22.4-.47.49-.76.15-.28.22-.59.2-.92l-.08-.63c-.11-.4-.32-.75-.61-1.05l-.48-.37c-.37-.21-.77-.32-1.2-.32h0Z"/><path class="cls-4" d="M230.91,447.47h-.28c-.33-.01-.63.06-.92.2-.29.1-.55.26-.76.49-.23.22-.4.47-.49.76-.15.28-.22.59-.2.92l.08.63c.11.4.32.75.61,1.05l.48.37c.37.21.77.32,1.2.32h.28c.33.01.63-.06.92-.2.29-.1.55-.26.76-.49.23-.22.4-.47.49-.76.15-.28.22-.59.2-.92l-.08-.63c-.11-.4-.32-.75-.61-1.05l-.48-.37c-.37-.21-.77-.32-1.2-.32h0Z"/><path class="cls-4" d="M242.69,447.47h-.28c-.33-.01-.63.06-.92.2-.29.1-.55.26-.76.49-.23.22-.4.47-.49.76-.15.28-.22.59-.2.92l.08.63c.11.4.32.75.61,1.05l.48.37c.37.21.77.32,1.2.32h.28c.33.01.63-.06.92-.2.29-.1.55-.26.76-.49.23-.22.4-.47.49-.76.15-.28.22-.59.2-.92l-.08-.63c-.11-.4-.32-.75-.61-1.05l-.48-.37c-.37-.21-.77-.32-1.2-.32h0Z"/><path class="cls-4" d="M226.76,388.63h-.28c-.31-.01-.6.05-.87.19-.28.09-.52.25-.72.47-.22.2-.37.45-.47.72-.14.27-.21.56-.19.87l.08.6c.11.38.3.71.58.99l.46.35c.35.2.73.31,1.14.31h.28c.31.01.6-.05.87-.19.28-.09.52-.25.72-.47.22-.2.37-.45.47-.72.14-.27.21-.56.19-.87l-.08-.6c-.11-.38-.3-.71-.58-.99l-.46-.35c-.35-.2-.73-.31-1.14-.31h0Z"/><path class="cls-4" d="M235.72,388.8h-.28c-.31-.01-.6.05-.87.19-.28.09-.52.25-.72.47-.22.2-.37.45-.47.72-.14.27-.21.56-.19.87l.08.6c.11.38.3.71.58.99l.46.35c.35.2.73.31,1.14.31h.28c.31.01.6-.05.87-.19.28-.09.52-.25.72-.47.22-.2.37-.45.47-.72.14-.27.21-.56.19-.87l-.08-.6c-.11-.38-.3-.71-.58-.99l-.46-.35c-.35-.2-.73-.31-1.14-.31h0Z"/><path class="cls-4" d="M228,400.63h-.28c-.31-.01-.6.05-.87.19-.28.09-.52.25-.72.47-.22.2-.37.45-.47.72-.14.27-.21.56-.19.87l.08.6c.11.38.3.71.58.99l.46.35c.35.2.73.31,1.14.31h.28c.31.01.6-.05.87-.19.28-.09.52-.25.72-.47.22-.2.37-.45.47-.72.14-.27.21-.56.19-.87l-.08-.6c-.11-.38-.3-.71-.58-.99l-.46-.35c-.35-.2-.73-.31-1.14-.31h0Z"/><path class="cls-4" d="M233.82,400.63h-.28c-.31-.01-.6.05-.87.19-.28.09-.52.25-.72.47-.22.2-.37.45-.47.72-.14.27-.21.56-.19.87l.08.6c.11.38.3.71.58.99l.46.35c.35.2.73.31,1.14.31h.28c.31.01.6-.05.87-.19.28-.09.52-.25.72-.47.22-.2.37-.45.47-.72.14-.27.21-.56.19-.87l-.08-.6c-.11-.38-.3-.71-.58-.99l-.46-.35c-.35-.2-.73-.31-1.14-.31h0Z"/><path class="cls-4" d="M226.1,436.81h-.28c-.31-.01-.6.05-.87.19-.28.09-.52.25-.72.47-.22.2-.37.45-.47.72-.14.27-.21.56-.19.87l.08.6c.11.38.3.71.58.99l.46.35c.35.2.73.31,1.14.31h.28c.31.01.6-.05.87-.19.28-.09.52-.25.72-.47.22-.2.37-.45.47-.72.14-.27.21-.56.19-.87l-.08-.6c-.11-.38-.3-.71-.58-.99l-.46-.35c-.35-.2-.73-.31-1.14-.31h0Z"/><path class="cls-4" d="M235.77,436.81h-.28c-.31-.01-.6.05-.87.19-.28.09-.52.25-.72.47-.22.2-.37.45-.47.72-.14.27-.21.56-.19.87l.08.6c.11.38.3.71.58.99l.46.35c.35.2.73.31,1.14.31h.28c.31.01.6-.05.87-.19.28-.09.52-.25.72-.47.22-.2.37-.45.47-.72.14-.27.21-.56.19-.87l-.08-.6c-.11-.38-.3-.71-.58-.99l-.46-.35c-.35-.2-.73-.31-1.14-.31h0Z"/><path class="cls-4" d="M228.14,413.54h-.28c-.29-.01-.57.05-.82.18-.26.09-.49.23-.68.44-.21.19-.35.42-.44.68-.13.25-.19.53-.18.82l.08.56c.1.36.28.67.55.94l.43.33c.33.19.69.29,1.07.29h.28c.29.01.57-.05.82-.18.26-.09.49-.23.68-.44.21-.19.35-.42.44-.68.13-.25.19-.53.18-.82l-.08-.56c-.1-.36-.28-.67-.55-.94l-.43-.33c-.33-.19-.69-.29-1.07-.29h0Z"/><path class="cls-4" d="M233.96,413.54h-.28c-.29-.01-.57.05-.82.18-.26.09-.49.23-.68.44-.21.19-.35.42-.44.68-.13.25-.19.53-.18.82l.08.56c.1.36.28.67.55.94l.43.33c.33.19.69.29,1.07.29h.28c.29.01.57-.05.82-.18.26-.09.49-.23.68-.44.21-.19.35-.42.44-.68.13-.25.19-.53.18-.82l-.08-.56c-.1-.36-.28-.67-.55-.94l-.43-.33c-.33-.19-.69-.29-1.07-.29h0Z"/><path class="cls-4" d="M228,425.63h-.28c-.29-.01-.57.05-.82.18-.26.09-.49.23-.68.44-.21.19-.35.42-.44.68-.13.25-.19.53-.18.82l.08.56c.1.36.28.67.55.94l.43.33c.33.19.69.29,1.07.29h.28c.29.01.57-.05.82-.18.26-.09.49-.23.68-.44.21-.19.35-.42.44-.68.13-.25.19-.53.18-.82l-.08-.56c-.1-.36-.28-.67-.55-.94l-.43-.33c-.33-.19-.69-.29-1.07-.29h0Z"/><path class="cls-4" d="M234.1,425.78h-.28c-.29-.01-.57.05-.82.18-.26.09-.49.23-.68.44-.21.19-.35.42-.44.68-.13.25-.19.53-.18.82l.08.56c.1.36.28.67.55.94l.43.33c.33.19.69.29,1.07.29h.28c.29.01.57-.05.82-.18.26-.09.49-.23.68-.44.21-.19.35-.42.44-.68.13-.25.19-.53.18-.82l-.08-.56c-.1-.36-.28-.67-.55-.94l-.43-.33c-.33-.19-.69-.29-1.07-.29h0Z"/><path class="cls-4" d="M261.53,103.83c.11,3.1.94,6.72,3.14,9.03,1.22,1.27,3.09,2.06,4.86,1.65s2.72-2.01,3.25-3.59c.56-1.68.7-3.53.7-5.29,0-.74-.63-1.38-1.38-1.38s-1.37.63-1.38,1.38c0,.6-.02,1.21-.07,1.81-.01.17-.03.34-.05.51,0,.09-.02.17-.03.26-.02.22.05-.34,0,0s-.12.7-.2,1.05-.17.68-.28,1.01c-.03.08-.24.58-.08.24-.08.16-.15.32-.24.48-.07.12-.15.23-.22.36-.15.26.21-.2,0,0-.04.04-.08.09-.12.13-.09.09-.44.32-.11.12-.05.03-.09.07-.14.09-.04.02-.36.18-.14.08.21-.09-.18.04-.24.06-.27.11.31,0,0,0-.06,0-.13,0-.19,0-.1,0-.63-.07-.24,0-.18-.03-.35-.07-.52-.12-.14-.04-.44-.2-.16-.05-.14-.07-.28-.14-.41-.22-.08-.05-.48-.36-.18-.11-.13-.11-.27-.23-.39-.35-.1-.1-.2-.21-.3-.32-.04-.05-.25-.32-.03-.03-.04-.05-.08-.11-.12-.16-.21-.29-.4-.6-.57-.92-.07-.14-.15-.28-.21-.42-.04-.08-.24-.58-.12-.26-.14-.37-.28-.74-.4-1.11-.23-.73-.4-1.48-.52-2.23-.02-.1-.1-.74-.05-.3-.02-.15-.04-.3-.05-.45-.03-.33-.06-.66-.07-.98-.03-.74-.61-1.38-1.38-1.38s-1.4.63-1.38,1.38h0Z"/><path class="cls-4" d="M281.28,108.48c-.06.23-.13.46-.21.69-.05.13-.1.27-.15.4,0,.03-.07.15-.07.16.08-.18.09-.22.05-.12-.02.04-.04.08-.05.12-.23.52-.5,1.02-.8,1.51-.15.24-.3.47-.46.69-.04.05-.08.14-.14.18.02-.02.2-.25.05-.06-.09.11-.19.23-.29.34-.17.19-.35.38-.54.55-.05.05-.1.09-.16.14-.1.09-.22.1.06-.04-.11.06-.21.15-.32.22-.1.06-.19.12-.29.17-.05.03-.12.05-.16.08.02-.01.33-.12.13-.06-.1.03-.2.07-.3.09-.05.01-.12.02-.17.03.11-.04.35-.03.1-.02-.09,0-.18-.01-.27,0,.32-.02.29.05.16.02-.06-.01-.11-.03-.17-.04s-.11-.05-.17-.06c-.02,0,.37.15.19.07-.03-.01-.05-.04-.08-.05.27.1.25.21.13.08-.15-.15.18.28.1.14-.02-.04-.05-.08-.07-.11-.02-.03-.03-.07-.05-.1-.1-.16.07.15.07.17-.03-.21-.13-.42-.17-.63,0-.05-.02-.09-.02-.14-.05-.26.03.3.01.11,0-.12-.02-.23-.03-.35-.02-.27-.03-.54-.03-.81,0-1.1.11-2.2.11-3.3,0-.72-.63-1.41-1.38-1.38s-1.37.6-1.38,1.38c0,1.1-.12,2.2-.11,3.3,0,1.23.1,2.62.94,3.6.94,1.09,2.57,1,3.77.48s2.18-1.63,2.94-2.7c.85-1.2,1.51-2.58,1.89-4,.18-.69-.23-1.53-.96-1.69s-1.49.22-1.69.96h0Z"/><path class="cls-4" d="M253.91,125.16c.09.83.28,1.55.62,2.31.28.62.68,1.18,1.13,1.69.9,1.02,2.17,1.79,3.51,2.08.7.15,1.52-.21,1.69-.96.16-.69-.21-1.53-.96-1.69-.26-.06-.52-.14-.77-.23-.22-.08.31.14.08.03-.06-.03-.12-.06-.18-.09-.11-.05-.22-.11-.33-.18-.12-.07-.23-.14-.34-.22-.05-.03-.09-.07-.14-.1-.21-.15.25.2.06.05-.21-.17-.41-.35-.59-.55-.09-.1-.18-.2-.26-.31-.14-.17.17.22.07.09-.04-.06-.08-.11-.12-.17-.15-.21-.28-.44-.39-.67-.03-.06-.06-.12-.09-.18-.11-.24.13.33.03.08-.05-.13-.09-.25-.13-.38-.08-.26-.14-.52-.18-.79l.05.37c0-.07-.02-.13-.02-.2-.04-.37-.13-.7-.4-.97-.24-.24-.63-.42-.97-.4-.68.03-1.45.61-1.38,1.38h0Z"/><path class="cls-4" d="M272.67,93.98c-2.55-2.46-6.47-3.21-9.78-1.97-.65.24-1.08.79-.98,1.51s.66,1.14,1.35,1.19c1.51.12,3.03.17,4.53.38-.27-.04.25.04.3.05.17.03.34.06.52.09.33.07.66.14.98.24.15.05.31.1.46.15.07.03.15.05.22.08-.15-.07-.16-.07-.01,0,.26.13.52.27.76.44.59.41,1.55.13,1.88-.49.37-.7.14-1.45-.49-1.88-1.2-.82-2.68-1.16-4.1-1.36-1.67-.23-3.35-.31-5.03-.44l.37,2.7c.32-.12.64-.22.96-.3.15-.04.3-.07.45-.1.09-.02.19-.03.29-.05.21-.04-.23.02-.02,0,.35-.02.7-.05,1.06-.05.18,0,.36.01.54.03.08,0,.16.01.24.02.27.02-.11-.03.05,0,.34.07.67.13,1.01.23.18.05.35.11.52.17.02,0,.26.1.12.04-.16-.06.15.07.18.08.32.15.63.33.93.53.09.06.18.12.26.18-.12-.08-.05-.04.03.02.17.14.33.29.49.44.52.5,1.44.55,1.94,0s.55-1.41,0-1.94h0Z"/><path class="cls-4" d="M286.95,96.63c-1.13-1.19-2.54-2.18-4.16-2.57-1.51-.37-3.08-.23-4.54.26-.65.22-1.08.81-.98,1.51s.66,1.11,1.35,1.19,1.42.17,2.13.26c.15.02.11.02-.01,0,.08.01.15.02.23.03.17.02.34.05.51.08.31.05.61.11.92.17.56.12,1.09.29,1.63.48.18.06-.3-.14,0,0,.06.03.12.06.18.08.12.06.24.12.35.18.26.15.51.31.75.49.58.43,1.56.11,1.88-.49.38-.72.12-1.42-.49-1.88-2.27-1.72-5.34-1.81-8.06-2.15l.37,2.7c.3-.1.6-.19.91-.25.05-.01.46-.12.48-.09,0-.01-.28.03-.05,0,.07,0,.14-.01.21-.02.29-.02.59-.03.88,0,.09,0,.17.01.26.02.23.02-.05.02-.06,0,.01.03.42.08.46.09.29.07.57.17.85.28-.28-.11.07.04.17.09.15.08.3.16.44.25.13.08.26.17.39.26.09.06.21.15.06.04.06.05.13.1.19.15.3.25.58.52.85.8.5.52,1.45.54,1.94,0s.53-1.39,0-1.94h0Z"/><path class="cls-4" d="M276.8,115.78c-.22,1.59-.46,3.18-.86,4.82-.14.59-.23,1.22-.47,1.83-.21.54-.47,1.09-.84,1.65-.38.55-.95,1.13-1.76,1.44-.4.16-.86.19-1.22.18-.3-.04-.6-.05-.89-.13-.58-.11-1.13-.3-1.65-.53-.93-.38-1.75-.93-2.5-1.51-.95-.74-1.88-1.56-2.24-2.79-.07-.41-.03-.37.38-.32.45.01,1.17.08,1.72.37.94.55,1.81,1.11,2.71,1.44.84.4,1.72.72,2.52.84.12.07.32.03.59-.43.25-.42.45-1.02.62-1.64.4-1.37.65-2.89.85-4.42.12-.95.23-1.9.3-2.86.12-1.46.25-2.92.3-4.39.05-1.14-.05-2.28.02-3.46.01-.26.02-.53.05-.79.19-1,.72-1.27,1.34-1.23.15,0,.29,0,.42.03.22.05.37.19.52.4.14.2.3.48.35.78.14.92.16,1.88.21,2.89.05,1,.05,2.04-.02,3.09-.08,1.56-.23,3.14-.37,4.75h-.07Z"/><path class="cls-4" d="M168.69,192.12c1.5-.95,3-1.89,4.51-2.84.61-.38.9-1.24.49-1.88s-1.23-.9-1.88-.49c-1.5.95-3,1.89-4.51,2.84-.61.38-.9,1.24-.49,1.88s1.23.9,1.88.49h0Z"/><path class="cls-4" d="M211.92,168.44c.75,1.32,1.5,2.64,2.25,3.96.39.68,1.38.97,2.05.54s.95-1.32.54-2.05c-.75-1.32-1.5-2.64-2.25-3.96-.39-.68-1.38-.97-2.05-.54s-.95,1.32-.54,2.05h0Z"/><path class="cls-4" d="M188.78,209.8c1.62-1.03,3.23-2.06,4.85-3.09.66-.42.99-1.35.54-2.05-.43-.66-1.34-.99-2.05-.54-1.62,1.03-3.23,2.06-4.85,3.09-.66.42-.99,1.35-.54,2.05.43.66,1.34.99,2.05.54h0Z"/><path class="cls-4" d="M263.98,192.38c1.28,1.61,2.57,3.22,3.85,4.83.24.3.78.48,1.15.48.4,0,.87-.18,1.15-.48s.5-.72.48-1.15c-.02-.46-.19-.79-.48-1.15-1.28-1.61-2.57-3.22-3.85-4.83-.24-.3-.78-.48-1.15-.48-.4,0-.87.18-1.15.48s-.5.72-.48,1.15c.02.46.19.79.48,1.15h0Z"/><path class="cls-4" d="M211,221.78c1.76,1.25,3.52,2.5,5.28,3.75.59.42,1.56.12,1.88-.49.37-.71.13-1.44-.49-1.88-1.76-1.25-3.52-2.5-5.28-3.75-.59-.42-1.56-.12-1.88.49-.37.71-.13,1.44.49,1.88h0Z"/><path class="cls-4" d="M383.28,94.62c-1.16.6-2.48.68-3.61.41-1.14-.26-2.14-.86-2.93-1.66-.56-.57-1.09-1.28-1.33-2.02-.47-1.26-.61-2.67-.31-3.97.29-1.31.97-2.48,1.89-3.37.81-.8,1.81-1.39,2.87-1.72,1.36-.47,2.88-.39,4.15.16.4.16.29.27-.09.35-.19.04-.45.08-.75.1-.3.05-.64.12-.98.12-2.48.15-4.68,1.73-5.43,4-.24.67-.25,1.42-.15,2.14.15.7.44,1.45.79,2.01.81,1.23,2.45,2.05,3.88,1.82.89-.14,1.61-.67,1.95-1.55.25-.64.33-1.4.14-2.06-.17-.66-.62-1.19-1.2-1.39-.45-.15-.99-.1-1.3.12-.16.1-.27.25-.31.36-.03.09-.03.23,0,.36.03.12.11.23.16.29.05.06.06.07.06.09,0,0-.01.04-.01.06v.05s0,0,0,0h0c.02-.13-.19,1.19-.1.63h0s0,0,0,0h0s0-.01,0-.01v-.03s0-.06,0-.06c-.02-.17-.05-.15.03-.04.06.1.18.19.23.2,0,0,.02,0,.03,0,0,0,0,0,.04-.01.06-.02.11-.08.15-.14.07-.1.14-.18.3-.13.07.03.17.11.23.27.06.16.03.39-.04.55-.14.33-.35.56-.74.72-.1.04-.22.07-.37.07h-.29c-.18,0-.37-.05-.56-.12-1.12-.53-1.62-1.61-1.61-2.69,0-.55.19-1.18.58-1.69.35-.46.82-.83,1.32-1.05,1-.43,2.04-.45,3.01-.1.97.36,1.79,1.1,2.25,1.96.7,1.28.74,2.65.43,3.89-.17.62-.44,1.23-.83,1.77-.4.54-.92,1.02-1.53,1.36l-.03-.05Z"/><path class="cls-4" d="M142.17,67.5c-.62-.52-1.76-.79-2.79-.68-.39.05-.75.19-1.11.32-1.28.45-2.37,1.56-2.4,3.03,0,.64.17,1.3.47,1.87.2.37.47.68.77.96.27.31.6.61,1,.81.25.14.21.24-.08.35-.29.13-.9.24-1.59.02-.55-.27-1-.7-1.37-1.18-.36-.48-.69-1.01-.82-1.61-.3-1.17-.18-2.51.49-3.58.75-1.24,1.88-2.27,3.2-2.76,1.45-.53,3.07-.54,4.53.03.87.34,1.82.99,2.23,2.07.3.81.19,1.69-.13,2.38-.31.7-.8,1.28-1.4,1.74-.48.35-1,.64-1.63.79-.62.13-1.45.17-2.2-.49-.32-.3-.54-.65-.64-1.03-.18-.72.03-1.29.35-1.58.31-.29.68-.27.95-.05.13.1.25.21.33.35.07.11.1.23.14.34.02.06.04.11.06.16l.04.07s.08.1.33.15c.17.03.24-.01.16.01-.03.01-.09.04-.15.08-.03.02-.05.04-.07.06l-.03.03h-.01s0,.02,0,.02h0s0,0,0,0l.26-.36s.08-.16.09-.25c.01-.02.06-.03.12-.06.3-.1.69-.34.95-.71.19-.27.28-.54.27-.68.01-.13-.04-.33-.35-.56l.03-.05Z"/><path class="cls-4" d="M404.24,167.12c.38-.02.65-.08.78-.14.12-.04.31-.21.49-.52.35-.66.59-1.46.58-2.3.01-.61-.16-1.21-.33-1.81-.61-2.1-2.4-3.99-4.8-4.2-1.05-.12-2.13.11-3.1.54-1.22.59-2.36,1.43-3.15,2.6-.25.36-.36.26-.34-.17,0-.43.19-1.24.78-1.98,1.03-1.33,2.61-2.14,4.27-2.48,1.66-.35,3.53-.07,5.01.89,1.77,1.12,3.13,2.91,3.66,4.95.29,1.12.34,2.31.09,3.46-.05.29-.13.57-.23.85-.09.28-.2.55-.34.83-.27.55-.73,1.16-1.38,1.52-.79.43-1.51.51-2.22.56-.72.04-1.45-.06-2.14-.26-1.06-.32-2.07-.95-2.72-1.95-.64-.98-.85-2.16-.62-3.3.19-.88.69-1.77,1.59-2.29.88-.49,1.89-.56,2.84-.25.42.13.84.34,1.2.69.48.47.68,1,.72,1.38l.1.97-.61.17c-.44.12-.73.04-1.06-.23-.12-.09-.25-.18-.34-.28-.29-.32-.12-.82.41-1.33l-.53,1.19s-.07-.05-.09-.07c-.19-.15-.43-.24-.77-.26-.32-.02-.66.1-.78.23-.08.08-.24.33-.27.61-.04.29,0,.67.13.99.11.25.22.41.41.6.19.19.44.34.73.47.58.25,1.32.32,2.05.27v.06Z"/><path class="cls-4" d="M327.63,219.78c-1.29.72-2.63.71-3.8.41-.43-.11-.87-.22-1.27-.47-.71-.41-1.33-1.12-1.55-1.93-.24-.8-.17-1.59.05-2.28.2-.61.51-1.16.88-1.63.46-.62,1.12-1.1,1.84-1.32.22-.07.21,0,.09.17-.13.16-.33.48-.54.79-.4.54-.64,1.15-.75,1.74-.08.59-.21,1.12-.11,1.62.09.6.61.99,1.24,1.23.71.28,1.58.33,2.29.08.43-.14.82-.43,1-.76.33-.53.28-1.39-.11-1.68l-.08-.05c-.16-.1-.36-.09-.52-.03-.16.06-.27.16-.39.28-.04.06-.06.13-.08.16-.04.07-.05.05-.18.05-.14-.01-.34,0-.63.04-.14.02-.27.06-.4.08-.22.04-.43.02-.61-.16-.18-.17-.3-.53-.18-.93.28-.84.91-1.43,1.71-1.72.83-.31,1.85-.21,2.62.32.3.22.58.48.79.79.21.31.37.7.45,1.01.22.85.13,1.68-.18,2.43-.16.37-.37.73-.66,1.05-.27.3-.57.54-.88.74l-.03-.04Z"/><path class="cls-4" d="M86.77,168.44c.45-.11.83-.3,1.09-.66.35-.56.62-1.16.75-1.78.11-.46.04-.91.02-1.36-.1-.78-.42-1.56-1.04-2.09-.59-.56-1.46-.82-2.33-.78-.79.06-1.62.38-2.28.83-.83.62-1.48,1.37-1.34,2.39.03.31-.14.38-.46.14-.17-.12-.33-.33-.48-.66-.05-.16-.09-.35-.11-.56,0-.2.02-.43.09-.64.24-.76.72-1.37,1.28-1.8.55-.44,1.16-.77,1.8-1.01,1.25-.49,2.93-.53,4.2.23,1.55.85,2.66,2.51,2.81,4.25.09.95-.07,1.89-.36,2.75-.13.45-.33.82-.55,1.26-.26.46-.61.87-1.02,1.19-1.01.78-2.26,1.04-3.43.92-.89-.1-1.78-.45-2.49-1.06-.72-.6-1.2-1.52-1.3-2.44-.08-.72-.01-1.51.46-2.25.26-.37.53-.66,1.04-.89.5-.21,1.03-.21,1.48-.09.39.11.76.27,1.07.54.56.52.72,1.18.61,1.62-.11.44-.4.61-.71.61-.14,0-.28,0-.4-.05-.19-.08-.32-.26-.45-.37-.15-.12-.31-.07-.42-.04-.17.02-.42,0-.46.09.04-.18-.02-.38-.01-.35h0s0,0,0,0h0c.11.18-.24-.41.24.41h0s0,0,0,0h0s0,.02,0,.02c0,0,0,.01.01.02,0,0,.02.02.03.04.04.08.06.7.3.94.17.24.49.45.93.57.44.11.94.09,1.39,0l.02.06Z"/><path class="cls-4" d="M424.31,333.79c-.02.24-.26.36-.59.42-.11.02-.37-.09-.38-.17-.03-.15-.07-.31-.08-.46,0-.09.22-1.42.29-1.89.06-.45.18-.88.31-1.3.3-.85.53-1.74.92-2.56.09-.18.2-.35.34-.5.47-.52.81-1.11,1.11-1.73.05-.1.12-.19.1-.34-.05-.24.95-1.84,1.15-1.99.48-.39.92-.81,1.39-1.2.07-.06.09-.15.23-.14.33.03.41-.14.55-.26.19-.18.38-.34.63-.47.15-.04.36-.02.54-.03.16,0,.35.23.36.29.01.16.19.19.3.27.04.03.08.06.11.09.01.02.01.14.02.32.03.2-.02.39-.06.6-.08.41-.17.83-.21.89,0,0-.08.12-.19.28-.11.17-.25.39-.39.61-.28.46-.57.93-.62,1.04-.05.11-.17.17-.27.24-.06.03-.8,1.46-.84,1.51-.21.26-.31.58-.68.75-.07.03-.1.1-.13.15-.28.5-.64.95-.98,1.42-.19.23-.33.49-.49.74-.03.04-.09.08-.13.11-.05.05-.11.09-.14.15-.36.6-.8,1.16-1.08,1.81-.07.14-.6.76-.66.94-.04.1-.4.32-.4.42Z"/><path class="cls-4" d="M428.77,340.52c-.15.13-.32-.08-.51-.46-.06-.12-.12-.5-.08-.56.08-.13.16-.25.25-.35.05-.06.99-.5,1.32-.66.32-.17.65-.25.98-.31.34-.06.68-.12,1.03-.16.34-.02.69-.04,1.03-.03.15,0,.31.03.45.09.5.21,1.01.27,1.54.28.09,0,.17.03.28-.06.17-.16,1.6.08,1.75.23.39.32.79.57,1.16.87.05.04.13.03.14.17.02.32.17.32.29.39.17.09.32.21.46.38.07.08.08.27.11.43.02.14-.2.53-.24.56-.13.09-.16.31-.23.48-.02.06-.05.13-.08.18-.06.09-1.24.41-1.32.38-.02-.03-1.39-.24-1.55-.22-.08,0-.14-.09-.21-.15-.03-.04-1.13-.1-1.16-.11-.21-.09-.44-.03-.63-.31-.04-.06-.08-.05-.13-.06-.39-.03-.76-.18-1.15-.28-.2-.05-.4-.03-.6-.06-.04,0-.07-.04-.11-.06-.05-.03-.09-.06-.14-.06-.48-.04-.97-.2-1.45-.14-.11,0-.67-.22-.8-.18-.07,0-.35-.26-.41-.21Z"/></svg>