<svg id="Layer_1" data-name="Layer 1" xmlns="http://www.w3.org/2000/svg" width="520" height="520" viewBox="0 0 520 520"><defs><style>.cls-1{fill:#221f1f;}.cls-2{fill:#232020;}.cls-3{fill:none;stroke:#221f1f;stroke-linecap:round;stroke-linejoin:round;stroke-width:3.5px;}</style></defs><title>Notioly v2</title><g id="_84.Learning" data-name="84.Learning"><path class="cls-1" d="M268.87,188.83c3-.25,4.49,2.46,1.57,3.22C267.22,192.88,266.68,188.09,268.87,188.83Z"/><path class="cls-1" d="M269.42,190.93a1.58,1.58,0,0,0,1.16,0,3,3,0,0,0,.31-.17c.24-.07.47-.4,0-.83a1.44,1.44,0,0,0-.75-.37,4.42,4.42,0,0,1-1.17-.15c-.12-.06-.16-.5-.05-.94s.37-.9.72-.87a3.72,3.72,0,0,1,1.83.49,3,3,0,0,1,.81.67,2.24,2.24,0,0,1,.55,1.11,2.28,2.28,0,0,1-1.06,2.49c-.19.1-.39.18-.58.26l-.57.14a3.88,3.88,0,0,1-1.23,0,3,3,0,0,1-.75-.22,3.66,3.66,0,0,1-.65-.43,3.29,3.29,0,0,1-1-2,3.47,3.47,0,0,1,0-.92,2.12,2.12,0,0,1,.14-.52,1.62,1.62,0,0,1,.39-.52A1.37,1.37,0,0,1,268,188a1.58,1.58,0,0,1,.46,0,.49.49,0,0,1,.25.12.64.64,0,0,1,.13.54c0,.11,0,.22,0,.33a1.94,1.94,0,0,1-.4.75s0,.08,0,0a.37.37,0,0,0,0-.15s0,0,0,0,.42.24.35.23a2.9,2.9,0,0,0,.14.51,1,1,0,0,0,.52.59Z"/><path class="cls-1" d="M291.85,191.11c3-.24,4.5,2.46,1.57,3.22C290.21,195.17,289.67,190.38,291.85,191.11Z"/><path class="cls-1" d="M292.41,193.21a1.55,1.55,0,0,0,1.15,0,3.06,3.06,0,0,0,.32-.16c.24-.07.46-.41,0-.83a1.43,1.43,0,0,0-.76-.37,4.83,4.83,0,0,1-1.16-.16c-.13-.06-.16-.5-.06-.94s.37-.89.73-.87a3.83,3.83,0,0,1,1.82.49,2.85,2.85,0,0,1,.81.68,2.17,2.17,0,0,1,.55,1.1,2.28,2.28,0,0,1-1.06,2.5,6,6,0,0,1-.58.25l-.56.15a3.9,3.9,0,0,1-1.23,0,3.44,3.44,0,0,1-.76-.21,3.23,3.23,0,0,1-.65-.44,3.29,3.29,0,0,1-1-2,3.45,3.45,0,0,1,0-.92,2.25,2.25,0,0,1,.14-.52,1.73,1.73,0,0,1,.39-.52,1.48,1.48,0,0,1,.53-.3,1.67,1.67,0,0,1,.47-.05.5.5,0,0,1,.24.13.58.58,0,0,1,.13.53,2,2,0,0,1,0,.34,2.14,2.14,0,0,1-.39.74s0,.09,0,0a.42.42,0,0,0,0-.15s0,0,0,0,.42.24.35.24a4.72,4.72,0,0,0,.14.5,1,1,0,0,0,.52.6Z"/><path class="cls-1" d="M287.82,240.8a19.6,19.6,0,0,1-3.9,2.17,20,20,0,0,1-2.08.76c-.71.21-1.44.36-2.16.53a17.67,17.67,0,0,1-8.84-.51,22.32,22.32,0,0,1-5.73-2.88,36.48,36.48,0,0,1-7.72-7.88,76.29,76.29,0,0,1-5.75-9.23c-1.51-2.83-2.94-5.71-4.3-8.57-.87-1.84-1.74-3.69-2.57-5.54s-1.61-3.75-2.46-5.45c-.27-.51-.29-.75-.12-.9s.58-.07,1.1.27a10.92,10.92,0,0,1,3.32,4.46c3.37,7.56,6.63,15.08,11.12,22a32.06,32.06,0,0,0,10.46,10.33,16.19,16.19,0,0,0,7.58,2.17,18.07,18.07,0,0,0,7.79-1.65,18.59,18.59,0,0,0,7.52-6.36c2.94-4.18,4.58-9.23,5.84-14.21,1-3.9,1.61-7.81,2.39-11.73.17-.87.32-1.72.52-2.59.72-3.22,1.16-4.21,1.89-4.74a3.29,3.29,0,0,1,.5-.35c.51-.18.49,1.2,0,3.54-1.36,7-2.47,14.42-4.87,21.8a39.07,39.07,0,0,1-3.55,8,22.57,22.57,0,0,1-6,6.65Z"/><path class="cls-1" d="M226.42,193.24a12.37,12.37,0,0,1-.81-1.73c-.12-.3-.24-.59-.34-.89l-.26-.93a14.65,14.65,0,0,1-.35-1.89c0-.32,0-.65,0-1a4.73,4.73,0,0,1,0-1,7.53,7.53,0,0,1,.2-1.46c0-.24.1-.49.17-.73l.31-.69a6.32,6.32,0,0,1,4-3.43,8.43,8.43,0,0,1,5,.23,11.89,11.89,0,0,1,3.76,2l.54.44c.17.15.33.33.49.49l.49.52.41.58a6.18,6.18,0,0,1,.37.61l.27.68a4.53,4.53,0,0,1,.27,1.42c0,.61-.57.53-1.24.23a6.26,6.26,0,0,1-1-.56,2.19,2.19,0,0,1-.8-.77,8.7,8.7,0,0,0-7.14-3.88,3.92,3.92,0,0,0-3.5,3.12,9.5,9.5,0,0,0,.65,6.11A13.11,13.11,0,0,0,230,194.2a14,14,0,0,0,4.87,3.73,11.39,11.39,0,0,0,2.26.71l1.16.23,1.18.11,1,.09c1.3,0,1.69.23,2,.87a3.15,3.15,0,0,1,.19.43c.14.46-.43.89-1.49,1a15.46,15.46,0,0,1-9.5-2.5,16.19,16.19,0,0,1-5.24-5.58Z"/><path class="cls-1" d="M229.9,138.1c4.09-2.7,8.33-4.71,13-2.54,12.53,5.77.7,45.85-7.47,44.64-7.12-1-10.19-2.27-11,5.6C209.36,174.86,221.15,143.86,229.9,138.1Z"/><path class="cls-1" d="M223.29,182.48s.1.13.13.11a1.5,1.5,0,0,1,.06-.22s0,0,0-.12.12-.42.22-.65a6.69,6.69,0,0,1,.68-1.33,4.83,4.83,0,0,1,2.61-2.05,8.17,8.17,0,0,1,2.87-.29c1.73.12,3.25.43,4.78.68l.57.09.28.05.14,0h.07a1.18,1.18,0,0,0,.56-.07,4.19,4.19,0,0,0,1.45-.92,20.85,20.85,0,0,0,3.82-5.73,57.59,57.59,0,0,0,4.29-12,49.28,49.28,0,0,0,1.53-12.7,21,21,0,0,0-.81-5.5,9.31,9.31,0,0,0-2.65-4.45,5.73,5.73,0,0,0-1.34-.85A10.69,10.69,0,0,0,241,136a8.38,8.38,0,0,0-3.27-.16,19.65,19.65,0,0,0-6.44,2.5c-1.31.74-1.55.07-.8-1.21a8.76,8.76,0,0,1,2-2.17,9.53,9.53,0,0,1,3.86-1.85,11.47,11.47,0,0,1,4.45-.11,11,11,0,0,1,4.22,1.69,9.88,9.88,0,0,1,3,3.47,15.39,15.39,0,0,1,1.44,4,29.34,29.34,0,0,1,.53,8,51.44,51.44,0,0,1-1.08,7.75,89.38,89.38,0,0,1-2.48,9.12,45.84,45.84,0,0,1-3.9,8.79,16.67,16.67,0,0,1-3.49,4.28,5.34,5.34,0,0,1-3,1.29,4.05,4.05,0,0,1-.88-.05l-.64-.11-1.27-.21a20,20,0,0,0-4.78-.45c-1.38.16-2.05,1-2.55,2.73-.32,1.4-.5,2.89-.69,4.29-.13,0-.4-.22-.63-.41l-.72-.59a18,18,0,0,1-1.39-1.21c-.43-.43-.9-.85-1.3-1.27l-.83-1a18.87,18.87,0,0,1-2.46-4.57,27,27,0,0,1-1.52-9.72,45.49,45.49,0,0,1,1.22-9.62,56.66,56.66,0,0,1,5-14c.25-.49.51-1,.79-1.44s.56-1,.87-1.41c2.35-3.44,3.76-4.17,4.86-4.16a2.88,2.88,0,0,1,.75.05c.6.3-.49,1.35-2.1,3.59a46.35,46.35,0,0,0-5.77,11.44,51.61,51.61,0,0,0-2.88,12.87,35.88,35.88,0,0,0-.06,4.86,26.51,26.51,0,0,0,.73,4.72,18.92,18.92,0,0,0,1.75,4.31,14.66,14.66,0,0,0,1.31,1.88l.34.44,0,.06Z"/><path class="cls-1" d="M249.4,133.32c2.09-9.51,64.59-35.67,83.91-1.42,7.29,12.93.47,31.1-19.74,36.58C287.36,175.58,252.83,149.11,249.4,133.32Z"/><path class="cls-1" d="M319.86,164.33a30.88,30.88,0,0,0,6.64-4.46,26.82,26.82,0,0,0,2.8-2.84c.42-.51.79-1.06,1.19-1.59l.59-.81.49-.87a21.54,21.54,0,0,0,2.76-7.39,14.45,14.45,0,0,0,.28-2l.1-2a21.7,21.7,0,0,0-.44-3.93c-.11-.47-.16-.95-.31-1.41l-.46-1.37a18.91,18.91,0,0,0-1.17-2.64,30.84,30.84,0,0,0-20.75-15.72,58.87,58.87,0,0,0-21.23-1,86.6,86.6,0,0,0-18.56,4.38,85,85,0,0,0-11.17,4.83,54.92,54.92,0,0,0-5.21,3,20,20,0,0,0-4.44,3.71c-.7.87-.84,1.19-1.13,1.13-.13,0-.23-.22-.29-.56a3.07,3.07,0,0,1,.22-1.38c.79-2.33,3.89-5.51,8.15-7.82A89.41,89.41,0,0,1,282,115a70.7,70.7,0,0,1,25.67-1,43.06,43.06,0,0,1,14.92,5.2,31.6,31.6,0,0,1,11.32,11.34,23.75,23.75,0,0,1,3.06,8.38,24.88,24.88,0,0,1-.26,8.9,28.07,28.07,0,0,1-3.43,8.18c-.42.61-.86,1.2-1.3,1.8-.22.3-.42.61-.66.89l-.75.82c-.51.53-1,1.11-1.52,1.6l-1.66,1.46a34.54,34.54,0,0,1-9.31,5.39,26.17,26.17,0,0,1-2.54.86,23.19,23.19,0,0,1-2.59.74,26.76,26.76,0,0,1-2.64.52c-.89.13-1.78.28-2.67.32a40,40,0,0,1-8.11-.16,49.31,49.31,0,0,1-7.92-1.56,71.53,71.53,0,0,1-14.83-6,90.57,90.57,0,0,1-10.4-6.55,70,70,0,0,1-9.27-8,50.24,50.24,0,0,1-3.59-4.09,24.32,24.32,0,0,1-3.71-6.26,7.85,7.85,0,0,1-.52-1.92,3.68,3.68,0,0,1,0-1.37,5.5,5.5,0,0,1,.22-1c.19-.36.57.09,1.06,1.13s1.36,2.64,2.64,4.6c3.87,5.81,9.29,10.83,15.21,15.18A77.76,77.76,0,0,0,288,164.78,61.25,61.25,0,0,0,296,167a46.78,46.78,0,0,0,8.15.86,32.54,32.54,0,0,0,8.06-.86l1-.22,1-.31,1.94-.62a17.33,17.33,0,0,0,1.89-.76l1.87-.81Z"/><path class="cls-1" d="M255.3,227.78c-.63,2.22-4.32,8.23.7,14.45,8.23,10.21,20.34,3,20.68,1.77C261.68,244.51,255.05,228.12,255.3,227.78Z"/><path class="cls-1" d="M276.27,242.69l1.29.1.64.05c.09,0,.25,0,.28,0l0,.09-.11.35,0,.17,0,.09v0l-.05.1a12.69,12.69,0,0,1-.63,1.14,4.73,4.73,0,0,1-1.23,1.12,14,14,0,0,1-1.86,1.05c-.34.16-.71.3-1.06.45a3.6,3.6,0,0,1-.44.17l-.32.11a20.34,20.34,0,0,1-2.66.68,16.71,16.71,0,0,1-4,.29,14,14,0,0,1-6.68-2.26,14.88,14.88,0,0,1-2.68-2.25,17.82,17.82,0,0,1-2.15-2.73,12.71,12.71,0,0,1-1.88-5.93,13.41,13.41,0,0,1,1.89-7.47c.4-.61.69-.49.95.32a5.06,5.06,0,0,1,.24,1.56,7.69,7.69,0,0,1-.28,1.85,10.68,10.68,0,0,0,0,6.59,12.54,12.54,0,0,0,1.6,3,16.55,16.55,0,0,0,2.4,2.62,11.38,11.38,0,0,0,8.07,2.62,16.45,16.45,0,0,0,4.78-.92l.33-.12.25-.1a5.33,5.33,0,0,0,1-.53l.24-.19a.38.38,0,0,0,.1-.12c.05-.06-.06,0-.08,0a8,8,0,0,1-1.39-.14l-.37-.07-.81-.19c-.54-.12-1.06-.29-1.59-.46a22.84,22.84,0,0,1-8.35-5.24,33.63,33.63,0,0,1-4.92-5.74c-.31-.46-.62-.91-.89-1.41-1-1.82-1.1-2.58-.71-3.19.1-.12.19-.36.32-.34l0,0s0,0,0,0a.43.43,0,0,0,.14.07.31.31,0,0,0,.14,0c.07,0,.1,0,.1-.06s.2.06.33.18a7,7,0,0,1,.94,1.32,33.06,33.06,0,0,0,8.51,9.72,19.84,19.84,0,0,0,4.19,2.34,20.37,20.37,0,0,0,2.29.74l.58.13.43.09.66.07,2.71.22Z"/><path class="cls-1" d="M353.9,365.56c-1-.92-2.1-1.83-3.18-2.7-.4-.32-.84-.58-1.23-.89-1.4-1.11-2.81-2.23-4.29-3.2a14.6,14.6,0,0,0-2.06-1.1c-.45-.22-.91-.32-1.36-.51a7,7,0,0,1-1.22-.48c-.24-.14-.28-.57,0-1a2,2,0,0,1,.75-.65,1.34,1.34,0,0,1,1-.12,15.5,15.5,0,0,1,5.77,3.22c1,.82,2.15,1.47,3.2,2.24s2.27,1.74,3.38,2.63l1,.84.55.46a5.23,5.23,0,0,1,.5.56c.88,1.05,1.65,2.15,2.44,3.26a30.55,30.55,0,0,1,1.83,2.63c.12.22.26.42.36.65.34.87.24,1.26-.48,1.57a2.87,2.87,0,0,1-.4.19,1.27,1.27,0,0,1-1.34-.49c-.87-1.31-1.87-2.71-2.9-4.17-.38-.54-.78-1.08-1.19-1.61l-.53-.67h0l-.09-.07-.2-.17-.4-.34Z"/><path class="cls-1" d="M356.7,352.68a28,28,0,0,1,6,2.16,10.6,10.6,0,0,1,2.48,2.76c1,1.27,2.09,2.51,3.18,3.72a8.51,8.51,0,0,0,2.08,2.11,2.42,2.42,0,0,0,2.14-.48l0,0a.28.28,0,0,0,.11-.22,1.72,1.72,0,0,0-.25-.46c-.35-.56-2.5.33-2.32.62s.15.44.34.26l2.14-.48a9.5,9.5,0,0,1-2.26-2.3c-1.22-1.37-2.42-2.76-3.54-4.21-2.1-2.72-5-3.33-8.23-4.35-.53-.16-2.57.69-1.91.89Z"/><path class="cls-1" d="M348.59,368.09c-.6-.4-1.22-.8-1.83-1.15l-.12-.07-.21-.12-.24-.16-.46-.29-1-.57c-.47-.27-1-.48-1.44-.74a43.5,43.5,0,0,0-5.16-2.57,18.42,18.42,0,0,0-2.43-.74,24.23,24.23,0,0,1-3.13-.77c-.32-.14-.22-.65.14-1.14a2,2,0,0,1,1.69-.9,17.58,17.58,0,0,1,1.77.27,9.9,9.9,0,0,1,1.72.46,19.23,19.23,0,0,1,3.23,1.48c1.23.7,2.6,1.17,3.87,1.84.69.37,1.38.76,2.05,1.17l.51.32.18.12.26.14,1,.61c.83.51,1.64,1.06,2.43,1.63a29.92,29.92,0,0,1,3.38,2.9,17.5,17.5,0,0,1,2.39,2.65,5,5,0,0,1,.42.72,1.57,1.57,0,0,1,.21,1.1.94.94,0,0,1-.58.61,4.43,4.43,0,0,1-.45.2,1.18,1.18,0,0,1-1.33-.54,21.22,21.22,0,0,0-3.54-3.83,29,29,0,0,0-3.44-2.57Z"/><path class="cls-1" d="M333.52,368.5l-1.89.09-2,0c-1.33,0-2.66,0-4-.11-1-.05-1.94-.06-2.91-.16a47,47,0,0,1-10.07-2.12,39.3,39.3,0,0,1-4.29-1.68,18.13,18.13,0,0,1-2.62-1.45,8.92,8.92,0,0,1-1.18-.95c-.18-.18-.35-.37-.52-.56a7.14,7.14,0,0,1-.43-.64c-.34-.54.09-.77.83-.8a4,4,0,0,1,2.58.62,32.18,32.18,0,0,0,10,4.35,36,36,0,0,0,6.94,1,74.58,74.58,0,0,0,7.77.16l1.19-.06.29,0a2.66,2.66,0,0,1,.39,0c.22,0,.43,0,.65,0a21,21,0,0,1,2.51.35,25.3,25.3,0,0,1,7.09,2.62,29.93,29.93,0,0,1,4.88,3.16c.32.28.66.53,1,.83,1.14,1.12,1.32,1.65,1.06,2.3a2.53,2.53,0,0,1-.19.44c-.29.42-1,.22-1.83-.49-.6-.54-1.28-1-1.89-1.51s-1.3-1-2-1.39a24.88,24.88,0,0,0-4.32-2.31,22.09,22.09,0,0,0-3.48-1.13,17.69,17.69,0,0,0-3.54-.48Z"/><path class="cls-1" d="M213.38,416.61l0,0c.09-.17-.33.57-.61,1a12,12,0,0,1-1,1.27,13.86,13.86,0,0,1-2.37,2.16,15.32,15.32,0,0,1-5.75,2.43,19,19,0,0,1-6,.26,16.27,16.27,0,0,1-5.85-1.74,15.22,15.22,0,0,1-2.92-2,14.77,14.77,0,0,1-1.29-1.21c-.19-.23-.4-.43-.58-.67l-.23-.28-.05-.08a1.08,1.08,0,0,1-.11-.18c-.05,0-.13,0-.2,0h-.14l-.36.06-.9.15c-.6.1-1.2.22-1.8.29l-3.61.45c-2.4.24-4.81.5-7.21.63-4.8.35-9.6.49-14.4.59l-12.74.27a136.19,136.19,0,0,1-16.29-.27c-3.36-.36,1-3.5,7.21-3.45,11,.1,22,.09,33-.2,1.41-.06,2.84-.14,4.27-.24s2.86-.27,4.3-.41,2.86-.39,4.3-.59c.72-.09,1.43-.22,2.13-.36l2.65-.49a11.92,11.92,0,0,1,1.15.39c.3.2.63.42,1,.66l.28.42a1.19,1.19,0,0,0,.16.22l.08.1c.11.14.21.28.32.4a11.91,11.91,0,0,0,3.91,3,14.37,14.37,0,0,0,14.4-1.55,10.85,10.85,0,0,0,1.32-1.39,7,7,0,0,0,.56-.78,3.45,3.45,0,0,0,.25-.41l.07-.11.1-.2.18-.37c.3-.29.56-.56.77-.8a5,5,0,0,1,1-.47l4.29.08,3.88.05c7,0,14,0,20.86-.34,5.37-.29,10.6-.89,15.86-1.54,1.16-.15,2.29-.34,3.45-.47,4.33-.54,5.73-.51,6.78.29a4.16,4.16,0,0,1,.7.55c.51.65-1.18,1.48-4.37,2.08a195.25,195.25,0,0,1-29.67,2.78q-5.35.15-10.71.13l-5.35,0-4.62-.07h-.05Z"/><path class="cls-1" d="M153.12,397.13c4-1.18,8-2.57,12.24-3.59,1.53-.37,3.07-.73,4.63-1a32.42,32.42,0,0,1,8.41-.17,22.43,22.43,0,0,1,8,2.51,26,26,0,0,1,6,4.47A28.1,28.1,0,0,1,198,407c.43.87-.12,1-1,.6a9.26,9.26,0,0,1-3.06-2.79,34.33,34.33,0,0,0-2.83-3.5,26.43,26.43,0,0,0-3.3-3,20.93,20.93,0,0,0-8-3.64,22,22,0,0,0-5.52-.43,42.83,42.83,0,0,0-5.64.71,108.94,108.94,0,0,0-12.22,3.39c-2.51.78-5,1.55-7.63,2.16a39.88,39.88,0,0,1-12,1.11,43,43,0,0,1-9.12-1.64c-.65-.19-1.29-.37-1.94-.6-2.39-.84-3.06-1.31-3.34-2a3,3,0,0,1-.18-.5c0-.5,1-.43,2.75.11,5.12,1.6,10.5,3,16,2.6a51.36,51.36,0,0,0,12.18-2.46Z"/><path class="cls-1" d="M243.89,400.54a52.32,52.32,0,0,0-11.25-2.32l-2.09-.07a20.81,20.81,0,0,0-2.09,0,33.08,33.08,0,0,0-14.21,3.34c-1,.47-1.9,1.07-2.84,1.64s-1.8,1.25-2.6,2a75.46,75.46,0,0,0-5.89,6c-.61.64-1,.21-.92-.71a6.19,6.19,0,0,1,1.74-3.61,34.43,34.43,0,0,1,7-5.77,30.06,30.06,0,0,1,8.38-3.54A41.49,41.49,0,0,1,230.07,396l3,.13c1,.11,2,.27,3,.4l1.5.2,1.47.33,2.93.67c1.2.3,2.36.72,3.53,1.08l1.76.55c.58.17,1.12.35,1.69.5a24.93,24.93,0,0,0,5.33.67,30.43,30.43,0,0,0,5.4-.32,28,28,0,0,0,7.86-2.37c.54-.25,1.06-.52,1.57-.82,1-.51,1.55-.94,2.05-1.11a1.64,1.64,0,0,1,1.16-.21,2.59,2.59,0,0,1,.51.08c.23.1.23.36,0,.76a5.11,5.11,0,0,1-1.44,1.48,22.34,22.34,0,0,1-7.31,3.4,34.66,34.66,0,0,1-8.14,1.21,30.32,30.32,0,0,1-6.21-.42c-.51-.11-1-.21-1.55-.34l-1.53-.46-2.78-.86Z"/><path class="cls-1" d="M152.91,403.83c3.75-1.22,7.54-2.53,11.46-3.51,1.44-.34,2.87-.72,4.34-.93,5.17-.78,10.7-.46,15.51,2a24.7,24.7,0,0,1,5.65,4.12,65.31,65.31,0,0,1,5.91,6.38c.56.69.09,1-.82.82a6.82,6.82,0,0,1-3.39-2.12,43.57,43.57,0,0,0-6.11-5.92,18.4,18.4,0,0,0-7.55-3.24,19.3,19.3,0,0,0-5.17-.35,36.25,36.25,0,0,0-5.27.71A92.64,92.64,0,0,0,156.06,405c-2.33.78-4.68,1.57-7.05,2.27a46.64,46.64,0,0,1-11.12,2.07,25.72,25.72,0,0,1-8.72-1c-.62-.22-1.22-.43-1.84-.67-2.21-1-2.75-1.66-2.88-2.38a1.88,1.88,0,0,1-.07-.5c.07-.5,1-.26,2.53.42a23.38,23.38,0,0,0,7.07,1.92,27.9,27.9,0,0,0,7.56-.26,72.88,72.88,0,0,0,11.34-3.08Z"/><path class="cls-1" d="M240.33,406c-1.47-.47-2.92-1-4.34-1.57l-1.05-.43-1-.35a11.52,11.52,0,0,0-2-.52,7.89,7.89,0,0,0-1.53-.18c-.52,0-1-.08-1.55-.06h-1.38c-.47,0-.93.08-1.39.11-.93.05-1.84.27-2.77.41a33.52,33.52,0,0,0-5.4,1.63,24.3,24.3,0,0,0-4.44,2.31,21.66,21.66,0,0,0-4.66,4.05c-.39.45-.84.21-.94-.56a2.72,2.72,0,0,1,.23-1.45,6.39,6.39,0,0,1,.42-.82,6.31,6.31,0,0,1,.66-.73,25.41,25.41,0,0,1,5.89-3.85,27.37,27.37,0,0,1,6.58-2.25,31.55,31.55,0,0,1,8.49-.91,14.63,14.63,0,0,1,2.37.3l1.17.24c.38.11.76.26,1.14.38.79.26,1.48.54,2.16.83s1.39.52,2.09.79a48.88,48.88,0,0,0,5.28,1.52,43.68,43.68,0,0,0,8.26,1.08,39.49,39.49,0,0,0,6.35-.47c.46-.06.91-.15,1.37-.23,1.72-.24,2.28-.24,2.75.28a2.54,2.54,0,0,1,.32.34c.24.41-.41.89-1.7,1.22a36.74,36.74,0,0,1-12.22.76,48.5,48.5,0,0,1-9.17-1.82Z"/><path class="cls-1" d="M388.59,382.5q-18.24.4-36.47.81c-4.44.1-8.87.3-13.3.39-15.63.33-31.27.61-46.89,1-6.94.16-13.91.4-20.79.67-8.83.34-17.7.85-26.55.78-5.51,0,1.38-3.35,11.56-3.7,18.06-.61,36.1-1,54.31-1.16,10.89-.07,22.22-.56,33.35-.84l36.74-.88c7.54-.18,15.08-.35,22.61-.55,11.41-.3,22.88-.56,34.2-1,8.81-.31,17.43-.8,26.13-1.21,1.92-.09,3.79-.21,5.72-.28,7.17-.28,9.45-.14,11,.67a6.06,6.06,0,0,1,1,.55c.71.64-2.19,1.28-7.43,1.63-15.55,1.06-31.95,1.65-48.43,2.17-12.23.38-24.52.68-36.79,1Z"/><path class="cls-1" d="M121,387.81q-10.29-.1-20.58-.18c-2.5,0-5,.06-7.5,0-8.82-.09-17.64-.23-26.46-.3-3.91,0-7.84,0-11.72.11-5,.1-10,.37-15,.06-3.1-.19.82-3.31,6.56-3.39,10.19-.12,20.37-.06,30.64.31,6.14.22,12.54,0,18.82.06,6.91,0,13.82.08,20.73.11,4.25,0,8.51.06,12.76.06,6.44,0,12.91.06,19.3,0,5-.07,9.83-.33,14.74-.5,1.08,0,2.14-.11,3.23-.13,4-.09,5.33.12,6.21,1a3.1,3.1,0,0,1,.57.58c.4.65-1.25,1.21-4.21,1.43-8.77.64-18,.79-27.33.86-6.9.05-13.84,0-20.76,0Z"/><path class="cls-1" d="M125.46,275.85a2.19,2.19,0,0,1-1,.77,1.82,1.82,0,0,1-1.33-.1,1.53,1.53,0,0,1-.74-.6,1.9,1.9,0,0,1-.18-1.46,4.45,4.45,0,0,1,.45-1.09c.16-.29.31-.58.48-.86a1.89,1.89,0,0,1,.94-.93c.16-.05.27.23.37.53s.22.6.13.74c-.34.51-.75,1.09-1.07,1.64a.64.64,0,0,0,0,.74c0,.09.23.15.32.18a.46.46,0,0,0,.36-.11,1.7,1.7,0,0,0,.43-.63,2.72,2.72,0,0,0,.21-1.29c0-.32-.24-.66-.36-.65l0,0s0-.08,0,0-.07,0-.23-.35l-.13-.2c-.13-.19-.1-.54.32-.67a1.53,1.53,0,0,1,.56,0,1.6,1.6,0,0,1,.49.28,3.87,3.87,0,0,1,.32.37l.18.37a3.2,3.2,0,0,1,.17,1.38,3.92,3.92,0,0,1-.66,1.93Z"/><path class="cls-1" d="M133.63,279.24a2.3,2.3,0,0,1-1.21,1.82,3.62,3.62,0,0,0-.4.19,1.79,1.79,0,0,1-.46.09,1.33,1.33,0,0,1-1.26-.85,2.48,2.48,0,0,1-.16-1.26c0-.34.07-.66.12-1a1.63,1.63,0,0,1,.65-1.17c.14-.08.31.19.47.47s.37.52.32.63a8.35,8.35,0,0,0-.32,1.58.16.16,0,0,0,.05.2.34.34,0,0,0,.22,0,.82.82,0,0,0,.61-.59,1.65,1.65,0,0,0,.07-.74,2.56,2.56,0,0,0-.14-.53.53.53,0,0,0-.28-.27.34.34,0,0,0-.29.08,1.36,1.36,0,0,0-.15.27l-.06.14c-.11.22-.22.24-.58.11l-.22-.08a.48.48,0,0,1-.33-.58,1.76,1.76,0,0,1,.1-.3l.22-.32a1.59,1.59,0,0,1,.7-.56,1.52,1.52,0,0,1,1.75.46,2.48,2.48,0,0,1,.55,1.13,2.84,2.84,0,0,1,.06,1.05Z"/><path class="cls-2" d="M131.7,270.52v0a.2.2,0,0,1,0,.14L122.44,281a.17.17,0,0,1-.12,0h0c-.06.07.2.44.57.82s.74.64.8.57a0,0,0,0,0,0,0,.24.24,0,0,1,0-.15l.38-.42,8.91-9.94a.2.2,0,0,1,.13-.06h0c.06-.07-.21-.42-.62-.77S131.76,270.45,131.7,270.52Z"/><path class="cls-2" d="M122.2,217.45h0s0,0,0,0l-.53-4.66s0,0,0-.05h0a5.32,5.32,0,0,0-1.45.16h0a.11.11,0,0,1,0,0l0,.19.5,4.47s0,0,0,0h0a2.51,2.51,0,0,0,.73,0A2.66,2.66,0,0,0,122.2,217.45Z"/><path class="cls-2" d="M124.08,214.42a0,0,0,0,1,0,0s0,0,0,0l-6,.47a.07.07,0,0,1-.06,0h0a1.85,1.85,0,0,0,0,.73,2.14,2.14,0,0,0,.13.73,0,0,0,0,0,0,0s0,0,.06,0l.24,0,5.76-.45a.07.07,0,0,1,.06,0h0a2,2,0,0,0,0-.73A1.89,1.89,0,0,0,124.08,214.42Z"/><path class="cls-2" d="M334.52,237.79s0,0,0,0,0-.06,0-.07l3.79-2.77s0,0,.06,0h0a2.19,2.19,0,0,0-.39-.62,2.23,2.23,0,0,0-.48-.56h0s0,.06,0,.07l-.15.11-3.63,2.66s0,0-.06,0h0a2.29,2.29,0,0,0,.38.62A2.49,2.49,0,0,0,334.52,237.79Z"/><path class="cls-2" d="M338.09,237.92h0a.08.08,0,0,1-.07,0l-3.39-5s0,0,0-.07h0s-.31.12-.65.35a2.09,2.09,0,0,0-.56.47h0s.06,0,.07,0l.14.2,3.25,4.77a.08.08,0,0,1,0,.07s0,0,0,0,.31-.12.64-.35A2,2,0,0,0,338.09,237.92Z"/><path class="cls-2" d="M186.44,172l0,0a.64.64,0,0,1-.24.2l-9.76,5.29-3,9.82,0,.09s0,0-.06-.05l-1-1.31a41.05,41.05,0,0,1-2.86-4.14.6.6,0,0,1-.05-.24s0,0,0,0-.53,0-1.13.1-1,.5-.86.81a.1.1,0,0,0,0,0,1.17,1.17,0,0,1,.22.29c.23.43.47.8.71,1.18.93,1.4,1.92,2.7,2.92,4l1.09,1.39,1.45,1.81a4.08,4.08,0,0,0,.36.42l.17-.55.35-1.1.67-2.2,2.7-8.93,9.05-4.9a.64.64,0,0,1,.28-.07l.06,0c.18-.1.1-.61-.19-1.14S186.63,171.93,186.44,172Z"/><path class="cls-1" d="M191.84,110.76a3.28,3.28,0,0,0-1.65,2.23,2.2,2.2,0,0,0,1.15,2.22,3.57,3.57,0,0,0,2.17.19,4.61,4.61,0,0,0,1.51-.47,2.53,2.53,0,0,0,1-1,14.37,14.37,0,0,0,1-3.42l.62.14.28-.56h0l0,0h0l-.23.5,0,.07h0l.27-.57c.64.34,1.16.65,1.74.9a4,4,0,0,0,3.62,0,3.66,3.66,0,0,0,2-3.78c-.12-.43.24-.64.82-.29a1.87,1.87,0,0,1,.72,1.07,2.65,2.65,0,0,1-.15,1.82A5.76,5.76,0,0,1,205,112a5.25,5.25,0,0,1-2.68,1,8.21,8.21,0,0,1-4.91-1.54h0l0,0h-.1a1,1,0,0,1-.25-.19,1,1,0,0,1-.22-.76l1.81.35c-.14.55-.29,1.1-.44,1.66a6.4,6.4,0,0,1-1.81,3.39,5,5,0,0,1-1.81.9,6.09,6.09,0,0,1-1.91.27,4.38,4.38,0,0,1-2.15-.55,3.62,3.62,0,0,1-1.52-1.7,3.84,3.84,0,0,1-.26-2.24,4.55,4.55,0,0,1,.95-2,5.43,5.43,0,0,1,4.62-1.93,5.88,5.88,0,0,1,1.61.42c.24.1.51.24.7.34l.36.21.38.22a1.37,1.37,0,0,1,0-.45c0-.17,0-.25.12-.5a10.08,10.08,0,0,1,.55-1.6,4.55,4.55,0,0,1,1.93-2.3,7,7,0,0,1,1.39-.49,7.46,7.46,0,0,1,1.44-.22,4.31,4.31,0,0,1,1.37.11,2.63,2.63,0,0,1,1.6,1,.91.91,0,0,1,.13.9,1.05,1.05,0,0,1-.15.32c-.26.28-.68-.2-1.35-.54a3.3,3.3,0,0,0-1.85-.2,5.78,5.78,0,0,0-1,.22,4.4,4.4,0,0,0-.92.33,3.2,3.2,0,0,0-1.09,1.44,6.62,6.62,0,0,0-.38,1c0,.09,0,.19-.08.28s0,.14-.09.4l-.06.31,0,.16c0,.05,0,.12-.09.08l-.77-.08a4.49,4.49,0,0,0-.27.52l-.46,1c-.43-.22-.88-.48-1.32-.73a6.53,6.53,0,0,0-.63-.3,3.93,3.93,0,0,0-1.16-.31,3.68,3.68,0,0,0-2.24.52Z"/><path class="cls-2" d="M368,110.68h0a.2.2,0,0,1-.13-.06l-3.63-5.15-1.86-2.56c-.66-.86-1.23-1.66-2.07-2.58a1.74,1.74,0,0,1-.17-.24.1.1,0,0,0,0,0c-.22-.16-.59.27-.81.91l-.06.15,0,.09c0,.07-.06.18-.12.3a3.2,3.2,0,0,1-.24.43.4.4,0,0,1-.09.12h0s0,0,0,0,0-.13,0-.08l.28.31c2.42,3,4.73,6.4,7,9.66a.17.17,0,0,1,0,.14v0a2.73,2.73,0,0,0,1.09-.57C367.67,111.11,368.08,110.75,368,110.68Z"/><path class="cls-2" d="M366.2,101.62s0,0,0,0a.16.16,0,0,1,0,.14c-1.55,1.35-3.08,2.72-4.59,4.13-.75.71-1.5,1.43-2.23,2.18-.37.37-.73.76-1.09,1.16a8.11,8.11,0,0,0-1.09,1.5.56.56,0,0,1-.16.19l0,0c-.07.19.44.41,1.1.51l.48.07.2,0a2.54,2.54,0,0,1,.54.14h0l-.07,0s0,0,.06-.1l.1-.15a21,21,0,0,1,1.84-2c.68-.68,1.38-1.35,2.09-2,1.42-1.33,2.88-2.63,4.35-3.91,0,0,.07,0,.13,0h0c.06,0-.25-.51-.69-1S366.26,101.57,366.2,101.62Z"/><path class="cls-2" d="M372.93,101.53h0a.14.14,0,0,1-.09,0l-1.55,0s0,0,0,0l0,0h0l.13-.07a5,5,0,0,0,2.31-1.77,1.56,1.56,0,0,0,.22-1.12,1.4,1.4,0,0,0-.78-.87,3,3,0,0,0-.84-.22,4.56,4.56,0,0,0-.73-.05.17.17,0,0,1-.11,0s0,0,0,0-.14.33-.11.73a1.62,1.62,0,0,0,.14.73h0a.12.12,0,0,1,.08,0H372a2.29,2.29,0,0,1,.48.08l.1,0h0l0,0s0,0,0,0l0,.06-.12.17a2.66,2.66,0,0,1-.76.6l-1.14.6a2.88,2.88,0,0,0-1.38,1.42c-.1.25-.19.53-.29.83.21.09.45.16.67.24a3,3,0,0,0,1,.08h2.21a.14.14,0,0,1,.09,0h0c.07,0,.13-.33.13-.73S373,101.54,372.93,101.53Z"/><circle class="cls-1" cx="372.15" cy="181.07" r="1.86"/><circle class="cls-1" cx="372.22" cy="189.43" r="1.86"/><path class="cls-2" d="M377.79,183.64h0a.14.14,0,0,1-.11.08l-11.72.3a.15.15,0,0,1-.1-.07l0,0a3,3,0,0,0-.11,1.22,2.72,2.72,0,0,0,.18,1.22l0,0a.17.17,0,0,1,.11-.08h.47l11.24-.28a.13.13,0,0,1,.11.07h0a2.66,2.66,0,0,0,.11-1.22A2.57,2.57,0,0,0,377.79,183.64Z"/><path class="cls-2" d="M402.63,257.16a0,0,0,0,0,0,0,.38.38,0,0,1-.08-.17,3,3,0,1,0,0,.84.4.4,0,0,1,.08-.16,0,0,0,0,0,0,0c0-.13-.42-.23-1-.22a3.23,3.23,0,0,0-1,.08h0s.05,0,.05.08a1.43,1.43,0,0,1-.07.28,1.22,1.22,0,0,1-1.42.71,1.2,1.2,0,0,1,.29-2.37,1.22,1.22,0,0,1,1.2,1s0,0-.05.07h0a3.42,3.42,0,0,0,1,.09C402.21,257.39,402.64,257.29,402.63,257.16Z"/><path class="cls-2" d="M408.59,266.1a0,0,0,0,0,0,0,.35.35,0,0,1-.08-.16,2.78,2.78,0,1,0,0,.77.29.29,0,0,1,.08-.14,0,0,0,0,0,0,0c0-.12-.42-.22-1-.21a4.6,4.6,0,0,0-1,.07h0s.06,0,0,.06a.55.55,0,0,1-.06.22,1,1,0,0,1-1.85-.48,1,1,0,0,1,.95-.85,1,1,0,0,1,1,.84s0,0,0,.05v0a5.06,5.06,0,0,0,1,.06C408.17,266.31,408.6,266.22,408.59,266.1Z"/><path class="cls-2" d="M409.39,255.42l0,0a.2.2,0,0,1-.09.15l-13.62,9a.21.21,0,0,1-.16,0h0c-.09.06.14.56.51,1.13s.74,1,.83.91l0,0a.2.2,0,0,1,.09-.15l.55-.36,13.07-8.6a.3.3,0,0,1,.17,0,0,0,0,0,0,0,0c.09-.06-.13-.56-.5-1.13S409.48,255.36,409.39,255.42Z"/><path class="cls-2" d="M312.14,294.62l0,0a.15.15,0,0,1-.12.07h-.79l.72-3.39,2.19.76s.06.05.08.11a0,0,0,0,0,0,0c.07,0,.31-.47.53-1.1a2.9,2.9,0,0,0,.27-1.2s0,0,0,0a.15.15,0,0,1-.13,0l-.46-.16-4.14-1.44L308.42,297H312s.07,0,.11.07l0,0a5.39,5.39,0,0,0,0-2.44Z"/><path class="cls-2" d="M177.33,248.14h0a.52.52,0,0,1,.28,0l7.28,2.43,5.66-12-9.95-4.4a.46.46,0,0,1-.2-.17s0,0,0,0-.52.36-.8,1-.35,1.17-.19,1.25h.06a.59.59,0,0,1,.27,0l1,.45,6.8,3-3.81,8.07-5.4-1.8a.43.43,0,0,1-.21-.15l-.05,0c-.17-.06-.48.41-.7,1S177.16,248.09,177.33,248.14Z"/><path class="cls-1" d="M305.4,194.36a37.63,37.63,0,0,0,3-7.74,15.19,15.19,0,0,0,.38-2.86,4.52,4.52,0,0,0-.29-2.11,1.51,1.51,0,0,0-.49-.59c-.35-.22-.76-.45-1.14-.66a23.52,23.52,0,0,0-4.93-2,21.28,21.28,0,0,0-4.69-.71c-2-.1-4.06.14-6.12.07-.64,0-.63-.64-.14-1.29a3.73,3.73,0,0,1,2.76-1.38,25.37,25.37,0,0,1,13.07,2.75l1.77,1,.44.25c.18.11.4.26.59.4a4.1,4.1,0,0,1,.87,1.1,7.67,7.67,0,0,1,.57,4.53,33.36,33.36,0,0,1-2.64,8.55c-.37.83-.76,1.65-1.19,2.47-.11.2-.23.41-.36.62a3.68,3.68,0,0,1-.28.39l-.29.27a6.06,6.06,0,0,1-1.19.91,9.94,9.94,0,0,1-4.09,1.41,17.93,17.93,0,0,1-4.2.09,18.75,18.75,0,0,1-6.3-1.48,8.26,8.26,0,0,1-1.32-.68,4.59,4.59,0,0,1-1.47-1.37,1.24,1.24,0,0,1-.07-1.1,1.63,1.63,0,0,1,.21-.44.64.64,0,0,1,.74-.12,2,2,0,0,1,.49.24,4.86,4.86,0,0,1,.63.37,14.14,14.14,0,0,0,4.66,1.83,18,18,0,0,0,5.22.43,9.8,9.8,0,0,0,3.58-.85,5.07,5.07,0,0,0,1.38-.93l.2-.16.18-.31c.15-.27.31-.58.46-.89Z"/><path class="cls-1" d="M262.14,197.92a17.55,17.55,0,0,1-6.44-3.27,15.52,15.52,0,0,1-4.25-5.81,14.82,14.82,0,0,1-.85-2.48,12.44,12.44,0,0,1-.47-2.55l-.08-1.14-.05-.56,0-.57.12-2.24.37-2.2a9,9,0,0,1,.22-1.13,4.79,4.79,0,0,1,.55-1.27,7.64,7.64,0,0,1,4-2.8,21.15,21.15,0,0,1,4.37-.92,47.88,47.88,0,0,1,7.75-.17,41.09,41.09,0,0,1,4.92.53,16,16,0,0,1,4.81,1.57c1,.6.44,1-.54,1.19a11.33,11.33,0,0,1-4.22-.06,46.48,46.48,0,0,0-9.43-.85,31.43,31.43,0,0,0-4.68.38,11.1,11.1,0,0,0-4.11,1.4,2.83,2.83,0,0,0-1.28,1.66c-.15,1-.32,1.92-.45,2.88s-.11,1.94,0,2.9a16.48,16.48,0,0,0,.39,2.83,12.86,12.86,0,0,0,2.54,5.61,12.58,12.58,0,0,0,4.84,3.84,16.12,16.12,0,0,0,7.62,1.45,10.44,10.44,0,0,0,1.48-.14,12,12,0,0,0,1.48-.24l1.46-.36a4.91,4.91,0,0,0,.65-.24l.31-.13.28-.19a5.87,5.87,0,0,0,1.94-2,11.53,11.53,0,0,0,1.23-2.66,31.53,31.53,0,0,0,1.06-4.58,2.62,2.62,0,0,1,.67-1.5,3.2,3.2,0,0,1,1.51-.73,8.62,8.62,0,0,1,2.66-.14,12.16,12.16,0,0,1,2.24.36,7.15,7.15,0,0,1,2.74,1.31,1.74,1.74,0,0,1,.71,1.3,1.78,1.78,0,0,1,0,.57c-.21.53-1.07,0-2.67-.51a12.15,12.15,0,0,0-3.77-.66,5.16,5.16,0,0,0-1.65.2s-.05.05-.06.07V186l0,.15-.05.25c-.57,2.84-1.16,6.17-3.51,9a7.66,7.66,0,0,1-3.5,2.32l-1.76.44a15.69,15.69,0,0,1-1.8.29,19.22,19.22,0,0,1-7.24-.42Z"/><path class="cls-1" d="M283.36,185.73a22.9,22.9,0,0,1,2.17-8.68,15,15,0,0,1,1.8-2.86,12.22,12.22,0,0,1,4.9-3.38,27,27,0,0,1,5.51-1.27,48.23,48.23,0,0,1,4.93-.43,23,23,0,0,1,3.21.09,8.5,8.5,0,0,1,3.17.9c.64.34.23.85-.47,1.22a4.66,4.66,0,0,1-2.71.54,28.63,28.63,0,0,0-5.87-.13,34.63,34.63,0,0,0-5.92.86,9.15,9.15,0,0,0-5.56,3.95,17.12,17.12,0,0,0-2.62,7.51,28.68,28.68,0,0,0-.18,5.08,32.39,32.39,0,0,0,1.28,7.65,24.36,24.36,0,0,0,2.42,5.37c.21.37.46.71.68,1.07.85,1.32,1,1.74.77,2.43a3.27,3.27,0,0,1-.18.47c-.25.44-1.07.2-1.93-.81a24.66,24.66,0,0,1-4.74-10.7,35.62,35.62,0,0,1-.72-8.88Z"/><path class="cls-3" d="M274.62,167.7c-6.52-6.16-17.37-4.16-23.89-.53"/><path class="cls-1" d="M272.75,217.93c2.05,2.74,4.75,5,8.35,4.83a10.71,10.71,0,0,0,7.28-3.69c.79-.84-2.07-.64-2.68,0-3.71,3.93-7.54,1.37-10.25-2.24-.55-.73-3.35.24-2.7,1.1Z"/><path class="cls-2" d="M283.44,382.27h91.78L434,291.51c1.27-1.89-2.9-4.58-4.11-2.66l-57.3,88.53H283.44C281.65,377.37,281.65,382.29,283.44,382.27Z"/><line class="cls-3" x1="250.4" y1="180.29" x2="232.65" y2="176.94"/><path class="cls-1" d="M361.61,344a44.85,44.85,0,0,0-8.05-1.66c-2.78-.37-5.59-.64-8.41-.9l-6.19-.49c-7.28-.7-14.58-1.54-21.78-2.93-3.2-.61-6.41-1.26-9.55-2-2-.49-4-1-6-1.63l-1.49-.47-1.46-.57c-1-.37-1.94-.78-2.88-1.21-1.19-.54-.84-.91.35-1a12.94,12.94,0,0,1,2.33.14,17,17,0,0,1,3.15.61,183.66,183.66,0,0,0,24.48,5.32c5,.81,10.25,1.15,15.43,1.59,5.69.52,11.41.91,17.13,2a27.25,27.25,0,0,1,5.24,1.55,16.25,16.25,0,0,1,4.53,3.17,40.46,40.46,0,0,1,5.28,6.2,38.34,38.34,0,0,1,2.16,3.45,13.9,13.9,0,0,1,1.56,3.9,3.82,3.82,0,0,1,0,1,1.86,1.86,0,0,1-.52,1.14,1.59,1.59,0,0,1-.6.34,1.64,1.64,0,0,1-.58.11,1.84,1.84,0,0,1-.53,0,3.22,3.22,0,0,1-.49-.11,8.74,8.74,0,0,1-2.84-1.8,25,25,0,0,1-4.14-4.76,13.82,13.82,0,0,1-.74-1.23l-.09-.16-.05-.08a1.77,1.77,0,0,0-.12-.17c-.09-.11-.2-.23-.32-.35a8,8,0,0,0-1.48-1l-1.18-.64a3.79,3.79,0,0,1-1.29-1c-.12-.16-.31-.31-.38-.44s.17-.29.83-.35a7.43,7.43,0,0,1,2.94.53,7,7,0,0,1,2.73,1.83l.3.4.22.37a5.1,5.1,0,0,0,.33.53c.22.35.47.71.73,1.06a24.22,24.22,0,0,0,3.52,3.89,6.37,6.37,0,0,0,1.81,1.16c.07,0,.08,0,.11,0s.05,0,.05,0,0,.13.05.27a1.45,1.45,0,0,0,0,.25.77.77,0,0,0,.09.2,0,0,0,0,0,0,0v0s0,0-.05,0a.34.34,0,0,0-.12-.06,1.45,1.45,0,0,0-.59-.16s0,0,0-.08a1.1,1.1,0,0,1,0-.18,8.63,8.63,0,0,0-.8-2.2,25,25,0,0,0-1.31-2.36,42.26,42.26,0,0,0-5-6.5,23.36,23.36,0,0,0-3-2.69,11.11,11.11,0,0,0-3.39-1.69Z"/><path class="cls-1" d="M339,351.47c-1.65-.75-3.31-1.49-5-2.17a30.86,30.86,0,0,0-5-1.74,59.2,59.2,0,0,0-10.6-1.32c-2.64-.12-5.28-.11-7.93-.08a234.24,234.24,0,0,0-28,1.89c-2.06.27-4.12.59-6.17.9s-4.09.73-6.12,1.13c-5.19,1.07-10.33,2.36-15.5,3.5-1.61.34-1.57-.31-.37-1.25a17.81,17.81,0,0,1,6.58-2.88,200,200,0,0,1,32.47-4.81c6.56-.42,13.39-.92,20.14-.87a109.65,109.65,0,0,1,11.14.65,39.19,39.19,0,0,1,5.57,1,43.71,43.71,0,0,1,5.29,1.92c4.21,1.77,8.31,3.71,12.41,5.66q4.65,2.23,9.25,4.58l1.16.6.58.3.29.15.4.22c.51.3,1.1.57,1.55.89a4.05,4.05,0,0,1,1,1,1.56,1.56,0,0,1,.27.6.84.84,0,0,1-.19.68,2.54,2.54,0,0,1-1.14.69,6.87,6.87,0,0,1-1.61.31c-.56,0-1.27.06-1.72.06a13.55,13.55,0,0,1-4.12-.62A34.31,34.31,0,0,1,350,361c-2.41-1.11-4.71-2.3-7.07-3.28-.52-.22-1-.42-1.56-.59s-1-.36-1.58-.51a24.85,24.85,0,0,0-4.18-.88,9.27,9.27,0,0,1-1.13-.23,3,3,0,0,1-.82-.29,3.8,3.8,0,0,1-.67-.35c-.26-.21,0-.48.83-.77a5.86,5.86,0,0,1,.7-.22c.26,0,.56-.08.88-.11a9.59,9.59,0,0,1,2.26,0c5,.61,9.41,3.23,13.71,5.19a27.55,27.55,0,0,0,3.2,1.3c.26.08.52.13.78.2a3.1,3.1,0,0,0,.76.15c.26,0,.47.08.76.1l.87,0h.36l-4.17-2.1L349,356.19c-3.31-1.6-6.64-3.17-10-4.67Z"/><path class="cls-1" d="M283.81,367.71c-2.63.71-5.26,1.49-7.88,2.31-1,.29-1.89.68-2.84,1-3.37,1.07-6.74,2.15-10.1,3.29-1.48.51-3,1-4.43,1.6a40.88,40.88,0,0,1-5.72,1.92c-1.23.27-.33-2,1.8-2.87,1.9-.74,3.8-1.46,5.73-2.16s3.89-1.29,5.88-1.86c2.38-.68,4.76-1.66,7.16-2.46,2.64-.89,5.31-1.71,8-2.5,1.66-.46,3.3-.95,5-1.37,1.25-.33,2.52-.64,3.8-.92s2.54-.57,3.8-.84c1-.24,2-.42,2.94-.64s2-.4,3-.55c.43-.07.86-.16,1.31-.21,1.66-.1,2.2,0,2.56.64a2.12,2.12,0,0,1,.23.41c.15.47-.5.9-1.64,1.08-3.4.59-6.95,1.27-10.53,2.1-2.64.65-5.32,1.31-8,2.1Z"/><path class="cls-1" d="M275.88,346.24c-1.41-9,6.56-24.3,9-48.07,1-10.2-2.74-46.92-6.39-38.09-2.28,5.53,2.9,16.85-2.35,19.39-16.28,7.87-26-37.55-43.44-35a29.07,29.07,0,0,0-3.29,1c-30.06,8.14-59,105.65-50.44,134.36,3.87,12.94,36.69,11.85,72.42-3.13-3.51-7.71-2.14-18.74,2.73-25.44C254.08,351.26,273.67,346.49,275.88,346.24Z"/><path class="cls-1" d="M180.38,330.92a268.12,268.12,0,0,1,10.13-33.16,185.4,185.4,0,0,1,15-31.29,94.05,94.05,0,0,1,7.39-10.42,44.35,44.35,0,0,1,9.46-8.81,25,25,0,0,1,5.23-2.65l1.42-.44c.39-.1.79-.24,1.23-.39s.91-.31,1.44-.45a7,7,0,0,1,.82-.15l.78,0a11.74,11.74,0,0,1,6,1.24,21.37,21.37,0,0,1,4.8,3.44,55.87,55.87,0,0,1,7.17,8.75c2.13,3.07,4.1,6.2,6.13,9.26a71,71,0,0,0,6.54,8.71,20,20,0,0,0,4,3.43,8.29,8.29,0,0,0,4.64,1.4,4.87,4.87,0,0,0,1.2-.15c.2,0,.4-.06.6-.12l.58-.22a5.58,5.58,0,0,0,1.06-.47,2.82,2.82,0,0,0,.72-.7c.81-1.16.91-3,.85-4.75s-.3-3.6-.47-5.46a24.55,24.55,0,0,1,0-5.75,6.61,6.61,0,0,1,1.25-3.15,1.71,1.71,0,0,1,1.22-.73,1.68,1.68,0,0,1,1.26.64,4.85,4.85,0,0,1,.88,1.41,15.17,15.17,0,0,1,.57,1.59c.25.83.45,1.63.64,2.45.72,3.26,1.19,6.53,1.6,9.8a182.44,182.44,0,0,1,1.41,19.65c0,1.06,0,2.11-.05,3.18s-.16,2.15-.28,3.18l-.37,3.14-.45,3.12c-.65,4.16-1.47,8.3-2.43,12.39s-2.08,8.14-3.17,12.17a76.6,76.6,0,0,0-2.58,12.08c0,.63-.05,1.16-.09,1.62s0,.8,0,1.09c0,.58-.1.85-.22.83s-.27-.33-.46-.92a10.66,10.66,0,0,1-.46-2.59,38.24,38.24,0,0,1,.85-9.23c.7-3.76,1.77-8.07,2.92-12.71q1.54-6.17,2.65-12.4c.39-2.08.67-4.17,1-6.25l.37-3.14c.14-1.07.2-2,.24-3.07.11-4.15-.12-8.4-.42-12.61s-.75-8.45-1.35-12.62c-.31-2.09-.66-4.17-1.11-6.19-.11-.5-.23-1-.36-1.49l-.2-.72-.11-.34s0-.17-.12-.17a.31.31,0,0,0-.07.09.7.7,0,0,0-.05.18c-.05.33-.12.88-.14,1.34s0,1,0,1.48c.06,2,.36,4.13.53,6.32a25.35,25.35,0,0,1,.1,3.4,9.59,9.59,0,0,1-.8,3.71,5.74,5.74,0,0,1-1.3,1.76,5.66,5.66,0,0,1-1.82,1,8.18,8.18,0,0,1-1.78.55l-.93.17a6,6,0,0,1-1,0,11.33,11.33,0,0,1-6.79-2.43,28.19,28.19,0,0,1-4.83-4.74,153.36,153.36,0,0,1-9-12.89c-2.89-4.31-5.81-8.7-9.51-12.17a14.71,14.71,0,0,0-6.21-3.66,9.17,9.17,0,0,0-1.72-.26c-.57,0-1.17.06-1.71.1a11.63,11.63,0,0,0-1.7.51c-.61.23-1.4.44-1.93.62a21.86,21.86,0,0,0-6.58,3.53,41.15,41.15,0,0,0-5.63,5.19,84.32,84.32,0,0,0-10,13.82,160.18,160.18,0,0,0-7.94,15.28,246.13,246.13,0,0,0-12,32.4c-2,6.8-3.75,13.69-5.17,20.64a174,174,0,0,0-3.09,21,79.62,79.62,0,0,0,.13,16,33.42,33.42,0,0,0,.73,3.87,8.6,8.6,0,0,0,1.47,3.36,9.56,9.56,0,0,0,2.73,2.48,17.8,17.8,0,0,0,3.46,1.66c4.94,1.67,10.35,1.95,15.64,1.79a101.44,101.44,0,0,0,15.83-1.95,153.27,153.27,0,0,0,23.64-6.83c1.92-.7,3.81-1.46,5.7-2.23l1.84-.78a3,3,0,0,0-.23-.62l-.06-.15-.11-.34-.25-.77a28.82,28.82,0,0,1-.61-12.76,30.13,30.13,0,0,1,1.46-5.44c.32-.89.72-1.75,1.13-2.61l.7-1.26a4.9,4.9,0,0,1,.38-.62l.5-.76.47-.7,4.93-1.19,3.69-.86c2.23-.5,4.05-.89,5.56-1.15a28.65,28.65,0,0,1,6.31-.6,11.88,11.88,0,0,1,2,.14c.64.19-.29.55-2.63,1.31s-6,1.85-10.84,3.07l-7.19,1.87-.07.13-.09.15-.16.24c-.22.32-.38.68-.58,1a22,22,0,0,0-1,2.14,27.09,27.09,0,0,0-1.37,4.57,27.68,27.68,0,0,0-.3,9.56l.21,1.18.28,1.16c.08.39.22.75.33,1.13l.26.78.46,1.14.47,1.15.23.58.05.14c0,.06-.07.05-.09.08l-.29.12-2.3.95L248.24,380c-3.26,1.31-6.56,2.51-9.91,3.64a152.36,152.36,0,0,1-20.65,5.4,90.58,90.58,0,0,1-21.63,1.61,39.42,39.42,0,0,1-9-1.6,20.8,20.8,0,0,1-4.38-1.91,13.07,13.07,0,0,1-3.84-3.31,10.5,10.5,0,0,1-1.36-2.28c-.16-.42-.33-.85-.47-1.25l-.3-1.13a37.46,37.46,0,0,1-.81-4.51,64.11,64.11,0,0,1-.44-8.95A133.66,133.66,0,0,1,177,348.16c.86-5.8,2-11.54,3.31-17.23Z"/><path class="cls-1" d="M287,346s7.84-12,16.94-13.14c0,0-15.3-5.08-21.14-5.42,0,0,2-17.37,1.37-23.79,0,0-9.45,41-6.12,42.35S287,346,287,346Z"/><path class="cls-1" d="M281.36,308.76l1.31-5.46,2.41-10.1.71,10.3a57.43,57.43,0,0,1,0,6.57q-.18,3.21-.47,6.39c-.19,2.24-.34,4.47-.6,6.69l-.32,2.71-.08.42c.11,0,.27,0,.4.08l.52.09.75.14,1.48.32c1,.23,1.93.47,2.89.73,1.92.52,3.81,1.07,5.7,1.65l2.82.89,4.21,1.36,2.65.88.66.22.33.12c.11,0,.26.07.24.1l.25.32c-.53.11-1,.19-1.56.32l-1.76.41c-.56.14-1.2.27-1.71.42l-1.28.49-1.28.5-.11.05-.05,0-.08.05-.17.1-.34.2a12.55,12.55,0,0,0-1.33.86c-3.51,2.46-6.35,5.84-9.13,9.15-.84,1-1.33.54-1.19-.82a10.35,10.35,0,0,1,2.8-5.5,34.54,34.54,0,0,1,5.57-4.92,18.86,18.86,0,0,1,1.6-1L298,333l.1-.06,0,0,0,0-.06,0h0l.19,0c.15,0,.1,0,.07-.07a1,1,0,0,0-.21-.15l-3-1-3.12-1c-1.29-.4-2.61-.77-3.94-1.1-.66-.15-1.33-.32-2-.44l-1-.2-1.24-.19-1.76-.19-.44-.05h-.11s-.08,0-.06-.05l0-.22.1-.88.31-2.86.42-4.17c.28-2.78.53-5.57.72-8.35a67.3,67.3,0,0,0,.15-8.26l2,.14-.37,1.56q-1.3,5.51-2.5,11.06c-1.19,5.59-2.35,11.23-3.18,16.84-.31,2.18-.55,4.34-.68,6.49-.06,1.07-.11,2.15-.07,3.18a9.92,9.92,0,0,0,.14,1.49,1.51,1.51,0,0,0,.1.35.38.38,0,0,0,.22.21l.3.06c.21,0,.4.09.61.11.42.05.85.08,1.3.1,1.65.05,2.79-.07,3.6,0a3.15,3.15,0,0,1,1.74.44,3.42,3.42,0,0,1,.6.37c.47.44-.9,1.32-3.66,1.69a17.52,17.52,0,0,1-3.18.13,11.58,11.58,0,0,1-1.7-.24,11,11,0,0,1-1.24-.44,2.07,2.07,0,0,1-.9-.95,3.21,3.21,0,0,1-.26-.63,5.48,5.48,0,0,1-.17-.67c-.05-.32-.09-.61-.12-.9-.05-.57-.07-1.11-.07-1.65,0-1.08,0-2.12.13-3.17.33-4.16,1-8.26,1.71-12.36,1.09-6.09,2.39-12.14,3.74-18.17Z"/><path class="cls-1" d="M213.41,349.55l-1,4.49-.27,1.12,0,.13v.06l0,.09-.15.45.4,0,.23,0,1.06-.18c1.63-.27,3.24-.63,4.87-.88,5.76-.89,11.52-1.68,17.3-2.46,2.56-.34,5.12-.76,7.66-1.16a50.43,50.43,0,0,1,9.92-1c1.05,0,.92.88.11,1.73a6.27,6.27,0,0,1-1.68,1.21,7,7,0,0,1-2.46.75c-6.57.79-13.2,1.71-19.93,2.4-4,.41-8.14,1.28-12.22,2l-3.66.62-5.65,1,1.85-8c.62-2.73,1.22-5.46,1.76-8.2.83-4.15,1.65-8.33,2.22-12.49.44-3.23.64-6.43.8-9.63.05-.7,0-1.39.07-2.1.16-2.62.33-3.42,1.23-4a3.81,3.81,0,0,1,.6-.36c.67-.25,1.17.86,1.29,2.86a95.3,95.3,0,0,1-1.56,18.14c-.74,4.52-1.65,9-2.59,13.51Z"/></g></svg>