<?xml version="1.0" encoding="UTF-8"?><svg id="Layer_1" xmlns="http://www.w3.org/2000/svg" width="520" height="520" viewBox="0 0 520 520"><defs><style>.cls-1{opacity:.2;}.cls-1,.cls-2,.cls-3,.cls-4{fill:#231f20;stroke-width:0px;}.cls-2,.cls-5{opacity:.45;}.cls-6{opacity:.65;}.cls-7,.cls-3{opacity:.55;}</style></defs><path class="cls-1" d="m168.1,49.51c.51.19-.62,6.04,6.02,13.67,6.64,7.62,8.88,8.9,10.69,10.76,1.81,1.86,10.77,15.71,10.77,15.71l13-7.09-13-19.66s2.15-11.25,2.8-13.39,1.69-7.48-.65-8.81c-2.34-1.34-12.83-10.01-13.38-9.23-.55.77-.59,5.51-.59,5.51,0,0-1.25-5.54-3.71-3.23-2.46,2.3-1.82,6.96-1.82,6.96,0,0-3.77-.97-4.8.31s-1.15,5.84-1.15,5.84c0,0-.55-1.27-2.07-.82s-2.12,3.48-2.12,3.48Z"/><path class="cls-4" d="m171,50.29c.91,1.53,2.12,3.03,3.45,4.36.48.49,1.05.89,1.56,1.34.54.47,1.09.91,1.64,1.32.2.15.24.19.38.28.12.08.26.15.41.2.1.04.23.06.33.03.11-.03.16-.14.18-.23.03-.2-.02-.41-.08-.64-.04-.13-.08-.23-.14-.39l-.3-.69c-.22-.5-.48-.99-.75-1.47-.69-1.24-1.52-2.38-2.23-3.63-.24-.36-.17-.4.25-.27.21.07.5.17.85.32.36.14.73.36,1.03.68,1.09,1.11,2.07,2.3,2.91,3.65.15.26.48.93.78,1.6.29.68.38,1.34.4,1.91-.05.55-.23.96-.53,1.37-.33.45-.92.59-1.41.64h-.09c-.33,0-.65-.05-.98-.1-.34-.1-.67-.18-1.01-.33-.34-.12-.68-.27-1-.45l-.4-.23-.32-.19c-.85-.5-1.61-1.09-2.33-1.71-1.57-1.4-2.96-2.96-4.19-4.67-.74-1.07-1.43-2.18-1.91-3.5-.16-.51-.32-1.05-.29-1.78.04-.67.3-1.34.82-1.77.51-.41,1.13-.73,1.81-.75.69-.05,1.24.12,1.76.31.8.31,1.47.71,2.11,1.14.64.42,1.25.88,1.81,1.37.25.21.5.41.73.64.2.22.36.42.48.6.1.18.15.37.18.53.05.32,0,.58-.15.88-.06.13-.11.28-.18.38-.23.36-.87.27-1.7-.11-1.08-.69-2.05-1.49-2.99-2.12-.47-.31-.94-.59-1.31-.72-.1-.05-.17-.05-.25-.08-.09-.03-.14-.03-.18-.03-.06-.02-.02,0-.03,0,0,0,0,0,0,0,0,0,0,0-.01,0,0,0-.01-.03.01.14.12.58.5,1.38.98,2.12l-.06.04Z"/><path class="cls-4" d="m325.6,494.24l-26.49.13c-3.22.06-6.44.13-9.65.19-11.36.21-22.73.3-34.09.24-5.04-.01-10.11-.02-15.11-.03-6.43.04-12.88-.18-19.29-.4-2-.07-1.73-.07-.04-.14,1.86-.1,4.92-.25,8.52-.44,3.28-.16,6.56-.2,9.84-.24,3.28-.05,6.56-.1,9.84-.15,6.56-.09,13.14-.19,19.75-.28,7.91-.05,16.11-.47,24.21-.74,8.9-.26,17.8-.43,26.7-.54,5.48-.07,10.96-.13,16.43-.2,8.29-.09,16.62-.18,24.86-.27,6.4-.1,12.67-.37,19-.52,1.39-.04,2.76-.09,4.17-.11,5.21-.02,6.9.24,7.99,1.08.25.19.57.38.71.56.44.64-1.64,1.02-5.44,1.18-11.28.45-23.2.54-35.16.61-8.89.05-17.82.09-26.73.14v-.06Z"/><path class="cls-4" d="m230.8,492.91c-4.15-.13-8.3-.25-12.45-.32l-4.54-.02c-5.34-.11-10.68-.29-16.01-.32-2.37-.02-4.75.02-7.1.08-3.02.07-6.04.21-9.07,0-.94-.06-.82-.16-.03-.39.47-.14,1.03-.3,1.63-.47.68-.17,1.48-.3,2.35-.38,6.16-.48,12.33-.66,18.55-.62,3.72.04,7.59-.17,11.4-.18,4.18-.02,8.37,0,12.56.03,2.58.02,5.15.04,7.73.07,3.9.02,7.82.1,11.69.07,3.01-.02,5.96-.22,8.94-.33.66-.03,1.3-.08,1.96-.09,2.45-.05,3.23.27,3.74,1.07.12.19.27.37.33.55.22.61-.79,1.12-2.58,1.32-5.31.41-10.91.35-16.53.26-4.18-.09-8.37-.18-12.56-.27v-.06Z"/><path class="cls-4" d="m329.95,488.4l11.25-.06c1.37,0,2.73-.09,4.1-.08l14.47.14c2.14,0,4.29-.02,6.41-.02,1.36,0,2.73-.01,4.1-.02h1.02s1.03.1,1.03.1c.68.07,1.36.13,2.05.2.85.1.74.2.02.42-.44.13-.95.27-1.49.43-.32.08-.66.17-1,.25-.18.04-.36.07-.55.13-.19.01-.38.03-.58.04-2.78.13-5.56.3-8.34.36-2.78.04-5.58.05-8.38,0-3.36-.06-6.84.16-10.27.23l-11.32.16c-2.32.04-4.65.08-6.97.12-3.52.08-7.05.12-10.54.27-2.71.12-5.37.39-8.05.52-.59.03-1.17.09-1.76.11-2.21.09-2.92-.13-3.41-.66-.11-.12-.26-.24-.32-.37-.22-.41.67-.8,2.28-1.06,2.39-.3,4.85-.58,7.34-.74,2.5-.14,5.03-.23,7.57-.3,3.77-.08,7.56-.15,11.35-.23v.06Z"/><path class="cls-1" d="m254.6,104.35s-3.19,5.21-6.41,5.6c-3.21.4-15.25,2.73-15.56,5.97s6.51,8.41,6.51,8.41c0,0-1.58,6.53-1.25,13.74.14,2.99,8.81,17.17,14.3,19.42s13.89,2.83,16.82,1.92c8.99-2.77,13.98-9.02,13.98-9.02,0,0,8.39,4.03,12.01-.79,3.62-4.82,6.89-13.47,3-15.26-3.89-1.79-13.52,5.12-14.84.99-1.32-4.13.58-9.76,2.66-13.15s4.78-9.36,3.29-13.29c-1.5-3.93-8.54-7.86-10.66-7.29s-18.22,2.81-18.37,2.83-5.48-.09-5.48-.09Z"/><path class="cls-1" d="m214.37,200.87s-2.83-3.47-3-10.02-.75-13.31-2.31-15.78-6.79-7.35-8.55-7.71-6-4.09-7.24-1.36-11.91,13.13-11.47,15.76c.43,2.62-.08,7.13,4.03,9.08,4.11,1.95,14.69,15.03,14.69,15.03l3.05,6.38,10.81-11.39Z"/><path class="cls-4" d="m277.18,108.63c-2.98-3.03-6.58-5.32-10.54-6.84-.92-.35-2.1.39-2.31,1.31-.24,1.07.33,1.93,1.31,2.31.23.09.46.18.69.27.27.11-.26-.12,0,0,.1.05.2.09.3.13.43.19.85.39,1.26.61.86.44,1.69.92,2.49,1.45.39.26.78.52,1.15.8.09.06.18.13.26.2.13.1.16.12.01,0,.2.15.39.31.58.46.74.61,1.45,1.26,2.12,1.95s1.97.74,2.65,0,.74-1.9,0-2.65h0Z"/><path class="cls-4" d="m203.73,85.42c-.82.44-1.65.85-2.49,1.22-.3.15-.57.34-.89.45-1.12.41-2.26.72-3.41.97-.5.13-.99.29-1.47.46-.63.17-1.23.45-1.94.31-.23-.06-.25-.27-.18-.64.06-.4.23-.9.54-1.08,1.09-.71,2.21-1.19,3.43-1.55.76-.16,1.4-.64,2.08-.99.76-.37,1.53-.74,2.28-1.16.46-.26.92-.52,1.35-.81.66-.44,1.34-.89,1.91-1.45.42-.45.77-.96,1.14-1.44.08-.11.16-.21.26-.3.18-.17.35-.23.55-.21.19.02.38.1.62.25.11.07.22.12.31.19.31.22.45.63.4,1.13-.3,1.33-1.12,2.33-2.12,3.1-.72.6-1.52,1.1-2.32,1.6l-.04-.06Z"/><path class="cls-4" d="m192.92,90.1c1.23-.71,2.47-1.37,3.73-1.94.45-.22.88-.49,1.34-.68,1.65-.65,3.31-1.18,4.93-1.78.72-.27,1.42-.57,2.11-.89.44-.2.87-.43,1.33-.6.46-.17.93-.31,1.4-.44.3-.07.33.08.2.38-.14.29-.42.8-.87,1.17-1.68,1.12-3.45,2.02-5.28,2.78-1.12.42-2.11,1.16-3.18,1.71-1.15.63-2.3,1.26-3.39,1.98-.68.43-1.32.9-1.95,1.4l-1.37,1.18c-.42.43-.86.84-1.22,1.32-.27.38-.52.77-.73,1.17l-.56,1.25c-.09.18-.12.38-.21.56-.25.7-.78.68-1.43.54-.16-.04-.31-.06-.45-.1-.24-.07-.41-.23-.54-.46-.13-.23-.25-.56-.21-.89.18-.95.61-1.82,1.08-2.68.54-.82,1.13-1.62,1.83-2.32.99-1.1,2.22-1.93,3.41-2.72l.04.05Z"/><path class="cls-4" d="m271.18,267.38c.2-.36.48-.7.72-1.04.09-.13.13-.27.23-.39.33-.43.67-.86.98-1.29.14-.19.23-.41.35-.6.14-.26.28-.53.52-.74.08-.06.22.02.35.17.13.15.27.38.25.55-.06.63-.26,1.18-.63,1.67-.22.29-.27.68-.41,1.01-.16.37-.31.74-.5,1.1-.12.22-.23.44-.34.67-.16.34-.33.68-.43,1.04-.07.28-.03.6-.02.9,0,.07,0,.13-.03.19-.08.22-.27.24-.73.15l-.3-.06c-.31-.07-.61-.27-.71-.49-.17-.33-.18-.62-.13-.9.04-.28.13-.55.23-.81.15-.39.35-.76.54-1.14l.04.02Z"/><path class="cls-4" d="m274.12,273.45c.43.97.84,1.95,1.24,2.93.15.35.36.68.5,1.04.48,1.27.86,2.58,1.3,3.85.2.56.43,1.11.68,1.65.12.36.27.71.38,1.08.14.35.08.79.11,1.18,0,.26-.13.27-.41.17-.14-.05-.34-.12-.56-.22-.11-.05-.23-.1-.34-.16-.06-.03-.1-.06-.17-.09-.03-.04-.07-.08-.1-.13l-.67-.95c-.2-.32-.34-.67-.5-1.02-.31-.69-.59-1.39-.82-2.13-.27-.88-.83-1.67-1.23-2.51-.45-.92-.89-1.85-1.35-2.77-.29-.56-.57-1.13-.89-1.67-.47-.83-.94-1.68-1.51-2.43-.45-.58-1.05-1.04-1.59-1.53-.12-.11-.25-.2-.36-.31-.4-.43-.36-.7.17-1.3.12-.14.24-.28.37-.41.44-.44.99-.56,1.42-.31,1.29.73,2.14,1.94,2.91,3.16.56.92,1.04,1.88,1.52,2.84l-.06.03Z"/><path class="cls-4" d="m209.68,204.25c-.55.37-1.11.74-1.63,1.17-.19.15-.33.36-.51.51-.67.55-1.33,1.12-1.9,1.77-.27.28-.47.61-.66.94-.26.42-.29.94-.93,1.17-.23.06-.39-.03-.67-.31-.32-.3-.73-.79-.65-1.11.39-1.07.97-2.06,1.91-2.74.54-.42.9-1.01,1.38-1.48.53-.51,1.1-.99,1.68-1.44.36-.27.72-.54,1.08-.81.54-.41,1.12-.76,1.64-1.19.41-.33.73-.77,1.1-1.15.08-.09.15-.19.25-.24.38-.21.59-.12.99.39.09.12.19.22.27.34.27.38.35.85.2,1.16-.2.5-.52.79-.84,1.1-.33.3-.69.56-1.04.82-.54.38-1.1.74-1.63,1.14l-.04-.05Z"/><path class="cls-4" d="m265.34,269.68c-1.98.66-4.15,1.01-6.23.93-.75-.02-1.5-.02-2.25-.11-2.62-.32-5.11-1.1-7.52-2.01-1.07-.41-2.12-.84-3.15-1.32-1.32-.61-2.62-1.3-3.7-2.28-.35-.29-.26-.31.13-.22.27.06.54.13.8.18.32.09.74.11,1.09.31,1.31.59,2.65,1.08,4.01,1.53,1.35.47,2.71.89,4.09,1.28,1.66.46,3.45.61,5.18.7,1.92.08,3.77-.06,5.59-.63,1.12-.32,2.22-.77,3.28-1.29,1.62-.78,3.19-1.71,4.61-2.83,1.09-.88,2.06-1.86,3.02-2.86.21-.22.4-.45.62-.67.8-.8,1.14-.97,1.72-.77.13.05.27.08.39.14.39.21.31.79-.19,1.52-1.51,2.13-3.52,4.08-5.85,5.62-1.72,1.16-3.59,2.16-5.61,2.83l-.02-.05Z"/><path class="cls-4" d="m221.16,200.62c.96.51,1.83,1.09,2.65,1.79.3.25.61.46.87.73.91.98,1.6,2.05,2.21,3.11.28.47.58.91.87,1.35.41.54.69,1.17.91,1.83.06.21-.07.27-.34.23-.26-.04-.69-.14-1.01-.39-.58-.42-.97-.97-1.43-1.45-.43-.5-.85-1-1.22-1.52-.44-.65-1.13-1.08-1.74-1.51-.66-.48-1.38-.88-2.17-1.2-.48-.19-.97-.39-1.47-.52-.75-.2-1.54-.36-2.3-.26-.59.05-1.1.36-1.58.55-.1.05-.21.11-.31.16-.41.14-.61.09-1.04-.34-.1-.1-.2-.18-.29-.28-.3-.32-.33-.77-.03-1.21.91-1.27,2.63-2.12,4.17-1.9,1.15.06,2.24.35,3.25.76l-.02.07Z"/><path class="cls-2" d="m301.67,465.83s3.26,8.5,2.72,9.67c-.53,1.17-22.84,8.77-23.39,9s-7.77,3.63-7.69,5.84c.08,2.21,7.18,3.21,9.41,2.91,2.24-.3,21.73-2.91,21.73-2.91l17.3-7.93-5.03-20.47-15.06,3.88Z"/><path class="cls-2" d="m277.83,464.25l2.58,10.79s-15.54,5.96-18.91,7.45c-3.37,1.48-9.36,2-8.88,4.64.48,2.64,8.27,3.23,8.27,3.23h12.42l21.27-10.68-2.12-15.43h-14.62Z"/><path class="cls-4" d="m306.7,464.4c.8-.21,1.61-.42,2.43-.61.3-.07.57-.22.87-.28,1.06-.24,2.13-.46,3.18-.71.47-.09.95-.2,1.41-.33.59-.17,1.2-.26,1.84-.26.2,0,.21.14.12.37-.1.23-.28.61-.56.85-1,.83-2.03,1.48-3.3,1.63-.74.13-1.4.54-2.11.81-.78.3-1.57.58-2.37.82-.49.16-.99.32-1.48.48-.74.26-1.51.47-2.22.78-.56.23-1.04.66-1.59.93-.12.06-.23.15-.36.19-.47.17-.68.04-.99-.61-.07-.15-.15-.29-.21-.44-.2-.51-.15-1,.12-1.29.8-.89,1.8-1.27,2.83-1.65.77-.28,1.57-.5,2.36-.76l.03.06Z"/><path class="cls-4" d="m279.65,464.71c.41-.04.82-.1,1.23-.18.15-.03.28-.12.43-.15.54-.11,1.1-.17,1.65-.28.24-.05.47-.15.69-.25.28-.14.6-.19.95-.14.11.02.17.23.19.49.01.26,0,.63-.12.78-.2.31-.47.44-.75.57-.28.13-.57.23-.89.27-.38.06-.71.3-1.07.45-.4.15-.82.29-1.24.41-.26.07-.53.15-.78.22-.39.12-.81.19-1.19.35-.3.12-.57.37-.88.56-.07.04-.13.11-.2.13-.27.1-.39-.06-.52-.75l-.09-.47c-.08-.54-.03-1,.1-1.17.39-.49.82-.6,1.32-.71.36-.08.76-.12,1.15-.2l.02.05Z"/><path class="cls-4" d="m285.06,247.62c1.68-2.48,3.22-5.06,4.69-7.68.52-.96.98-1.96,1.52-2.91,1.85-3.4,3.6-6.87,4.98-10.5.67-1.59,1.11-3.26,1.68-4.88.29-1.06.59-2.12.88-3.17.16-.53.26-1.07.4-1.6.12-.54.36-1.05.53-1.58.24-.65.23-.57.27.03.02.3.07.73.15,1.26.04.52.01,1.12-.06,1.77l-.61,3.38c-.24,1.12-.52,2.23-.85,3.33-.69,2.18-1.45,4.35-2.41,6.44-.54,1.27-1.09,2.55-1.64,3.85-.53,1.31-1.11,2.6-1.72,3.86-1.35,2.78-2.93,5.44-4.54,8.08-.48.82-1.03,1.6-1.54,2.4-.52.79-1.03,1.6-1.58,2.37-.83,1.18-1.64,2.37-2.53,3.5l-1.3,1.72-1.35,1.68c-.34.44-.68.88-1.01,1.32l-1.05,1.29-1.04,1.3c-.36.42-.75.82-1.14,1.22-.34.35-.66.72-1.02,1.06-1.41,1.2-2,1.42-2.71,1.13-.16-.07-.34-.12-.48-.21-.44-.31-.15-1.12.7-2.06,2.43-2.9,5.05-5.86,7.5-9.06.9-1.19,1.82-2.38,2.67-3.62.89-1.21,1.72-2.47,2.54-3.74l.06.03Z"/><path class="cls-4" d="m342.4,266.78c1.67,1.01,12.68,17.41,15.82,27.46,3.14,10.05,5.98,21.7,3.15,28.53-2.83,6.83-25.15,37.33-29.3,42.23s-13.62,19.05-13.74,19.5-1.05,5.62,2.36,13.27,18.83,38.09,20.83,45.3c2,7.22,2.96,8.34-1.19,9.19s-33.91,11.73-42.32,12.78c-8.41,1.05-12.8.24-14.57-3.09-1.76-3.33-20.79-53.7-20.79-53.7,0,0-5.87-19.67-4.57-23.41,1.3-3.74,8.98-18.71,8.98-18.71l20.71-28.89,16.44-20.28s-1.51-1.36-3.2-.52-38.56,46.87-46.85,64.74c-3.17,6.83,6.34,35.77,6.34,35.77l17.33,47.28-11.71,2.47-13.34-37.76s-12.56-39.92-11.95-43.79c.61-3.86,2.6-9.59,4.99-13.55,2.4-3.96,15.27-22.13,16.6-23.89s14.36-19.23,15.8-21.37c1.44-2.14,8.56-11.06,8.51-14.72-.04-3.66-.91-9.74-.91-9.74l-2.59-6.25s17.33-17.72,32.31-21.34c14.98-3.62,26.85-7.54,26.85-7.54Z"/><path class="cls-4" d="m353.12,274.24c.11,1.08,1.31-8.05-12.04-7.2-1.32.62,14.32-4.11,14.33-1.5,0,2.22,1.8,2.26.43,5.42-.58,1.34-2.72,3.29-2.72,3.29Z"/><path class="cls-4" d="m341.08,252.92c.88.42,7.82,6.77,6.81,8.89-.8,1.7-4.52,3.1-9.88,4.37-5.36,1.27,15.72-2.31,15.72-2.31l-12.65-10.96Z"/><path class="cls-4" d="m289.9,151.85s-4.14,8.8-7.65,15.52-1.38,21.56,10.2,21.56,14.92-6.72,21.14-4.62c8.75,2.96,16.8,21.42,26.62,18.52,6.11-1.8,9.23-9.77,6.98-19.37,0,0,3.24-1.58,6.49-3.59,0,0,10.86-5.31,12.6-10.02,1.74-4.71,3.52-11.67,2.41-14.91-1.11-3.24-1.17-8.19-9.08-14.12-4.81-3.6-16.57-2.94-16.57-2.94,0,0,5.07-4.96,6.16-9.48,1.09-4.52,2.35-14.22.5-17.12-1.85-2.9-9.06-8.08-11.17-8.49s-10.67-2.38-12.49,0,.43-5.52,0-8.84-1.89-12.12-7.71-16.64c-5.83-4.53-17.57-9.32-21.96-7.43s-11.1,5.29-13.22,8.8c-2.12,3.51-14.75-8.29-21.17-7.95s-18.87,4.62-21.52,11.83c-2.65,7.2.25,10.79,1.98,14.78,1.74,3.99,10.59,7.46,15.04,7.26,4.45-.2,14.91-1.24,18.85-2.41,3.95-1.17,6.94-1.73,9.36,1.04s4.38,6.97,3.33,10.96-4.7,11.2-6.05,13.68-1.99,6.78.2,7.47,7.74-3.94,10.95-2.78c3.21,1.16,6.08,3.31,6.07,6.65-.01,3.34,1.25,5.36-2.09,8.26-3.33,2.9-8.19,4.39-8.19,4.39Z"/><path class="cls-4" d="m321.35,473.96c.27,1.65.56,3.31.88,4.96.12.6.31,1.19.42,1.79.39,2.13.78,4.27,1.18,6.4.18.95.37,1.89.59,2.82l.39,1.8c.14.6.12,1.23.15,1.85,0,.39-.21.38-.54.12-.31-.26-.88-.74-1.14-1.4-.8-2.35-1.63-4.69-2.01-7.18-.25-1.48-.81-2.95-1.22-4.43-.45-1.63-.86-3.27-1.27-4.92l-.74-3.04c-.37-1.54-.67-3.11-1.08-4.63-.31-1.18-.81-2.31-1.19-3.48-.08-.26-.21-.5-.27-.77-.24-.99-.05-1.35.8-1.7.19-.08.38-.17.58-.23.66-.2,1.3.11,1.63.77.92,1.96,1.43,4.1,1.92,6.29.38,1.62.69,3.28,1.01,4.93l-.07.02Z"/><path class="cls-4" d="m279.53,487.36c-1.57.69-3.13,1.42-4.52,2.23l-.5.31-.41.27c-.06.03-.13.07-.19.12-.14.08-.23.3-.07.41.05.06.12.1.19.14.1.05.04.04.47.17.66.18,1.4.31,2.16.39,1.75.19,3.58.1,5.41.06,6.5-.18,13.1-1.13,19.57-2.46,2.87-.61,5.73-1.36,8.5-2.22,1.78-.56,3.54-1.18,5.26-1.86l2.54-1.03c.41-.18.82-.36,1.19-.57.37-.2.76-.4.98-.63.14-.14.19-.18.24-.24.03-.08.08-.14.14-.15.07-.01.16.02.28.14.09.12.16.39.08.7-.29,1.28-1.8,2.94-3.81,3.95-3.65,1.66-7.36,2.85-11.14,3.89-3.79.96-7.62,1.72-11.52,2.25-4.65.6-9.47,1.47-14.37,1.54-1.45,0-2.92-.06-4.42-.26-.75-.11-1.51-.25-2.28-.49-1.06-.32-2.1-.85-2.79-1.6-.26-.33-.51-.68-.61-1.1-.11-.42-.07-.86.07-1.26.25-.8.9-1.49,1.62-2.09.18-.15.36-.3.57-.43.15-.11.28-.19.42-.28.27-.18.55-.34.82-.5.55-.32,1.1-.61,1.66-.89,2.97-1.47,6-2.6,9.02-3.76,4.59-1.72,9.26-3.21,13.86-4.73.89-.3,1.78-.6,2.67-.9l1.33-.45.3-.1.16-.06.32-.12c.1-.05.22-.03.27-.15.05-.1.05-.22.05-.33-.01-.22-.07-.44-.13-.63-.19-.72-.51-1.61-.83-2.42-.3-.72-.6-1.43-.91-2.16-.56-1.36-.93-2.24-1.05-2.92-.11-.69-.02-1.15.24-1.67.12-.24.19-.51.32-.71.37-.7,1.85.13,2.98,2.19.83,1.54,1.6,3.11,2.15,4.84.14.43.27.88.38,1.34.06.23.11.46.16.71.03.09.04.34.08.53.03.2.08.4.08.6.05.8.03,1.59-.26,2.27-.13.34-.37.68-.61.91-.21.2-.53.43-.9.58-2,.53-2.33.68-3.25.96-.82.26-1.64.52-2.47.79-1.65.53-3.3,1.07-4.96,1.61-2.46.81-4.91,1.63-7.35,2.5-2.44.86-4.85,1.78-7.16,2.84l-.04-.07Z"/><path class="cls-4" d="m251.8,485.05c.31-.23.65-.44.99-.65.33-.21.74-.43.87-.51.4-.21.8-.42,1.2-.61.8-.39,1.59-.74,2.38-1.08,1.59-.68,3.17-1.31,4.77-1.9,1.16-.43,2.29-.94,3.46-1.33,4.12-1.4,8.29-2.64,12.34-4.01l.67-.22.33-.13c.19-.09.52-.17.39-.45-.05-.23-.14-.45-.22-.65l-.22-.59-.26-.65c-.46-1.11-.92-2.23-1.38-3.35-.47-1.12-.89-2.26-1.24-3.45-.03-.85-.15-.68.49-.29.33.19.72.5,1.19.89.48.38.97.87,1.36,1.48l1.04,1.61.51.82.44.86.43.88.21.45.1.23.16.4c.12.29.23.58.32.88.07.29.25.6.21.87,0,.27.03.56-.01.8-.03.25-.03.52-.28.69-.14.22-.26.43-.46.61-.21.17-.46.31-.72.44-.26.13-.52.27-.8.39-.14.05-.27.15-.39.2l-.23.1c-.59.27-1.2.46-1.81.65-1.21.38-2.42.74-3.63,1.08-2.91.8-5.78,2.04-8.64,3.12-3.13,1.2-6.3,2.35-9.24,3.8l-1.15.6c-.22.11-.44.24-.66.39-.21.15-.43.32-.59.55-.07.11-.13.25-.1.38.03.13.12.23.23.31.33.22.73.31,1.14.4.22.04.37.07.67.11.38.04.75.08,1.14.11,1.53.12,3.08.13,4.63.06,2.4-.11,4.75-.51,7.08-.91.51-.09,1.01-.21,1.53-.3,1.91-.3,2.53-.18,3.11.55.13.17.29.32.39.5.33.57-.38,1.3-1.82,1.76-2.14.66-4.37,1.05-6.64,1.33-2.28.27-4.6.42-6.99.4-.89-.01-1.78-.05-2.7-.14l-.51-.05c-.21-.02-.42-.05-.62-.09-.4-.08-.84-.11-1.22-.23-.38-.11-.79-.19-1.11-.34l-.51-.21-.44-.26c-.53-.37-.97-.77-1.25-1.29-.3-.52-.42-1.25-.34-1.83.17-1.14.99-2.26,2.33-3.21l.08.05Z"/><path class="cls-4" d="m293.42,469.87c.08.75.17,1.5.25,2.25.03.27.12.53.15.8.09.96.18,1.92.34,2.86.08.42.2.82.3,1.22.15.51.34,1,.4,1.54.02.17-.21.25-.5.23-.28-.03-.69-.17-.87-.45-.3-.51-.59-1.02-.78-1.55-.17-.54-.29-1.1-.36-1.66-.07-.68-.36-1.32-.53-1.99-.19-.73-.34-1.46-.48-2.2-.09-.45-.18-.91-.28-1.35-.16-.68-.29-1.37-.53-2-.18-.5-.53-.93-.81-1.37-.06-.1-.14-.18-.18-.28-.18-.36-.07-.53.5-.89.13-.08.26-.17.39-.25.45-.26.91-.26,1.2,0,.88.78,1.16,1.82,1.42,2.82.18.75.29,1.51.42,2.26l-.05.02Z"/><path class="cls-4" d="m244.15,408.24c-1.44-5.11-2.83-10.22-4.01-15.45-.29-1.31-.57-2.63-.8-3.98-.11-.68-.22-1.36-.3-2.08-.08-.7-.14-1.55-.03-2.3.25-3.07,1.31-5.69,2.42-8.2,1.7-3.63,3.65-7.04,5.79-10.3,3.79-5.74,7.93-11.17,12.1-16.54,4.18-5.37,8.4-10.69,12.5-16.09,1.81-2.4,3.58-4.83,5.29-7.3,1.7-2.46,3.38-4.95,4.84-7.5.48-.82.91-1.65,1.36-2.48.38-.85.85-1.68,1.16-2.54.74-1.69,1.31-3.48,1.27-5.11.03-.39-.07-.95-.1-1.41l-.1-1.46c-.06-1-.05-1.88-.27-2.7-.22-.86-.56-1.76-.89-2.66l-.95-2.72c-.76-2.28-.48-2.05.67-.34.57.87,1.42,2.05,2.28,3.62.42.77.93,1.71,1.17,2.89.22,1.11.35,2.08.53,3.16l.12.71.06.36.03.45c.03.6.1,1.24,0,1.78-.09,1.16-.38,2.19-.65,3.24-.33.99-.69,2-1.13,2.92-.41.95-.87,1.86-1.34,2.75-1.89,3.59-4.06,6.93-6.3,10.21-4.6,6.47-9.51,12.65-14.43,18.83-2.95,3.69-5.85,7.54-8.67,11.46-2.81,3.92-5.56,7.93-8,12.01-1.35,2.24-2.59,4.53-3.64,6.87l-.73,1.77-.58,1.78-.4,1.78c-.04.57-.13,1.17-.13,1.73.04,1.13.27,2.45.5,3.72.24,1.28.53,2.57.82,3.85.59,2.57,1.25,5.14,1.94,7.7,1.69,6.31,3.52,12.6,5.42,18.85,2.89,9.48,5.88,18.98,9.1,28.28,1.25,3.61,2.56,7.17,3.91,10.68.68,1.75,1.37,3.51,2.1,5.22l.28.64.24.52c.1.17.17.36.3.49.19,0,.39-.03.6-.07l1.16-.22c1.57-.34,3.13-.79,4.76-1.2,6.02-1.67,8.41-1.54,9.76-.64.31.22.69.46.83.67.22.37-.29.55-1.3.76-1.03.21-2.65.56-4.81,1.11-1.59.42-3.22.85-4.86,1.37-.83.24-1.67.49-2.51.74l-1.3.34-.68.15-.34.07c-.12.02-.36.05-.54.07l-1.15.14-1.07-.17-.13-.02h-.07s-.02-.01-.02-.01c-.08.13.09-.18.07-.15h-.03s-.24-.13-.24-.13c-.16-.07-.3-.18-.45-.28-.25-.27-.45-.62-.62-.98l-.27-.55-.19-.44-.27-.62-.52-1.24c-.68-1.64-1.32-3.29-1.94-4.95-2.5-6.63-4.83-13.4-7.1-20.21-3.36-10.12-6.54-20.33-9.53-30.61l.08-.04Z"/><path class="cls-4" d="m209.2,188.95c.05-1.97.24-3.85.2-5.59-.01-.61-.18-1.29-.21-1.95-.07-1.17-.18-2.31-.41-3.41-.11-.55-.26-1.1-.44-1.63-.17-.54-.34-1.08-.58-1.61-.4-.94-1-1.8-1.64-2.61-.41-.52-.87-1.01-1.31-1.53-.45-.5-.89-1.02-1.26-1.64-.23-.38-.11-.44.34-.41.23.02.55.05.93.1.37.07.73.24,1.07.47,1.21.85,2.34,1.85,3.32,3.05.96,1.2,1.82,2.59,2.13,4.14.42,1.82.94,3.62,1.14,5.4.23,2.03.08,4.03.02,5.9-.04,1.16-.06,2.31-.01,3.45.08,1.72.25,3.46.67,5.12.35,1.29.91,2.49,1.49,3.67.12.26.28.51.35.79.18.51.25.87.18,1.16-.09.31-.27.54-.55.79-.13.11-.25.24-.38.33-.22.15-.47.16-.76.06-.29-.1-.65-.31-.91-.66-.2-.26-.42-.51-.61-.78-.19-.27-.33-.56-.49-.85-.32-.58-.57-1.19-.82-1.81-.49-1.25-.84-2.57-1.11-3.92-.37-2-.45-4.06-.46-6.04h.08Z"/><path class="cls-4" d="m181.77,188.5c-.57-.99-1.07-2.08-1.38-3.34-.06-.33-.12-.65-.16-.99-.01-.34-.06-.7-.03-1.03.03-.68.14-1.31.3-1.9.66-2.36,1.83-4.23,3.08-5.98.92-1.27,1.84-2.53,2.91-3.65,1.89-1.97,3.93-3.76,6.29-5.28.59-.38,1.21-.73,1.9-1.04.34-.16.7-.3,1.1-.42.47-.14,1.01-.24,1.51-.21.52-.01,1,.21,1.4.51.19.17.39.33.57.51l.42.47c.47.55.89,1.14,1.26,1.76.65,1.1,1.21,2.3,1.39,3.67.09.68.08,1.41-.12,2.13-.19.73-.55,1.33-.96,1.88-1.12,1.41-2.59,2.15-3.95,2.8-.7.31-1.37.62-2.07.84-.71.21-1.4.44-2.1.67-.9.23-.86.11-.37-.63.25-.37.64-.84,1.13-1.39.25-.26.52-.57.83-.82.32-.24.66-.46,1.02-.67,1.27-.71,2.46-1.47,3.11-2.29.64-.85.73-1.44.44-2.49-.3-1.01-.99-2.12-1.82-3.06-.1-.12-.21-.23-.32-.34-.02-.05-.03-.05-.04-.09-.03-.06-.08-.11-.14-.13-.03-.01-.07-.02-.1-.02h-.04s-.1,0-.17.03c-.26.07-.55.17-.84.29-1.45.61-2.9,1.72-4.22,2.89-1.33,1.19-2.57,2.51-3.73,3.86-1.28,1.48-2.44,3.07-3.32,4.74-.44.83-.8,1.69-1,2.53-.2.85-.2,1.57.03,2.42.27,1.03.81,2.08,1.45,3.08.64,1.01,1.38,1.98,2.17,2.93,2.42,2.85,5.13,5.56,7.85,8.19,2.12,2.04,4.35,3.92,6.4,6.06.45.47.91.91,1.35,1.41,1.61,1.85,1.85,2.68,1.56,3.53-.07.2-.12.42-.21.58-.34.52-1.28.02-2.54-1.15-1.82-1.78-3.78-3.52-5.71-5.38-1.93-1.85-3.92-3.73-5.88-5.69-1.46-1.45-2.91-2.95-4.32-4.53-1.4-1.59-2.8-3.23-3.99-5.21l.07-.05Z"/><path class="cls-4" d="m254.33,160.3c-3.2-.99-6.14-2.72-8.66-4.85l-1.36-1.2c-.43-.42-.86-.85-1.26-1.3-2.76-3.25-4.59-7.16-5.49-11.19-.39-1.79-.8-3.59-.89-5.4-.1-1.16-.14-2.32-.07-3.48.13-1.15.14-2.32.67-3.41.3-.68.46-.55.84.08.46.65.97,1.75,1.09,2.99.46,4.36.99,8.58,2.55,12.65.89,2.46,2.59,4.64,4.43,6.54,2.02,2.1,4.49,3.8,7.21,4.95,1.67.73,3.46,1.19,5.27,1.48,2.75.41,5.61.39,8.35-.18,2.13-.46,4.11-1.29,6.05-2.2.42-.22.82-.45,1.25-.66,1.58-.77,2.14-.89,2.87-.35.17.12.36.23.49.37.46.46.03,1.26-1.12,2.05-1.73,1.13-3.64,2.12-5.72,2.81-2.06.72-4.26,1.2-6.51,1.38-3.33.32-6.76-.05-10-1.03l.02-.08Z"/><path class="cls-4" d="m307.8,68.5c2.15.59,4.24,1.6,6.1,2.83,1.76,1.22,3.46,2.54,5,4.06.55.57,1.13,1.09,1.66,1.67.51.6,1.02,1.2,1.51,1.82,1.61,2.28,2.9,4.77,3.78,7.39.83,2.64,1.23,5.39,1.25,8.11-.06,1.21-.06,2.42-.25,3.6-.09.59-.11,1.2-.24,1.78-.12.58-.24,1.17-.36,1.75-.12.75-.39,1.47-.59,2.2-.22.73-.46,1.45-.78,2.14-.6,1.39-1.22,2.78-2.19,3.97-.58.75-.64.57-.62-.3.02-.43-.03-1.06.09-1.72.13-.66.22-1.45.44-2.24.2-.7.43-1.39.54-2.1.13-.71.35-1.39.48-2.1l.34-2.11c.09-.7.11-1.41.18-2.11.1-2.81-.02-5.62-.66-8.39-.75-3.33-2.72-6.42-5.04-9.04l-.47-.55-.52-.51-1.03-1.03c-.69-.68-1.48-1.27-2.22-1.91-.78-.59-1.6-1.14-2.4-1.71-.82-.46-1.62-.97-2.52-1.3-2.16-.92-4.52-1.44-6.91-1.59-3.62-.16-7.36.4-10.62,1.97-2.55,1.19-4.63,3.08-6.29,5.19-.41.44-.68.96-1.02,1.45-.31.46-.61.81-.84,1.12-.22.32-.42.56-.62.75-.4.37-.81.5-1.34.51-.24,0-.5.05-.72.02-.75-.09-.79-1.23-.06-3.01,1.25-2.53,3.12-4.89,5.48-6.77,2.35-1.9,5.19-3.2,8.11-3.97l.82-.22.83-.15,1.67-.28,1.68-.13.84-.06h.84c2.25-.02,4.49.35,6.68.9l-.02.09Z"/><path class="cls-4" d="m349.75,118.45c-.23-2.91-1.23-5.79-2.87-8.35-.15-.23-.29-.48-.44-.7l-.49-.57c-.3-.4-.72-.73-1.08-1.1-1.35-1.27-3.05-2.3-4.86-3.06-1.82-.76-3.79-1.26-5.78-1.39-1.76-.08-3.58,0-5.24.52-2.14.67-4.09,1.74-5.88,3.2-.59.43-.75.21-.6-.51.08-.36.21-.87.48-1.45.3-.53.74-1.1,1.3-1.64.54-.4,1.09-.82,1.68-1.18l1.86-.85,1.95-.6,2-.35c2.69-.26,5.38.16,7.88,1.03,1.48.56,2.99,1.12,4.42,1.91,1.46.73,2.82,1.75,4.01,2.94l.91,1.07c.28.36.49.74.74,1.11l.71,1.11c.22.38.4.79.6,1.18l.58,1.19c.17.41.3.83.46,1.25.14.42.31.83.43,1.25l.3,1.29c.3,1.05.34,2.14.48,3.22.02.54.01,1.08.02,1.62,0,.27,0,.54,0,.81l-.08.81c-.28,3.27-1.4,6.4-2.94,9.21-1.22,2.17-2.54,4.29-4.29,6.11-.37.42-.77.79-1.18,1.16-1.56,1.38-2.38,1.39-3.23.8-.2-.14-.42-.27-.58-.43-.53-.54-.25-1.56.71-2.46,2.75-2.79,5.24-5.9,6.71-9.57,1.12-2.69,1.56-5.65,1.25-8.56h.09Z"/><path class="cls-4" d="m226.68,94.01l-2.39-4.69c-.28-.58-.63-1.12-.9-1.7-.96-2.05-1.87-4.13-2.78-6.2-.39-.92-.84-1.82-1.24-2.74-.26-.58-.54-1.16-.78-1.75-.26-.58-.37-1.23-.53-1.86-.08-.4.11-.42.48-.21.35.22,1.01.59,1.41,1.21.63,1.12,1.26,2.24,1.89,3.36.57,1.15,1.14,2.3,1.66,3.49.63,1.42,1.54,2.76,2.35,4.12l2.62,4.55,1.63,2.81c.84,1.41,1.63,2.86,2.51,4.23.66,1.08,1.46,2.06,2.17,3.11.16.23.34.44.48.68.53.9.51,1.28-.08,1.84-.13.13-.26.27-.4.38-.49.37-1.12.23-1.64-.33-.76-.84-1.47-1.74-2.12-2.69-.67-.94-1.29-1.92-1.85-2.95-.84-1.54-1.68-3.08-2.52-4.62l.06-.04Z"/><path class="cls-4" d="m181.11,42.98c.83,1.96,1.86,3.9,3.06,5.67.22.32.46.62.71.91l.34.4.1.13c.07.09.16.21.29.27.18.04.36-.07.43-.25.04-.08.07-.18.09-.28.01-.05.02-.11.03-.16.01-.13.02-.27.02-.41.04-1.11-.11-2.3-.31-3.46-.22-1.24-.56-2.47-.9-3.68-.45-1.56-1.07-3.05-1.23-4.73-.05-.52-.06-.46.29-.14.36.31,1.16.87,1.63,1.72.71,1.55,1.39,3.11,1.89,4.76.45,1.66.83,3.36.85,5.21,0,.38,0,.61-.03,1.24-.07.53-.15,1.07-.34,1.53-.19.46-.47.85-.83,1.13-.37.3-.85.44-1.31.49-.57-.07-1.07-.24-1.57-.61-.26-.15-.47-.42-.71-.63-.11-.11-.24-.21-.34-.33l-.21-.24c-1.54-1.88-2.71-3.87-3.77-5.95-.64-1.28-1.22-2.6-1.7-3.97-.36-1.04-.66-2.11-.82-3.25-.08-.57-.12-1.15-.08-1.76.04-.6.15-1.25.48-1.87.47-.99,1.52-1.69,2.48-1.92.47-.16,1.12-.2,1.65-.11.55.09,1.05.28,1.52.55.4.23.79.49,1.12.85.6.66.81,1.27.81,1.71,0,.44-.2.72-.56.92-.16.09-.32.19-.49.24-.59.11-1.03-.29-1.46-.68-.33-.32-.74-.57-1.13-.68-.19-.06-.38-.07-.52-.06-.16.02-.16.04-.39.13-.39.15-.39.26-.48.4-.09.16-.19.6-.16,1.15.08,1.69.79,3.81,1.66,5.73l-.06.03Z"/><path class="cls-4" d="m175.47,46.91c1.08,1.9,2.4,3.79,3.88,5.53.54.64,1.15,1.2,1.72,1.8.5.53,1.02,1.05,1.54,1.53l.72.63c.09.09.2.18.32.27.12.07.27.19.42.14.13-.07.19-.21.22-.36.03-.15.02-.3,0-.47,0-.08-.02-.18-.04-.28l-.1-.5c-.28-1.25-.8-2.48-1.34-3.68-.69-1.55-1.56-2.99-2.25-4.56-.24-.47-.14-.48.29-.23.21.13.51.31.86.56.37.23.73.56,1.02.98,1.06,1.46,2.04,3,2.72,4.71.18.43.34.87.48,1.32.14.47.25.81.41,1.7.03.2.07.41.08.61v.58c-.03.18-.03.37-.06.54-.05.16-.08.33-.15.47-.11.3-.29.53-.49.75-.2.24-.48.39-.78.48-.73.15-1.45-.19-2.22-.54-.2-.09-.39-.18-.58-.32-.1-.06-.18-.14-.29-.18l-.19-.15-.68-.54c-.88-.73-1.72-1.49-2.48-2.29-1.68-1.78-3.2-3.68-4.54-5.75-.81-1.28-1.55-2.62-2.08-4.11-.2-.57-.36-1.17-.42-1.81-.06-.64-.03-1.37.29-2.06.33-.7.94-1.24,1.61-1.49.66-.32,1.49-.31,2.14-.1,1.04.33,1.8.93,2.49,1.53.69.61,1.28,1.27,1.85,1.94.25.3.5.58.73.89.85,1.13.82,1.63.51,2.22-.08.14-.14.3-.23.41-.28.4-1,.16-1.76-.57-1.03-1.12-1.98-2.29-2.98-3.16-.49-.42-1.01-.75-1.32-.82-.09-.04-.14-.03-.19-.03-.06-.03-.08.02-.12.01-.06.02-.19.07-.26.13-.08.08-.09.07-.13.33-.03.24.02.66.14,1.09.24.89.72,1.87,1.28,2.81l-.06.04Z"/><path class="cls-4" d="m185.04,76.44c-1.21-1.49-2.78-2.82-4.41-4.11-.6-.47-1.25-.88-1.86-1.35-2.13-1.68-4.37-3.4-6.22-5.55-.4-.49-.82-.95-1.19-1.46-.39-.49-.76-1-1.07-1.55-.22-.34-.39-.71-.56-1.07-.17-.36-.36-.72-.47-1.11-.12-.39-.27-.76-.33-1.16-.03-.4-.06-.8-.08-1.21-.02-.5.03-.43.31-.09.14.17.36.41.63.67.27.27.58.56.78.93.77,1.27,1.72,2.35,2.66,3.45.97,1.08,2.05,2.09,3.11,3.2,1.31,1.3,2.99,2.31,4.55,3.46,1.73,1.27,3.45,2.6,5.04,4.17.97.98,1.82,2.04,2.62,3.12,1.2,1.64,2.24,3.38,3.28,5.08.81,1.32,1.7,2.57,2.5,3.89.17.29.37.57.53.87.59,1.12.59,1.57.04,2.11-.12.12-.24.26-.38.36-.46.33-1.09.06-1.61-.68-1.56-2.2-2.92-4.62-4.4-6.97-1.1-1.74-2.23-3.46-3.52-4.97l.05-.05Z"/><path class="cls-4" d="m243.77,264.64c3.6,1.94,7.42,3.42,11.34,4.15.98.23,1.96.27,2.94.39.49.07.98.02,1.47.04.48-.01,1.02.05,1.44-.02,1.73-.1,3.51-.75,5.17-1.73,2.45-1.4,4.6-3.49,6.62-5.68,3.57-3.9,6.61-8.4,9.32-13.08,2.67-4.71,5.06-9.62,7.09-14.67,1.8-4.48,3.36-9.1,4.56-13.74.79-2.98,1.48-5.98,2.05-9,.15-.75.29-1.51.41-2.27.16-.75.31-1.51.44-2.26.29-1.51.47-3.03.71-4.55.5-1.9.45-1.67.97,0,.3.84.48,2.03.69,3.49.12,1.45.35,3.19.08,5.01-.41,3.22-.99,6.42-1.73,9.57-.79,3.14-1.71,6.24-2.76,9.29-2.11,6.11-4.73,12.05-7.86,17.76-1.88,3.41-3.87,6.85-6.1,10.19-2.23,3.34-4.72,6.58-7.73,9.38-.8.79-1.72,1.48-2.6,2.2-.95.65-1.88,1.33-2.94,1.86-2.04,1.11-4.45,1.89-6.86,1.94-4.58.1-9.08-.87-13.21-2.51-2.56-.99-4.98-2.24-7.34-3.57-2.32-1.4-4.6-2.84-6.75-4.45-6.57-4.82-12.43-10.53-17.87-16.42-4.23-4.59-8.26-9.21-11.95-14.21-.81-1.1-1.61-2.18-2.37-3.34-1.4-2.16-2.2-3.67-2.59-4.83-.36-1.18-.38-1.94-.15-2.65.1-.32.17-.7.31-.91.24-.35.7-.11,1.32.56.64.67,1.5,1.77,2.49,3.27,2.99,4.42,6.39,8.81,9.99,13.11,3.6,4.3,7.44,8.51,11.51,12.46,6.05,5.85,12.63,11.28,19.95,15.14l-.03.09Z"/><path class="cls-4" d="m225.24,201.09c2.34,3.45,4.54,6.84,6.9,10.18.85,1.22,1.79,2.37,2.65,3.58,3.05,4.25,6.26,8.39,9.73,12.29.75.88,1.57,1.71,2.39,2.52.82.82,1.65,1.63,2.52,2.36l1.67,1.45c.58.45,1.15.91,1.7,1.39,1.1.98,2.25,1.89,3.38,2.86.7.61.5.74-.34.59-.42-.07-1.01-.2-1.71-.39-.35-.1-.73-.2-1.12-.35-.38-.15-.75-.37-1.13-.6-.66-.43-1.35-.81-1.98-1.28-.63-.47-1.2-.99-1.81-1.48-.59-.51-1.2-.99-1.77-1.52l-1.69-1.61c-2.24-2.15-4.29-4.48-6.19-6.94-2.24-2.96-4.79-5.84-7.04-8.88-2.48-3.33-4.84-6.74-7.18-10.14l-1.34-1.93-.67-.93c-.22-.32-.47-.6-.57-.74-.15-.2-.4-.27-.64-.28-.22,0-.7.06-1.08.17-1.65.47-3.36,1.37-4.97,2.31-1.62.96-3.2,2.02-4.71,3.15-2.36,1.75-4.44,3.77-6.58,5.74-.47.43-.91.89-1.39,1.32-1.76,1.62-2.55,1.88-3.47,1.63-.21-.06-.46-.09-.63-.18-.59-.29-.24-1.38.91-2.78,3.52-4.03,7.88-7.62,12.7-10.73,1.51-.96,3.07-1.87,4.79-2.65.87-.39,1.77-.75,2.85-1,.26-.07.57-.11.86-.15.29-.03.76-.06,1.17-.01.42.03.83.13,1.21.29.4.13.7.45,1.04.67.44.52.77.87.94,1.14l.63.87-.06.05Z"/><path class="cls-4" d="m331.25,240.55c-2.58-3.95-4.95-8.03-7.09-12.23-.78-1.55-1.6-3.11-2.25-4.71-2.26-5.65-3.96-11.37-6.13-16.86-.94-2.45-2.06-4.83-3.37-7.04-1.65-2.86-3.6-5.47-5.8-7.92-.55-.94-.44-.91.56-.71,1,.19,2.74.89,4.2,2.37,1.24,1.34,2.37,2.77,3.35,4.29.96,1.53,1.8,3.11,2.56,4.7,1.56,3.19,2.73,6.51,3.77,9.84,1.26,3.98,2.9,7.96,4.62,11.74,1.92,4.11,4.27,8.17,6.7,12.09,1.52,2.42,3.1,4.79,4.79,7.1,2.54,3.5,5.21,6.94,8.09,10.15,2.24,2.49,4.63,4.75,7.04,7,.52.5,1.08.96,1.6,1.47,1.96,1.88,2.38,2.69,2.19,3.72-.04.24-.06.5-.14.7-.27.66-1.47.29-3.1-.94-4.68-3.79-9.09-8.38-13.17-13.29-3.04-3.64-5.86-7.49-8.52-11.43l.07-.05Z"/><path class="cls-4" d="m351.77,263.6c.73.08,1.5.19,2.33.51.84.33,1.67.95,2.21,1.71.17.27.35.55.49.82.11.27.24.53.3.82.25,1.01.22,2.06-.01,2.98-.23.93-.63,1.75-1.09,2.48-.4.66-.85,1.27-1.33,1.82-.62.71-1.26,1.41-2.16,1.78-.27.12-.36-.05-.37-.41,0-.18,0-.41.04-.66.02-.26.08-.52.22-.72.47-.73.87-1.47,1.2-2.18.4-.67.74-1.34,1-2.02.16-.41.18-.85.11-1.26-.09-.41-.22-.8-.42-1.16-.22-.39-.36-.69-.66-.89-.29-.21-.68-.39-1.2-.46-.63-.1-1.34-.14-2.08-.1-1.11.05-2.28.1-3.43.25-.89.12-1.76.41-2.66.55-.2.03-.39.1-.59.11-.75.04-.99-.16-1.15-.95-.04-.18-.08-.36-.1-.54-.07-.61.22-1.12.73-1.33.75-.3,1.5-.54,2.28-.72.77-.15,1.58-.27,2.39-.36,1.23-.11,2.49-.18,3.95-.12v.08Z"/><path class="cls-4" d="m348.33,341.97c4.12-5.4,7.93-11.07,10.51-17.21.97-2.23,1.54-4.57,2.01-6.89l.24-1.54c.09-.51.07-1.03.12-1.54.12-1.04-.01-2.05-.05-3.08-.12-1.06-.29-2.15-.43-3.22-.17-1.07-.4-2.14-.58-3.21-.85-4.27-2.1-8.47-3.67-12.56-1.4-3.63-3.14-7.15-4.96-10.58-1.18-2.19-2.44-4.35-3.71-6.51-1.22-2.19-2.47-4.37-3.57-6.64-.68-1.42-.4-1.34.61-.41,1.03.92,2.83,2.67,4.53,5.03,2.83,4.3,5.57,8.73,7.78,13.47,2.23,4.72,4.06,9.68,5.25,14.82.78,3.06,1.3,6.23,1.77,9.45.42,3.39.05,6.82-.84,9.99-.96,3.5-2.43,6.78-4.1,9.91-1.68,3.12-3.58,6.1-5.59,8.98-2.48,3.54-5.14,6.93-7.86,10.26-4.12,5.04-8.47,9.89-12.62,14.8-3.2,3.82-6.22,7.69-8.97,11.69-.62.87-1.13,1.77-1.72,2.66-1.02,1.67-1.66,2.76-2.16,3.47-.26.35-.52.62-.77.84-.22.22-.46.38-.73.52-.24.13-.5.33-.72.4-.37.12-.56-.24-.58-1.1-.03-.44.05-.96.19-1.56.11-.63.4-1.28.72-2,2.03-4.22,4.8-7.94,7.67-11.59,2.89-3.64,5.96-7.17,9-10.7,4.51-5.25,9.06-10.49,13.16-15.99l.07.04Z"/><path class="cls-4" d="m295.5,467.48c-1.95.24-3.93.41-6,.35-1.04-.04-2.09-.11-3.22-.38l-.48-.12c-.19-.05-.41-.09-.6-.22-.2-.09-.4-.18-.57-.33-.18-.13-.36-.24-.52-.42-.58-.59-.83-.97-1.16-1.43-1.18-1.76-2.05-3.47-2.92-5.22-.85-1.74-1.65-3.49-2.42-5.25-3.07-7.03-5.81-14.15-8.41-21.32-1.89-5.24-3.79-10.47-5.47-15.77-1.48-4.68-2.88-9.39-4.12-14.15-1.21-4.78-2.39-9.55-2.88-14.6-.1-1.27-.17-2.56-.01-3.95.22-1.36.56-2.64,1.02-3.82.89-2.4,2.02-4.62,3.19-6.8,2.39-4.34,5.05-8.47,7.8-12.53,4.89-7.2,10.04-14.26,15.3-21.08,6.75-8.77,13.66-17.49,21.19-25.6,2.54-2.37,2.25-1.99.74.55-1.53,2.53-4.51,7.01-8.39,12.04-6.97,8.85-13.65,17.9-20.23,27.02-3.27,4.57-6.48,9.19-9.49,13.93-1.5,2.37-2.96,4.76-4.29,7.2-1.31,2.43-2.59,4.94-3.37,7.43-.25.75-.41,1.47-.51,2.19-.08.7-.08,1.5-.04,2.3.08,1.61.33,3.28.62,4.95.59,3.34,1.42,6.69,2.32,10.04,1.82,6.69,3.98,13.35,6.21,19.91,2.46,7.22,5.09,14.39,7.91,21.47,1.42,3.54,2.88,7.06,4.45,10.52.78,1.73,1.59,3.44,2.45,5.11.43.83.87,1.66,1.34,2.45.23.39.47.78.72,1.14.23.33.54.75.7.9.09.09.2.18.33.2l.66.16c.52.08,1.05.17,1.6.2,1.1.07,2.23.06,3.37-.02,2.28-.14,4.58-.47,6.87-.87,4.58-.82,9.12-2,13.62-3.3,6.8-2,13.56-4.31,20.11-7,1.63-.68,3.25-1.39,4.83-2.15.79-.38,1.56-.78,2.31-1.2.36-.22.75-.42,1.06-.66.38-.25.5-.34.69-.55.2-.18.2-.46.19-.71-.01-.14-.02-.21-.06-.42-.03-.19-.08-.39-.13-.58-.21-.79-.5-1.61-.8-2.41-.62-1.62-1.33-3.23-2.07-4.82-2.3-4.97-4.83-9.8-7.26-14.66-2.44-4.86-4.87-9.73-7.14-14.71-1-2.19-1.99-4.34-2.91-6.6-1.73-4.18-2.56-7.07-3.05-9.12-.23-1.03-.35-1.86-.4-2.56-.02-.71.04-1.29.13-1.82.08-.48.12-1.09.21-1.37.3-.95,1.91,2.36,4.34,8.35,3.67,8.89,8.04,17.8,12.55,26.85,2.25,4.53,4.5,9.11,6.66,13.83,1.06,2.39,2.13,4.73,2.97,7.47.1.35.2.71.29,1.1.05.19.08.39.12.62.04.3.09.63.09.95.04.64-.08,1.26-.32,1.84-.13.28-.35.52-.51.78-.2.24-.44.45-.66.68-.21.23-.47.46-.67.57l-.49.33c-.33.22-.62.38-.94.57-.62.36-1.22.67-1.83.97-3.59,1.77-7.18,3.18-10.82,4.54-3.64,1.34-7.31,2.58-11.01,3.72-3.71,1.14-7.44,2.18-11.22,3.1-3.79.89-7.59,1.75-11.53,2.28l-.03-.08Z"/><path class="cls-4" d="m239.5,114.15c-1.44.41-2.89.87-4.16,1.45-.22.11-.43.24-.62.37-.11.07-.18.14-.17.13-.03.02-.06.04-.09.06-.07.04-.16.09-.19.18-.08.25-.1.36.37,1.19.39.67.9,1.32,1.41,1.97.53.69,1.18,1.29,1.82,1.87.83.75,1.65,1.5,2.39,2.38.23.28,0,.53-.47.68-.47.14-1.25.22-1.88-.1-.55-.29-1.1-.57-1.61-.91-.49-.37-.96-.76-1.41-1.17-.92-.81-1.72-1.78-2.37-2.93l-.38-.67c-.07-.11-.13-.23-.2-.35l-.27-.49c-.14-.35-.3-.7-.37-1.06l-.07-.55v-.56c.22-.83.81-1.52,1.51-2.03,1.55-1.06,3.06-1.62,4.61-2.17.95-.33,1.91-.61,2.86-.89,1.45-.43,2.92-.75,4.36-1.15,1.12-.3,2.19-.8,3.36-1.07.26-.06.51-.13.78-.17,1-.1,1.39.16,1.57,1,.04.19.1.38.12.58.05.65-.3,1.17-.87,1.44-1.72.89-3.65,1.29-5.63,1.83-1.46.38-2.95.75-4.38,1.22l-.03-.08Z"/><path class="cls-4" d="m249.05,101.44c4.17,1.88,9.24,2.21,14.08,1.76,2.43-.25,4.84-.74,7.28-1.41,2.45-.64,4.89-1.5,7.72-1.99,1.03-.16,2.13-.27,3.28-.18,1.14.07,2.32.36,3.38.84.57.19,1.01.55,1.5.84.5.29.93.66,1.36,1.03.84.78,1.57,1.7,2.12,2.71.48.9.81,1.85,1.04,2.81.2.96.32,1.92.32,2.86.02,1.88-.28,3.69-.72,5.41-.91,3.44-2.38,6.59-4.13,9.56-.44.74-.9,1.47-1.41,2.2-.24.34-.55.76-.76,1.05-.21.28-.41.58-.58.88-.73,1.19-1.06,2.62-.69,3.41.11.19.21.38.41.54.09.08.19.17.32.24.11.07.17.12.26.13.53.17,1.1.19,1.71.03,1.26-.33,2.73-1.35,4.44-1.97.75-.29,1.56-.51,2.38-.62.41-.06.82-.1,1.23-.1.4-.03.84,0,1.3.04,1.81.23,3.39,1.34,4.4,2.68,2.04,2.73,2.48,6.18,1.83,9.31-.44,2.02-1.41,3.94-2.81,5.49-1.42,1.54-3.18,2.7-5.15,3.38-.98.34-2.01.57-3.05.63-1.04.05-2.07-.03-3.07-.22-1.99-.41-3.9-1.15-5.41-2.42-.88-.89-1.21-1.3-1.17-1.3.05-.03.54.31,1.57.48,2.03.35,5.59,1.07,9.04.2,1.53-.35,3.02-1.12,4.21-2.16,1.2-1.03,2.07-2.37,2.55-3.86.49-1.49.59-3.13.29-4.66-.3-1.52-1.03-2.95-2.02-3.75-.5-.39-1.03-.63-1.6-.72-.16,0-.27-.03-.46-.02l-.57.02c-.38.05-.75.08-1.12.19-.74.18-1.47.47-2.25.86-.79.39-1.62.9-2.72,1.36-1.06.46-2.6.8-4,.46l-.54-.15c-.22-.07-.45-.11-.62-.23-.39-.23-.64-.35-.96-.62-.61-.44-1.13-1.12-1.47-1.84-.35-.74-.46-1.5-.49-2.22,0-.7.1-1.36.27-1.96.33-1.21.87-2.24,1.52-3.19.45-.62.72-.93,1.04-1.4.32-.44.62-.91.91-1.38.59-.95,1.14-1.93,1.64-2.94,1-2.02,1.85-4.13,2.37-6.29.52-2.14.73-4.35.32-6.31-.4-1.96-1.48-3.61-3.15-4.65-.86-.66-1.85-.91-2.87-1.08-1.05-.1-2.19.01-3.37.25-2.37.48-4.88,1.36-7.45,2.02-5.16,1.4-10.69,1.94-16.06,1.2-3.33-.44-6.65-1.47-9.58-3.28-1.43-.96-2.81-2.02-3.93-3.35-.61-.62-1.07-1.36-1.59-2.05-.42-.75-.91-1.47-1.23-2.28-1.08-2.38-1.62-5-1.58-7.61.07-2.6.71-5.22,1.97-7.52,1.24-2.3,3.02-4.26,5.05-5.81,2.04-1.55,4.31-2.72,6.68-3.56,1.84-.64,3.73-1.11,5.63-1.43,1.91-.28,3.84-.42,5.77-.4,1.93.06,3.85.25,5.76.64,1.9.42,3.77.99,5.58,1.79,1.57.74,3.11,1.52,4.51,2.61,2.63,2,3.91,3.85,4.65,5.16.33.69.53,1.26.65,1.76.09.51.06.95,0,1.36-.07.37-.1.82-.22,1.06-.22.41-.74.11-1.46-.69-.73-.8-1.72-2.08-3.14-3.53-4.24-4.35-10.61-6.41-16.93-6.46-1.59-.04-3.18.14-4.76.35-1.57.26-3.12.65-4.61,1.16-1.48.54-2.92,1.18-4.24,1.99-1.31.82-2.51,1.77-3.54,2.84-1.5,1.63-2.59,3.54-3.13,5.64-.56,2.09-.55,4.37-.04,6.52.93,4.36,4.17,7.94,8.39,9.73l-.03.09Z"/><path class="cls-4" d="m321.65,199.34c1.75,2.13,3.6,4.12,5.61,5.87,2.02,1.72,4.22,3.19,6.57,4.08,2.35.89,4.86,1.2,7.31.74,1.24-.17,2.43-.63,3.62-1.09,1.12-.55,2.24-1.13,3.12-1.94,1.33-1.14,2.27-2.62,2.76-4.3.5-1.68.57-3.55.34-5.43-.27-2.26-.97-4.62-1.81-6.76-.43-1.01-1.1-2.17-1.56-3.59-.23-.72-.41-1.53-.38-2.44.02-.46.1-.93.24-1.39.08-.22.17-.45.27-.66.1-.19.24-.43.4-.67.3-.4.67-.75,1.09-1.01.35-.22.65-.38.96-.53.6-.29,1.17-.53,1.72-.77,1.11-.47,2.18-.92,3.23-1.42,2.08-.99,4.04-2.16,5.74-3.61,1.7-1.45,3.14-3.18,4.2-5.14,1.07-1.96,1.75-4.13,2.12-6.38.46-3.04.42-6.21-.3-9.23-.3-1.52-.85-2.98-1.44-4.4-.66-1.38-1.39-2.74-2.33-3.92-1.18-1.54-2.62-2.86-4.26-3.81-1.65-.99-3.53-1.67-5.39-2.12-3.77-.9-7.84-.32-11.83.51-2.5.54-2.29.09-.32-.99.99-.53,2.43-1.22,4.29-1.84,1.85-.61,4.19-1.12,6.84-.94,1.16.1,2.34.27,3.47.59,1.12.34,2.22.75,3.24,1.26,2.13,1.01,4.13,2.52,5.67,4.28,3.14,3.55,4.93,7.97,5.64,12.47.36,2.26.45,4.55.27,6.84-.22,2.28-.67,4.56-1.51,6.75-.85,2.18-2.05,4.25-3.57,6.03-1.51,1.79-3.31,3.29-5.23,4.52-1.68,1.08-3.45,1.97-5.23,2.76-.87.38-1.74.76-2.62,1.14-.42.19-.82.38-1.18.56-.4.23-.45.25-.55.39,0,.02-.08.1-.1.2-.04.09-.08.18-.09.28-.05.19-.05.42-.03.68.06.53.28,1.17.59,1.85l1.06,2.25c.2.45.34.86.48,1.26l.43,1.23c.51,1.67.95,3.37,1.17,5.15.2,1.77.24,3.6-.06,5.43-.28,1.58-.84,3.14-1.67,4.57-.85,1.42-2.01,2.61-3.26,3.61-1.31.92-2.69,1.73-4.14,2.24-1.43.59-2.97.96-4.52,1.16-3.12.39-6.35-.16-9.15-1.41-2.84-1.21-5.3-3.01-7.52-4.98-2.72-2.44-5.06-5.2-7.26-8-1.1-1.39-2.15-2.83-3.23-4.13-.27-.32-.54-.64-.8-.9l-.19-.19-.17-.14c-.1-.09-.29-.18-.43-.28-.61-.36-1.28-.58-1.99-.67-1.09-.13-2.28.05-3.49.37-1.21.32-2.44.77-3.68,1.23-2.49.93-5.08,1.92-7.88,2.37-2.78.47-5.78.26-8.45-.79-1.31-.51-2.64-1.19-3.78-2.13-1.12-.94-2.06-2.06-2.83-3.28-1.16-1.9-1.93-3.99-2.32-6.12-.4-2.13-.51-4.32-.21-6.49.67-4.31,2.21-8.13,3.77-11.95.7-1.67,1.39-3.31,2.17-4.95,1.45-3.05,2.5-5,3.38-6.29.91-1.28,1.59-1.93,2.33-2.36.33-.2.71-.49.98-.58.45-.14.51.47.23,1.7-.29,1.23-.89,3.06-1.91,5.29-1.47,3.31-2.95,6.66-4.28,10.06-.67,1.7-1.29,3.41-1.84,5.12-.55,1.71-1,3.44-1.18,5.01-.3,3.24.3,6.76,1.92,9.44.8,1.34,1.83,2.46,3.08,3.19.58.37,1.39.72,2.11.98.75.25,1.51.45,2.29.54,2.31.31,4.76-.11,7.31-.94,2.56-.8,5.14-2.03,8.31-2.84,1.6-.37,3.46-.63,5.44-.16.97.25,1.94.63,2.75,1.18.2.11.44.29.68.49.26.21.38.35.56.52.33.33.6.64.86.94,1.98,2.38,3.56,4.61,5.37,6.75l-.06.07Z"/><path class="cls-4" d="m324.52,273.02c-2.01.64-4.02,1.28-5.99,2.05l-2.97,1.11c-.98.4-1.94.82-2.91,1.23-1.41.61-2.81,1.27-4.18,1.96l-3.67,1.76c-1.21.62-2.39,1.29-3.58,1.93l-1.79.98c-.59.33-1.16.71-1.74,1.06l-3.46,2.17c-.98.7-1.93,1.44-2.89,2.18-.95.74-1.92,1.46-2.77,2.3-1.14,1.03-2.27,2.06-3.41,3.1-1.05,1.12-2.17,2.17-3.35,3.19-.89.51-.79.43-.55-.44.11-.44.36-1,.68-1.67.34-.65.72-1.45,1.31-2.15,2.12-2.45,4.42-4.79,7.04-6.71,1.27-1.01,2.54-2.02,3.93-2.87,1.37-.87,2.71-1.79,4.13-2.58,1.72-.9,3.42-1.92,5.14-2.91,1.76-.93,3.5-1.89,5.27-2.78,1.98-.89,3.95-1.82,5.96-2.66,2.03-.78,4.03-1.64,6.08-2.35l3.79-1.32c1.26-.44,2.55-.79,3.82-1.2,3.86-1.22,7.82-2.14,11.73-3.07,1.52-.35,3.04-.67,4.55-1.04,1.52-.33,3.05-.6,4.6-.88.69-.08,1.37-.19,2.07-.25.65-.05,1.19-.1,1.65-.06.47.04.84.11,1.15.21.61.2.94.52,1.18,1,.11.22.25.44.3.65.16.71-.9,1.32-2.6,1.47-5.18.73-10.71,1.86-16.23,3.2-4.09,1.04-8.21,2.11-12.23,3.48l-.03-.07Z"/><path class="cls-4" d="m268.15,194.11c-.56,1.54-1.05,3.16-1.52,4.82-.16.6-.25,1.23-.42,1.83-.6,2.15-1.2,4.33-1.99,6.49-.37.95-.69,1.93-1.19,2.85-.33.58-.66,1.18-1.15,1.68-.49.49-1.07.91-1.71,1.15-.4.16-.44-.08-.33-.51.13-.41.29-1.06.56-1.62,1.08-1.87,1.72-4.18,2.48-6.59.46-1.45.58-3.05.86-4.61.31-1.71.66-3.44,1.14-5.16.28-1.06.64-2.11,1-3.15.57-1.58,1.34-3.11,2.22-4.58.68-1.14,1.35-2.34,2.32-3.37.2-.24.41-.46.65-.67.91-.73,1.42-.63,2.04.05.14.16.3.31.42.49.4.59.34,1.31-.07,1.82-.59.81-1.19,1.49-1.76,2.26-.56.77-1.09,1.59-1.59,2.48-.73,1.33-1.38,2.81-1.89,4.38l-.07-.02Z"/><path class="cls-4" d="m252.76,113.68c.19-.69.43-1.32.77-1.96.08-.16.18-.32.27-.48.09-.15.26-.41.4-.6.29-.41.66-.74,1.06-1.01.59-.42,1.33-.43,2.03-.32.29.08.66.17.86.25l.59.25c.38.18.74.36,1.08.56.69.39,1.32.81,1.94,1.21.55.36,1.13.65,1.68.94.71.41,1.45.62,2.05,1.31.2.2.13.31-.16.48-.14.09-.35.21-.61.33-.12.05-.27.13-.4.16-.13.01-.26.02-.38-.01-1.81-.31-3.29-1.13-4.65-1.91-.41-.25-.85-.39-1.29-.49l-.58-.09c-.09-.02-.18-.03-.27-.05-.21-.08-.39.07-.53.23-.05.04-.21.3-.3.5-.11.21-.2.43-.29.66-.21.55-.35,1.19-.36,1.62,0,.07,0,.11,0,.14-.07,0-.25.09-.35.18-.1.09-.1.05-.14.12l-.03.08s.01-.03.02-.04c0-.03,0-.05,0-.07,0-.06-.01-.28-.08-.38-.01-.02-.04-.08-.04-.09h.01s.03-.01.03-.01c.01,0,.05-.02.08-.04.29-.17.65-.55.92-.93.46-.61.67-1.39,1-2.08.08-.15.13-.31.21-.46.32-.54.57-.62,1.24-.46.15.04.3.06.44.11.47.14.77.6.71,1.16-.07.83-.24,1.66-.65,2.38-.39.75-.83,1.45-1.58,2.22-.16.15-.29.29-.52.46-.18.15-.49.35-.91.51-.14.05-.29.09-.44.11-.17.02-.25.06-.51.04-.46-.02-.94-.15-1.25-.37-.79-.53-.94-1.01-1.13-1.44-.21-.7-.21-1.2-.2-1.6.03-.43.1-.79.18-1.15h.08Z"/><path class="cls-4" d="m254.02,137.64s-.1.31-.11.3c.1-.22.11-.26.04-.1-.02.05-.04.09-.07.14-.1.2-.22.39-.34.58l-.06.08c-.1.14-.08.11.07-.09-.02,0-.19.22-.2.23-.14.15-.29.29-.44.42-.29.25-.05-.02.01,0-.03-.01-.21.15-.25.18-.18.12-.38.24-.57.34-.09.05-.18.09-.28.14-.37.19.27-.09-.04.02-.19.07-.39.14-.59.2s-.4.11-.6.15c-.1.02-.2.04-.3.06-.34.06.35-.03.03,0-.43.03-.86.05-1.29.02-.14-.01-.39-.11.05.01-.09-.03-.19-.03-.28-.05-.18-.04-.37-.08-.54-.14-.09-.03-.17-.06-.26-.09-.3-.1.31.17.05.03-.18-.1-.36-.19-.54-.3-.72-.46-1.83-.17-2.22.58-.43.81-.18,1.73.58,2.22,1.82,1.17,4.27,1.24,6.29.61,2.31-.72,4.24-2.35,4.99-4.69.26-.81-.3-1.81-1.13-2-.89-.2-1.72.27-2,1.13h0Z"/><path class="cls-4" d="m316.8,249.18c-.13.11-.28.18-.42.28-.06.04-.14.06-.15.15-.03.16-.51.07-.46.18.1.22-1.08,1-1.12,1.12-.02.05-.06.08-.09.13-.03.05-.04.11-.07.15-.02.03-.06.06-.1.07-.04.02-.1.01-.13.05-.05.07-.37.35-.39.46,0,.02-.05,0-.08,0-.22,0-.9.77-1.09.88-.03.02-.06.04-.04.1.04.21-1.11,1.01-.94,1.2.05.05.05.09.03.11-.02.04-.06.06-.11.08-.04.01-.05.04-.03.1.03.12-.11.12-.27.11-.03,0-.17-.08-.26-.14l-1.97-1.34-.04-.03c-.52-.38-.97-.82-.72-.8.2,0,.6-.55.69-.56.14-.03.45-.59.57-.76.03-.05,1.17-1.05,1.28-1.26.07-.17.38-.42.4-.44.03-.03,1.04-1.15,1.15-1.28.02-.03.06-.03.07-.06.14-.24.32-.45.56-.58,0,0,.02,0,.02-.01.07-.23.28-.29.43-.43.23-.22.47-.44.72-.64.07-.06.17-.08.25-.12.1-.05.21-.08.23-.25,0-.03.02-.05.04-.05.14.01.14-.16.23-.21.11-.08.22-.15.32-.22.01,0,.03-.01.04-.02.12-.14.24-.29.37-.41.04-.04.11-.02.18-.01.1.02.16,0,.19-.1.04-.13.16-.04.4.28.15.2.3.41.43.65.17.3.35.61.52.91.19.33.79,1.36.8,1.51,0,.04,0,.08-.03.07-.21-.06-.26.11-.39.18-.11.06-.18.18-.33.2-.1,0-.16.07-.17.2,0,.12-.47.5-.53.56Z"/><g class="cls-7"><path class="cls-4" d="m322.19,253.26s-.09.03-.14.04c-.02,0-.05,0-.04.05.03.11-.25-.16-.2-.05.12.22-.32.27-.31.34,0,.03-.02.03-.02.05,0,.02,0,.06,0,.07,0,.01-.02.01-.04,0-.02,0-.06-.04-.06-.02,0,.03-.13.07-.11.14,0,.01-.03-.02-.04-.03-.13-.1-.35.1-.45.08-.02,0-.02,0,0,.04.09.16-.47.11-.32.29.05.06.05.07.05.08,0,.01-.02,0-.05,0-.02-.01-.02,0,0,.04.05.09-.04.02-.15-.06-.02-.02-.13-.13-.21-.21l-1.63-1.74-.04-.04c-.44-.47-.84-.95-.66-.83.14.1.3-.06.36-.03.09.05.17-.17.22-.23.01-.02.53-.17.54-.27,0-.08.14-.13.15-.13,0,0,.37-.38.39-.43,0-.01.02,0,.03-.02.02-.12.08-.2.18-.2,0,0,0,0,0,0-.02-.15.09-.11.14-.16.08-.08.15-.16.24-.22.02-.02.07,0,.11,0,.04,0,.1.02.06-.11,0-.02,0-.03.01-.02.08.06.04-.07.07-.08.04-.01.08-.04.12-.06,0,0,.01,0,.02,0,.03-.07.05-.15.09-.2.01-.02.05.02.09.05.05.05.08.05.07-.02-.01-.09.07.02.27.37.13.22.25.44.38.69.16.3.32.62.49.92.18.34.74,1.39.78,1.51.01.03.02.06,0,.04-.11-.12-.09,0-.14,0-.04,0-.04.08-.11.03-.04-.03-.06,0-.03.1.03.09-.1.21-.11.23Z"/></g><path class="cls-4" d="m283.09,224.31c-.09.12-.21.2-.31.3-.04.04-.11.07-.1.15,0,.15-.45.11-.38.21.15.21-.79.98-.8,1.08,0,.05-.05.07-.06.12-.02.04-.02.1-.04.14-.02.03-.05.05-.08.07-.03.02-.09.01-.11.04-.03.07-.29.32-.29.42,0,.02-.04,0-.07,0-.2,0-.74.68-.92.78-.03.01-.05.04-.03.09.07.2-.96.84-.8,1.02.05.05.05.08.04.1-.02.03-.05.05-.1.06-.04,0-.04.04-.03.08.04.12-.1.1-.25.07-.03,0-.16-.09-.25-.15l-1.91-1.43-.04-.03c-.5-.4-.95-.84-.72-.79.19.04.5-.39.58-.39.13,0,.34-.46.43-.59.02-.03.92-.8.97-.99.03-.14.27-.35.28-.37.02-.02.72-.99.76-1.08.01-.02.04-.03.05-.05.07-.21.18-.39.36-.51,0,0,.01,0,.01-.01,0-.2.17-.26.26-.39.14-.2.29-.4.44-.59.04-.05.12-.08.18-.12.07-.05.16-.08.12-.23,0-.03,0-.04.02-.04.12,0,.07-.15.13-.2.07-.07.14-.14.21-.22,0,0,.02-.01.03-.03.06-.13.11-.27.18-.39.02-.03.08-.03.14-.03.09,0,.13-.02.13-.11-.01-.11.12-.05.43.21.19.16.39.32.58.52.24.24.49.49.74.74.27.27,1.12,1.11,1.17,1.24.01.03.02.07,0,.07-.2-.02-.2.14-.29.22-.08.07-.11.19-.24.22-.08.02-.12.09-.09.21.02.11-.29.52-.33.57Z"/><g class="cls-5"><path class="cls-4" d="m284.62,232.91s-.04,0-.06,0c0,0-.04-.02,0,.03.06.09-.21-.18-.13-.08.16.19-.09.13-.06.18.02.02,0,.02,0,.03,0,.01.03.04.03.05,0,0,0,0-.02,0-.01,0-.05-.04-.05-.03,0,.02-.05.02,0,.08,0,.01-.02-.02-.04-.03-.12-.09-.18,0-.26-.03-.01,0-.02,0,.02.03.14.12-.28,0-.09.14.06.04.07.06.07.06,0,0-.01,0-.04-.01-.02-.01-.01,0,.02.03.08.06-.02,0-.14-.06-.02-.02-.16-.1-.25-.16l-2-1.3-.04-.03c-.54-.35-1.05-.72-.85-.63.16.07.24-.07.29-.05.1.04.09-.15.11-.2,0-.02.4-.15.37-.24-.02-.07.08-.11.08-.11,0,0,.2-.33.2-.37,0-.01.02,0,.02-.01-.01-.11.02-.18.1-.18,0,0,0,0,0,0-.05-.13.05-.09.07-.14.04-.07.09-.14.14-.19.02-.02.06,0,.09,0,.04,0,.08.02.03-.1,0-.02,0-.03,0-.02.07.06.01-.06.04-.07.03-.01.06-.03.08-.05,0,0,.01,0,.01,0,.01-.06.02-.13.04-.18,0-.01.04.02.08.05.05.05.07.05.06-.01-.03-.09.06.02.28.36.13.21.27.43.42.66.18.29.36.59.54.89.2.33.82,1.34.89,1.45.02.03.03.06.02.04-.1-.13-.05-.03-.07-.03-.02,0,0,.05-.05,0-.03-.03-.03-.01.02.07.05.08.02.15.02.16Z"/></g><path class="cls-4" d="m264.41,256.42c-.13-.05-.24-.14-.36-.21-.05-.03-.09-.08-.17-.05-.14.05-.23-.39-.3-.3-.15.2-1.14-.44-1.25-.42-.05,0-.08-.02-.13-.02-.04,0-.1.01-.14,0-.03,0-.06-.03-.09-.05-.03-.02-.04-.08-.07-.09-.07,0-.39-.17-.48-.14-.02,0-.02-.04-.03-.06-.06-.19-.86-.47-1.01-.6-.02-.02-.05-.03-.09,0-.16.13-1.09-.61-1.2-.39-.03.07-.06.07-.08.07-.03,0-.06-.03-.09-.07-.02-.03-.05-.03-.09,0-.09.07-.12-.06-.15-.2,0-.03.03-.18.06-.29l.66-2.29.02-.05c.2-.61.45-1.19.49-.96.03.19.54.34.57.41.05.12.55.17.71.21.04,0,1.08.6,1.27.59.15-.01.42.14.44.15.03,0,1.18.37,1.28.39.03,0,.04.03.07.03.23,0,.43.05.6.19,0,0,0,.01.02.01.2-.06.3.09.45.14.24.08.47.16.7.25.07.03.11.1.17.14.07.06.13.13.26.05.02-.01.04-.01.05,0,.03.11.16.03.23.07.09.05.18.09.27.14.01,0,.02.02.03.02.14.02.29.03.43.06.04,0,.05.07.07.13.02.09.06.12.14.09.11-.04.08.1-.08.47-.1.23-.21.46-.34.7-.17.3-.34.61-.51.91-.19.33-.76,1.38-.87,1.47-.03.02-.06.04-.06.01-.03-.2-.19-.15-.28-.21-.09-.06-.21-.05-.27-.16-.04-.07-.12-.09-.22-.03-.1.06-.56-.12-.63-.14Z"/><path class="cls-4" d="m258.15,258.19s-.06.05-.08.08c-.01.01-.05,0,0,.05.08.07-.28-.04-.18.02.21.13-.1.29-.06.34.02.02,0,.02,0,.04,0,.02.03.04.04.06,0,.01,0,.01-.02.02-.02,0-.06-.01-.06,0,.01.03-.07.08-.02.13.01.01-.03,0-.05-.01-.15-.04-.23.15-.33.15-.01,0-.02,0,.02.03.15.11-.34.17-.13.28.07.04.07.05.07.05,0,0-.02.01-.05,0-.02,0-.02,0,.02.03.08.06-.03.02-.16-.03-.03-.01-.17-.08-.26-.13-.7-.36-1.41-.73-2.12-1.09-.02,0-.03-.02-.05-.02-.57-.3-1.12-.6-.92-.53.16.06.2-.06.26-.04.1.03.05-.13.05-.16,0,0,.32-.15.26-.23-.04-.06.03-.1.04-.1,0,0,.05-.3.04-.33,0,0,.02,0,.01-.01-.06-.08-.06-.14,0-.16,0,0,0,0,0,0-.1-.09,0-.08,0-.12,0-.06,0-.12.03-.18,0-.02.05-.01.08-.02.03,0,.07,0-.03-.08-.02-.01-.02-.02,0-.02.09.02-.02-.05,0-.07.02-.02.03-.04.04-.06,0,0,0,0,0,0-.03-.05-.06-.1-.07-.15,0-.01.04,0,.09.02.07.02.09.02.04-.02-.07-.06.06,0,.42.18.22.11.45.23.7.36.3.16.61.33.92.49.34.18,1.39.74,1.5.81.03.02.05.04.03.03-.16-.05-.07.03-.1.05-.02.02.02.07-.06.06-.05,0-.04.02.04.08.07.06.05.19.05.2Z"/><g class="cls-5"><path class="cls-4" d="m232.6,234.06c-.14-.04-.25-.13-.38-.2-.05-.03-.1-.08-.17-.05-.14.06-.25-.39-.32-.29-.15.21-1.17-.41-1.27-.39-.05.01-.08-.02-.13-.02-.05,0-.1.02-.14.01-.03,0-.06-.02-.09-.05-.03-.02-.04-.08-.08-.09-.08,0-.39-.16-.49-.13-.02,0-.02-.04-.03-.06-.07-.19-.86-.45-1-.58-.02-.02-.05-.03-.09,0-.16.14-1.06-.56-1.14-.32-.03.07-.05.08-.07.08-.03,0-.06-.03-.08-.06-.02-.03-.04-.02-.07.02-.08.09-.1-.04-.13-.18,0-.03.01-.19.03-.29l.42-2.35v-.05c.14-.63.34-1.23.42-.99.07.19.64.31.67.38.06.12.59.15.75.19.05,0,1.11.58,1.29.57.15-.02.42.14.44.14.03,0,1.18.34,1.28.35.03,0,.04.03.07.03.22-.01.42.04.59.16,0,0,0,.01.02.01.19-.07.3.08.45.12.23.07.47.14.7.22.06.02.11.09.17.13.07.05.13.12.26.03.02-.02.04-.02.05,0,.04.11.16.02.23.05.09.05.18.08.27.12.01,0,.02.02.03.02.14.01.29.01.42.03.04,0,.06.07.07.13.02.08.07.12.14.08.1-.05.09.09-.05.47-.08.24-.17.47-.29.73-.14.31-.3.63-.44.94-.16.35-.66,1.43-.77,1.53-.03.02-.06.04-.06.02-.05-.2-.2-.14-.31-.2-.09-.05-.22-.04-.29-.15-.05-.07-.12-.08-.23-.02-.09.06-.58-.09-.65-.11Z"/></g><path class="cls-4" d="m227.36,240.06c-.06,0-.11-.05-.16-.07-.02,0-.04-.05-.08,0-.06.1-.1-.29-.14-.18-.07.24-.51-.04-.56,0-.02.02-.04,0-.06.02-.02.01-.04.04-.06.05-.02,0-.03,0-.04-.02-.01-.01-.02-.07-.03-.06-.03.02-.17-.04-.21.02,0,.01-.01-.03-.01-.05-.03-.16-.39-.19-.45-.28-.01-.01-.02-.02-.04.03-.07.18-.49-.28-.53-.04-.01.07-.02.09-.03.09-.01,0-.03-.01-.04-.04,0-.03-.02-.01-.04.03-.04.1-.06-.02-.07-.16,0-.03,0-.18.01-.29l.18-2.38v-.05c.06-.64.14-1.26.17-1.05.02.18.26.18.28.24.03.11.26,0,.33,0,.02,0,.51.27.6.2.07-.06.2.01.21.01.01,0,.56,0,.61-.03.01,0,.02.02.03,0,.11-.07.2-.09.29-.02,0,0,0,0,0,0,.09-.12.15-.02.22-.02.11,0,.23,0,.34,0,.03,0,.05.05.08.08.03.03.06.08.13-.04.01-.02.02-.03.02,0,.02.09.08-.03.11-.01.04.02.09.02.13.03,0,0,0,0,.02,0,.07-.03.14-.07.21-.09.02,0,.03.05.03.1,0,.07.03.09.07.03.05-.08.04.06-.04.46-.05.25-.1.5-.16.77-.08.33-.16.68-.24,1.01-.09.37-.36,1.53-.41,1.65-.01.03-.03.06-.03.04-.01-.17-.08-.07-.13-.09-.04-.02-.1.03-.12-.05-.02-.05-.05-.04-.1.05-.04.08-.25.09-.28.09Z"/><g class="cls-5"><path class="cls-4" d="m216.57,112.11c-.18-.01-.36-.08-.54-.11-.08-.02-.15-.06-.23-.01-.15.09-.45-.33-.5-.22-.11.24-1.61-.17-1.73-.13-.06.02-.11,0-.17,0-.06,0-.12.03-.18.04-.05,0-.09-.01-.13-.03-.04-.02-.08-.08-.13-.07-.1,0-.55-.09-.66-.04-.02.01-.04-.03-.06-.06-.14-.18-1.25-.31-1.48-.42-.04-.02-.07-.02-.12.01-.17.17-1.57-.44-1.65-.21-.02.07-.06.08-.08.08-.05,0-.09-.02-.13-.06-.03-.03-.07-.02-.11.02-.1.09-.18-.04-.24-.18-.01-.03-.01-.19,0-.29.08-.79.17-1.58.26-2.37,0-.02,0-.03,0-.05.1-.64.26-1.24.36-1.02.08.19.73.25.78.32.09.12.7.08.9.09.05,0,1.45.41,1.67.35.17-.04.54.06.57.06.04,0,1.52.11,1.64.1.03,0,.06.02.09.01.26-.06.52-.05.77.04,0,0,.01.01.02,0,.21-.11.39.01.58.02.3.02.61.03.91.06.09,0,.16.06.25.09.1.04.2.09.32-.02.02-.02.04-.02.06,0,.08.1.2-.02.29,0,.12.03.24.04.37.06.01,0,.03.01.04,0,.17-.02.35-.06.52-.06.05,0,.09.05.13.11.06.08.12.1.2.05.1-.07.14.07.11.48-.01.25-.04.5-.09.78-.07.33-.12.69-.19,1.02-.07.38-.28,1.55-.38,1.67-.02.03-.05.06-.07.03-.13-.18-.3-.09-.45-.13-.14-.03-.28,0-.41-.08-.08-.06-.18-.05-.29.03-.09.08-.75.03-.84.03Z"/></g><path class="cls-4" d="m218.24,122.54c-.07.01-.13-.02-.2-.03-.03,0-.06-.04-.08.02-.05.11-.19-.26-.2-.15-.02.25-.62.06-.66.12-.02.03-.04.01-.07.03-.02.02-.04.05-.06.06-.02,0-.04,0-.05-.01-.02-.01-.04-.06-.06-.05-.04.02-.23-.01-.26.06,0,.01-.02-.03-.03-.05-.07-.15-.53-.12-.64-.2-.02-.01-.03-.01-.05.03-.06.19-.72-.23-.8,0-.01.07-.03.09-.05.09-.03,0-.05-.01-.08-.05-.02-.03-.04-.01-.08.02-.08.09-.15-.03-.19-.18-.01-.03,0-.19.02-.29.11-.78.24-1.57.37-2.35v-.05c.05-.21.09-.43.11-.57.05-.34.05-.31.08-.48-.07.17.11.16.13.22.03.1.22-.01.29-.03,0,0,.54.2.63.11.06-.07.21-.02.22-.02,0,0,.59-.11.64-.14.01,0,.02.01.04,0,.1-.09.2-.13.31-.08,0,0,0,0,0,0,.07-.14.16-.05.23-.06.12-.03.25-.06.38-.07.04,0,.07.04.11.06.05.02.09.06.14-.07,0-.02.02-.03.03-.01.04.09.09-.04.13-.04.06.01.12,0,.18.01,0,0,.01,0,.02,0,.08-.04.2-.09.3-.12.03,0,.05.04.08.09.05.07.1.09.16.04.09-.08.11.07.07.47-.03.25-.07.5-.13.77-.06.33-.13.68-.2,1.02-.07.38-.26,1.55-.27,1.68,0,.03,0,.06,0,.04.04-.16-.03-.05-.06-.07-.02-.02-.06.04-.11-.03-.03-.05-.06-.03-.08.07-.02.09-.24.13-.27.14Z"/><path class="cls-4" d="m150.78,181.42c-.28.03-.44-.28-.53-.72-.03-.14.08-.52.17-.56.17-.08.34-.17.51-.23.1-.02,1.57-.13,2.08-.27.49-.13.95-.11,1.4-.05.92.09,1.85.12,2.78.13.21,0,.41.04.61.1.69.22,1.4.23,2.11.14.12-.01.24,0,.35-.12.19-.17,2.08-.34,2.33-.28.62.16,1.25.22,1.88.32.09.02.18-.05.27.08.23.3.41.22.6.22.27,0,.54,0,.82.07.14.03.3.21.46.34.14.12.16.65.13.71-.1.18.04.41.09.62.02.07.04.17.04.22.02.15-1.49,1.22-1.68,1.22-.02,0-.63.12-1.27.24-.64.1-1.3.21-1.45.24-.14.03-.29-.04-.44-.08-.07,0-2.01.22-2.09.2-.4-.05-.81.04-1.21-.25-.08-.06-.16-.05-.24-.05-.69-.01-1.38-.18-2.05-.33-.35-.07-.7-.09-1.05-.14-.06,0-.12-.06-.18-.08-.08-.03-.15-.08-.23-.09-.41-.06-.82-.14-1.22-.24-.2-.05-.41-.09-.61-.13-.2-.05-.4-.12-.6-.16-.19-.04-1-.59-1.21-.63-.12-.03-.43-.47-.54-.45Z"/><path class="cls-4" d="m160.78,162.66c-.19-.08-.03-.34.29-.69.1-.11.48-.34.56-.33.16.01.32.02.46.05.07.02.88.61,1.19.79.31.17.47.43.65.67l1.1,1.5c.08.11.14.24.17.38.11.49.36.89.68,1.25.05.06.08.14.21.15.21.02.95,1.06.96,1.25.05.45.17.86.26,1.29.01.06.08.09,0,.2-.18.26-.07.34-.02.46.07.17.13.34.14.54,0,.1-.09.26-.16.4-.06.13-.46.33-.51.33-.16,0-.3.17-.45.27-.05.03-.12.08-.16.1-.1.05-1.27-.41-1.32-.51,0,0-.25-.3-.51-.61-.26-.3-.53-.62-.6-.68-.07-.06-.06-.17-.07-.27,0-.04-.79-.95-.81-1-.09-.23-.3-.39-.22-.73.02-.07-.02-.1-.05-.14-.24-.35-.38-.76-.54-1.16-.08-.2-.22-.37-.32-.56-.02-.03,0-.09-.02-.13,0-.05,0-.11-.03-.15-.27-.43-.44-.93-.76-1.33-.06-.1-.08-.75-.17-.85-.04-.06.13-.46.05-.49Z"/><path class="cls-4" d="m411.88,176.85l4.12-4.21c.47-.5.93-1.04,1.32-1.47.35-.39.63-.79.78-1.14.15-.35.15-.61.02-.9-.13-.28-.48-.58-.94-.8-.45-.22-1.01-.38-1.57-.51-.99-.23-2.02-.27-3.02-.18-1.3.13-2.52.51-3.81.78-.4.09-.54-.32-.37-.86.17-.54.69-1.25,1.52-1.53,1.48-.44,3.04-.6,4.58-.47.77.06,1.54.2,2.28.42.75.21,1.58.51,2.33,1.17.44.39.87.95,1.06,1.59.21.64.16,1.34,0,1.9-.34,1.13-.96,1.93-1.57,2.62l-3.9,4.16-.6.64c-.17.18-.22.22-.35.34-.08.11-.25.2-.27.33.04.14.11.27.21.38.15.17.33.31.55.42.33.17.71.31,1.1.43.81.23,1.68.43,2.53.59,1.33.24,2.66.27,3.99.33.29.01.58,0,.88.02,1.09.08,1.41.28,1.58,1.03.04.17.09.34.11.51.06.57-.44.99-1.29,1.06-2.51.2-5.12-.21-7.67-.84-.45-.11-1-.26-1.54-.45-.28-.11-.53-.21-.85-.37-.41-.22-.82-.47-1.15-.77-.71-.59-1.08-1.36-1.34-2.14-.15-.21.04-.37.11-.54l.26-.52.13-.26c.07-.09.15-.17.23-.26l.47-.52.06.03Z"/><g class="cls-6"><path class="cls-4" d="m382.79,225.12c-.81-.21-1.78-.3-2.81-.39-.38-.03-.77.01-1.16-.05-.72-.13-1.37-.21-2.25-.57-.43-.18-.9-.51-1.21-.94-.31-.42-.47-.89-.54-1.33-.12-.77.04-1.56.31-2.19.35-.82.84-1.49,1.5-1.89.21-.12.5.16.7.59.2.42.35.99.21,1.32-.27.58-.36,1.08-.32,1.35.03.16.01.3.01.4,0,.11-.04.14,0,.26.06.14.37.24.78.26.4.03.82.01,1.26.02.95.03,1.98.03,3.07.12.67.06,1.36.17,2.04.35,1.12.3,2.06.93,2.89,1.67.63.57,1.38,1.21,1.73,2.25.06.23.17.46.17.71.03.95-.37,1.22-1.2,1.07-.19-.03-.39-.06-.57-.12-.63-.21-1.06-.58-1.26-.75-.26-.27-.55-.35-.74-.57-.21-.22-.48-.49-.8-.73-.24-.18-.49-.34-.74-.46-.25-.12-.67-.24-1.06-.31v-.07Z"/></g><path class="cls-4" d="m367.08,58.84c-1.08-.23-2.48-.16-4.01-.28-.56-.05-1.17-.05-1.8-.24-.55-.16-1.12-.44-1.61-.83-.49-.4-.88-.88-1.16-1.44-.54-1.13-.52-2.31-.26-3.32.23-.91.63-1.76,1.11-2.47.61-.93,1.31-1.77,2.21-2.29.57-.34,1.27,1.63.6,2.46-.6.72-1.09,1.43-1.38,2.09-.28.66-.4,1.39-.32,2,.04.37.29.68.61.89.32.21.74.34,1.25.42,1.13.2,2.54.09,4.03.17.91.04,1.96.23,2.85.63,1.38.58,2.5,1.6,3.38,2.72.69.87,1.37,1.8,1.77,2.93.08.25.17.5.23.76.15.99-.13,1.33-.92,1.44-.18.03-.37.06-.55.06-.62,0-1.08-.36-1.27-.8-.56-1.3-1.21-2.49-2.21-3.46-.74-.71-1.62-1.23-2.58-1.39v-.07Z"/><path class="cls-4" d="m142.37,79.04c-.38.95-.84,1.98-1.57,2.97-.27.35-.5.76-.86,1.06-.32.27-.65.51-1.03.68-.36.2-.74.35-1.13.44-.78.2-1.55.21-2.25.12-.62-.07-1.22-.14-1.79-.22-.74-.11-1.49-.16-2.07-.65-.36-.3.94-2.47,1.65-2.33,1.28.26,2.3.5,3.25.59.61.05,1.04-.43,1.43-.85.45-.49.83-1.21,1.14-2.04.18-.51.36-1.05.52-1.61.26-.88.52-1.77.77-2.64.18-.71.27-1.5.59-2.29.08-.17.13-.36.23-.53.4-.6.78-.61,1.46-.05.16.13.32.25.47.39.48.48.74,1.05.71,1.37-.08.95-.28,1.77-.6,2.9-.21.82-.51,1.73-.83,2.71l-.08-.02Z"/><g class="cls-6"><path class="cls-4" d="m127.84,266.4c-1.24-.97-2.3-2.36-2.64-4.07-.13-.6-.23-1.26-.15-1.81.12-.96.4-1.7.5-2.32.11-.62.08-1.02-.2-1.4-.24-.32-.74-.5-1.31-.53-.74-.04-1.52.2-2.4.09-.27-.03-.39-.62-.28-1.26.11-.63.46-1.34,1.06-1.46,1.04-.18,2.25-.31,3.64.28.67.31,1.34.88,1.73,1.56.41.68.56,1.48.52,2.12-.04.78-.15,1.4-.21,1.98-.06.56-.1,1.06-.11,1.45-.04.81.33,1.69,1.04,2.42.43.45.97.83,1.56,1.1.88.4,1.95.61,3.01.53.83-.06,1.63-.36,2.44-.63.18-.06.35-.14.53-.19.69-.17.95-.02,1.26.72.07.17.15.33.21.51.19.58,0,1.13-.49,1.43-1.45.86-3.28,1.36-5.32,1.17-1.48-.11-3.14-.68-4.43-1.63l.04-.06Z"/></g><path class="cls-3" d="m384.58,101.56c0,3.71-5.83,3.78-5.84,0,0-3.63,5.83-3.88,5.84,0Z"/><path class="cls-4" d="m326.49,48.22c0,3.71-5.83,3.78-5.84,0,0-3.63,5.83-3.88,5.84,0Z"/><path class="cls-4" d="m101.36,147.58c0,3.71-5.83,3.78-5.84,0,0-3.63,5.83-3.88,5.84,0Z"/><path class="cls-4" d="m191.26,258.61c0,3.71-5.83,3.78-5.84,0,0-3.63,5.83-3.88,5.84,0Z"/><path class="cls-4" d="m409.99,103.6c0,2.18-3.43,2.22-3.43,0,0-2.13,3.43-2.28,3.43,0Z"/><path class="cls-3" d="m377.35,27.32c0,2.18-3.43,2.22-3.43,0,0-2.13,3.43-2.28,3.43,0Z"/><path class="cls-2" d="m134,124.58c0,.08-.01.17-.02.26-.18,1.46-2.18,2.31-3.36,1.42-3.5-2.65,3.61-5.78,3.38-1.68Z"/><path class="cls-4" d="m200.4,304.03c0,1.19-.97,2.16-2.16,2.16s-2.16-.97-2.16-2.16c0-2.64,4.32-2.86,4.32,0Z"/><path class="cls-4" d="m195.96,54.56c.43-1.93.85-3.82,1.11-5.67.27-1.84.34-3.69-.07-5.19,0-.02-.01-.03,0-.05-.03-.04-.02-.06-.08-.15-.05-.09-.14-.21-.21-.32-.18-.23-.38-.48-.6-.72-.43-.49-.91-.98-1.38-1.48-1.64-1.74-3.42-3.41-5.26-5-.92-.79-1.86-1.55-2.82-2.25-.23-.17-.51-.36-.69-.48-.11-.08-.22-.15-.34-.22-.21-.12-.57-.35-.76-.07-.03.07-.09.12-.12.18-.56.63.39,3.1,1.6,4.76,1.59,2.21,3.58,4.31,5.8,5.69.69.32.68.57-.22.74-.44.06-1.09.05-1.84-.11-.73-.18-1.51-.55-2.24-1.09-.87-.66-1.69-1.38-2.45-2.16-.75-.79-1.4-1.68-2-2.63-.59-.96-1.12-2-1.44-3.24l-.11-.54c-.07-.23-.05-.49-.08-.73-.03-.25-.01-.48,0-.72.02-.24.03-.48.09-.7.15-.93.64-1.68,1.24-2.24l.46-.31c.13.06.18-.05.28-.07l.25-.12c.35-.09.72-.05,1.09.02.76.15,1.54.63,2.25,1.06.91.62,1.63,1.19,2.38,1.82,2.78,2.39,5.7,4.67,8.29,7.47.31.35.61.69.91,1.09.15.19.3.41.45.63.15.23.33.56.44.9.55,1.8.56,3.51.46,5.16-.11,1.65-.38,3.24-.69,4.79-.47,2.45-1.08,4.84-1.41,7.19-.07.45-.1.88-.15,1.32.03.35,0,.66.13,1.09.07.4.2.82.34,1.24.12.42.29.84.46,1.26.67,1.68,1.47,3.34,2.33,4.95,1.35,2.51,2.94,4.83,4.47,7.21.34.52.7,1.02,1.03,1.56.61,1,.95,1.69,1.09,2.25.11.56.04.98-.17,1.38-.1.19-.17.4-.28.54-.19.23-.51.2-.92-.04-.41-.24-.96-.69-1.47-1.37-3.1-4.07-6.02-8.59-8.44-13.64-.44-.95-.85-1.92-1.2-2.99l-.26-.81c-.08-.28-.14-.6-.21-.9-.15-.49-.21-1.55-.17-2.11.2-2.23.66-4.22,1.05-6.18h.08Z"/><path class="cls-4" d="m194.71,107.07l11.05,17.66c1.34,2.15,2.75,4.26,4.06,6.43,4.64,7.64,9.09,15.4,13.41,23.23,1.91,3.48,3.87,6.95,5.69,10.45,1.18,2.24,2.35,4.49,3.45,6.78.54,1.15,1.03,2.32,1.51,3.5l.7,1.77c.22.59.4,1.21.59,1.82.45,1.53.29,1.36-.57.29-.9-1.05-2.46-3.02-3.93-5.51l-3.68-6.75c-1.25-2.24-2.5-4.48-3.75-6.72-2.51-4.49-5.02-8.99-7.54-13.51-3.03-5.41-6.59-10.8-9.96-16.18-3.71-5.91-7.46-11.81-11.23-17.7-2.31-3.63-4.63-7.26-6.89-10.95-.85-1.42-1.69-2.79-2.44-4.39-.19-.44-.48-1.09-.35-1.65.06-.29.11-.59.21-.85.11-.25.2-.48.32-.71.49-.89,1.18-1.55,1.88-2.11,1.42-1.11,2.95-1.8,4.45-2.5,1.51-.68,3.01-1.29,4.49-1.94,4.59-1.98,8.89-4.31,12.52-7.44.8-.68,1.53-1.41,2.27-2.16,1.34-1.42,2.21-2.35,2.84-3.02.67-.63,1.16-.94,1.74-1.07.26-.06.56-.18.79-.18.38,0,.44.42.21,1.19-.11.38-.3.86-.6,1.38-.28.53-.65,1.13-1.13,1.75-2.79,3.76-6.68,6.81-10.87,9.13-2.09,1.18-4.27,2.18-6.44,3.13-2.16.94-4.32,1.85-6.23,2.87-1.39.74-2.68,1.66-3.05,2.45-.05.09-.08.21-.11.26-.02.04,0,.01-.02.02h0s0,0,0,.01c0,.01.05.12.08.19.3.66.72,1.41,1.13,2.14,1.71,2.95,3.59,5.92,5.46,8.86l-.06.05Z"/></svg>